<?xml version="1.0" encoding="UTF-8"?>
<svg width="50px" height="19px" viewBox="0 0 50 19" version="1.1" xmlns="http://www.w3.org/2000/svg" xmlns:xlink="http://www.w3.org/1999/xlink">
    <title>amundi</title>
    <g id="Page-1" stroke="none" stroke-width="1" fill="none" fill-rule="evenodd">
        <g id="amundi" transform="translate(0.132604, 0.130340)" fill-rule="nonzero">
            <polygon id="Path" fill="#00AEEF" transform="translate(47.720008, 17.305527) scale(-1, 1) rotate(-180.000000) translate(-47.720008, -17.305527) " points="47.3853959 16.0513937 47.3853959 17.9842754 46.6819525 17.9842754 46.6819525 18.5596595 48.7580628 18.5596595 48.7580628 17.9842754 48.0623807 17.9842754 48.0623807 16.0513937"></polygon>
            <polygon id="Path" fill="#00AEEF" transform="translate(45.267726, 17.305527) scale(-1, 1) rotate(-180.000000) translate(-45.267726, -17.305527) " points="44.1883959 16.0513937 44.1883959 18.5596595 44.8689085 18.5596595 45.6852414 17.2321484 45.6852414 18.5596595 46.3470567 18.5596595 46.3470567 16.0513937 45.733925 16.0513937 44.8463306 17.4692166 44.8463306 16.0513937"></polygon>
            <polygon id="Path" fill="#00AEEF" transform="translate(42.835146, 17.305527) scale(-1, 1) rotate(-180.000000) translate(-42.835146, -17.305527) " points="41.9023959 16.0513937 41.9023959 18.5596595 43.6888738 18.5596595 43.6888738 17.9842754 42.5755001 17.9842754 42.5755001 17.5708172 43.4817919 17.5708172 43.4817919 17.0402361 42.5755001 17.0402361 42.5755001 16.6303057 43.7678965 16.6303057 43.7678965 16.0513937"></polygon>
            <polygon id="Path" fill="#00AEEF" transform="translate(40.040625, 17.313111) scale(-1, 1) rotate(-180.000000) translate(-40.040625, -17.313111) " points="38.7393959 16.0665633 38.7393959 18.5748291 39.4311974 18.5748291 40.055618 17.0818641 40.6461718 18.5748291 41.3418539 18.5748291 41.3418539 16.0665633 40.6913276 16.0665633 40.6913276 17.2924738 40.1910856 16.0513937 39.9166227 16.0513937 39.3899222 17.2998822 39.3899222 16.0665633"></polygon>
            <polygon id="Path" fill="#00AEEF" transform="translate(37.386146, 17.305527) scale(-1, 1) rotate(-180.000000) translate(-37.386146, -17.305527) " points="36.4533959 16.0513937 36.4533959 18.5596595 38.2398738 18.5596595 38.2398738 17.9842754 37.1265001 17.9842754 37.1265001 17.5708172 38.0327919 17.5708172 38.0327919 17.0402361 37.1265001 17.0402361 37.1265001 16.6303057 38.3188965 16.6303057 38.3188965 16.0513937"></polygon>
            <path d="M34.9803475,16.9300215 L34.9803475,17.4274413 L35.9681315,17.4274413 L35.9681315,16.1535527 C35.6326377,16.0269047 35.2879717,16.0099712 35.1556792,16.0022101 C34.7115291,15.9753988 34.3174739,16.0773522 34.0500666,16.4297794 C33.8839073,16.648503 33.8133513,16.9236714 33.7992401,17.1942537 C33.7847761,17.4761249 33.821818,17.7650517 33.9488188,18.0194061 C34.1128615,18.3489026 34.4201329,18.558454 34.783849,18.6039626 C35.1461541,18.6494712 35.5582011,18.5753874 35.7980915,18.2776411 C35.8559475,18.2060267 35.9049839,18.1259457 35.9452008,18.0381035 L35.383575,17.7516461 C35.3384192,17.8472495 35.2847966,17.9216861 35.2234129,17.9742503 C35.071012,18.1040733 34.8268882,18.0673842 34.6889512,17.93615 C34.5488976,17.8020936 34.5030362,17.6080646 34.4903361,17.4207385 C34.4483553,16.78009 34.7640934,16.6241612 34.8678107,16.5818276 C34.9874031,16.5327912 35.1771987,16.5391412 35.3384192,16.5645414 L35.3384192,16.9300215 L34.9803475,16.9300215 Z" id="Path" fill="#00AEEF" transform="translate(34.882212, 17.307231) scale(1, -1) translate(-34.882212, -17.307231) "></path>
            <path d="M31.1393959,16.0475132 L32.1134214,18.5596595 L32.7417226,18.5596595 L33.7231566,16.0475132 L33.0010159,16.0475132 L32.8394427,16.4800214 L31.997004,16.4800214 L31.8315502,16.0475132 L31.1393959,16.0475132 Z M32.1437605,16.9915524 L32.684925,16.9915524 L32.4143428,17.7549684 L32.1437605,16.9915524 Z" id="Shape" fill="#00AEEF" transform="translate(32.431276, 17.303586) scale(-1, 1) rotate(-180.000000) translate(-32.431276, -17.303586) "></path>
            <polygon id="Path" fill="#00AEEF" transform="translate(29.751550, 17.305527) scale(-1, 1) rotate(-180.000000) translate(-29.751550, -17.305527) " points="28.6723959 16.0513937 28.6723959 18.5596595 29.3529085 18.5596595 30.1692414 17.2321484 30.1692414 18.5596595 30.8307039 18.5596595 30.8307039 16.0513937 30.217925 16.0513937 29.3303306 17.4692166 29.3303306 16.0513937"></polygon>
            <path d="M25.7803959,16.0475132 L26.7544214,18.5596595 L27.3823698,18.5596595 L28.3641566,16.0475132 L27.6420159,16.0475132 L27.4800899,16.4800214 L26.638004,16.4800214 L26.4721974,16.0475132 L25.7803959,16.0475132 Z M26.7844077,16.9915524 L27.325925,16.9915524 L27.0553428,17.7549684 L26.7844077,16.9915524 Z" id="Shape" fill="#00AEEF" transform="translate(27.072276, 17.303586) scale(-1, 1) rotate(-180.000000) translate(-27.072276, -17.303586) "></path>
            <polygon id="Path" fill="#00AEEF" transform="translate(24.170625, 17.313111) scale(-1, 1) rotate(-180.000000) translate(-24.170625, -17.313111) " points="22.8693959 16.0665633 22.8693959 18.5748291 23.5615502 18.5748291 24.185618 17.0818641 24.7761718 18.5748291 25.4718539 18.5748291 25.4718539 16.0665633 24.8213276 16.0665633 24.8213276 17.2924738 24.3210856 16.0513937 24.0466227 16.0513937 23.5199222 17.2998822 23.5199222 16.0665633"></polygon>
            <polygon id="Path" fill="#00AEEF" transform="translate(20.745008, 17.305527) scale(-1, 1) rotate(-180.000000) translate(-20.745008, -17.305527) " points="20.4103959 16.0513937 20.4103959 17.9842754 19.7069525 17.9842754 19.7069525 18.5596595 21.7830628 18.5596595 21.7830628 17.9842754 21.0873807 17.9842754 21.0873807 16.0513937"></polygon>
            <polygon id="Path" fill="#00AEEF" transform="translate(18.579146, 17.305527) scale(-1, 1) rotate(-180.000000) translate(-18.579146, -17.305527) " points="17.6463959 16.0513937 17.6463959 18.5596595 19.4328738 18.5596595 19.4328738 17.9842754 18.3195001 17.9842754 18.3195001 17.5708172 19.2257919 17.5708172 19.2257919 17.0402361 18.3195001 17.0402361 18.3195001 16.6303057 19.5118965 16.6303057 19.5118965 16.0513937"></polygon>
            <path d="M15.7051539,16.7989242 C15.767047,16.7230404 15.8429863,16.6597976 15.9288164,16.6126563 C16.0311226,16.5540948 16.1485983,16.529753 16.2657213,16.5322225 C16.3606191,16.5343392 16.4982033,16.5537421 16.5493564,16.6458176 C16.6040373,16.744596 16.5557064,16.8578384 16.4671587,16.9139304 C16.3764942,16.970728 16.2703074,17.0035366 16.1694123,17.0366979 C15.9397526,17.1121928 15.6910427,17.1763988 15.5026581,17.3358553 C15.3135681,17.4956647 15.2497149,17.7447273 15.2916957,17.9839122 C15.3534322,18.3398672 15.6786954,18.5398935 16.0134836,18.5910466 C16.3641469,18.6446691 16.7814856,18.587166 17.0478345,18.3331644 C17.1028682,18.2806002 17.1480241,18.2280359 17.1833021,18.1754717 L16.7317437,17.825514 C16.7092679,17.8588794 16.6841391,17.8903789 16.6566015,17.9197062 C16.5752713,18.0052937 16.4698237,18.0641081 16.3542691,18.0883351 C16.2509045,18.1102074 16.1196704,18.110913 16.0251253,18.057996 C15.9355192,18.008254 15.8967134,17.8900727 15.9651527,17.8050527 C16.0314754,17.7232078 16.1496567,17.6868714 16.24526,17.6537101 C16.4756254,17.5743346 16.7257464,17.5203593 16.9278893,17.3771306 C17.1247406,17.2377825 17.2210495,17.0271728 17.2242245,16.7883408 C17.2351607,16.0030525 16.203632,15.8443015 15.6395368,16.124056 C15.4702024,16.2080177 15.3379099,16.3138517 15.2426593,16.441558 L15.7051539,16.7989242 Z" id="Path" fill="#00AEEF" transform="translate(16.233485, 17.302573) scale(1, -1) translate(-16.233485, -17.302573) "></path>
            <path d="M13.5090984,16.7992579 C13.564132,16.7290547 13.6389214,16.6673182 13.7327609,16.6133429 C13.8356693,16.5563882 13.952119,16.5284647 14.0696658,16.5325563 C14.1645636,16.5346729 14.3021478,16.5540758 14.3533009,16.6465042 C14.4079818,16.7452826 14.3596509,16.858525 14.2711032,16.9142642 C14.1804387,16.9714146 14.0742519,17.0042231 13.9733568,17.0373844 C13.7436971,17.1128794 13.4949872,17.1767325 13.3066026,17.3361891 C13.1175126,17.4959984 13.0536594,17.7450611 13.0956402,17.9845987 C13.1573767,18.3405538 13.4826399,18.5402272 13.8174281,18.5913803 C14.1680914,18.6453557 14.5854301,18.5878525 14.851779,18.3338509 C14.9068127,18.2809339 14.9519686,18.2283697 14.9872466,18.1758055 L14.5356882,17.8262005 C14.5132031,17.8594487 14.4880743,17.8908302 14.460546,17.92004 C14.3792491,18.0057391 14.2738026,18.0646759 14.1582136,18.0890216 C14.054849,18.1101884 13.9236149,18.110894 13.8290698,18.0583298 C13.7394637,18.0085878 13.7006579,17.8904065 13.7690972,17.8053865 C13.8354199,17.7235415 13.9536012,17.6872052 14.0492045,17.6540439 C14.2795699,17.5746684 14.5296909,17.5210458 14.7318338,17.3778171 C14.9286851,17.2381163 15.024994,17.0275066 15.028169,16.7890273 C15.0391052,16.0033863 14.0075765,15.8446353 13.4434813,16.1243898 C13.2741469,16.2083514 13.1418544,16.3141854 13.0466038,16.4422446 L13.5090984,16.7992579 Z" id="Path" fill="#00AEEF" transform="translate(14.037430, 17.303005) scale(1, -1) translate(-14.037430, -17.303005) "></path>
            <path d="M10.2873959,16.0475132 L11.2614214,18.5596595 L11.8893698,18.5596595 L12.8711566,16.0475132 L12.1490159,16.0475132 L11.9870899,16.4800214 L11.145004,16.4800214 L10.9795502,16.0475132 L10.2873959,16.0475132 Z M11.2914077,16.9915524 L11.832925,16.9915524 L11.5623428,17.7549684 L11.2914077,16.9915524 Z" id="Shape" fill="#00AEEF" transform="translate(11.579276, 17.303586) scale(-1, 1) rotate(-180.000000) translate(-11.579276, -17.303586) "></path>
            <polygon id="Path" fill="#00154E" points="0.08639586 12.2256595 48.7593959 12.2256595 48.7593959 14.1376595 0.08639586 14.1376595"></polygon>
            <g id="Group" transform="translate(46.313758, -0.000000)" fill="#00154E">
                <polygon id="Path" points="0.19063808 2.88765954 2.44463808 2.88765954 2.44463808 10.3146595 0.19063808 10.3146595"></polygon>
                <path d="M2.63385548,1.21426876 C2.63385548,0.57820642 2.18864712,0 1.31692774,0 C0.44485558,0 -7.10542736e-15,0.57820642 -7.10542736e-15,1.21426876 C-7.10542736e-15,1.8503311 0.49071698,2.42148192 1.31692774,2.42148192 C2.1431385,2.42148192 2.63385548,1.8503311 2.63385548,1.21426876" id="Path"></path>
            </g>
            <path d="M43.0942875,10.3582374 L43.0942875,7.66723155 C42.728094,7.76511186 42.3507888,7.81526903 41.9717415,7.81645749 C40.516524,7.81645749 39.7185357,7.12606703 39.3893919,6.79586495 C38.6732485,6.07795765 38.2950684,5.05560121 38.2897767,4.05229489 C38.2774294,1.61246841 39.6112906,0.64549843 40.2734586,0.34140207 C40.7119642,0.13996469 41.2192618,0.02742787 41.7022176,0.05776695 C42.1280231,0.08422545 42.764791,0.26132101 43.2135271,0.66419577 L43.2819665,0.21369571 L45.3489045,0.21369571 L45.3489045,10.3582374 L43.0942875,10.3582374 Z M43.0942875,2.45279037 C42.9602311,2.27110867 42.7467992,2.14763567 42.5414812,2.06402681 C41.7565457,1.74370257 40.7553561,2.10318539 40.5443937,3.44269105 C40.468546,3.92529409 40.4731321,4.38284975 40.6534027,4.84993047 C40.8185037,5.27608871 41.2587732,5.93543453 42.2384432,5.92982605 C42.5302438,5.92531801 42.8193458,5.87312236 43.0942875,5.77527241 L43.0942875,2.45279037 Z" id="Shape" fill="#00154E" transform="translate(41.819298, 5.205553) scale(1, -1) translate(-41.819298, -5.205553) "></path>
            <path d="M36.8052784,9.8714409 C35.9610759,10.6122789 34.625098,10.5780592 33.9897413,10.3589829 C33.8793211,10.3208826 33.3328649,10.1462565 32.8883621,9.710926 L32.7962865,10.3191187 L30.7289957,10.3191187 L30.7289957,2.89204138 L32.9977239,2.89204138 L32.9977239,8.0140542 C33.1832862,8.18091914 33.395307,8.32379504 33.6122667,8.44762082 C33.8482765,8.58203 34.4123717,8.75171718 34.8967386,8.4797238 C35.2943217,8.25606128 35.4760034,7.7335941 35.4760034,7.10458736 L35.4760034,2.89204138 L37.7447316,2.89204138 L37.7447316,7.25310774 C37.7447316,8.85261226 37.155589,9.56381674 36.8052784,9.8714409" id="Path" fill="#00154E" transform="translate(34.236864, 6.694194) scale(1, -1) translate(-34.236864, -6.694194) "></path>
            <path d="M29.7323922,10.6198012 L27.4643696,10.6198012 L27.4643696,5.47591598 C27.2784496,5.33509431 27.0803436,5.21113048 26.8724048,5.10549698 C26.6448617,4.99190182 26.0800609,4.84690924 25.6031023,5.03035484 C25.090513,5.22791164 25.0150181,6.05800298 25.0150181,6.4210136 L25.0150181,10.6198012 L22.7462899,10.6198012 L22.7462899,6.22945406 C22.7462899,5.4050072 22.8926936,4.51035712 23.4603166,3.87464756 C24.0342897,3.23258796 24.9391704,2.99305034 25.7777284,3.05090626 C26.1652112,3.07874905 26.5431873,3.18394901 26.8893382,3.36029432 C27.1288758,3.48200342 27.3705301,3.6358155 27.5582091,3.8298445 L27.654518,3.1930766 L29.7323922,3.1930766 L29.7323922,10.6198012 Z" id="Path" fill="#00154E" transform="translate(26.239341, 6.831180) scale(1, -1) translate(-26.239341, -6.831180) "></path>
            <path d="M12.5809342,10.3187659 L10.4956516,10.3187659 L10.4956516,2.89204138 L12.7647326,2.89204138 L12.7647326,8.03063486 C12.9429351,8.19879977 13.1454727,8.33913701 13.3655169,8.44691526 C13.6184602,8.56897714 14.2464086,8.79052298 14.7000836,8.41057892 C15.0518053,8.11565484 15.0655637,7.4196199 15.0655637,7.22241588 L15.0655637,2.89204138 L17.3191224,2.89204138 L17.3191224,7.33989162 C17.3191224,7.611885 17.2884305,7.87858668 17.2457441,8.14705226 C17.4521204,8.28675314 17.6838969,8.38658988 17.91144,8.48783774 C18.4279099,8.71714474 19.0174053,8.6031968 19.2096704,8.4691404 C19.6252452,8.17915524 19.6668733,7.5219261 19.6668733,7.22241588 L19.6668733,2.89204138 L21.9200791,2.89204138 L21.9200791,7.30955254 C21.9200791,8.12129932 21.8057784,9.14330298 21.0769349,9.80300158 C20.342447,10.4679919 19.2114343,10.4856309 18.9747189,10.4923337 C17.579474,10.4708141 16.524309,9.72433164 16.524309,9.72433164 C16.0219503,10.236921 14.7882786,10.7156434 13.7743889,10.3589829 C13.6639688,10.3198243 13.1175126,10.1462565 12.6730098,9.71057322 L12.5809342,10.3187659 Z" id="Path" fill="#00154E" transform="translate(16.207865, 6.692188) scale(1, -1) translate(-16.207865, -6.692188) "></path>
            <path d="M5.95739586,0.16965954 L4.22877386,0.16965954 L-1.16573418e-15,10.314554 L2.39043728,10.314554 L3.21770638,8.34039712 L6.96881612,8.34039712 L7.79573244,10.314554 L10.1861697,10.314554 L5.95739586,0.16965954 Z M6.30558972,6.4145711 L3.88058,6.4145711 L5.09343764,3.24907616 L6.30558972,6.4145711 Z" id="Shape" fill="#00154E"></path>
        </g>
    </g>
</svg>