<?xml version="1.0" encoding="utf-8"?>
<!-- Generator: Adobe Illustrator 15.0.0, SVG Export Plug-In . SVG Version: 6.00 Build 0)  -->
<!DOCTYPE svg PUBLIC "-//W3C//DTD SVG 1.1//EN" "http://www.w3.org/Graphics/SVG/1.1/DTD/svg11.dtd">
<svg version="1.1" id="Calque_1" xmlns="http://www.w3.org/2000/svg" xmlns:xlink="http://www.w3.org/1999/xlink" x="0px" y="0px"
	 width="227.123px" height="20.517px" viewBox="-34.698 -10.067 227.123 20.517"
	 enable-background="new -34.698 -10.067 227.123 20.517" xml:space="preserve">
<g id="Crédit_mutuel">
	<g>
		<polygon fill="#DE060E" points="160.745,7.575 159.76,9.198 192.424,9.198 192.425,7.575 		"/>
		<polygon fill="#DE060E" points="-34.698,7.575 -34.697,9.198 -2.033,9.198 -3.019,7.575 		"/>
		<g>
			<defs>
				<rect id="SVGID_1_" x="-34.698" y="-10.067" width="227.122" height="20.517"/>
			</defs>
			<clipPath id="SVGID_2_">
				<use xlink:href="#SVGID_1_"  overflow="visible"/>
			</clipPath>
			<path clip-path="url(#SVGID_2_)" fill="#28419A" d="M44.364,9.161V7.922c-1.317,1.788-3.339,1.752-4.938,1.282
				c-1.45-0.427-2.508-1.647-3.083-3.045c-1.316-3.199-0.535-7.492,2.874-9.003c1.592-0.707,3.903-0.424,5.115,1.033
				c0,0,0.016-5.059,0.002-5.309h3.248L47.589,9.16L44.364,9.161 M39.547,5.968c0.676,1.053,2.05,1.384,2.981,0.923
				c2.622-1.3,2.392-5.669,0.526-7.202c-1.31-1.075-3.436-0.182-4.083,1.971C38.603,2.886,38.729,4.694,39.547,5.968"/>
			<path clip-path="url(#SVGID_2_)" fill="#28419A" d="M6.744,6.634c2.2,0.52,4.016-0.689,4.428-2.51h3.31
				c-0.38,2.3-1.849,4.042-3.872,4.851c-3.317,1.327-7.184,0.44-9.383-2.682C-0.749,3.487-0.855,0.005,0.31-3.103
				c1.492-3.978,6.069-6.134,10.041-4.568c2.087,0.821,3.381,2.435,4.132,5.053c0.007,0.001-3.335-0.003-3.335-0.003
				c-0.513-1.582-1.773-2.873-3.631-2.821C6.317-5.408,5.188-4.944,4.19-3.628C1.779-0.449,2.369,5.601,6.744,6.634"/>
			<path clip-path="url(#SVGID_2_)" fill="#28419A" d="M19.015-2.83l0.121,1.31c0.783-1.213,2.468-1.672,3.645-1.483l-0.002,2.578
				c-1.09-0.148-3.493,0.389-3.584,2.821l-0.002,3.896l0.005,2.892h-3.193L16.002-2.828L19.015-2.83z"/>
			<path clip-path="url(#SVGID_2_)" fill="#28419A" d="M57.835,9.172c-0.922,0-2.578-0.256-2.578-3.875l-0.005-5.956l-1.611,0.001
				L53.64-2.855l1.61,0.001v-3.935h3.305l-0.002,3.935l2.082-0.001l0.001,2.211l-2.11-0.002l0.005,5.892
				c0,1.664,0.659,1.626,2.352,1.603l-0.001,2.33L57.835,9.172z"/>
			<path clip-path="url(#SVGID_2_)" fill="#28419A" d="M115.256,8.175c-0.017-0.007-0.312,0.293-0.43,0.382
				c-2.544,1.893-5.73,0.9-6.501-1.517c-0.217-0.68-0.438-1.777-0.391-2.849l-0.006-7.037h3.174l-0.002,6.768
				c0,2.607,1.28,3.042,2.349,2.795c0.798-0.186,1.809-0.476,1.809-2.395l0.003-7.17l3.163,0.002V9.178l-3.079-0.008
				C115.324,9.166,115.271,8.182,115.256,8.175"/>
			<path clip-path="url(#SVGID_2_)" fill="#DE060E" d="M82.477-1.64c0.076,0.314,0.125,0.64,0.125,0.977
				c0,2.027-1.433,3.702-3.34,4.108c-1.062-2.174-2.949-2.956-4.573-2.953c-0.012-0.032-0.02-0.06-0.032-0.094
				c-0.239-0.653-0.568-1.592-0.06-2.899c0.685-1.406,2.115-2.383,3.784-2.383c1.089,0,2.074,0.423,2.823,1.102l-3.738-6.285H71.74
				l-3.787,6.297c0.75-0.686,1.741-1.113,2.838-1.113c1.382,0,2.593,0.676,3.36,1.704c-0.865,1.772-0.406,3.086-0.139,3.814
				c0.041,0.113,0.077,0.21,0.103,0.294l0.037,0.125c-0.75,1.647-2.472,2.509-3.986,2.435c-0.022-0.003-0.046-0.004-0.07-0.009
				c-0.085-0.006-0.166-0.025-0.249-0.037c-1.876-0.429-3.278-2.1-3.278-4.105c0-0.366,0.061-0.714,0.149-1.053l-3.624,6.023
				l2.955,4.874h7.359c-1.73-0.527-2.997-2.117-2.997-4.02c0-0.35,0.057-0.684,0.137-1.008c1.712-0.08,3.538-1.112,4.303-2.984
				c0.916,0.037,2.636,0.393,3.692,2.371c-0.004,0.001-0.008,0.002-0.013,0.002c0.208,0.499,0.324,1.045,0.324,1.619
				c0,1.902-1.266,3.492-2.996,4.02h7.201l2.956-4.874L82.477-1.64z"/>
			<rect x="49.489" y="-2.845" clip-path="url(#SVGID_2_)" fill="#28419A" width="3.158" height="12.006"/>
			<rect x="49.516" y="-7.132" clip-path="url(#SVGID_2_)" fill="#28419A" width="3.066" height="2.772"/>
			<rect x="153.32" y="-7.22" clip-path="url(#SVGID_2_)" fill="#28419A" width="3.15" height="16.4"/>
			<polygon clip-path="url(#SVGID_2_)" fill="#28419A" points="29.877,-4.336 32.009,-7.348 28.409,-7.348 27.361,-4.336 			"/>
			<path clip-path="url(#SVGID_2_)" fill="#28419A" d="M143.104,4.039c0,3.332,4.799,3.514,5.36,1.45l3.185-0.006
				c-0.271,1.589-1.354,2.637-2.641,3.401c-1.569,0.93-3.979,0.78-5.644,0c-1.679-0.788-2.857-2.215-3.358-4.07
				c-0.796-2.945,0.376-5.758,3.075-7.323c1.794-1.042,3.488-0.732,4.508-0.417c2.472,0.762,4.524,3.419,4.193,6.963L143.104,4.039z
				 M144.642,1.7l4.01-0.001c-0.004-0.005-0.023-0.897-0.55-1.447c-0.465-0.488-0.741-0.665-1.289-0.809
				c-1.912-0.506-3.236,0.532-3.628,1.724c-0.075,0.229-0.171,0.54-0.159,0.537L144.642,1.7z"/>
			<path clip-path="url(#SVGID_2_)" fill="#28419A" d="M123.747,9.172c-0.922,0-2.577-0.256-2.577-3.875l-0.006-5.956l-1.611,0.001
				v-2.197l1.609,0.001v-3.935h3.307l-0.004,3.935l2.083-0.001v2.211l-2.108-0.002l0.004,5.892c0,1.664,0.659,1.626,2.354,1.603
				l-0.002,2.33L123.747,9.172z"/>
			<polygon clip-path="url(#SVGID_2_)" fill="#28419A" points="99,9.15 102.426,-2.845 102.426,9.159 105.585,9.159 105.585,-7.146 
				100.674,-7.146 97.418,4.343 94.162,-7.146 89.252,-7.146 89.252,9.159 92.41,9.159 92.41,-2.845 95.836,9.15 			"/>
			<path clip-path="url(#SVGID_2_)" fill="#28419A" d="M135.135,8.175c-0.017-0.007-0.312,0.293-0.43,0.382
				c-2.544,1.893-5.732,0.9-6.501-1.517c-0.219-0.68-0.439-1.777-0.392-2.849l-0.005-7.037h3.173l-0.002,6.768
				c0,2.607,1.279,3.042,2.348,2.795c0.799-0.186,1.811-0.476,1.811-2.395l0.002-7.17l3.162,0.002V9.178l-3.078-0.008
				C135.203,9.166,135.149,8.182,135.135,8.175"/>
			<path clip-path="url(#SVGID_2_)" fill="#28419A" d="M25.959,4.038c0,3.333,4.801,3.515,5.361,1.451l3.185-0.006
				c-0.27,1.59-1.354,2.637-2.642,3.401c-1.567,0.93-3.978,0.78-5.642,0c-1.68-0.788-2.858-2.215-3.359-4.07
				c-0.796-2.945,0.377-5.758,3.075-7.323c1.794-1.042,3.489-0.732,4.508-0.417c2.471,0.762,4.526,3.419,4.194,6.963L25.959,4.038z
				 M27.498,1.79l4.011-0.001c-0.004-0.004-0.023-0.896-0.549-1.447c-0.466-0.488-0.742-0.664-1.29-0.809
				c-1.912-0.504-3.236,0.533-3.628,1.724c-0.075,0.23-0.172,0.54-0.159,0.537L27.498,1.79z"/>
		</g>
	</g>
</g>
</svg>
