<?xml version="1.0" encoding="UTF-8" standalone="no"?>
<!-- Created with Inkscape (http://www.inkscape.org/) -->

<svg
   xmlns:dc="http://purl.org/dc/elements/1.1/"
   xmlns:cc="http://creativecommons.org/ns#"
   xmlns:rdf="http://www.w3.org/1999/02/22-rdf-syntax-ns#"
   xmlns:svg="http://www.w3.org/2000/svg"
   xmlns="http://www.w3.org/2000/svg"
   xmlns:sodipodi="http://sodipodi.sourceforge.net/DTD/sodipodi-0.dtd"
   xmlns:inkscape="http://www.inkscape.org/namespaces/inkscape"
   width="250mm"
   height="80mm"
   viewBox="0 0 885.82675 283.46458"
   id="svg3398"
   version="1.1"
   inkscape:version="0.91 r13725"
   sodipodi:docname="Hachette.svg">
  <defs
     id="defs3400" />
  <sodipodi:namedview
     id="base"
     pagecolor="#ffffff"
     bordercolor="#666666"
     borderopacity="1.0"
     inkscape:pageopacity="0.0"
     inkscape:pageshadow="2"
     inkscape:zoom="1.0464511"
     inkscape:cx="375.54643"
     inkscape:cy="73.141713"
     inkscape:document-units="px"
     inkscape:current-layer="layer1"
     showgrid="false"
     inkscape:window-width="1920"
     inkscape:window-height="1017"
     inkscape:window-x="-8"
     inkscape:window-y="-8"
     inkscape:window-maximized="1" />
  <metadata
     id="metadata3403">
    <rdf:RDF>
      <cc:Work
         rdf:about="">
        <dc:format>image/svg+xml</dc:format>
        <dc:type
           rdf:resource="http://purl.org/dc/dcmitype/StillImage" />
        <dc:title></dc:title>
      </cc:Work>
    </rdf:RDF>
  </metadata>
  <g
     inkscape:label="Calque 1"
     inkscape:groupmode="layer"
     id="layer1"
     transform="translate(0,-768.89763)">
    <path
       style="fill:#70787c;fill-opacity:0.94117647"
       d="m 22.388373,930.72987 0,-97.96874 37.499996,0 37.499995,0 0,30.46874 0,30.46875 30.468756,0 30.46875,0 0,6.5625 0,6.5625 -37.5,0 -37.500001,0 0,-30.48485 0,-30.48483 -23.67188,0.25047 -23.671866,0.25047 0,84.37499 0,84.37493 30.703116,0.2472 30.703125,0.2472 0,6.5496 0,6.5497 -37.499995,0 -37.499996,0 0,-97.96863 z m 121.874997,67.49998 0,-30.46873 -30.46875,0 -30.468751,0 0,-6.5625 0,-6.5625 37.500001,0 37.5,0 0,30.46875 0,30.46863 23.4375,0 23.4375,0 0,-84.84363 0,-84.84374 -30.46875,0 -30.46875,0 0,-6.5625 0,-6.5625 37.5,0 37.5,0 0,97.96874 0,97.96863 -37.5,0 -37.5,0 0,-30.46865 z m 123.75,-8.43748 0,-38.90625 4.6875,0 4.6875,0 0,34.6875 0,34.68738 18.75,0 18.75,0 0,4.2188 0,4.2187 -23.4375,0 -23.4375,0 0,-38.90613 z m 58.125,0 0,-38.90625 5.15625,0 5.15625,0 0,38.90625 0,38.90613 -5.15625,0 -5.15625,0 0,-38.90613 z m 46.40878,37.73433 c -2.42587,-6.9786 -24.84628,-75.59697 -24.84628,-76.04294 0,-0.32871 2.21484,-0.59391 4.92187,-0.58934 l 4.92188,0.008 9.26983,29.28858 c 5.09841,16.10865 9.54349,29.5992 9.87796,29.979 0.33447,0.3797 4.78193,-12.37445 9.88323,-28.34257 5.10131,-15.9682 9.55553,-29.48681 9.89827,-30.04138 0.35163,-0.56895 2.6539,-0.88263 5.28365,-0.71989 l 4.66049,0.28842 -12.69325,38.67188 -12.69325,38.67174 -4.03851,0 c -2.38855,0 -4.20495,-0.4787 -4.44589,-1.1718 z m 45.46622,-37.73433 0,-38.90625 16.70484,0 c 18.85883,0 24.35677,1.0581 29.65093,5.70644 4.67986,4.10897 7.08173,9.70984 7.08173,16.51374 0,4.40368 -0.59036,6.82079 -2.61033,10.68744 -2.12694,4.07146 -3.55467,5.49006 -7.71005,7.66086 -2.80486,1.46528 -5.20844,2.77288 -5.34129,2.90568 -0.13285,0.1329 3.72652,7.80782 8.57637,17.05552 l 8.81793,16.814 -5.22171,0.2852 c -2.87193,0.1569 -5.52731,-0.054 -5.90084,-0.4687 -0.37351,-0.4147 -4.4153,-8.0314 -8.98174,-16.9259 l -8.30262,-16.17185 -8.69411,0 -8.69411,0 0,16.87495 0,16.875 -4.6875,0 -4.6875,0 0,-38.90613 z m 37.44219,-4.99432 c 1.7568,-0.94217 3.96507,-3.15044 4.90724,-4.90724 3.43559,-6.40601 1.23671,-14.6546 -4.84943,-18.19155 -2.84173,-1.65146 -4.91377,-1.90689 -15.46875,-1.90689 l -12.1875,0 -0.26012,13.35937 -0.26011,13.35938 12.46225,0 c 10.27916,0 13.02178,-0.30008 15.65642,-1.71307 z m 33.80781,4.99432 0,-38.90625 24.84375,0 24.84375,0 0,4.21875 0,4.21875 -19.6875,0 -19.6875,0 0,13.125 0,13.125 16.875,0 16.875,0 0,4.21875 0,4.21871 -16.875,0 -16.875,0 0,13.12492 0,13.125 19.6875,0 19.6875,0 0,4.2188 0,4.2187 -24.84375,0 -24.84375,0 0,-38.90613 z M 376.03448,923.70191 c -5.54674,-1.17821 -13.12327,-5.47762 -15.7717,-8.9499 -3.32644,-4.36117 -5.06295,-10.26793 -5.05275,-17.18689 0.007,-4.5676 0.59531,-7.45012 2.22517,-10.89775 1.21881,-2.57812 3.42954,-5.82503 4.91272,-7.21537 5.86892,-5.50146 16.50155,-8.19868 32.46232,-8.23481 l 8.20313,-0.0186 0,4.6875 0,4.6875 -10.14234,0 c -11.82227,0 -18.34607,1.59595 -21.94526,5.36858 -3.29189,3.45054 -4.4749,6.84369 -4.4749,12.83506 0,5.85854 2.47612,10.19878 7.50319,13.15192 2.85255,1.67572 4.86005,1.92569 15.46556,1.92569 11.59773,0 12.39905,-0.12436 16.55903,-2.56983 2.40435,-1.41341 5.35748,-4.1556 6.5625,-6.09375 2.11155,-3.39619 2.20174,-4.33713 2.48814,-25.95863 0.24805,-18.72655 0.0516,-23.0777 -1.18852,-26.32491 -3.23656,-8.47481 -9.83599,-11.71417 -23.8359,-11.69996 -7.4881,0.008 -9.82654,0.38346 -13.74857,2.20978 -2.59919,1.21035 -5.89929,3.59523 -7.33354,5.29975 l -2.60775,3.09913 -3.88403,-3.88403 -3.88403,-3.88403 3.09805,-3.19638 c 7.21187,-7.44077 17.74671,-10.56683 32.75349,-9.71914 10.84812,0.61278 18.45333,3.17039 23.80542,8.00568 2.03239,1.83614 4.61391,5.05471 5.73673,7.15238 1.98251,3.70379 2.04943,4.8768 2.31667,40.61081 l 0.2752,36.79688 -5.66582,0 c -5.66582,0 -5.66582,0 -5.66582,-4.33002 l 0,-4.33002 -3.29687,2.51464 c -6.38798,4.87236 -11.2786,6.36343 -21.95558,6.69393 -5.44709,0.16861 -11.70837,-0.0768 -13.91394,-0.54524 z m 98.22889,-0.50512 c -7.80137,-2.18352 -14.63149,-6.7503 -19.23966,-12.86409 -7.34274,-9.74183 -10.48611,-22.05436 -9.50164,-37.21775 0.66475,-10.23878 2.11047,-15.58668 6.3782,-23.59376 6.86445,-12.87902 20.89456,-19.65489 38.01621,-18.35998 5.25202,0.39721 8.61794,1.27805 12.84163,3.36055 3.14821,1.55224 7.30707,4.44667 9.24192,6.43206 l 3.51792,3.60981 -3.70911,3.62185 -3.70911,3.62185 -3.9128,-3.53498 c -2.15204,-1.94424 -5.82443,-4.38058 -8.16086,-5.4141 -3.46102,-1.53097 -5.6534,-1.80192 -11.83351,-1.46248 -8.75705,0.48098 -13.25945,2.40991 -18.50167,7.92655 -5.08708,5.35338 -7.38625,10.75058 -8.56801,20.113 -0.7758,6.14631 -0.77612,10.50279 -9.4e-4,16.64203 1.25806,9.96695 4.03898,15.98719 9.86602,21.35837 5.59391,5.15629 12.08814,7.24818 20.75603,6.68584 3.67175,-0.2382 8.0722,-1.1578 9.77878,-2.04355 1.70658,-0.88575 4.78461,-3.1298 6.84005,-4.98677 l 3.73718,-3.37632 3.70911,3.62185 3.70912,3.62185 -3.51793,3.60981 c -1.93485,1.9854 -6.09892,4.88239 -9.25349,6.43775 -4.8254,2.37918 -7.13133,2.89188 -14.53125,3.23087 -6.14805,0.28163 -10.34777,-0.0315 -13.95192,-1.04026 z m 170.66747,0.41524 c -10.04842,-1.96974 -19.00774,-8.88315 -23.77323,-18.34446 -3.36365,-6.67813 -5.33398,-16.76905 -5.31547,-27.22277 0.0507,-28.61395 12.41555,-45.38709 34.5784,-46.90617 17.50598,-1.19989 30.76302,7.68262 36.70217,24.59125 1.26584,3.60383 2.16606,9.07781 2.50535,15.23436 l 0.52959,9.60938 -25.44715,0 -25.44713,0 0,-4.6875 0,-4.6875 19.81657,0 19.81658,0 -0.62485,-5.31652 c -0.6981,-5.93974 -3.21593,-12.27667 -6.68489,-16.82472 -1.26931,-1.66415 -4.63825,-4.16589 -7.48653,-5.55942 -4.02292,-1.96823 -6.54906,-2.5337 -11.31884,-2.5337 -4.91681,0 -7.18946,0.537 -11.4068,2.69531 -6.44324,3.29746 -10.84316,9.04112 -12.86126,16.78913 -1.69773,6.51801 -1.91673,23.36699 -0.39807,30.62565 0.57167,2.73241 2.30388,7.36741 3.84936,10.3 4.60078,8.73014 12.20603,12.83693 23.90419,12.90812 8.23134,0.0501 15.18242,-2.31823 20.72269,-7.0605 l 3.89812,-3.33664 3.74497,3.10977 c 2.05972,1.71037 3.75257,3.39793 3.76186,3.75013 0.0313,1.1852 -7.91187,7.15053 -12.63963,9.49241 -2.57797,1.27699 -6.92283,2.78905 -9.65524,3.36014 -5.71502,1.19446 -14.7185,1.20064 -20.77076,0.0143 z m 172.1736,-0.44978 c -14.08991,-3.41272 -22.92951,-13.46756 -26.45087,-30.08726 -2.75228,-12.98989 -1.13631,-31.58787 3.65379,-42.05082 3.24689,-7.09214 9.11099,-13.04197 16.38297,-16.62248 5.75127,-2.83176 6.8512,-3.04497 15.58366,-3.0208 7.5686,0.021 10.44597,0.44502 14.79707,2.18078 6.56679,2.61966 13.62385,9.21744 17.01316,15.90594 3.33042,6.57225 5.21122,15.1493 5.22779,23.84039 l 0.0139,7.26562 -25.3125,0 -25.3125,0 0,-4.6875 0,-4.6875 19.6875,0 19.6875,0 0,-3.18249 c 0,-5.05687 -3.43709,-14.78769 -6.55386,-18.55478 -1.57267,-1.90082 -5.17771,-4.59028 -8.01118,-5.97657 -3.93414,-1.92479 -6.54941,-2.52052 -11.06512,-2.52052 -10.52329,0 -18.31317,5.1484 -23.04202,15.22867 -2.29355,4.88905 -2.41982,5.95492 -2.3885,20.16194 0.0298,13.49936 0.25346,15.55512 2.23595,20.54888 3.005,7.56941 8.29653,13.09959 14.92783,15.60112 4.27702,1.61343 6.75436,1.92423 12.80315,1.60627 8.48115,-0.4458 14.14457,-2.54652 19.46928,-7.22167 l 3.43651,-3.01731 3.78148,3.03889 c 2.07981,1.67139 3.78148,3.34644 3.78148,3.72235 0,1.08246 -6.10385,6.1549 -10.52231,8.74428 -8.33084,4.8822 -22.66886,6.48647 -33.82412,3.78457 z m -549.09107,-66.49487 0,-67.03125 5.6104,0 5.6104,0 0.24898,26.30912 0.24897,26.30913 3.24957,-2.90185 c 1.78727,-1.59601 5.58415,-4.0484 8.4375,-5.44974 4.64501,-2.28127 6.21809,-2.54783 15.03168,-2.54716 8.63342,6.5e-4 10.47773,0.29893 15,2.42594 6.55977,3.08534 11.8311,8.35641 14.9178,14.91706 2.42595,5.15625 2.42595,5.15625 2.71263,40.07812 l 0.28668,34.92187 -5.67731,0 -5.6773,0 0,-30.42261 c 0,-18.10472 -0.40692,-32.31999 -1.005,-35.10877 -2.24486,-10.46739 -10.76707,-16.94177 -22.32373,-16.95945 -3.29174,-0.005 -7.72143,0.50651 -9.84375,1.13677 -4.85047,1.44043 -11.876,8.32925 -13.65096,13.38532 -0.99958,2.84736 -1.40571,11.47881 -1.68728,35.85937 l -0.37082,32.10937 -5.55923,0 -5.55923,0 0,-67.03124 z m 258.75,0 0,-67.03125 6.09375,0 6.09375,0 0,26.43391 0,26.4339 3.04687,-2.82756 c 4.37832,-4.06317 7.22128,-5.63994 13.41597,-7.44078 11.14746,-3.24066 25.12154,-0.31241 33.46395,7.01232 4.43205,3.89139 7.94503,11.39384 9.11085,19.45747 0.50887,3.51972 0.93358,19.58307 0.94379,35.69636 l 0.0186,29.29687 -6.04958,0 -6.04959,0 -0.27854,-33.51562 c -0.27061,-32.56136 -0.33783,-33.62648 -2.36071,-37.40931 -2.6785,-5.00887 -7.80397,-9.20577 -13.02921,-10.66874 -2.40652,-0.67379 -6.83609,-0.96302 -10.61147,-0.69289 -10.4435,0.74723 -16.94351,5.51517 -20.23438,14.8425 -1.11906,3.17175 -1.38652,10.05567 -1.38652,35.68693 l 0,31.75713 -6.09375,0 -6.09375,0 0,-67.03124 z m 196.76883,65.7392 c -2.37871,-0.64103 -5.63486,-2.19459 -7.23589,-3.45236 -1.60103,-1.25777 -4.08451,-4.60716 -5.51883,-7.4431 -2.60786,-5.15625 -2.60786,-5.15625 -2.89759,-37.73437 l -0.28975,-32.57812 -6.03838,0 -6.03839,0 0,-4.21875 0,-4.21875 6.09375,0 6.09375,0 0,-14.53125 0,-14.53125 5.60058,0 5.60059,0 0.25878,14.29688 0.2588,14.29687 8.67187,0.26956 8.67188,0.26955 0,4.18357 0,4.18357 -8.98212,0 -8.98213,0 0.31025,31.64062 c 0.2886,29.43294 0.4382,31.85216 2.14406,34.67234 2.35774,3.89792 6.59888,5.87453 12.60475,5.87453 l 4.78019,0 0,5.15625 0,5.15625 -5.39063,-0.0633 c -2.96484,-0.0348 -7.33683,-0.58776 -9.71554,-1.22877 z m 48.38742,0.41541 c -7.22331,-1.7585 -13.32947,-7.35278 -15.33616,-14.05051 -0.71113,-2.37354 -1.07009,-14.30619 -1.07009,-35.57225 l 0,-32.0006 -6.09375,0 -6.09375,0 0,-4.17401 c 0,-4.17402 0,-4.17402 5.85937,-4.45313 l 5.85938,-0.27911 0.2588,-14.29687 0.25878,-14.29688 5.60059,0 5.60058,0 0,14.53125 0,14.53125 8.4375,0 8.4375,0 0,4.21875 0,4.21875 -8.4375,0 -8.4375,0 0,31.73635 c 0,31.48314 0.0171,31.76167 2.13752,34.90822 1.17562,1.74452 3.17953,3.69912 4.45312,4.34357 1.27359,0.64443 4.74139,1.17793 7.70623,1.18553 l 5.39063,0.0138 0,5.15625 0,5.15625 -5.85938,-0.096 c -3.22265,-0.0528 -7.125,-0.40408 -8.67187,-0.78067 z"
       id="path3387"
       inkscape:connector-curvature="0" />
  </g>
</svg>
