<?xml version="1.0" encoding="utf-8"?>
<svg version="1.1" id="nrco" xmlns="http://www.w3.org/2000/svg" xmlns:xlink="http://www.w3.org/1999/xlink" x="0px" y="0px"
	 viewBox="0 0 236.008 61.709" enable-background="new 0 0 236.008 61.709" xml:space="preserve">
<path fill="#CE181E" d="M9.346,44.092H0v12.583h9.346L9.346,44.092L9.346,44.092z M9.346,30.25H0v12.584h9.346L9.346,30.25
	L9.346,30.25z"/>
<g>
	<g>
		<path fill="#CE181E" d="M14.437,30.249c2.814,0,5.094,2.584,5.094,5.54l-0.002,7.047h-9.045V30.252L14.437,30.249 M9.283,49.251
			c0,2.956,2.283,5.352,5.095,5.352c2.813,0,5.095-2.396,5.095-5.352c0-2.953-2.281-5.349-5.095-5.349
			C11.566,43.902,9.283,46.298,9.283,49.251"/>
	</g>
	<g>
		<rect x="0.038" width="5.076" height="26.363"/>
	</g>
	<g>
		<path d="M19.391,26.363l-0.213-2.38c-2.023,1.822-3.586,2.639-6.178,2.639c-2.875,0-5.465-1.449-5.465-5.317
			c0-4.238,3.798-6.209,11.359-6.506v-0.669c0-2.082-0.959-2.901-3.23-2.901c-2.024,0-3.976,0.521-5.788,1.45L8.528,9.52
			c2.556-1.414,5.219-2.045,8.273-2.045c5.111,0,6.992,2.008,6.992,6.024v12.865L19.391,26.363 M18.894,17.402
			c-5.183,0.371-6.567,1.526-6.567,3.384c0,1.636,0.958,2.417,2.732,2.417c1.491,0,2.592-0.595,3.835-1.487L18.894,17.402
			L18.894,17.402z"/>
	</g>
	<g>
		<polygon points="49.41,26.363 38.831,9.036 38.831,26.363 34.251,26.363 34.251,0.559 39.363,0.559 49.338,16.994 49.338,0.559 
			53.953,0.559 53.953,26.363 		"/>
	</g>
	<g>
		<path d="M65.34,26.736c-5.572,0-8.945-3.905-8.945-9.668c0-5.762,3.373-9.703,8.945-9.703c5.573,0,8.911,3.941,8.911,9.703
			C74.25,22.83,70.913,26.736,65.34,26.736 M65.34,10.708c-2.662,0-3.833,2.343-3.833,6.321c0,4.054,1.171,6.395,3.833,6.395
			c2.664,0,3.835-2.341,3.835-6.358C69.174,13.051,68.004,10.708,65.34,10.708"/>
	</g>
	<g>
		<path d="M88.834,26.363l-0.249-2.454c-2.058,1.82-3.62,2.751-6.283,2.751c-3.692,0-5.538-2.491-5.538-6.469V7.772h5.076v11.266
			c0,2.491,0.959,3.607,2.911,3.607c1.243,0,2.379-0.484,3.586-1.45V7.772h5.111v18.591L88.834,26.363L88.834,26.363z"/>
	</g>
	<g>
		<polygon points="107.026,26.401 101.984,26.401 95.383,7.772 100.635,7.772 104.788,20.935 108.944,7.772 113.594,7.772 		"/>
	</g>
	<g>
		<path d="M130.602,18.443h-12.14c0.286,3.161,1.881,4.722,4.971,4.722c1.951,0,3.55-0.521,5.503-1.823l1.561,2.863
			c-2.2,1.674-4.578,2.529-7.561,2.529c-5.715,0-9.443-3.421-9.443-9.667c0-5.838,3.444-9.704,8.84-9.704
			c5.396,0,8.413,3.755,8.413,9.741C130.744,17.588,130.674,18.109,130.602,18.443 M122.26,10.524c-2.307,0-3.586,1.672-3.799,5.168
			h7.525C125.809,12.494,124.779,10.524,122.26,10.524"/>
	</g>
	<g>
		<rect x="132.871" width="5.076" height="26.363"/>
	</g>
	<g>
		<rect x="140.914" width="5.076" height="26.363"/>
	</g>
	<g>
		<path d="M165.227,18.443h-12.142c0.286,3.161,1.882,4.722,4.972,4.722c1.951,0,3.55-0.521,5.5-1.823l1.564,2.863
			c-2.204,1.674-4.581,2.529-7.563,2.529c-5.716,0-9.442-3.421-9.442-9.667c0-5.838,3.443-9.704,8.839-9.704
			s8.413,3.755,8.413,9.741C165.367,17.588,165.296,18.109,165.227,18.443 M156.884,10.524c-2.307,0-3.586,1.672-3.799,5.168h7.528
			C160.435,12.494,159.404,10.524,156.884,10.524"/>
	</g>
	<g>
		<path d="M47.675,55.721l-4.826-10.224h-3.302v10.224h-5.112V29.918h8.414c6.389,0,9.797,2.9,9.797,7.696
			c0,3.346-1.562,5.837-4.686,7.028l5.36,11.08L47.675,55.721 M42.741,33.933h-3.194v7.809h3.302c2.839,0,4.472-1.414,4.472-3.979
			C47.321,35.235,45.688,33.933,42.741,33.933"/>
	</g>
	<g>
		<path d="M70.994,47.802h-12.14c0.284,3.16,1.881,4.723,4.97,4.723c1.952,0,3.55-0.522,5.502-1.824l1.563,2.863
			c-2.202,1.674-4.58,2.528-7.561,2.528c-5.717,0-9.443-3.42-9.443-9.667c0-5.838,3.443-9.702,8.839-9.702s8.414,3.754,8.414,9.74
			C71.137,46.947,71.064,47.467,70.994,47.802 M62.652,39.883c-2.307,0-3.586,1.673-3.799,5.167h7.526
			C66.203,41.852,65.172,39.883,62.652,39.883 M63.611,34.713h-3.124l3.088-6.135h6.177L63.611,34.713z"/>
	</g>
	<g>
		<path d="M84.11,55.982c-2.343,0-3.799-0.855-5.254-2.268v7.994h-5.076V37.13h4.578l0.215,2.381
			c1.702-1.674,3.122-2.677,5.715-2.677c3.975,0,6.957,2.714,6.957,9.592C91.245,53.341,88.049,55.982,84.11,55.982 M82.405,40.85
			c-1.278,0-2.415,0.558-3.55,1.487v8.18c1.101,0.968,2.236,1.487,3.515,1.487c2.236,0,3.621-1.56,3.621-5.578
			C85.991,42.373,84.57,40.85,82.405,40.85"/>
	</g>
	<g>
		<path d="M105.556,55.721l-0.249-2.455c-2.057,1.822-3.62,2.751-6.282,2.751c-3.693,0-5.538-2.49-5.538-6.469V37.128h5.076v11.269
			c0,2.491,0.958,3.605,2.911,3.605c1.242,0,2.378-0.483,3.586-1.45V37.128h5.111V55.72L105.556,55.721"/>
	</g>
	<g>
		<path d="M123.267,55.982c-2.415,0-4.366-1.041-5.929-2.64l-0.604,2.38h-3.799V29.36h5.075v9.89
			c1.563-1.489,2.984-2.417,5.432-2.417c3.976,0,6.959,2.714,6.959,9.592C130.402,53.341,127.206,55.982,123.267,55.982
			 M121.562,40.85c-1.278,0-2.414,0.558-3.552,1.487v8.18c1.137,0.968,2.238,1.487,3.515,1.487c2.236,0,3.622-1.56,3.622-5.578
			C125.148,42.373,123.729,40.85,121.562,40.85"/>
	</g>
	<g>
		<rect x="132.704" y="29.359" width="5.076" height="26.362"/>
	</g>
	<g>
		<path d="M145.895,34.157h-5.253v-4.808h5.253V34.157z M145.825,55.721h-5.075V37.129h5.075V55.721z"/>
	</g>
	<g>
		<path d="M160.518,61.708v-8.144c-1.597,1.524-3.019,2.417-5.468,2.417c-3.939,0-6.922-2.677-6.922-9.556
			c0-6.953,3.16-9.555,7.1-9.555c2.414,0,4.364,1.042,5.929,2.64l0.603-2.381h3.833v24.579L160.518,61.708 M160.518,42.336
			c-1.136-0.967-2.274-1.487-3.551-1.487c-2.236,0-3.622,1.524-3.622,5.577c0,4.017,1.421,5.578,3.622,5.578
			c1.277,0,2.378-0.558,3.551-1.487V42.336z"/>
	</g>
	<g>
		<path d="M180.285,55.721l-0.247-2.455c-2.059,1.822-3.623,2.751-6.284,2.751c-3.693,0-5.538-2.49-5.538-6.469V37.128h5.076v11.269
			c0,2.491,0.958,3.605,2.911,3.605c1.243,0,2.378-0.483,3.585-1.45V37.128h5.113V55.72L180.285,55.721"/>
	</g>
	<g>
		<path d="M204.218,47.802h-12.141c0.283,3.16,1.881,4.723,4.97,4.723c1.952,0,3.55-0.522,5.503-1.824l1.561,2.863
			c-2.201,1.674-4.581,2.528-7.563,2.528c-5.714,0-9.442-3.42-9.442-9.667c0-5.838,3.444-9.702,8.84-9.702
			c5.397,0,8.414,3.755,8.414,9.74C204.359,46.947,204.288,47.467,204.218,47.802 M195.876,39.883c-2.308,0-3.587,1.673-3.799,5.167
			h7.526C199.426,41.852,198.397,39.883,195.876,39.883"/>
	</g>
	<g>
		<rect x="207.322" y="50.185" fill="#CE181E" width="5.644" height="5.536"/>
	</g>
	<g>
		<path fill="#CE181E" d="M212.283,40.551v-3.415h3.056v-1.438c0-1.654,0.515-3.007,1.546-4.061c1.03-1.055,2.588-1.582,4.672-1.582
			c0.455,0,0.911,0.018,1.366,0.053c0.454,0.036,0.899,0.066,1.33,0.09v3.81c-0.599-0.071-1.222-0.107-1.869-0.107
			c-0.695,0-1.193,0.161-1.491,0.485c-0.3,0.324-0.45,0.868-0.45,1.635v1.114h3.523v3.415h-3.523v15.17h-5.104v-15.17H212.283z"/>
	</g>
	<g>
		<path fill="#CE181E" d="M228.891,37.136v3.451h0.072c0.24-0.575,0.561-1.108,0.971-1.599c0.407-0.491,0.875-0.911,1.402-1.258
			c0.526-0.348,1.09-0.617,1.69-0.809c0.598-0.192,1.221-0.288,1.868-0.288c0.336,0,0.707,0.06,1.114,0.179v4.745
			c-0.24-0.048-0.527-0.09-0.863-0.126c-0.336-0.036-0.66-0.054-0.972-0.054c-0.935,0-1.725,0.156-2.372,0.467
			c-0.647,0.312-1.169,0.737-1.563,1.277c-0.396,0.539-0.677,1.169-0.845,1.888c-0.169,0.719-0.253,1.498-0.253,2.337v8.376h-5.103
			V37.136H228.891z"/>
	</g>
</g>
</svg>
