<?xml version="1.0" encoding="UTF-8" standalone="no"?>
<!-- Created with Inkscape (http://www.inkscape.org/) -->
<svg
   xmlns:dc="http://purl.org/dc/elements/1.1/"
   xmlns:cc="http://creativecommons.org/ns#"
   xmlns:rdf="http://www.w3.org/1999/02/22-rdf-syntax-ns#"
   xmlns:svg="http://www.w3.org/2000/svg"
   xmlns="http://www.w3.org/2000/svg"
   xmlns:sodipodi="http://sodipodi.sourceforge.net/DTD/sodipodi-0.dtd"
   xmlns:inkscape="http://www.inkscape.org/namespaces/inkscape"
   width="107"
   height="43"
   id="svg2542"
   sodipodi:version="0.32"
   inkscape:version="0.46"
   version="1.0"
   sodipodi:docname="Bureau d'enquêtes et d'analyses pour la sécurité de l'aviation civile.svg"
   inkscape:output_extension="org.inkscape.output.svg.inkscape">
  <defs
     id="defs2544">
    <clipPath
       clipPathUnits="userSpaceOnUse"
       id="clipPath161">
      <path
         d="M -96.239,374.31 L 200.384,374.31 L 200.384,-45.2 L -96.239,-45.2 L -96.239,374.31 z"
         id="path163" />
    </clipPath>
    <clipPath
       clipPathUnits="userSpaceOnUse"
       id="clipPath153">
      <path
         d="M 28.35,172.037 L 76.863,172.037 L 76.863,155.826 L 28.35,155.826 L 28.35,172.037 z"
         id="path155" />
    </clipPath>
    <clipPath
       clipPathUnits="userSpaceOnUse"
       id="clipPath145">
      <path
         d="M 28.35,172.037 L 76.863,172.037 L 76.863,155.826 L 28.35,155.826 L 28.35,172.037 z"
         id="path147" />
    </clipPath>
    <clipPath
       clipPathUnits="userSpaceOnUse"
       id="clipPath137">
      <path
         d="M 28.35,155.825 L 76.863,155.825 L 76.863,172.036 L 28.35,172.036 L 28.35,155.825 z"
         id="path139" />
    </clipPath>
    <inkscape:perspective
       sodipodi:type="inkscape:persp3d"
       inkscape:vp_x="0 : 526.18109 : 1"
       inkscape:vp_y="0 : 1000 : 0"
       inkscape:vp_z="744.09448 : 526.18109 : 1"
       inkscape:persp3d-origin="372.04724 : 350.78739 : 1"
       id="perspective2550" />
  </defs>
  <sodipodi:namedview
     id="base"
     pagecolor="#ffffff"
     bordercolor="#666666"
     borderopacity="1.0"
     inkscape:pageopacity="0.0"
     inkscape:pageshadow="2"
     inkscape:zoom="8.6728972"
     inkscape:cx="53.5"
     inkscape:cy="21.5"
     inkscape:document-units="px"
     inkscape:current-layer="g141"
     showgrid="false"
     inkscape:window-width="1024"
     inkscape:window-height="712"
     inkscape:window-x="-4"
     inkscape:window-y="-4" />
  <metadata
     id="metadata2547">
    <rdf:RDF>
      <cc:Work
         rdf:about="">
        <dc:format>image/svg+xml</dc:format>
        <dc:type
           rdf:resource="http://purl.org/dc/dcmitype/StillImage" />
      </cc:Work>
    </rdf:RDF>
  </metadata>
  <g
     inkscape:label="Calque 1"
     inkscape:groupmode="layer"
     id="layer1"
     transform="translate(-109.41464,-305.32572)">
    <path
       transform="scale(0.9486833,1.0540926)"
       style="font-size:7.11512470000000000px;font-style:normal;font-variant:normal;font-weight:bold;font-stretch:normal;text-align:start;line-height:125%;writing-mode:lr-tb;text-anchor:start;font-family:Arial MT;-inkscape-font-specification:Arial MT Bold;fill:#656263;fill-opacity:1"
       d="M 115.93974,314.1181 L 115.93974,319.21255 L 117.67575,319.21255 C 117.94615,319.21255 118.17266,319.21136 118.35528,319.20897 C 118.53788,319.20658 118.69321,319.19945 118.82125,319.18758 C 118.94929,319.17571 119.05601,319.1603 119.14142,319.14133 C 119.22682,319.12237 119.30745,319.09631 119.38331,319.06317 C 119.52097,319.0015 119.64079,318.92203 119.74278,318.82475 C 119.84475,318.72747 119.93013,318.61836 119.99889,318.49742 C 120.06764,318.37647 120.11979,318.25079 120.15534,318.12036 C 120.19087,317.98993 120.20864,317.86067 120.20864,317.73255 C 120.20864,317.66148 120.19916,317.56902 120.1802,317.45516 C 120.16123,317.34131 120.11856,317.22507 120.0522,317.10644 C 119.98582,316.98781 119.88858,316.87396 119.76047,316.76489 C 119.63236,316.65581 119.45923,316.56805 119.24108,316.50161 C 119.47819,316.39724 119.65726,316.24427 119.77828,316.04269 C 119.89929,315.84112 119.9598,315.62648 119.95981,315.39877 C 119.9598,315.17107 119.90642,314.97185 119.79967,314.8011 C 119.6929,314.63037 119.5636,314.49049 119.41175,314.38149 C 119.33112,314.32446 119.2434,314.27817 119.14858,314.24263 C 119.05376,314.2071 118.94943,314.17985 118.83558,314.16088 C 118.72173,314.14192 118.59365,314.13005 118.45136,314.12527 C 118.30906,314.12049 118.15012,314.11811 117.97453,314.1181 L 115.93974,314.1181 z M 117.56197,314.97905 C 117.74697,314.97905 117.89636,314.97905 118.01014,314.97905 C 118.12406,314.97905 118.2166,314.98025 118.28775,314.98263 C 118.35889,314.98502 118.41462,314.98976 118.45494,314.99685 C 118.49525,315.00395 118.53437,315.01227 118.5723,315.02182 C 118.70504,315.05975 118.80225,315.1309 118.86392,315.23527 C 118.92558,315.33964 118.95641,315.44872 118.95642,315.56249 C 118.95641,315.70002 118.92678,315.80674 118.8675,315.88266 C 118.80822,315.95859 118.73472,316.01671 118.647,316.05702 C 118.55927,316.09734 118.46442,316.12224 118.36244,316.13172 C 118.26046,316.1412 118.16676,316.14594 118.08136,316.14594 L 116.96419,316.14594 L 116.96419,314.97905 L 117.56197,314.97905 z M 117.79669,317.00688 C 117.97691,317.00689 118.14885,317.01043 118.3125,317.01752 C 118.47615,317.02462 118.61964,317.04952 118.74297,317.09222 C 118.8663,317.13492 118.96474,317.20372 119.03828,317.29861 C 119.11181,317.3935 119.14858,317.52866 119.14858,317.70411 C 119.14858,317.74204 119.14384,317.78829 119.13436,317.84286 C 119.12488,317.89743 119.10591,317.95201 119.07747,318.00658 C 119.04902,318.06115 119.00751,318.11453 118.95294,318.16672 C 118.89837,318.2189 118.82367,318.26157 118.72886,318.29472 C 118.69093,318.30891 118.63755,318.31958 118.56872,318.32675 C 118.49989,318.33391 118.42635,318.33985 118.34811,318.34455 C 118.26987,318.34926 118.19282,318.35161 118.11697,318.35161 C 118.04097,318.35161 117.97452,318.35161 117.91764,318.35161 L 116.96419,318.35161 L 116.96419,317.00688 L 117.79669,317.00688 z M 123.48881,319.21255 L 124.39231,319.21255 L 124.39231,315.52688 L 123.41759,315.52688 L 123.41759,317.0781 C 123.41759,317.25833 123.41523,317.40891 123.41053,317.52986 C 123.40582,317.6508 123.39989,317.75159 123.39273,317.83222 C 123.38556,317.91285 123.37608,317.97687 123.36428,318.02428 C 123.35248,318.07169 123.3371,318.11204 123.31814,318.14533 C 123.24692,318.28285 123.14844,318.38483 123.02273,318.45127 C 122.897,318.51772 122.76538,318.55094 122.62786,318.55094 C 122.53768,318.55094 122.44634,318.53314 122.35384,318.49752 C 122.26134,318.46192 122.18664,318.39902 122.12975,318.30883 C 122.10601,318.27091 122.08705,318.23059 122.07286,318.18789 C 122.05867,318.14519 122.04684,318.08591 122.03736,318.01005 C 122.02788,317.9342 122.02194,317.83461 122.01956,317.71127 C 122.01717,317.58794 122.01597,317.42429 122.01597,317.22033 L 122.01597,315.52688 L 121.04125,315.52688 L 121.04125,317.8535 C 121.04125,318.06224 121.05428,318.24015 121.08033,318.38722 C 121.10639,318.53429 121.16212,318.67659 121.24753,318.81411 C 121.34712,318.97537 121.49296,319.09631 121.68506,319.17694 C 121.87715,319.25757 122.07047,319.29789 122.26503,319.29789 C 122.50692,319.29789 122.73578,319.24216 122.95161,319.13069 C 123.16744,319.01923 123.34173,318.86152 123.47448,318.65755 L 123.48881,318.65755 L 123.48881,319.21255 z M 126.34899,319.21255 L 126.34899,318.07411 C 126.34899,317.81803 126.35377,317.58208 126.36332,317.36624 C 126.37288,317.15041 126.39897,316.96541 126.4416,316.81124 C 126.48423,316.65708 126.54944,316.5361 126.63724,316.4483 C 126.72503,316.36051 126.84717,316.31661 127.00366,316.31661 C 127.09847,316.31661 127.18858,316.33677 127.27399,316.37708 C 127.3594,316.4174 127.42106,316.44942 127.45899,316.47316 L 127.76494,315.61938 C 127.67953,315.56727 127.57874,315.52461 127.46258,315.49138 C 127.34641,315.45816 127.23375,315.44155 127.1246,315.44155 C 127.02023,315.44155 126.92773,315.45697 126.8471,315.4878 C 126.76647,315.51863 126.69413,315.56014 126.63008,315.61233 C 126.56602,315.66451 126.50674,315.72737 126.45224,315.80091 C 126.39774,315.87445 126.34436,315.95624 126.2921,316.04627 L 126.27799,316.04627 L 126.27799,315.52688 L 125.37427,315.52688 L 125.37427,319.21255 L 126.34899,319.21255 z M 130.31928,318.0385 C 130.30509,318.0812 130.28732,318.13219 130.26597,318.19147 C 130.24462,318.25075 130.21024,318.30648 130.16283,318.35867 C 130.11542,318.41085 130.05495,318.45594 129.98141,318.49394 C 129.90787,318.53194 129.81414,318.55094 129.70022,318.55094 C 129.5627,318.55094 129.44414,318.52485 129.34455,318.47266 C 129.24496,318.42048 129.16194,318.35168 129.0955,318.26627 C 129.02905,318.18087 128.98041,318.08363 128.94958,317.97455 C 128.91875,317.86548 128.90101,317.75637 128.89638,317.64722 L 131.34394,317.64722 C 131.34872,317.37681 131.32501,317.1088 131.27283,316.84316 C 131.22064,316.57754 131.12814,316.34154 130.99533,316.13519 C 130.86251,315.92884 130.68225,315.76165 130.45455,315.6336 C 130.22685,315.50557 129.93987,315.44155 129.59361,315.44155 C 129.29946,315.44155 129.04686,315.49609 128.8358,315.60516 C 128.62474,315.71424 128.44926,315.86008 128.30936,316.04269 C 128.16945,316.2253 128.06627,316.43401 127.99983,316.6688 C 127.93338,316.9036 127.90016,317.14433 127.90016,317.391 C 127.90016,317.54285 127.91677,317.70653 127.94999,317.88205 C 127.98322,318.05757 128.04014,318.23544 128.12077,318.41566 C 128.22036,318.62441 128.3425,318.78805 128.48719,318.90661 C 128.63187,319.02517 128.78011,319.11293 128.93189,319.16989 C 129.08366,319.22685 129.22715,319.26242 129.36236,319.27661 C 129.49756,319.2908 129.60548,319.29789 129.68611,319.29789 C 129.98966,319.29789 130.24107,319.25164 130.44033,319.15914 C 130.63959,319.06664 130.79969,318.95872 130.92064,318.83539 C 131.04158,318.71206 131.1293,318.58992 131.18381,318.46897 C 131.2383,318.34803 131.27504,318.25911 131.294,318.20222 L 130.31928,318.0385 z M 128.91766,317.04966 C 128.91288,316.80763 128.97571,316.60363 129.10614,316.43766 C 129.23656,316.2717 129.41802,316.18872 129.6505,316.18871 C 129.68842,316.18872 129.74654,316.19581 129.82486,316.20999 C 129.90317,316.22418 129.98264,316.25976 130.06327,316.31672 C 130.1439,316.37368 130.21505,316.46025 130.27672,316.57641 C 130.33838,316.69258 130.37153,316.85033 130.37617,317.04966 L 128.91766,317.04966 z M 132.8665,316.65121 C 132.88068,316.60374 132.89965,316.5539 132.92339,316.50172 C 132.94713,316.44953 132.98274,316.39974 133.03022,316.35233 C 133.0777,316.30492 133.13937,316.2658 133.21522,316.23496 C 133.29107,316.20413 133.38828,316.18872 133.50683,316.18871 C 133.67287,316.18872 133.80094,316.20413 133.89106,316.23496 C 133.98117,316.2658 134.04757,316.30612 134.09028,316.35591 C 134.13298,316.40571 134.15788,316.46144 134.16497,316.5231 C 134.17206,316.58477 134.17561,316.64644 134.17561,316.7081 L 134.17561,316.80755 C 134.12828,316.82652 134.07732,316.84552 134.02275,316.86455 C 133.96817,316.88359 133.90531,316.90139 133.83417,316.91797 C 133.76302,316.93454 133.67884,316.95351 133.58164,316.97486 C 133.48443,316.99621 133.367,317.01876 133.22933,317.04249 C 133.10137,317.06624 132.95911,317.09826 132.80255,317.13858 C 132.646,317.17889 132.50012,317.24056 132.36491,317.32358 C 132.22971,317.4066 132.11586,317.51806 132.02336,317.65797 C 131.93086,317.79788 131.88461,317.98168 131.88461,318.20938 C 131.88461,318.37065 131.91309,318.51768 131.97005,318.6505 C 132.02701,318.78331 132.10884,318.89832 132.21552,318.99553 C 132.32221,319.09273 132.45144,319.16743 132.60322,319.21961 C 132.755,319.2718 132.92339,319.29789 133.10839,319.29789 C 133.25546,319.29789 133.38947,319.28128 133.51042,319.24806 C 133.63136,319.21483 133.73928,319.17333 133.83417,319.12353 C 133.92905,319.07373 134.01088,319.02039 134.07964,318.9635 C 134.1484,318.90661 134.20652,318.85443 134.254,318.80694 L 134.31089,319.00628 C 134.32507,319.05839 134.3381,319.09986 134.34997,319.13069 C 134.36184,319.16153 134.37255,319.18881 134.38211,319.21255 L 135.3425,319.21255 C 135.30457,319.1367 135.27378,319.06675 135.25011,319.00269 C 135.22644,318.93864 135.20628,318.87223 135.18964,318.80347 C 135.17299,318.73471 135.15993,318.65763 135.15045,318.57222 C 135.14096,318.48681 135.13383,318.38244 135.12906,318.25911 C 135.12906,318.207 135.12906,318.1145 135.12906,317.98161 C 135.12906,317.84887 135.12906,317.70657 135.12906,317.55472 C 135.12906,317.40287 135.13025,317.25818 135.13264,317.12066 C 135.13503,316.98315 135.13622,316.88594 135.13623,316.82905 C 135.13622,316.66301 135.12793,316.49698 135.11136,316.33094 C 135.09478,316.1649 135.03786,316.01667 134.94059,315.88624 C 134.8433,315.75582 134.68914,315.6491 134.47808,315.56608 C 134.26703,315.48306 133.96702,315.44155 133.57805,315.44155 C 133.30287,315.44155 133.07281,315.46884 132.88789,315.52341 C 132.70296,315.57799 132.54999,315.65152 132.42897,315.74402 C 132.30795,315.83652 132.21426,315.94679 132.14789,316.07483 C 132.08151,316.20287 132.02698,316.34042 131.98427,316.48749 L 132.8665,316.65121 z M 134.17561,317.6331 C 134.17561,317.799 134.16732,317.94245 134.15075,318.06347 C 134.13417,318.18449 134.0737,318.29002 133.96933,318.38005 C 133.89348,318.4465 133.80811,318.50107 133.71322,318.54377 C 133.61833,318.58648 133.514,318.60783 133.40022,318.60783 C 133.30526,318.60783 133.2234,318.59122 133.15464,318.558 C 133.08588,318.52478 133.03015,318.48327 132.98744,318.43347 C 132.94474,318.38367 132.91271,318.32914 132.89136,318.26986 C 132.87001,318.21058 132.85933,318.15481 132.85933,318.10255 C 132.85933,318.01715 132.88068,317.946 132.92339,317.88911 C 132.96609,317.83222 133.01708,317.78597 133.07636,317.75036 C 133.13564,317.71475 133.1985,317.68746 133.26494,317.6685 C 133.33139,317.64954 133.38596,317.63535 133.42866,317.62594 C 133.43807,317.62116 133.45939,317.61523 133.49261,317.60813 C 133.52583,317.60104 133.56025,317.59391 133.59586,317.58675 C 133.63147,317.57958 133.66469,317.57245 133.69553,317.56536 C 133.72636,317.55827 133.74887,317.55472 133.76305,317.55472 C 133.87683,317.53098 133.96101,317.51082 134.01558,317.49425 C 134.07016,317.47767 134.1235,317.4599 134.17561,317.44094 L 134.17561,317.6331 z M 138.51595,319.21255 L 139.41946,319.21255 L 139.41946,315.52688 L 138.44473,315.52688 L 138.44473,317.0781 C 138.44473,317.25833 138.44238,317.40891 138.43768,317.52986 C 138.43297,317.6508 138.42703,317.75159 138.41987,317.83222 C 138.4127,317.91285 138.40322,317.97687 138.39143,318.02428 C 138.37963,318.07169 138.36425,318.11204 138.34528,318.14533 C 138.27406,318.28285 138.17559,318.38483 138.04987,318.45127 C 137.92415,318.51772 137.79253,318.55094 137.65501,318.55094 C 137.56482,318.55094 137.47348,318.53314 137.38098,318.49752 C 137.28848,318.46192 137.21379,318.39902 137.1569,318.30883 C 137.13316,318.27091 137.11419,318.23059 137.10001,318.18789 C 137.08582,318.14519 137.07399,318.08591 137.06451,318.01005 C 137.05502,317.9342 137.04909,317.83461 137.0467,317.71127 C 137.04431,317.58794 137.04312,317.42429 137.04312,317.22033 L 137.04312,315.52688 L 136.06839,315.52688 L 136.06839,317.8535 C 136.06839,318.06224 136.08142,318.24015 136.10748,318.38722 C 136.13353,318.53429 136.18926,318.67659 136.27467,318.81411 C 136.37426,318.97537 136.52011,319.09631 136.7122,319.17694 C 136.90429,319.25757 137.09762,319.29789 137.29217,319.29789 C 137.53406,319.29789 137.76292,319.24216 137.97876,319.13069 C 138.19459,319.01923 138.36888,318.86152 138.50162,318.65755 L 138.51595,318.65755 L 138.51595,319.21255 z M 145.79475,319.21255 L 145.79475,314.1181 L 144.82002,314.1181 L 144.82002,315.95377 C 144.78209,315.91107 144.73345,315.86128 144.67411,315.80438 C 144.61475,315.7475 144.54122,315.69176 144.4535,315.63719 C 144.36577,315.58262 144.26259,315.53637 144.14397,315.49844 C 144.02534,315.46051 143.89256,315.44155 143.74563,315.44155 C 143.54167,315.44155 143.34599,315.47951 143.1586,315.55544 C 142.97121,315.63136 142.80637,315.74637 142.66408,315.90047 C 142.52178,316.05456 142.40793,316.2502 142.32252,316.48738 C 142.23711,316.72457 142.19441,317.00681 142.19441,317.33411 C 142.19441,317.66618 142.23711,317.95436 142.32252,318.19864 C 142.40793,318.44292 142.52297,318.64688 142.66766,318.81053 C 142.81234,318.97418 142.97719,319.09631 143.16219,319.17694 C 143.34719,319.25757 143.53928,319.29789 143.73847,319.29789 C 143.79535,319.29789 143.8677,319.2908 143.95549,319.27661 C 144.04329,319.26242 144.13933,319.23398 144.24363,319.19128 C 144.34793,319.14857 144.45465,319.08571 144.5638,319.00269 C 144.67295,318.91967 144.77493,318.80941 144.86975,318.67189 L 144.88408,318.67189 L 144.88408,319.21255 L 145.79475,319.21255 z M 144.82697,317.28438 C 144.82697,317.55002 144.80207,317.75991 144.75228,317.91408 C 144.70248,318.06825 144.6183,318.20222 144.49975,318.316 C 144.40956,318.40141 144.31587,318.45717 144.21866,318.4833 C 144.12146,318.50943 144.03963,318.5225 143.97319,318.5225 C 143.88778,318.5225 143.80002,318.50589 143.70991,318.47266 C 143.6198,318.43944 143.53682,318.37893 143.46097,318.29114 C 143.38511,318.20334 143.32229,318.08594 143.27249,317.93894 C 143.22269,317.79194 143.1978,317.60459 143.1978,317.37688 C 143.1978,317.27252 143.20608,317.15273 143.22266,317.01752 C 143.23923,316.88232 143.27596,316.75305 143.33286,316.62972 C 143.38974,316.50639 143.47157,316.40205 143.57833,316.31672 C 143.68509,316.23138 143.82858,316.18872 144.0088,316.18871 C 144.2365,316.18872 144.42979,316.27763 144.58866,316.45547 C 144.74753,316.6333 144.82697,316.90961 144.82697,317.28438 L 144.82697,317.28438 z M 146.72676,314.1181 L 146.72676,315.09283 L 147.19643,315.09283 C 147.19165,315.23049 147.1691,315.34319 147.12879,315.43091 C 147.08847,315.51863 147.03987,315.58978 146.98298,315.64435 C 146.92609,315.69893 146.86681,315.73924 146.80515,315.7653 C 146.74348,315.79136 146.68891,315.81148 146.64143,315.82566 L 146.83359,316.23127 C 147.05174,316.15542 147.21894,316.05938 147.33518,315.94313 C 147.45142,315.8269 147.53679,315.70356 147.59129,315.57313 C 147.64579,315.44271 147.67778,315.31109 147.68726,315.17827 C 147.69674,315.04546 147.70148,314.92448 147.70149,314.81533 L 147.70149,314.1181 L 146.72676,314.1181 z M 148.7547,319.21255 L 152.62515,319.21255 L 152.62515,318.35161 L 149.77915,318.35161 L 149.77915,316.97127 L 152.34071,316.97127 L 152.34071,316.11033 L 149.77915,316.11033 L 149.77915,314.97905 L 152.53265,314.97905 L 152.53265,314.1181 L 148.7547,314.1181 L 148.7547,319.21255 z M 155.84122,319.21255 L 156.81594,319.21255 L 156.81594,316.92155 C 156.81594,316.83137 156.81359,316.73174 156.80889,316.62266 C 156.80418,316.51359 156.78996,316.40332 156.76622,316.29185 C 156.74247,316.18039 156.70571,316.07483 156.65591,315.97516 C 156.60611,315.8755 156.53142,315.78774 156.43183,315.71188 C 156.35597,315.65022 156.27654,315.60162 156.19352,315.56608 C 156.1105,315.53054 156.03103,315.50325 155.95511,315.48421 C 155.87918,315.46518 155.80922,315.45331 155.74524,315.4486 C 155.68126,315.4439 155.62791,315.44155 155.58521,315.44155 C 155.39543,315.44155 155.19263,315.48425 154.9768,315.56966 C 154.76096,315.65507 154.56293,315.82111 154.38271,316.06777 L 154.36838,316.06777 L 154.36838,315.52688 L 153.45771,315.52688 L 153.45771,319.21255 L 154.43244,319.21255 L 154.43244,317.5406 C 154.43244,317.38876 154.43718,317.22507 154.44666,317.04955 C 154.45614,316.87403 154.48701,316.7317 154.53927,316.62255 C 154.60093,316.48504 154.69579,316.37835 154.82383,316.30249 C 154.95186,316.22664 155.09181,316.18872 155.24366,316.18871 C 155.39073,316.18872 155.50574,316.21955 155.58869,316.28121 C 155.67163,316.34288 155.73091,316.42587 155.76652,316.53016 C 155.80213,316.63446 155.82348,316.75541 155.83058,316.893 C 155.83767,317.03059 155.84121,317.17524 155.84122,317.32694 L 155.84122,319.21255 z M 161.19889,315.52688 L 160.28822,315.52688 L 160.28822,316.06777 L 160.27389,316.06777 C 160.17907,315.93011 160.07712,315.81977 159.96805,315.73674 C 159.85897,315.65373 159.75225,315.5909 159.64788,315.54827 C 159.54351,315.50564 159.44746,315.4772 159.35974,315.46294 C 159.27202,315.44868 159.19964,315.44155 159.14261,315.44155 C 158.94342,315.44155 158.75133,315.48187 158.56633,315.56249 C 158.38133,315.64313 158.21648,315.76527 158.0718,315.92891 C 157.92711,316.09256 157.8121,316.29652 157.72677,316.5408 C 157.64143,316.78508 157.59877,317.07326 157.59877,317.40533 C 157.59877,317.73263 157.64143,318.01487 157.72677,318.25205 C 157.8121,318.48924 157.92592,318.68491 158.06822,318.83908 C 158.21051,318.99325 158.37536,319.10826 158.56274,319.18411 C 158.75013,319.25996 158.94581,319.29789 159.14977,319.29789 C 159.29684,319.29789 159.42966,319.27893 159.54822,319.241 C 159.66677,319.20307 159.76995,319.15682 159.85775,319.10225 C 159.94554,319.04768 160.01908,318.99194 160.07836,318.93505 C 160.13763,318.87817 160.18623,318.82837 160.22416,318.78566 L 160.22416,320.61417 L 161.19889,320.61417 L 161.19889,315.52688 z M 160.23133,317.45505 C 160.23133,317.82983 160.15185,318.10617 159.99291,318.28408 C 159.83397,318.46199 159.64072,318.55094 159.41316,318.55094 C 159.23279,318.55094 159.08926,318.50824 158.98258,318.42283 C 158.87589,318.33742 158.79407,318.23305 158.73711,318.10972 C 158.68014,317.98639 158.64337,317.85712 158.6268,317.72191 C 158.61022,317.58671 158.60194,317.46692 158.60194,317.36255 C 158.60194,317.13485 158.62683,316.9475 158.67663,316.8005 C 158.72643,316.6535 158.78929,316.5361 158.86522,316.4483 C 158.94114,316.36051 159.02416,316.30004 159.11427,316.26688 C 159.20438,316.23374 159.29214,316.21716 159.37755,316.21716 C 159.44385,316.21716 159.52563,316.23019 159.62291,316.25624 C 159.72019,316.2823 159.81392,316.33803 159.9041,316.42344 C 160.02266,316.53722 160.10684,316.67119 160.15663,316.82536 C 160.20643,316.97953 160.23133,317.18942 160.23133,317.45505 L 160.23133,317.45505 z M 164.60713,319.21255 L 165.51063,319.21255 L 165.51063,315.52688 L 164.5359,315.52688 L 164.5359,317.0781 C 164.5359,317.25833 164.53355,317.40891 164.52885,317.52986 C 164.52414,317.6508 164.51821,317.75159 164.51104,317.83222 C 164.50387,317.91285 164.49439,317.97687 164.4826,318.02428 C 164.4708,318.07169 164.45542,318.11204 164.43646,318.14533 C 164.36523,318.28285 164.26676,318.38483 164.14104,318.45127 C 164.01532,318.51772 163.8837,318.55094 163.74618,318.55094 C 163.65599,318.55094 163.56465,318.53314 163.47215,318.49752 C 163.37965,318.46192 163.30496,318.39902 163.24807,318.30883 C 163.22433,318.27091 163.20536,318.23059 163.19118,318.18789 C 163.17699,318.14519 163.16516,318.08591 163.15568,318.01005 C 163.14619,317.9342 163.14026,317.83461 163.13787,317.71127 C 163.13548,317.58794 163.13429,317.42429 163.13429,317.22033 L 163.13429,315.52688 L 162.15956,315.52688 L 162.15956,317.8535 C 162.15956,318.06224 162.17259,318.24015 162.19865,318.38722 C 162.2247,318.53429 162.28044,318.67659 162.36584,318.81411 C 162.46544,318.97537 162.61128,319.09631 162.80337,319.17694 C 162.99547,319.25757 163.18879,319.29789 163.38334,319.29789 C 163.62523,319.29789 163.85409,319.24216 164.06993,319.13069 C 164.28576,319.01923 164.46005,318.86152 164.59279,318.65755 L 164.60713,318.65755 L 164.60713,319.21255 z M 168.6698,318.0385 C 168.65561,318.0812 168.63784,318.13219 168.61649,318.19147 C 168.59513,318.25075 168.56075,318.30648 168.51335,318.35867 C 168.46594,318.41085 168.40547,318.45594 168.33193,318.49394 C 168.25839,318.53194 168.16466,318.55094 168.05074,318.55094 C 167.91322,318.55094 167.79466,318.52485 167.69507,318.47266 C 167.59548,318.42048 167.51246,318.35168 167.44601,318.26627 C 167.37957,318.18087 167.33093,318.08363 167.3001,317.97455 C 167.26926,317.86548 167.25153,317.75637 167.2469,317.64722 L 169.69446,317.64722 C 169.69924,317.37681 169.67553,317.1088 169.62335,316.84316 C 169.57116,316.57754 169.47866,316.34154 169.34585,316.13519 C 169.21303,315.92884 169.03277,315.76165 168.80507,315.6336 C 168.57737,315.50557 168.29038,315.44155 167.94413,315.44155 C 167.64998,315.44155 167.39737,315.49609 167.18632,315.60516 C 166.97526,315.71424 166.79978,315.86008 166.65987,316.04269 C 166.51996,316.2253 166.41679,316.43401 166.35034,316.6688 C 166.2839,316.9036 166.25068,317.14433 166.25068,317.391 C 166.25068,317.54285 166.26729,317.70653 166.30051,317.88205 C 166.33373,318.05757 166.39066,318.23544 166.47129,318.41566 C 166.57088,318.62441 166.69302,318.78805 166.83771,318.90661 C 166.98239,319.02517 167.13062,319.11293 167.2824,319.16989 C 167.43418,319.22685 167.57767,319.26242 167.71288,319.27661 C 167.84808,319.2908 167.95599,319.29789 168.03663,319.29789 C 168.34018,319.29789 168.59159,319.25164 168.79085,319.15914 C 168.9901,319.06664 169.15021,318.95872 169.27115,318.83539 C 169.3921,318.71206 169.47982,318.58992 169.53432,318.46897 C 169.58882,318.34803 169.62555,318.25911 169.64452,318.20222 L 168.6698,318.0385 z M 167.26818,317.04966 C 167.2634,316.80763 167.32623,316.60363 167.45665,316.43766 C 167.58708,316.2717 167.76853,316.18872 168.00102,316.18871 C 168.03894,316.18872 168.09706,316.19581 168.17538,316.20999 C 168.25369,316.22418 168.33316,316.25976 168.41379,316.31672 C 168.49442,316.37368 168.56557,316.46025 168.62724,316.57641 C 168.6889,316.69258 168.72205,316.85033 168.72669,317.04966 L 167.26818,317.04966 z M 166.80807,315.05722 L 167.59779,315.05722 L 167.97496,314.53783 L 168.38035,315.05722 L 169.16313,315.05722 L 168.44441,314.03277 L 167.5409,314.03277 L 166.80807,315.05722 z M 172.1633,315.52688 L 171.50169,315.52688 L 171.50169,314.21777 L 170.5198,314.79405 L 170.5198,315.52688 L 170.07163,315.52688 L 170.07163,316.30249 L 170.5198,316.30249 L 170.5198,317.91039 C 170.5198,318.05269 170.52099,318.17367 170.52338,318.27333 C 170.52577,318.373 170.5317,318.46195 170.54119,318.54019 C 170.55067,318.61843 170.56489,318.68719 170.58385,318.74647 C 170.60282,318.80575 170.62648,318.86391 170.65486,318.92094 C 170.68815,318.99202 170.73683,319.05126 170.80088,319.09867 C 170.86494,319.14608 170.93489,319.18404 171.01074,319.21255 C 171.0866,319.24107 171.16484,319.26242 171.24547,319.27661 C 171.3261,319.2908 171.40441,319.29789 171.48041,319.29789 C 171.53252,319.29789 171.63327,319.2896 171.78266,319.27303 C 171.93205,319.25645 172.08745,319.21494 172.24886,319.1485 L 172.1633,318.39439 L 172.13486,318.40133 C 172.07319,318.42507 172.01391,318.44527 171.95702,318.46191 C 171.90013,318.47856 171.83847,318.48689 171.77202,318.48689 C 171.70558,318.48689 171.65339,318.47502 171.61547,318.45127 C 171.57754,318.42754 171.55029,318.38838 171.53372,318.3338 C 171.51714,318.27923 171.50766,318.20808 171.50527,318.12036 C 171.50288,318.03264 171.50169,317.92233 171.50169,317.78944 L 171.50169,316.30249 L 172.1633,316.30249 L 172.1633,315.52688 z M 174.99514,318.0385 C 174.98095,318.0812 174.96319,318.13219 174.94184,318.19147 C 174.92048,318.25075 174.8861,318.30648 174.8387,318.35867 C 174.79129,318.41085 174.73081,318.45594 174.65728,318.49394 C 174.58374,318.53194 174.49001,318.55094 174.37609,318.55094 C 174.23857,318.55094 174.12001,318.52485 174.02042,318.47266 C 173.92082,318.42048 173.8378,318.35168 173.77136,318.26627 C 173.70492,318.18087 173.65628,318.08363 173.62545,317.97455 C 173.59461,317.86548 173.57688,317.75637 173.57225,317.64722 L 176.01981,317.64722 C 176.02458,317.37681 176.00088,317.1088 175.9487,316.84316 C 175.89651,316.57754 175.80401,316.34154 175.6712,316.13519 C 175.53838,315.92884 175.35812,315.76165 175.13042,315.6336 C 174.90271,315.50557 174.61573,315.44155 174.26947,315.44155 C 173.97532,315.44155 173.72272,315.49609 173.51167,315.60516 C 173.30061,315.71424 173.12513,315.86008 172.98522,316.04269 C 172.84531,316.2253 172.74214,316.43401 172.67569,316.6688 C 172.60925,316.9036 172.57603,317.14433 172.57603,317.391 C 172.57603,317.54285 172.59264,317.70653 172.62586,317.88205 C 172.65908,318.05757 172.71601,318.23544 172.79664,318.41566 C 172.89623,318.62441 173.01837,318.78805 173.16306,318.90661 C 173.30774,319.02517 173.45597,319.11293 173.60775,319.16989 C 173.75953,319.22685 173.90302,319.26242 174.03822,319.27661 C 174.17342,319.2908 174.28134,319.29789 174.36197,319.29789 C 174.66553,319.29789 174.91694,319.25164 175.1162,319.15914 C 175.31545,319.06664 175.47555,318.95872 175.5965,318.83539 C 175.71744,318.71206 175.80517,318.58992 175.85967,318.46897 C 175.91417,318.34803 175.9509,318.25911 175.96987,318.20222 L 174.99514,318.0385 z M 173.59353,317.04966 C 173.58875,316.80763 173.65157,316.60363 173.782,316.43766 C 173.91243,316.2717 174.09388,316.18872 174.32636,316.18871 C 174.36429,316.18872 174.42241,316.19581 174.50072,316.20999 C 174.57904,316.22418 174.65851,316.25976 174.73914,316.31672 C 174.81977,316.37368 174.89092,316.46025 174.95258,316.57641 C 175.01425,316.69258 175.0474,316.85033 175.05203,317.04966 L 173.59353,317.04966 z M 176.54637,318.15944 C 176.56533,318.23067 176.6009,318.33268 176.65309,318.4655 C 176.70527,318.59831 176.80013,318.72639 176.93765,318.84972 C 177.04202,318.94454 177.15587,319.02158 177.2792,319.08086 C 177.40253,319.14014 177.52587,319.18639 177.6492,319.21961 C 177.77253,319.25283 177.89113,319.27419 178.00498,319.28367 C 178.11883,319.29315 178.22078,319.29789 178.31082,319.29789 C 178.61437,319.29789 178.87287,319.25996 179.08632,319.18411 C 179.29976,319.10826 179.47289,319.01102 179.60571,318.89239 C 179.73852,318.77376 179.83576,318.64094 179.89743,318.49394 C 179.9591,318.34694 179.98993,318.20229 179.98993,318.06 C 179.98993,317.85603 179.94842,317.6888 179.8654,317.5583 C 179.78238,317.4278 179.67331,317.31989 179.53818,317.23455 C 179.40305,317.14922 179.25246,317.08165 179.08643,317.03185 C 178.92039,316.98206 178.75674,316.93813 178.59548,316.90005 C 178.53381,316.88587 178.46502,316.86929 178.38909,316.85033 C 178.31317,316.83137 178.23728,316.81121 178.16143,316.78986 C 178.08557,316.76851 178.01323,316.74835 177.9444,316.72938 C 177.87557,316.71042 177.81748,316.69146 177.77015,316.67249 C 177.71789,316.64876 177.67399,316.61792 177.63845,316.57999 C 177.60291,316.54207 177.58515,316.49698 177.58515,316.44472 C 177.58515,316.36887 177.6124,316.31078 177.6669,316.27047 C 177.7214,316.23015 177.78542,316.20051 177.85896,316.18155 C 177.93249,316.16259 178.00603,316.15072 178.07957,316.14594 C 178.1531,316.14116 178.21122,316.13878 178.25393,316.13877 C 178.29663,316.13878 178.35117,316.14236 178.41754,316.14952 C 178.48391,316.15669 178.55032,316.17449 178.61676,316.20294 C 178.6832,316.23138 178.74726,316.27525 178.80893,316.33452 C 178.87059,316.3938 178.91561,316.47801 178.94399,316.58716 L 179.86899,316.41627 C 179.75998,316.05105 179.56908,315.79729 179.29629,315.65499 C 179.02349,315.5127 178.66894,315.44155 178.23265,315.44155 C 178.03809,315.44155 177.84831,315.46051 177.66332,315.49844 C 177.47831,315.53637 177.31231,315.60039 177.16531,315.69049 C 177.01831,315.78061 176.90091,315.89685 176.81312,316.03922 C 176.72532,316.18159 176.68143,316.35946 176.68143,316.57283 C 176.68143,316.79098 176.73006,316.9712 176.82734,317.1135 C 176.92462,317.2558 177.05863,317.37319 177.22937,317.46569 C 177.40011,317.55819 177.60407,317.63528 177.84126,317.69694 C 178.07844,317.75861 178.33694,317.82028 178.61676,317.88194 C 178.73068,317.90568 178.82557,317.93655 178.90143,317.97455 C 178.97728,318.01255 179.0152,318.08605 179.01521,318.19505 C 179.0152,318.29465 178.98202,318.37173 178.91565,318.4263 C 178.84928,318.48088 178.77578,318.52119 178.69515,318.54725 C 178.61452,318.57331 178.53504,318.58872 178.45673,318.5935 C 178.37842,318.59828 178.32978,318.60067 178.31082,318.60066 C 178.23019,318.60067 178.14956,318.59238 178.06893,318.5758 C 177.9883,318.55923 177.91241,318.52959 177.84126,318.48689 C 177.77011,318.44418 177.70605,318.38487 177.64909,318.30894 C 177.59213,318.23302 177.54946,318.13339 177.52109,318.01005 L 176.54637,318.15944 z M 184.88517,318.0385 C 184.87098,318.0812 184.85322,318.13219 184.83187,318.19147 C 184.81051,318.25075 184.77613,318.30648 184.72873,318.35867 C 184.68132,318.41085 184.62084,318.45594 184.54731,318.49394 C 184.47377,318.53194 184.38004,318.55094 184.26612,318.55094 C 184.1286,318.55094 184.01004,318.52485 183.91045,318.47266 C 183.81085,318.42048 183.72783,318.35168 183.66139,318.26627 C 183.59495,318.18087 183.54631,318.08363 183.51548,317.97455 C 183.48464,317.86548 183.46691,317.75637 183.46228,317.64722 L 185.90984,317.64722 C 185.91461,317.37681 185.89091,317.1088 185.83873,316.84316 C 185.78654,316.57754 185.69404,316.34154 185.56123,316.13519 C 185.42841,315.92884 185.24815,315.76165 185.02045,315.6336 C 184.79274,315.50557 184.50576,315.44155 184.1595,315.44155 C 183.86535,315.44155 183.61275,315.49609 183.4017,315.60516 C 183.19064,315.71424 183.01516,315.86008 182.87525,316.04269 C 182.73534,316.2253 182.63217,316.43401 182.56572,316.6688 C 182.49928,316.9036 182.46606,317.14433 182.46606,317.391 C 182.46606,317.54285 182.48267,317.70653 182.51589,317.88205 C 182.54911,318.05757 182.60604,318.23544 182.68667,318.41566 C 182.78626,318.62441 182.9084,318.78805 183.05308,318.90661 C 183.19777,319.02517 183.346,319.11293 183.49778,319.16989 C 183.64956,319.22685 183.79305,319.26242 183.92825,319.27661 C 184.06345,319.2908 184.17137,319.29789 184.252,319.29789 C 184.55556,319.29789 184.80697,319.25164 185.00623,319.15914 C 185.20548,319.06664 185.36558,318.95872 185.48653,318.83539 C 185.60747,318.71206 185.6952,318.58992 185.7497,318.46897 C 185.8042,318.34803 185.84093,318.25911 185.8599,318.20222 L 184.88517,318.0385 z M 183.48356,317.04966 C 183.47878,316.80763 183.5416,316.60363 183.67203,316.43766 C 183.80246,316.2717 183.98391,316.18872 184.21639,316.18871 C 184.25432,316.18872 184.31244,316.19581 184.39075,316.20999 C 184.46907,316.22418 184.54854,316.25976 184.62917,316.31672 C 184.7098,316.37368 184.78095,316.46025 184.84261,316.57641 C 184.90428,316.69258 184.93743,316.85033 184.94206,317.04966 L 183.48356,317.04966 z M 188.37868,315.52688 L 187.71707,315.52688 L 187.71707,314.21777 L 186.73518,314.79405 L 186.73518,315.52688 L 186.28701,315.52688 L 186.28701,316.30249 L 186.73518,316.30249 L 186.73518,317.91039 C 186.73518,318.05269 186.73637,318.17367 186.73876,318.27333 C 186.74115,318.373 186.74708,318.46195 186.75656,318.54019 C 186.76605,318.61843 186.78027,318.68719 186.79923,318.74647 C 186.81819,318.80575 186.84186,318.86391 186.87024,318.92094 C 186.90353,318.99202 186.9522,319.05126 187.01626,319.09867 C 187.08031,319.14608 187.15027,319.18404 187.22612,319.21255 C 187.30197,319.24107 187.38021,319.26242 187.46085,319.27661 C 187.54147,319.2908 187.61979,319.29789 187.69579,319.29789 C 187.7479,319.29789 187.84865,319.2896 187.99804,319.27303 C 188.14743,319.25645 188.30283,319.21494 188.46423,319.1485 L 188.37868,318.39439 L 188.35024,318.40133 C 188.28857,318.42507 188.22929,318.44527 188.1724,318.46191 C 188.11551,318.47856 188.05384,318.48689 187.9874,318.48689 C 187.92096,318.48689 187.86877,318.47502 187.83085,318.45127 C 187.79292,318.42754 187.76567,318.38838 187.74909,318.3338 C 187.73252,318.27923 187.72304,318.20808 187.72065,318.12036 C 187.71826,318.03264 187.71707,317.92233 187.71707,317.78944 L 187.71707,316.30249 L 188.37868,316.30249 L 188.37868,315.52688 z M 194.42663,319.21255 L 194.42663,314.1181 L 193.4519,314.1181 L 193.4519,315.95377 C 193.41397,315.91107 193.36534,315.86128 193.30599,315.80438 C 193.24664,315.7475 193.1731,315.69176 193.08538,315.63719 C 192.99765,315.58262 192.89448,315.53637 192.77585,315.49844 C 192.65722,315.46051 192.52444,315.44155 192.37751,315.44155 C 192.17355,315.44155 191.97787,315.47951 191.79049,315.55544 C 191.6031,315.63136 191.43825,315.74637 191.29596,315.90047 C 191.15366,316.05456 191.03981,316.2502 190.9544,316.48738 C 190.86899,316.72457 190.82629,317.00681 190.82629,317.33411 C 190.82629,317.66618 190.86899,317.95436 190.9544,318.19864 C 191.03981,318.44292 191.15485,318.64688 191.29954,318.81053 C 191.44422,318.97418 191.60907,319.09631 191.79407,319.17694 C 191.97907,319.25757 192.17116,319.29789 192.37035,319.29789 C 192.42724,319.29789 192.49958,319.2908 192.58738,319.27661 C 192.67517,319.26242 192.77122,319.23398 192.87552,319.19128 C 192.97981,319.14857 193.08653,319.08571 193.19568,319.00269 C 193.30483,318.91967 193.40681,318.80941 193.50163,318.67189 L 193.51596,318.67189 L 193.51596,319.21255 L 194.42663,319.21255 z M 193.45885,317.28438 C 193.45885,317.55002 193.43395,317.75991 193.38416,317.91408 C 193.33436,318.06825 193.25018,318.20222 193.13163,318.316 C 193.04144,318.40141 192.94775,318.45717 192.85055,318.4833 C 192.75334,318.50943 192.67151,318.5225 192.60507,318.5225 C 192.51966,318.5225 192.4319,318.50589 192.34179,318.47266 C 192.25168,318.43944 192.1687,318.37893 192.09285,318.29114 C 192.01699,318.20334 191.95417,318.08594 191.90437,317.93894 C 191.85458,317.79194 191.82968,317.60459 191.82968,317.37688 C 191.82968,317.27252 191.83796,317.15273 191.85454,317.01752 C 191.87111,316.88232 191.90785,316.75305 191.96474,316.62972 C 192.02163,316.50639 192.10345,316.40205 192.21021,316.31672 C 192.31697,316.23138 192.46046,316.18872 192.64068,316.18871 C 192.86838,316.18872 193.06167,316.27763 193.22055,316.45547 C 193.37941,316.6333 193.45885,316.90961 193.45885,317.28438 L 193.45885,317.28438 z M 195.35863,314.1181 L 195.35863,315.09283 L 195.82829,315.09283 C 195.82352,315.23049 195.80097,315.34319 195.76066,315.43091 C 195.72034,315.51863 195.67174,315.58978 195.61485,315.64435 C 195.55796,315.69893 195.49868,315.73924 195.43701,315.7653 C 195.37535,315.79136 195.32077,315.81148 195.27329,315.82566 L 195.46546,316.23127 C 195.68361,316.15542 195.8508,316.05938 195.96704,315.94313 C 196.08328,315.8269 196.16865,315.70356 196.22316,315.57313 C 196.27766,315.44271 196.30965,315.31109 196.31913,315.17827 C 196.32861,315.04546 196.33335,314.92448 196.33335,314.81533 L 196.33335,314.1181 L 195.35863,314.1181 z M 201.97576,319.21255 L 199.93381,314.1181 L 198.84509,314.1181 L 196.86002,319.21255 L 197.9557,319.21255 L 198.37542,318.06 L 200.41042,318.06 L 200.85164,319.21255 L 201.97576,319.21255 z M 198.68853,317.19905 L 199.37881,315.30627 L 200.0832,317.19905 L 198.68853,317.19905 z M 204.86443,319.21255 L 205.83915,319.21255 L 205.83915,316.92155 C 205.83915,316.83137 205.8368,316.73174 205.83209,316.62266 C 205.82739,316.51359 205.81316,316.40332 205.78943,316.29185 C 205.76568,316.18039 205.72891,316.07483 205.67912,315.97516 C 205.62932,315.8755 205.55463,315.78774 205.45504,315.71188 C 205.37918,315.65022 205.29975,315.60162 205.21673,315.56608 C 205.13371,315.53054 205.05424,315.50325 204.97831,315.48421 C 204.90239,315.46518 204.83243,315.45331 204.76845,315.4486 C 204.70447,315.4439 204.65112,315.44155 204.60842,315.44155 C 204.41864,315.44155 204.21584,315.48425 204.00001,315.56966 C 203.78417,315.65507 203.58614,315.82111 203.40592,316.06777 L 203.39159,316.06777 L 203.39159,315.52688 L 202.48092,315.52688 L 202.48092,319.21255 L 203.45565,319.21255 L 203.45565,317.5406 C 203.45564,317.38876 203.46038,317.22507 203.46987,317.04955 C 203.47935,316.87403 203.51022,316.7317 203.56248,316.62255 C 203.62414,316.48504 203.71899,316.37835 203.84703,316.30249 C 203.97507,316.22664 204.11501,316.18872 204.26687,316.18871 C 204.41394,316.18872 204.52895,316.21955 204.6119,316.28121 C 204.69484,316.34288 204.75412,316.42587 204.78973,316.53016 C 204.82534,316.63446 204.84669,316.75541 204.85379,316.893 C 204.86088,317.03059 204.86442,317.17524 204.86443,317.32694 L 204.86443,319.21255 z M 207.58955,316.65121 C 207.60374,316.60374 207.6227,316.5539 207.64644,316.50172 C 207.67018,316.44953 207.70579,316.39974 207.75327,316.35233 C 207.80075,316.30492 207.86242,316.2658 207.93827,316.23496 C 208.01412,316.20413 208.11133,316.18872 208.22989,316.18871 C 208.39592,316.18872 208.524,316.20413 208.61411,316.23496 C 208.70422,316.2658 208.77063,316.30612 208.81333,316.35591 C 208.85603,316.40571 208.88093,316.46144 208.88803,316.5231 C 208.89512,316.58477 208.89866,316.64644 208.89867,316.7081 L 208.89867,316.80755 C 208.85133,316.82652 208.80037,316.84552 208.7458,316.86455 C 208.69123,316.88359 208.62837,316.90139 208.55722,316.91797 C 208.48607,316.93454 208.40189,316.95351 208.30469,316.97486 C 208.20748,316.99621 208.09005,317.01876 207.95239,317.04249 C 207.82442,317.06624 207.68216,317.09826 207.5256,317.13858 C 207.36905,317.17889 207.22317,317.24056 207.08797,317.32358 C 206.95276,317.4066 206.83891,317.51806 206.74641,317.65797 C 206.65391,317.79788 206.60766,317.98168 206.60766,318.20938 C 206.60766,318.37065 206.63614,318.51768 206.6931,318.6505 C 206.75007,318.78331 206.83189,318.89832 206.93858,318.99553 C 207.04526,319.09273 207.17449,319.16743 207.32627,319.21961 C 207.47805,319.2718 207.64644,319.29789 207.83144,319.29789 C 207.97851,319.29789 208.11252,319.28128 208.23347,319.24806 C 208.35441,319.21483 208.46233,319.17333 208.55722,319.12353 C 208.65211,319.07373 208.73393,319.02039 208.80269,318.9635 C 208.87145,318.90661 208.92957,318.85443 208.97705,318.80694 L 209.03394,319.00628 C 209.04813,319.05839 209.06115,319.09986 209.07303,319.13069 C 209.08489,319.16153 209.09561,319.18881 209.10516,319.21255 L 210.06556,319.21255 C 210.02763,319.1367 209.99683,319.06675 209.97317,319.00269 C 209.94949,318.93864 209.92934,318.87223 209.91269,318.80347 C 209.89604,318.73471 209.88298,318.65763 209.8735,318.57222 C 209.86402,318.48681 209.85689,318.38244 209.85211,318.25911 C 209.85211,318.207 209.85211,318.1145 209.85211,317.98161 C 209.85211,317.84887 209.85211,317.70657 209.85211,317.55472 C 209.85211,317.40287 209.8533,317.25818 209.8557,317.12066 C 209.85808,316.98315 209.85927,316.88594 209.85928,316.82905 C 209.85927,316.66301 209.85099,316.49698 209.83442,316.33094 C 209.81784,316.1649 209.76091,316.01667 209.66364,315.88624 C 209.56636,315.75582 209.41219,315.6491 209.20114,315.56608 C 208.99008,315.48306 208.69007,315.44155 208.30111,315.44155 C 208.02592,315.44155 207.79587,315.46884 207.61094,315.52341 C 207.42601,315.57799 207.27304,315.65152 207.15202,315.74402 C 207.031,315.83652 206.93731,315.94679 206.87094,316.07483 C 206.80457,316.20287 206.75003,316.34042 206.70733,316.48749 L 207.58955,316.65121 z M 208.89867,317.6331 C 208.89866,317.799 208.89038,317.94245 208.8738,318.06347 C 208.85723,318.18449 208.79675,318.29002 208.69239,318.38005 C 208.61653,318.4465 208.53116,318.50107 208.43627,318.54377 C 208.34138,318.58648 208.23705,318.60783 208.12327,318.60783 C 208.02831,318.60783 207.94645,318.59122 207.87769,318.558 C 207.80893,318.52478 207.7532,318.48327 207.7105,318.43347 C 207.66779,318.38367 207.63576,318.32914 207.61441,318.26986 C 207.59306,318.21058 207.58238,318.15481 207.58239,318.10255 C 207.58238,318.01715 207.60374,317.946 207.64644,317.88911 C 207.68914,317.83222 207.74013,317.78597 207.79941,317.75036 C 207.85869,317.71475 207.92155,317.68746 207.988,317.6685 C 208.05444,317.64954 208.10901,317.63535 208.15172,317.62594 C 208.16113,317.62116 208.18244,317.61523 208.21566,317.60813 C 208.24888,317.60104 208.2833,317.59391 208.31891,317.58675 C 208.35452,317.57958 208.38774,317.57245 208.41858,317.56536 C 208.44941,317.55827 208.47192,317.55472 208.48611,317.55472 C 208.59988,317.53098 208.68406,317.51082 208.73864,317.49425 C 208.79321,317.47767 208.84655,317.4599 208.89867,317.44094 L 208.89867,317.6331 z M 210.7986,319.21255 L 211.77332,319.21255 L 211.77332,314.1181 L 210.7986,314.1181 L 210.7986,319.21255 z M 212.33539,315.52688 L 213.737,319.21972 C 213.68967,319.39039 213.63397,319.52317 213.56992,319.61806 C 213.50586,319.71295 213.43945,319.78409 213.37069,319.8315 C 213.30193,319.87891 213.23433,319.90739 213.16789,319.91695 C 213.10144,319.9265 213.03978,319.93128 212.98289,319.93128 C 212.90703,319.93128 212.84063,319.92889 212.78367,319.92411 C 212.7267,319.91933 212.65552,319.90746 212.57011,319.8885 L 212.65545,320.64978 C 212.72189,320.66397 212.79901,320.67699 212.8868,320.68887 C 212.9746,320.70073 213.08248,320.70667 213.21045,320.70667 C 213.47144,320.70667 213.68377,320.67348 213.84742,320.60711 C 214.01106,320.54074 214.14623,320.44589 214.25292,320.32256 C 214.3596,320.19922 214.44852,320.05334 214.51967,319.88492 C 214.59082,319.71649 214.662,319.52798 214.73322,319.31939 C 214.75696,319.26713 214.77592,319.2173 214.79011,319.16989 C 214.8043,319.12248 214.81617,319.09161 214.82572,319.07728 L 216.12767,315.52688 L 215.11734,315.52688 L 214.26356,318.14533 L 214.24944,318.14533 L 213.37417,315.52688 L 212.33539,315.52688 z M 216.48356,318.15944 C 216.50252,318.23067 216.5381,318.33268 216.59028,318.4655 C 216.64247,318.59831 216.73732,318.72639 216.87484,318.84972 C 216.97921,318.94454 217.09306,319.02158 217.2164,319.08086 C 217.33973,319.14014 217.46306,319.18639 217.5864,319.21961 C 217.70973,319.25283 217.82832,319.27419 217.94218,319.28367 C 218.05603,319.29315 218.15797,319.29789 218.24801,319.29789 C 218.55157,319.29789 218.81007,319.25996 219.02351,319.18411 C 219.23696,319.10826 219.41009,319.01102 219.5429,318.89239 C 219.67572,318.77376 219.77296,318.64094 219.83463,318.49394 C 219.89629,318.34694 219.92712,318.20229 219.92713,318.06 C 219.92712,317.85603 219.88561,317.6888 219.8026,317.5583 C 219.71958,317.4278 219.6105,317.31989 219.47538,317.23455 C 219.34024,317.14922 219.18966,317.08165 219.02362,317.03185 C 218.85758,316.98206 218.69394,316.93813 218.53268,316.90005 C 218.47101,316.88587 218.40221,316.86929 218.32629,316.85033 C 218.25036,316.83137 218.17447,316.81121 218.09862,316.78986 C 218.02277,316.76851 217.95042,316.74835 217.88159,316.72938 C 217.81276,316.71042 217.75468,316.69146 217.70734,316.67249 C 217.65508,316.64876 217.61119,316.61792 217.57565,316.57999 C 217.54011,316.54207 217.52234,316.49698 217.52234,316.44472 C 217.52234,316.36887 217.54959,316.31078 217.60409,316.27047 C 217.65859,316.23015 217.72261,316.20051 217.79615,316.18155 C 217.86969,316.16259 217.94322,316.15072 218.01676,316.14594 C 218.0903,316.14116 218.14842,316.13878 218.19112,316.13877 C 218.23382,316.13878 218.28836,316.14236 218.35473,316.14952 C 218.4211,316.15669 218.48751,316.17449 218.55396,316.20294 C 218.6204,316.23138 218.68445,316.27525 218.74612,316.33452 C 218.80779,316.3938 218.85281,316.47801 218.88118,316.58716 L 219.80618,316.41627 C 219.69718,316.05105 219.50628,315.79729 219.23349,315.65499 C 218.96069,315.5127 218.60614,315.44155 218.16984,315.44155 C 217.97529,315.44155 217.78551,315.46051 217.60051,315.49844 C 217.41551,315.53637 217.24951,315.60039 217.10251,315.69049 C 216.95551,315.78061 216.83811,315.89685 216.75031,316.03922 C 216.66252,316.18159 216.61862,316.35946 216.61862,316.57283 C 216.61862,316.79098 216.66726,316.9712 216.76454,317.1135 C 216.86181,317.2558 216.99582,317.37319 217.16656,317.46569 C 217.3373,317.55819 217.54127,317.63528 217.77845,317.69694 C 218.01564,317.75861 218.27414,317.82028 218.55396,317.88194 C 218.66788,317.90568 218.76277,317.93655 218.83862,317.97455 C 218.91447,318.01255 218.9524,318.08605 218.9524,318.19505 C 218.9524,318.29465 218.91921,318.37173 218.85285,318.4263 C 218.78647,318.48088 218.71297,318.52119 218.63234,318.54725 C 218.55171,318.57331 218.47224,318.58872 218.39393,318.5935 C 218.31561,318.59828 218.26697,318.60067 218.24801,318.60066 C 218.16738,318.60067 218.08675,318.59238 218.00612,318.5758 C 217.92549,318.55923 217.8496,318.52959 217.77845,318.48689 C 217.7073,318.44418 217.64325,318.38487 217.58629,318.30894 C 217.52933,318.23302 217.48666,318.13339 217.45829,318.01005 L 216.48356,318.15944 z M 222.84436,318.0385 C 222.83017,318.0812 222.8124,318.13219 222.79105,318.19147 C 222.76969,318.25075 222.73531,318.30648 222.68791,318.35867 C 222.6405,318.41085 222.58003,318.45594 222.50649,318.49394 C 222.43295,318.53194 222.33922,318.55094 222.2253,318.55094 C 222.08778,318.55094 221.96922,318.52485 221.86963,318.47266 C 221.77004,318.42048 221.68702,318.35168 221.62058,318.26627 C 221.55413,318.18087 221.50549,318.08363 221.47466,317.97455 C 221.44382,317.86548 221.42609,317.75637 221.42146,317.64722 L 223.86902,317.64722 C 223.8738,317.37681 223.85009,317.1088 223.79791,316.84316 C 223.74572,316.57754 223.65322,316.34154 223.52041,316.13519 C 223.38759,315.92884 223.20733,315.76165 222.97963,315.6336 C 222.75193,315.50557 222.46494,315.44155 222.11869,315.44155 C 221.82454,315.44155 221.57194,315.49609 221.36088,315.60516 C 221.14982,315.71424 220.97434,315.86008 220.83443,316.04269 C 220.69452,316.2253 220.59135,316.43401 220.52491,316.6688 C 220.45846,316.9036 220.42524,317.14433 220.42524,317.391 C 220.42524,317.54285 220.44185,317.70653 220.47507,317.88205 C 220.50829,318.05757 220.56522,318.23544 220.64585,318.41566 C 220.74544,318.62441 220.86758,318.78805 221.01227,318.90661 C 221.15695,319.02517 221.30518,319.11293 221.45696,319.16989 C 221.60874,319.22685 221.75223,319.26242 221.88744,319.27661 C 222.02264,319.2908 222.13055,319.29789 222.21119,319.29789 C 222.51474,319.29789 222.76615,319.25164 222.96541,319.15914 C 223.16467,319.06664 223.32477,318.95872 223.44572,318.83539 C 223.56666,318.71206 223.65438,318.58992 223.70888,318.46897 C 223.76338,318.34803 223.80011,318.25911 223.81908,318.20222 L 222.84436,318.0385 z M 221.44274,317.04966 C 221.43796,316.80763 221.50079,316.60363 221.63121,316.43766 C 221.76164,316.2717 221.94309,316.18872 222.17558,316.18871 C 222.2135,316.18872 222.27162,316.19581 222.34994,316.20999 C 222.42825,316.22418 222.50772,316.25976 222.58835,316.31672 C 222.66898,316.37368 222.74013,316.46025 222.8018,316.57641 C 222.86346,316.69258 222.89661,316.85033 222.90125,317.04966 L 221.44274,317.04966 z M 224.39558,318.15944 C 224.41454,318.23067 224.45012,318.33268 224.5023,318.4655 C 224.55449,318.59831 224.64934,318.72639 224.78686,318.84972 C 224.89123,318.94454 225.00508,319.02158 225.12841,319.08086 C 225.25175,319.14014 225.37508,319.18639 225.49842,319.21961 C 225.62175,319.25283 225.74034,319.27419 225.85419,319.28367 C 225.96804,319.29315 226.06999,319.29789 226.16003,319.29789 C 226.46358,319.29789 226.72208,319.25996 226.93553,319.18411 C 227.14897,319.10826 227.3221,319.01102 227.45492,318.89239 C 227.58773,318.77376 227.68497,318.64094 227.74665,318.49394 C 227.80831,318.34694 227.83914,318.20229 227.83915,318.06 C 227.83914,317.85603 227.79763,317.6888 227.71462,317.5583 C 227.6316,317.4278 227.52252,317.31989 227.38739,317.23455 C 227.25226,317.14922 227.10167,317.08165 226.93564,317.03185 C 226.7696,316.98206 226.60595,316.93813 226.4447,316.90005 C 226.38303,316.88587 226.31423,316.86929 226.23831,316.85033 C 226.16238,316.83137 226.08649,316.81121 226.01064,316.78986 C 225.93479,316.76851 225.86244,316.74835 225.79361,316.72938 C 225.72478,316.71042 225.66669,316.69146 225.61936,316.67249 C 225.5671,316.64876 225.5232,316.61792 225.48767,316.57999 C 225.45213,316.54207 225.43436,316.49698 225.43436,316.44472 C 225.43436,316.36887 225.46161,316.31078 225.51611,316.27047 C 225.57061,316.23015 225.63463,316.20051 225.70817,316.18155 C 225.7817,316.16259 225.85524,316.15072 225.92878,316.14594 C 226.00231,316.14116 226.06043,316.13878 226.10314,316.13877 C 226.14584,316.13878 226.20038,316.14236 226.26675,316.14952 C 226.33312,316.15669 226.39953,316.17449 226.46597,316.20294 C 226.53242,316.23138 226.59647,316.27525 226.65814,316.33452 C 226.7198,316.3938 226.76482,316.47801 226.7932,316.58716 L 227.7182,316.41627 C 227.60919,316.05105 227.4183,315.79729 227.1455,315.65499 C 226.8727,315.5127 226.51816,315.44155 226.08186,315.44155 C 225.8873,315.44155 225.69753,315.46051 225.51253,315.49844 C 225.32753,315.53637 225.16153,315.60039 225.01453,315.69049 C 224.86752,315.78061 224.75013,315.89685 224.66233,316.03922 C 224.57454,316.18159 224.53064,316.35946 224.53064,316.57283 C 224.53064,316.79098 224.57928,316.9712 224.67655,317.1135 C 224.77383,317.2558 224.90784,317.37319 225.07858,317.46569 C 225.24932,317.55819 225.45329,317.63528 225.69047,317.69694 C 225.92766,317.75861 226.18616,317.82028 226.46597,317.88194 C 226.5799,317.90568 226.67479,317.93655 226.75064,317.97455 C 226.82649,318.01255 226.86442,318.08605 226.86442,318.19505 C 226.86442,318.29465 226.83123,318.37173 226.76486,318.4263 C 226.69849,318.48088 226.62499,318.52119 226.54436,318.54725 C 226.46373,318.57331 226.38426,318.58872 226.30595,318.5935 C 226.22763,318.59828 226.17899,318.60067 226.16003,318.60066 C 226.0794,318.60067 225.99877,318.59238 225.91814,318.5758 C 225.83751,318.55923 225.76162,318.52959 225.69047,318.48689 C 225.61932,318.44418 225.55527,318.38487 225.49831,318.30894 C 225.44134,318.23302 225.39868,318.13339 225.3703,318.01005 L 224.39558,318.15944 z"
       id="text39" />
    <path
       transform="scale(0.9486833,1.0540926)"
       style="font-size:7.11512470000000000px;font-style:normal;font-variant:normal;font-weight:normal;font-stretch:normal;text-align:start;line-height:125%;writing-mode:lr-tb;text-anchor:start;font-family:Arial MT;-inkscape-font-specification:Arial MT;fill:#656263;fill-opacity:1"
       d="M 115.87504,330.11339 L 115.87504,325.00982 L 116.4448,325.00982 L 116.4448,325.48926 C 116.57914,325.30166 116.73084,325.16095 116.89992,325.06714 C 117.06899,324.97335 117.27397,324.92644 117.51485,324.92644 C 117.82984,324.92644 118.10777,325.00751 118.34865,325.16963 C 118.58953,325.33176 118.77134,325.56048 118.8941,325.85578 C 119.01685,326.15109 119.07823,326.47477 119.07823,326.82682 C 119.07823,327.20435 119.01048,327.54424 118.87499,327.84649 C 118.7395,328.14874 118.54263,328.38036 118.28438,328.54133 C 118.02613,328.7023 117.75457,328.78278 117.46969,328.78278 C 117.26123,328.78278 117.07421,328.73878 116.9086,328.65076 C 116.743,328.56275 116.60693,328.45158 116.50039,328.31724 L 116.50039,330.11339 L 115.87504,330.11339 z M 116.44133,326.87546 C 116.44133,327.35026 116.53745,327.70115 116.72968,327.92813 C 116.92192,328.15511 117.15469,328.2686 117.428,328.2686 C 117.70593,328.2686 117.94391,328.15106 118.14194,327.91597 C 118.33996,327.68089 118.43898,327.31668 118.43898,326.82334 C 118.43898,326.35317 118.34228,326.00112 118.14889,325.76719 C 117.95549,325.53327 117.72446,325.4163 117.45579,325.4163 C 117.18943,325.4163 116.95377,325.54079 116.74879,325.78977 C 116.54381,326.03876 116.44133,326.40065 116.44133,326.87546 L 116.44133,326.87546 z M 119.78327,326.85461 C 119.78327,326.17136 119.97319,325.66529 120.35304,325.33639 C 120.67035,325.0631 121.05714,324.92644 121.51341,324.92644 C 122.02064,324.92644 122.43523,325.09263 122.75717,325.42499 C 123.07911,325.75735 123.24008,326.21652 123.24008,326.8025 C 123.24008,327.2773 123.16886,327.65078 123.02642,327.92292 C 122.88398,328.19507 122.67668,328.40641 122.40454,328.55696 C 122.1324,328.70751 121.83535,328.78278 121.51341,328.78278 C 120.99692,328.78278 120.57944,328.61718 120.26097,328.28597 C 119.9425,327.95477 119.78327,327.47765 119.78327,326.85461 L 119.78327,326.85461 z M 120.426,326.85461 C 120.42599,327.3271 120.52906,327.68089 120.7352,327.91597 C 120.94133,328.15106 121.20074,328.2686 121.51341,328.2686 C 121.82377,328.2686 122.08202,328.15048 122.28816,327.91424 C 122.49429,327.67799 122.59736,327.31784 122.59736,326.83377 C 122.59736,326.37749 122.49371,326.03181 122.28642,325.79672 C 122.07912,325.56164 121.82146,325.4441 121.51341,325.44409 C 121.20074,325.4441 120.94133,325.56106 120.7352,325.79499 C 120.52906,326.02892 120.42599,326.38212 120.426,326.85461 L 120.426,326.85461 z M 126.57507,328.6994 L 126.57507,328.15743 C 126.28787,328.57433 125.8976,328.78278 125.40427,328.78278 C 125.18656,328.78278 124.98332,328.74109 124.79455,328.65771 C 124.60579,328.57433 124.46566,328.46953 124.37418,328.3433 C 124.28269,328.21707 124.21842,328.06247 124.18136,327.87949 C 124.15588,327.75674 124.14314,327.56219 124.14314,327.29583 L 124.14314,325.00982 L 124.7685,325.00982 L 124.7685,327.05611 C 124.7685,327.38269 124.78123,327.60272 124.80671,327.71621 C 124.84609,327.88065 124.92947,328.00978 125.05685,328.10358 C 125.18424,328.19738 125.34174,328.24428 125.52934,328.24428 C 125.71695,328.24428 125.89297,328.19623 126.05742,328.10011 C 126.22186,328.00399 126.33825,327.87313 126.40657,327.70752 C 126.4749,327.54192 126.50906,327.30162 126.50906,326.98663 L 126.50906,325.00982 L 127.13441,325.00982 L 127.13441,328.6994 L 126.57507,328.6994 z M 128.2911,328.6994 L 128.2911,325.00982 L 128.85392,325.00982 L 128.85392,325.56916 C 128.99751,325.30745 129.13011,325.13489 129.25171,325.05151 C 129.37331,324.96813 129.50706,324.92644 129.65298,324.92644 C 129.86374,324.92644 130.07798,324.99361 130.2957,325.12794 L 130.0803,325.70813 C 129.92744,325.61781 129.77457,325.57264 129.62171,325.57264 C 129.48506,325.57264 129.3623,325.61375 129.25345,325.69597 C 129.14459,325.7782 129.067,325.89227 129.02068,326.03818 C 128.95119,326.26053 128.91645,326.50372 128.91645,326.76776 L 128.91645,328.6994 L 128.2911,328.6994 z M 133.00147,328.6994 L 133.00147,323.60625 L 133.62683,323.60625 L 133.62683,328.6994 L 133.00147,328.6994 z M 137.18754,328.24428 C 136.95592,328.44115 136.73299,328.58012 136.51876,328.66119 C 136.30451,328.74225 136.07464,328.78278 135.82913,328.78278 C 135.42381,328.78278 135.11229,328.68377 134.89458,328.48574 C 134.67686,328.28771 134.568,328.03468 134.568,327.72663 C 134.568,327.54597 134.60911,327.38095 134.69134,327.23156 C 134.77356,327.08217 134.88126,326.96231 135.01443,326.87198 C 135.14761,326.78166 135.29758,326.71333 135.46434,326.66701 C 135.58709,326.63458 135.77238,326.60331 136.02021,326.5732 C 136.52512,326.51299 136.89686,326.44119 137.13542,326.3578 C 137.13774,326.27211 137.13889,326.21768 137.1389,326.19452 C 137.13889,325.93975 137.07983,325.76025 136.96171,325.65602 C 136.8019,325.51474 136.5645,325.4441 136.24951,325.44409 C 135.95536,325.4441 135.73822,325.49563 135.5981,325.59869 C 135.45797,325.70176 135.35432,325.88416 135.28716,326.14588 L 134.6757,326.0625 C 134.73129,325.80078 134.82278,325.58943 134.95016,325.42846 C 135.07755,325.26749 135.26168,325.14358 135.50256,325.05672 C 135.74343,324.96987 136.02253,324.92644 136.33984,324.92644 C 136.65483,324.92644 136.91076,324.9635 137.10763,325.03761 C 137.3045,325.11173 137.44925,325.20496 137.5419,325.31729 C 137.63454,325.42962 137.6994,325.57148 137.73646,325.74287 C 137.7573,325.84942 137.76772,326.04166 137.76772,326.31959 L 137.76772,327.15339 C 137.76772,327.73474 137.78104,328.10242 137.80768,328.25644 C 137.83431,328.41047 137.887,328.55812 137.96575,328.6994 L 137.31261,328.6994 C 137.24775,328.5697 137.20606,328.41799 137.18754,328.24428 L 137.18754,328.24428 z M 137.13542,326.84766 C 136.90844,326.94031 136.56797,327.01906 136.11401,327.08391 C 135.85692,327.12097 135.67511,327.16266 135.56857,327.20898 C 135.46202,327.2553 135.3798,327.32305 135.3219,327.41222 C 135.264,327.50139 135.23504,327.6004 135.23505,327.70926 C 135.23504,327.87602 135.29816,328.01499 135.42439,328.12616 C 135.55062,328.23734 135.73533,328.29292 135.97852,328.29292 C 136.2194,328.29292 136.43364,328.24023 136.62124,328.13485 C 136.80885,328.02946 136.94666,327.88529 137.03467,327.70231 C 137.10184,327.56103 137.13542,327.35258 137.13542,327.07696 L 137.13542,326.84766 z M 140.83379,327.59809 L 141.45219,327.50081 C 141.48693,327.74864 141.58363,327.93856 141.74229,328.07057 C 141.90094,328.20259 142.12271,328.2686 142.40759,328.2686 C 142.69479,328.2686 142.90787,328.21012 143.04684,328.09316 C 143.18581,327.97619 143.25529,327.83896 143.25529,327.68147 C 143.25529,327.54018 143.19391,327.42901 143.07116,327.34795 C 142.98546,327.29236 142.77238,327.22172 142.43191,327.13602 C 141.97332,327.02022 141.65543,326.92004 141.47825,326.8355 C 141.30106,326.75097 141.16673,326.634 141.07524,326.48461 C 140.98376,326.33522 140.93801,326.1702 140.93801,325.98954 C 140.93801,325.8251 140.97565,325.67281 141.05092,325.53268 C 141.1262,325.39256 141.22869,325.27618 141.35839,325.18353 C 141.45567,325.11173 141.58826,325.05094 141.75618,325.00114 C 141.9241,324.95134 142.10418,324.92644 142.29642,324.92644 C 142.58593,324.92644 142.84013,324.96813 143.059,325.05151 C 143.27787,325.13489 143.43942,325.24781 143.54365,325.39024 C 143.64787,325.53269 143.71967,325.72319 143.75905,325.96175 L 143.14759,326.04513 C 143.1198,325.85521 143.03931,325.70698 142.90614,325.60043 C 142.77296,325.49389 142.58477,325.44062 142.34158,325.44062 C 142.05438,325.44062 141.84941,325.4881 141.72665,325.58306 C 141.6039,325.67802 141.54252,325.7892 141.54252,325.91658 C 141.54252,325.99765 141.568,326.07061 141.61895,326.13546 C 141.66991,326.20263 141.74981,326.25821 141.85867,326.30222 C 141.92121,326.32538 142.10534,326.37865 142.41107,326.46203 C 142.85344,326.58015 143.16207,326.67685 143.33694,326.75212 C 143.5118,326.8274 143.64903,326.93684 143.74863,327.08043 C 143.84822,327.22403 143.89801,327.40238 143.89802,327.61546 C 143.89801,327.82391 143.83721,328.0202 143.71562,328.20433 C 143.59402,328.38846 143.41858,328.5309 143.18928,328.63166 C 142.95998,328.73241 142.70058,328.78278 142.41107,328.78278 C 141.93163,328.78278 141.56626,328.68319 141.31496,328.484 C 141.06366,328.28482 140.90327,327.98951 140.83379,327.59809 L 140.83379,327.59809 z M 147.35221,327.51123 L 147.99841,327.59114 C 147.8965,327.96867 147.70773,328.26166 147.43212,328.47011 C 147.1565,328.67856 146.80445,328.78278 146.37597,328.78278 C 145.83631,328.78278 145.40841,328.6166 145.09226,328.28424 C 144.77611,327.95187 144.61803,327.48576 144.61803,326.88588 C 144.61803,326.26516 144.77784,325.78341 145.09747,325.44062 C 145.41709,325.09784 145.83168,324.92644 146.34123,324.92644 C 146.83456,324.92644 147.23756,325.09436 147.55024,325.4302 C 147.86291,325.76604 148.01925,326.23853 148.01926,326.84766 C 148.01925,326.88472 148.01809,326.94031 148.01578,327.01442 L 145.26423,327.01442 C 145.28739,327.41975 145.40204,327.73011 145.60817,327.9455 C 145.81431,328.1609 146.0714,328.2686 146.37944,328.2686 C 146.60874,328.2686 146.80445,328.20838 146.96658,328.08795 C 147.1287,327.96751 147.25725,327.77527 147.35221,327.51123 L 147.35221,327.51123 z M 145.29897,326.50024 L 147.35916,326.50024 C 147.33136,326.18989 147.25262,325.95712 147.12292,325.80193 C 146.92373,325.56106 146.66548,325.44062 146.34817,325.44062 C 146.06097,325.44062 145.81952,325.53674 145.62381,325.72898 C 145.42809,325.92122 145.31982,326.17831 145.29897,326.50024 L 145.29897,326.50024 z M 145.97644,324.55123 L 146.4385,323.57846 L 147.25841,323.57846 L 146.49409,324.55123 L 145.97644,324.55123 z M 151.3751,327.34795 L 151.99003,327.42785 C 151.92286,327.8517 151.75088,328.18349 151.47411,328.4232 C 151.19733,328.66292 150.85744,328.78278 150.45444,328.78278 C 149.94952,328.78278 149.54362,328.61776 149.23674,328.28771 C 148.92985,327.95766 148.77641,327.4846 148.77641,326.86851 C 148.77641,326.47014 148.84242,326.12156 148.97444,325.82278 C 149.10646,325.524 149.30738,325.29992 149.57721,325.15052 C 149.84703,325.00114 150.1406,324.92644 150.45791,324.92644 C 150.8586,324.92644 151.18633,325.02777 151.44111,325.23043 C 151.69588,325.4331 151.85916,325.72087 151.93097,326.09377 L 151.32298,326.18757 C 151.26508,325.93975 151.16259,325.7533 151.01552,325.62822 C 150.86844,325.50316 150.69068,325.44062 150.48223,325.44062 C 150.16724,325.44062 149.91131,325.55353 149.71444,325.77935 C 149.51757,326.00518 149.41913,326.36244 149.41913,326.85114 C 149.41913,327.34679 149.51409,327.70694 149.70402,327.93161 C 149.89394,328.15627 150.14176,328.2686 150.44749,328.2686 C 150.693,328.2686 150.89797,328.19333 151.06242,328.04278 C 151.22686,327.89223 151.33109,327.66062 151.3751,327.34795 L 151.3751,327.34795 z M 155.12807,328.6994 L 155.12807,328.15743 C 154.84087,328.57433 154.45061,328.78278 153.95727,328.78278 C 153.73956,328.78278 153.53632,328.74109 153.34755,328.65771 C 153.15879,328.57433 153.01866,328.46953 152.92718,328.3433 C 152.83569,328.21707 152.77142,328.06247 152.73436,327.87949 C 152.70888,327.75674 152.69615,327.56219 152.69615,327.29583 L 152.69615,325.00982 L 153.3215,325.00982 L 153.3215,327.05611 C 153.3215,327.38269 153.33424,327.60272 153.35971,327.71621 C 153.39909,327.88065 153.48247,328.00978 153.60986,328.10358 C 153.73724,328.19738 153.89474,328.24428 154.08234,328.24428 C 154.26995,328.24428 154.44597,328.19623 154.61042,328.10011 C 154.77486,328.00399 154.89125,327.87313 154.95958,327.70752 C 155.0279,327.54192 155.06206,327.30162 155.06206,326.98663 L 155.06206,325.00982 L 155.68742,325.00982 L 155.68742,328.6994 L 155.12807,328.6994 z M 156.8441,328.6994 L 156.8441,325.00982 L 157.40692,325.00982 L 157.40692,325.56916 C 157.55052,325.30745 157.68311,325.13489 157.80471,325.05151 C 157.92631,324.96813 158.06006,324.92644 158.20598,324.92644 C 158.41674,324.92644 158.63099,324.99361 158.8487,325.12794 L 158.6333,325.70813 C 158.48044,325.61781 158.32757,325.57264 158.17471,325.57264 C 158.03806,325.57264 157.91531,325.61375 157.80645,325.69597 C 157.69759,325.7782 157.62,325.89227 157.57368,326.03818 C 157.50419,326.26053 157.46945,326.50372 157.46945,326.76776 L 157.46945,328.6994 L 156.8441,328.6994 z M 159.40884,324.32541 L 159.40884,323.60625 L 160.0342,323.60625 L 160.0342,324.32541 L 159.40884,324.32541 z M 159.40884,328.6994 L 159.40884,325.00982 L 160.0342,325.00982 L 160.0342,328.6994 L 159.40884,328.6994 z M 162.53528,328.14006 L 162.62561,328.69245 C 162.44958,328.72951 162.29209,328.74804 162.15312,328.74804 C 161.92614,328.74804 161.75011,328.71214 161.62504,328.64034 C 161.49997,328.56854 161.41196,328.47416 161.36101,328.35719 C 161.31005,328.24023 161.28457,327.99414 161.28458,327.61893 L 161.28458,325.49621 L 160.82598,325.49621 L 160.82598,325.00982 L 161.28458,325.00982 L 161.28458,324.09611 L 161.90645,323.7209 L 161.90645,325.00982 L 162.53528,325.00982 L 162.53528,325.49621 L 161.90645,325.49621 L 161.90645,327.65367 C 161.90645,327.83202 161.91745,327.94666 161.93946,327.99762 C 161.96146,328.04857 161.99736,328.0891 162.04716,328.11921 C 162.09695,328.14932 162.16817,328.16438 162.26082,328.16438 C 162.3303,328.16438 162.42179,328.15627 162.53528,328.14006 L 162.53528,328.14006 z M 165.85865,327.51123 L 166.50485,327.59114 C 166.40294,327.96867 166.21417,328.26166 165.93856,328.47011 C 165.66294,328.67856 165.31089,328.78278 164.88241,328.78278 C 164.34275,328.78278 163.91485,328.6166 163.5987,328.28424 C 163.28255,327.95187 163.12447,327.48576 163.12447,326.88588 C 163.12447,326.26516 163.28428,325.78341 163.60391,325.44062 C 163.92353,325.09784 164.33812,324.92644 164.84766,324.92644 C 165.341,324.92644 165.744,325.09436 166.05668,325.4302 C 166.36935,325.76604 166.52569,326.23853 166.52569,326.84766 C 166.52569,326.88472 166.52453,326.94031 166.52222,327.01442 L 163.77067,327.01442 C 163.79383,327.41975 163.90848,327.73011 164.11461,327.9455 C 164.32075,328.1609 164.57783,328.2686 164.88588,328.2686 C 165.11517,328.2686 165.31089,328.20838 165.47302,328.08795 C 165.63514,327.96751 165.76369,327.77527 165.85865,327.51123 L 165.85865,327.51123 z M 163.80541,326.50024 L 165.8656,326.50024 C 165.8378,326.18989 165.75906,325.95712 165.62936,325.80193 C 165.43017,325.56106 165.17192,325.44062 164.85461,325.44062 C 164.56741,325.44062 164.32596,325.53674 164.13025,325.72898 C 163.93453,325.92122 163.82625,326.17831 163.80541,326.50024 L 163.80541,326.50024 z M 164.48288,324.55123 L 164.94494,323.57846 L 165.76485,323.57846 L 165.00053,324.55123 L 164.48288,324.55123 z M 172.03063,328.6994 L 172.03063,328.23386 C 171.7967,328.59981 171.45276,328.78278 170.9988,328.78278 C 170.70465,328.78278 170.43425,328.70172 170.18758,328.53959 C 169.94091,328.37746 169.74983,328.15106 169.61434,327.86039 C 169.47885,327.56971 169.4111,327.23561 169.4111,326.85809 C 169.4111,326.48982 169.47248,326.15572 169.59523,325.85578 C 169.71799,325.55585 169.90212,325.32597 170.14763,325.16616 C 170.39313,325.00635 170.66759,324.92644 170.97101,324.92644 C 171.19335,324.92644 171.39138,324.97335 171.56509,325.06714 C 171.7388,325.16095 171.88008,325.28313 171.98894,325.43367 L 171.98894,323.60625 L 172.61082,323.60625 L 172.61082,328.6994 L 172.03063,328.6994 z M 170.05382,326.85809 C 170.05382,327.33058 170.15342,327.68378 170.3526,327.91771 C 170.55179,328.15164 170.78687,328.2686 171.05786,328.2686 C 171.33116,328.2686 171.56335,328.15685 171.75444,327.93334 C 171.94551,327.70984 172.04105,327.36879 172.04106,326.9102 C 172.04105,326.40529 171.94378,326.03471 171.74922,325.79846 C 171.55467,325.56222 171.31495,325.4441 171.03007,325.44409 C 170.75213,325.4441 170.51994,325.55759 170.3335,325.78456 C 170.14705,326.01155 170.05382,326.36939 170.05382,326.85809 L 170.05382,326.85809 z M 176.30366,327.51123 L 176.94986,327.59114 C 176.84794,327.96867 176.65918,328.26166 176.38357,328.47011 C 176.10794,328.67856 175.75589,328.78278 175.32741,328.78278 C 174.78776,328.78278 174.35985,328.6166 174.0437,328.28424 C 173.72755,327.95187 173.56948,327.48576 173.56948,326.88588 C 173.56948,326.26516 173.72929,325.78341 174.04891,325.44062 C 174.36854,325.09784 174.78312,324.92644 175.29267,324.92644 C 175.786,324.92644 176.18901,325.09436 176.50169,325.4302 C 176.81436,325.76604 176.9707,326.23853 176.9707,326.84766 C 176.9707,326.88472 176.96954,326.94031 176.96723,327.01442 L 174.21568,327.01442 C 174.23884,327.41975 174.35348,327.73011 174.55962,327.9455 C 174.76575,328.1609 175.02284,328.2686 175.33089,328.2686 C 175.56018,328.2686 175.75589,328.20838 175.91802,328.08795 C 176.08015,327.96751 176.2087,327.77527 176.30366,327.51123 L 176.30366,327.51123 z M 174.25042,326.50024 L 176.31061,326.50024 C 176.28281,326.18989 176.20406,325.95712 176.07436,325.80193 C 175.87517,325.56106 175.61693,325.44062 175.29962,325.44062 C 175.01242,325.44062 174.77096,325.53674 174.57525,325.72898 C 174.37954,325.92122 174.27126,326.17831 174.25042,326.50024 L 174.25042,326.50024 z M 180.06803,328.6994 L 180.06803,323.60625 L 180.69339,323.60625 L 180.69339,328.6994 L 180.06803,328.6994 z M 181.80826,324.28024 L 181.80826,323.55414 L 182.47877,323.55414 L 182.47877,324.12738 C 182.47877,324.43774 182.44287,324.66125 182.37107,324.7979 C 182.27148,324.98551 182.1163,325.12679 181.90553,325.22175 L 181.75267,324.97508 C 181.87774,324.92413 181.97096,324.84364 182.03234,324.73362 C 182.09372,324.62361 182.12788,324.47248 182.13483,324.28024 L 181.80826,324.28024 z M 186.01864,328.24428 C 185.78702,328.44115 185.5641,328.58012 185.34986,328.66119 C 185.13561,328.74225 184.90574,328.78278 184.66023,328.78278 C 184.25491,328.78278 183.94339,328.68377 183.72568,328.48574 C 183.50796,328.28771 183.3991,328.03468 183.3991,327.72663 C 183.3991,327.54597 183.44021,327.38095 183.52244,327.23156 C 183.60466,327.08217 183.71236,326.96231 183.84554,326.87198 C 183.97871,326.78166 184.12868,326.71333 184.29544,326.66701 C 184.4182,326.63458 184.60348,326.60331 184.85131,326.5732 C 185.35622,326.51299 185.72796,326.44119 185.96652,326.3578 C 185.96884,326.27211 185.96999,326.21768 185.97,326.19452 C 185.96999,325.93975 185.91093,325.76025 185.79281,325.65602 C 185.633,325.51474 185.3956,325.4441 185.08061,325.44409 C 184.78646,325.4441 184.56932,325.49563 184.4292,325.59869 C 184.28907,325.70176 184.18543,325.88416 184.11826,326.14588 L 183.5068,326.0625 C 183.56239,325.80078 183.65388,325.58943 183.78126,325.42846 C 183.90865,325.26749 184.09278,325.14358 184.33366,325.05672 C 184.57453,324.96987 184.85363,324.92644 185.17094,324.92644 C 185.48593,324.92644 185.74186,324.9635 185.93873,325.03761 C 186.1356,325.11173 186.28035,325.20496 186.373,325.31729 C 186.46564,325.42962 186.5305,325.57148 186.56756,325.74287 C 186.5884,325.84942 186.59882,326.04166 186.59882,326.31959 L 186.59882,327.15339 C 186.59882,327.73474 186.61214,328.10242 186.63878,328.25644 C 186.66541,328.41047 186.7181,328.55812 186.79685,328.6994 L 186.14371,328.6994 C 186.07885,328.5697 186.03716,328.41799 186.01864,328.24428 L 186.01864,328.24428 z M 185.96652,326.84766 C 185.73954,326.94031 185.39907,327.01906 184.94511,327.08391 C 184.68802,327.12097 184.50621,327.16266 184.39967,327.20898 C 184.29312,327.2553 184.2109,327.32305 184.153,327.41222 C 184.0951,327.50139 184.06615,327.6004 184.06615,327.70926 C 184.06615,327.87602 184.12926,328.01499 184.25549,328.12616 C 184.38172,328.23734 184.56643,328.29292 184.80962,328.29292 C 185.0505,328.29292 185.26474,328.24023 185.45234,328.13485 C 185.63995,328.02946 185.77776,327.88529 185.86577,327.70231 C 185.93294,327.56103 185.96652,327.35258 185.96652,327.07696 L 185.96652,326.84766 z M 188.77692,328.6994 L 187.37335,325.00982 L 188.03344,325.00982 L 188.82556,327.2194 C 188.91125,327.45796 188.99,327.70579 189.0618,327.96288 C 189.11739,327.76832 189.19498,327.53439 189.29457,327.26109 L 190.11448,325.00982 L 190.7572,325.00982 L 189.36058,328.6994 L 188.77692,328.6994 z M 191.49806,324.32541 L 191.49806,323.60625 L 192.12342,323.60625 L 192.12342,324.32541 L 191.49806,324.32541 z M 191.49806,328.6994 L 191.49806,325.00982 L 192.12342,325.00982 L 192.12342,328.6994 L 191.49806,328.6994 z M 195.66674,328.24428 C 195.43512,328.44115 195.2122,328.58012 194.99796,328.66119 C 194.78371,328.74225 194.55384,328.78278 194.30833,328.78278 C 193.90301,328.78278 193.59149,328.68377 193.37378,328.48574 C 193.15606,328.28771 193.0472,328.03468 193.0472,327.72663 C 193.0472,327.54597 193.08832,327.38095 193.17054,327.23156 C 193.25276,327.08217 193.36046,326.96231 193.49364,326.87198 C 193.62681,326.78166 193.77678,326.71333 193.94354,326.66701 C 194.0663,326.63458 194.25159,326.60331 194.49941,326.5732 C 195.00433,326.51299 195.37606,326.44119 195.61463,326.3578 C 195.61694,326.27211 195.6181,326.21768 195.6181,326.19452 C 195.6181,325.93975 195.55904,325.76025 195.44092,325.65602 C 195.2811,325.51474 195.0437,325.4441 194.72871,325.44409 C 194.43456,325.4441 194.21742,325.49563 194.0773,325.59869 C 193.93717,325.70176 193.83353,325.88416 193.76636,326.14588 L 193.1549,326.0625 C 193.21049,325.80078 193.30198,325.58943 193.42936,325.42846 C 193.55675,325.26749 193.74088,325.14358 193.98176,325.05672 C 194.22263,324.96987 194.50173,324.92644 194.81904,324.92644 C 195.13403,324.92644 195.38996,324.9635 195.58683,325.03761 C 195.7837,325.11173 195.92846,325.20496 196.0211,325.31729 C 196.11375,325.42962 196.1786,325.57148 196.21566,325.74287 C 196.2365,325.84942 196.24692,326.04166 196.24693,326.31959 L 196.24693,327.15339 C 196.24692,327.73474 196.26024,328.10242 196.28688,328.25644 C 196.31351,328.41047 196.3662,328.55812 196.44495,328.6994 L 195.79181,328.6994 C 195.72695,328.5697 195.68526,328.41799 195.66674,328.24428 L 195.66674,328.24428 z M 195.61463,326.84766 C 195.38764,326.94031 195.04717,327.01906 194.59322,327.08391 C 194.33612,327.12097 194.15431,327.16266 194.04777,327.20898 C 193.94123,327.2553 193.859,327.32305 193.8011,327.41222 C 193.7432,327.50139 193.71425,327.6004 193.71425,327.70926 C 193.71425,327.87602 193.77736,328.01499 193.90359,328.12616 C 194.02982,328.23734 194.21453,328.29292 194.45772,328.29292 C 194.6986,328.29292 194.91284,328.24023 195.10045,328.13485 C 195.28805,328.02946 195.42586,327.88529 195.51387,327.70231 C 195.58104,327.56103 195.61462,327.35258 195.61463,327.07696 L 195.61463,326.84766 z M 198.76549,328.14006 L 198.85582,328.69245 C 198.67979,328.72951 198.5223,328.74804 198.38333,328.74804 C 198.15635,328.74804 197.98032,328.71214 197.85525,328.64034 C 197.73018,328.56854 197.64217,328.47416 197.59122,328.35719 C 197.54026,328.24023 197.51478,327.99414 197.51478,327.61893 L 197.51478,325.49621 L 197.05619,325.49621 L 197.05619,325.00982 L 197.51478,325.00982 L 197.51478,324.09611 L 198.13666,323.7209 L 198.13666,325.00982 L 198.76549,325.00982 L 198.76549,325.49621 L 198.13666,325.49621 L 198.13666,327.65367 C 198.13666,327.83202 198.14766,327.94666 198.16967,327.99762 C 198.19167,328.04857 198.22757,328.0891 198.27737,328.11921 C 198.32716,328.14932 198.39838,328.16438 198.49103,328.16438 C 198.56051,328.16438 198.652,328.15627 198.76549,328.14006 L 198.76549,328.14006 z M 199.5666,324.32541 L 199.5666,323.60625 L 200.19196,323.60625 L 200.19196,324.32541 L 199.5666,324.32541 z M 199.5666,328.6994 L 199.5666,325.00982 L 200.19196,325.00982 L 200.19196,328.6994 L 199.5666,328.6994 z M 201.09492,326.85461 C 201.09492,326.17136 201.28484,325.66529 201.66468,325.33639 C 201.98199,325.0631 202.36878,324.92644 202.82506,324.92644 C 203.33229,324.92644 203.74687,325.09263 204.06882,325.42499 C 204.39075,325.75735 204.55172,326.21652 204.55173,326.8025 C 204.55172,327.2773 204.4805,327.65078 204.33807,327.92292 C 204.19562,328.19507 203.98833,328.40641 203.71619,328.55696 C 203.44404,328.70751 203.147,328.78278 202.82506,328.78278 C 202.30856,328.78278 201.89108,328.61718 201.57262,328.28597 C 201.25415,327.95477 201.09492,327.47765 201.09492,326.85461 L 201.09492,326.85461 z M 201.73764,326.85461 C 201.73764,327.3271 201.84071,327.68089 202.04684,327.91597 C 202.25298,328.15106 202.51238,328.2686 202.82506,328.2686 C 203.13542,328.2686 203.39367,328.15048 203.5998,327.91424 C 203.80593,327.67799 203.909,327.31784 203.909,326.83377 C 203.909,326.37749 203.80536,326.03181 203.59807,325.79672 C 203.39077,325.56164 203.1331,325.4441 202.82506,325.44409 C 202.51238,325.4441 202.25298,325.56106 202.04684,325.79499 C 201.84071,326.02892 201.73764,326.38212 201.73764,326.85461 L 201.73764,326.85461 z M 205.46869,328.6994 L 205.46869,325.00982 L 206.03151,325.00982 L 206.03151,325.53442 C 206.3025,325.1291 206.69392,324.92644 207.20579,324.92644 C 207.42813,324.92644 207.63253,324.9664 207.81898,325.0463 C 208.00542,325.12621 208.14497,325.23101 208.23762,325.36071 C 208.33026,325.49042 208.39511,325.64444 208.43217,325.82278 C 208.45533,325.93859 208.46691,326.14125 208.46691,326.43076 L 208.46691,328.6994 L 207.84156,328.6994 L 207.84156,326.45508 C 207.84156,326.20031 207.81724,326.00981 207.7686,325.88358 C 207.71996,325.75735 207.63369,325.6566 207.50978,325.58132 C 207.38586,325.50605 207.24052,325.46842 207.07377,325.46841 C 206.80741,325.46842 206.57754,325.55295 206.38414,325.72203 C 206.19074,325.89111 206.09405,326.21189 206.09405,326.68438 L 206.09405,328.6994 L 205.46869,328.6994 z M 214.18029,327.34795 L 214.79522,327.42785 C 214.72805,327.8517 214.55608,328.18349 214.2793,328.4232 C 214.00252,328.66292 213.66263,328.78278 213.25963,328.78278 C 212.75471,328.78278 212.34881,328.61776 212.04193,328.28771 C 211.73504,327.95766 211.5816,327.4846 211.5816,326.86851 C 211.5816,326.47014 211.64761,326.12156 211.77963,325.82278 C 211.91165,325.524 212.11257,325.29992 212.3824,325.15052 C 212.65223,325.00114 212.94579,324.92644 213.2631,324.92644 C 213.66379,324.92644 213.99152,325.02777 214.2463,325.23043 C 214.50107,325.4331 214.66435,325.72087 214.73616,326.09377 L 214.12818,326.18757 C 214.07027,325.93975 213.96778,325.7533 213.82071,325.62822 C 213.67363,325.50316 213.49587,325.44062 213.28742,325.44062 C 212.97243,325.44062 212.7165,325.55353 212.51963,325.77935 C 212.32276,326.00518 212.22432,326.36244 212.22432,326.85114 C 212.22432,327.34679 212.31928,327.70694 212.50921,327.93161 C 212.69913,328.15627 212.94695,328.2686 213.25268,328.2686 C 213.49819,328.2686 213.70316,328.19333 213.86761,328.04278 C 214.03205,327.89223 214.13628,327.66062 214.18029,327.34795 L 214.18029,327.34795 z M 215.51872,324.32541 L 215.51872,323.60625 L 216.14408,323.60625 L 216.14408,324.32541 L 215.51872,324.32541 z M 215.51872,328.6994 L 215.51872,325.00982 L 216.14408,325.00982 L 216.14408,328.6994 L 215.51872,328.6994 z M 218.30467,328.6994 L 216.9011,325.00982 L 217.5612,325.00982 L 218.35331,327.2194 C 218.43901,327.45796 218.51776,327.70579 218.58956,327.96288 C 218.64514,327.76832 218.72273,327.53439 218.82233,327.26109 L 219.64223,325.00982 L 220.28496,325.00982 L 218.88834,328.6994 L 218.30467,328.6994 z M 221.02582,324.32541 L 221.02582,323.60625 L 221.65117,323.60625 L 221.65117,324.32541 L 221.02582,324.32541 z M 221.02582,328.6994 L 221.02582,325.00982 L 221.65117,325.00982 L 221.65117,328.6994 L 221.02582,328.6994 z M 222.773,328.6994 L 222.773,323.60625 L 223.39836,323.60625 L 223.39836,328.6994 L 222.773,328.6994 z M 227.07719,327.51123 L 227.72339,327.59114 C 227.62147,327.96867 227.43271,328.26166 227.15709,328.47011 C 226.88147,328.67856 226.52942,328.78278 226.10094,328.78278 C 225.56129,328.78278 225.13338,328.6166 224.81723,328.28424 C 224.50108,327.95187 224.34301,327.48576 224.34301,326.88588 C 224.34301,326.26516 224.50282,325.78341 224.82244,325.44062 C 225.14207,325.09784 225.55665,324.92644 226.0662,324.92644 C 226.55953,324.92644 226.96254,325.09436 227.27522,325.4302 C 227.58789,325.76604 227.74423,326.23853 227.74423,326.84766 C 227.74423,326.88472 227.74307,326.94031 227.74076,327.01442 L 224.9892,327.01442 C 225.01237,327.41975 225.12701,327.73011 225.33315,327.9455 C 225.53928,328.1609 225.79637,328.2686 226.10442,328.2686 C 226.33371,328.2686 226.52942,328.20838 226.69155,328.08795 C 226.85368,327.96751 226.98222,327.77527 227.07719,327.51123 L 227.07719,327.51123 z M 225.02395,326.50024 L 227.08414,326.50024 C 227.05634,326.18989 226.97759,325.95712 226.84789,325.80193 C 226.6487,325.56106 226.39046,325.44062 226.07315,325.44062 C 225.78595,325.44062 225.54449,325.53674 225.34878,325.72898 C 225.15307,325.92122 225.04479,326.17831 225.02395,326.50024 L 225.02395,326.50024 z"
       id="text43" />
    <path
       d="M 165.65964,325.40322 L 216.14339,325.40322"
       style="fill:none;stroke:#656263;stroke-width:0.3125;stroke-linecap:butt;stroke-linejoin:miter;stroke-miterlimit:4;stroke-dasharray:none;stroke-opacity:1"
       id="path87" />
    <g
       transform="matrix(1.25,0,0,-1.25,73.977143,520.37072)"
       id="g133">
      <g
         id="g135"
         clip-path="url(#clipPath137)">
        <g
           id="g141">
          <g
             id="g143"
             clip-path="url(#clipPath145)">
            <g
               id="g149">
              <g
                 id="g151"
                 clip-path="url(#clipPath153)">
                <g
                   id="g157">
                  <g
                     id="g159"
                     clip-path="url(#clipPath161)">
                    <path
                       d="M 34.842,170.011 L 30.62,170.011 L 30.62,157.529 L 34.457,157.529 C 37.02,157.529 38.608,158.392 38.608,160.457 C 38.608,162.589 36.771,163.793 34.637,163.793 L 32.104,163.793 L 32.104,165.472 L 34.909,165.472 C 37.02,165.472 38.338,166.176 38.338,167.718 C 38.338,169.263 36.932,170.011 34.842,170.011 M 28.35,155.826 L 28.35,171.691 L 34.637,171.691 C 36.817,171.691 38.019,171.508 39.04,170.85 C 40.107,170.171 40.72,168.921 40.72,167.764 C 40.72,166.22 39.88,165.198 38.405,164.564 C 40.063,163.496 41.038,162.182 41.038,160.388 C 41.038,157.233 38.405,155.826 35.115,155.826 L 28.35,155.826 z"
                       style="fill:#5d6568;fill-opacity:1;fill-rule:nonzero;stroke:none"
                       id="path165" />
                    <path
                       d="M 48.012,166.358 L 52.839,166.358 L 52.839,164.678 L 48.012,164.678 L 48.012,166.358 z M 54.221,171.691 L 54.221,170.011 L 46.528,170.011 L 46.528,157.551 L 54.472,157.551 L 54.472,155.826 L 44.259,155.826 L 44.259,171.691 L 54.221,171.691 z"
                       style="fill:#5d6568;fill-opacity:1;fill-rule:nonzero;stroke:none"
                       id="path167" />
                    <path
                       d="M 63.337,162.67 C 62.515,162.329 61.836,162.043 61.266,161.802 C 62.161,164.992 63.371,167.5 64.881,169.879 C 65.673,168.644 66.674,166.717 67.58,164.22 C 66.255,163.783 64.713,163.24 63.337,162.67 M 76.477,165.964 C 75.581,165.981 74.062,166.024 70.792,165.22 C 70.792,165.22 70.415,165.112 69.808,164.927 C 68.861,167.485 67.622,169.883 66.158,172.037 L 63.838,172.037 C 60.035,166.587 58.388,162.087 57.762,155.826 L 60.081,155.826 C 60.229,156.956 60.403,158.008 60.6,159 C 61.483,159.83 62.839,160.611 64.022,161.203 C 64.484,161.434 66.24,162.277 67.971,163.082 C 68.656,160.987 69.255,158.554 69.613,155.826 L 71.768,155.826 C 71.582,158.672 71.002,161.443 70.115,164.06 C 70.797,164.362 71.349,164.595 71.633,164.69 C 73.41,165.28 75.415,165.616 76.509,165.782 C 76.863,165.837 76.843,165.959 76.477,165.964"
                       style="fill:#5d6568;fill-opacity:1;fill-rule:nonzero;stroke:none"
                       id="path169" />
                  </g>
                </g>
              </g>
            </g>
          </g>
        </g>
      </g>
    </g>
  </g>
</svg>
