<?xml version="1.0" encoding="utf-8"?>
<!-- Generator: Adobe Illustrator 24.1.2, SVG Export Plug-In . SVG Version: 6.00 Build 0)  -->
<svg version="1.1" id="Calque_1" xmlns="http://www.w3.org/2000/svg" xmlns:xlink="http://www.w3.org/1999/xlink" x="0px" y="0px"
	 viewBox="0 0 352.6 99.5" style="enable-background:new 0 0 352.6 99.5;" xml:space="preserve">
<style type="text/css">
	.st0{fill:#333300;}
	.st1{fill:#FFC20E;}
</style>
<g>
	<path class="st0" d="M124.1,28.4c-2.9,0-5.4-1.1-7.3-3c-2.7-2.7-2.7-5.8-2.7-11.2s0-8.5,2.7-11.2c1.9-1.9,4.4-3,7.3-3
		c5.1,0,9,3,10,8.6h-4.3c-0.7-2.8-2.5-4.8-5.7-4.8c-1.6,0-3.1,0.6-4.1,1.7c-1.4,1.5-1.7,3.1-1.7,8.7s0.3,7.2,1.7,8.7
		c1,1.1,2.5,1.7,4.1,1.7c3.1,0,5-2,5.7-4.8h4.3C133.1,25.4,129.2,28.4,124.1,28.4"/>
</g>
<polygon class="st0" points="155,28.2 155,16 143.6,16 143.6,28.2 139.4,28.2 139.4,0.2 143.6,0.2 143.6,12.2 155,12.2 155,0.2 
	159.2,0.2 159.2,28.2 "/>
<path class="st0" d="M175.6,6.6L171.2,19h8.6L175.6,6.6z M182.9,28.2l-1.9-5.6h-11l-1.9,5.6h-4.5l10.2-27.9h3.4l10.2,27.9H182.9z"/>
<polygon class="st0" points="211.8,28.2 211.8,9.5 205.4,23.1 202.2,23.1 195.6,9.5 195.6,28.2 191.4,28.2 191.4,0.2 195.6,0.2 
	203.8,17.6 211.8,0.2 216,0.2 216,28.2 "/>
<g>
	<path class="st0" d="M234.2,15.9h-6.7v8.5h6.7c2.9,0,4.6-1.8,4.6-4.3C238.8,17.6,237.2,15.9,234.2,15.9 M233.8,4h-6.3v8h6.3
		c2.7,0,4.6-1.4,4.6-4C238.4,5.5,236.5,4,233.8,4 M234.6,28.2h-11.3v-28h10.9c5.2,0,8.4,2.9,8.4,7.7c0,3-1.9,5.2-3.8,5.9
		c2.2,0.9,4.2,2.9,4.2,6.5C243,25.4,239.6,28.2,234.6,28.2"/>
	<path class="st0" d="M259.9,4h-6.3v8.8h6.3c2.8,0,4.7-1.6,4.7-4.4C264.6,5.7,262.7,4,259.9,4 M264.8,28.2l-5.9-11.8h-5.3v11.8h-4.2
		v-28h10.8c5.3,0,8.7,3.4,8.7,8.2c0,4-2.4,6.6-5.6,7.4l6.4,12.4C269.7,28.2,264.8,28.2,264.8,28.2z"/>
</g>
<polygon class="st0" points="275,28.2 275,0.2 292.9,0.2 292.9,4 279.3,4 279.3,12.2 290.9,12.2 290.9,16 279.3,16 279.3,24.4 
	292.9,24.4 292.9,28.2 "/>
<g>
	<path class="st0" d="M128.7,43.2c-1.2-1.3-2.8-1.9-4.8-1.9h-5.1v20.3h5.1c2,0,3.6-0.6,4.8-1.9c1.5-1.6,1.5-4.6,1.5-8.5
		C130.2,47.5,130.1,44.8,128.7,43.2 M131.6,62.8c-1.8,1.8-4.3,2.6-7.2,2.6h-9.8v-28h9.8c2.9,0,5.5,0.9,7.2,2.6c3,3,2.8,7.1,2.8,11.1
		C134.4,55.3,134.6,59.8,131.6,62.8"/>
</g>
<polygon class="st0" points="140,65.5 140,37.5 157.9,37.5 157.9,41.3 144.3,41.3 144.3,49.5 155.9,49.5 155.9,53.3 144.3,53.3 
	144.3,61.7 157.9,61.7 157.9,65.5 "/>
<g>
	<path class="st0" d="M171.8,65.7c-4.2,0-7.2-1-9.9-3.7l2.8-2.8c2,2,4.3,2.7,7.1,2.7c3.7,0,5.8-1.6,5.8-4.3c0-1.2-0.4-2.2-1.1-2.9
		c-0.7-0.7-1.4-0.9-3.1-1.2l-3.3-0.5c-2.3-0.3-4.1-1.1-5.3-2.2c-1.4-1.3-2-3.1-2-5.3c0-4.9,3.5-8.2,9.3-8.2c3.7,0,6.3,0.9,8.7,3.2
		l-2.7,2.7c-1.7-1.6-3.7-2.2-6.1-2.2c-3.3,0-5.1,1.9-5.1,4.4c0,1,0.3,1.9,1.1,2.6c0.7,0.6,1.8,1.1,3.1,1.3l3.2,0.5
		c2.6,0.4,4,1,5.2,2.1c1.5,1.3,2.3,3.3,2.3,5.7C181.8,62.6,177.6,65.7,171.8,65.7"/>
</g>
<polygon class="st0" points="217.4,65.5 217.4,46.8 210.9,60.4 207.8,60.4 201.2,46.8 201.2,65.5 196.9,65.5 196.9,37.5 201.2,37.5 
	209.3,54.9 217.4,37.5 221.6,37.5 221.6,65.5 "/>
<polygon class="st0" points="228.9,65.5 228.9,37.5 246.7,37.5 246.7,41.3 233.1,41.3 233.1,49.5 244.7,49.5 244.7,53.3 233.1,53.3 
	233.1,61.7 246.7,61.7 246.7,65.5 "/>
<polygon class="st0" points="261.7,41.3 261.7,65.5 257.4,65.5 257.4,41.3 249.7,41.3 249.7,37.5 269.3,37.5 269.3,41.3 "/>
<rect x="274.2" y="37.5" class="st0" width="4.2" height="28"/>
<polygon class="st0" points="285,65.5 285,37.5 302.9,37.5 302.9,41.3 289.3,41.3 289.3,49.5 300.9,49.5 300.9,53.3 289.3,53.3 
	289.3,61.7 302.9,61.7 302.9,65.5 "/>
<g>
	<path class="st0" d="M319.9,41.3h-6.3v8.8h6.3c2.8,0,4.8-1.6,4.8-4.4C324.7,43,322.7,41.3,319.9,41.3 M324.8,65.5l-5.9-11.8h-5.3
		v11.8h-4.2v-28h10.8c5.3,0,8.7,3.4,8.7,8.2c0,4-2.4,6.6-5.6,7.4l6.4,12.4H324.8z"/>
	<path class="st0" d="M342.5,65.7c-4.2,0-7.2-1-9.9-3.7l2.8-2.8c2,2,4.3,2.7,7.1,2.7c3.7,0,5.8-1.6,5.8-4.3c0-1.2-0.4-2.2-1.1-2.9
		s-1.4-0.9-3.1-1.2l-3.3-0.5c-2.3-0.3-4.1-1.1-5.3-2.2c-1.4-1.3-2-3.1-2-5.3c0-4.9,3.5-8.2,9.3-8.2c3.7,0,6.3,0.9,8.7,3.2l-2.7,2.7
		c-1.7-1.6-3.7-2.2-6.1-2.2c-3.3,0-5.1,1.9-5.1,4.4c0,1,0.3,1.9,1.1,2.6c0.7,0.6,1.8,1.1,3.1,1.3l3.2,0.5c2.6,0.4,4,1,5.2,2.1
		c1.5,1.3,2.3,3.3,2.3,5.7C352.6,62.6,348.4,65.7,342.5,65.7"/>
</g>
<polygon class="st1" points="92.8,5.6 40.8,57.6 40.8,93.2 92.8,93.2 "/>
<rect y="59.7" class="st1" width="33.4" height="33.4"/>
<polygon class="st1" points="87.6,0.4 0,0.4 0,52.3 35.6,52.3 "/>
<polygon class="st1" points="114.5,93.5 114.5,74.3 117.6,74.3 117.6,90.8 127.3,90.8 127.3,93.5 "/>
<g>
	<path class="st1" d="M139.3,93.5v-1.4c-1,1.1-2.4,1.6-3.8,1.6c-1.5,0-2.7-0.5-3.5-1.3c-1.1-1.1-1.4-2.4-1.4-4v-9.2h2.9v8.7
		c0,2.2,1.3,3.2,2.9,3.2c1.6,0,3-1,3-3.2v-8.7h2.9v14.3H139.3z"/>
</g>
<polygon class="st1" points="155.4,93.5 152.5,88.6 149.4,93.5 146,93.5 150.9,86.2 146.2,79.2 149.6,79.2 152.5,83.8 155.2,79.2 
	158.7,79.2 154,86.2 158.9,93.5 "/>
<g>
	<path class="st1" d="M170,83.2c-0.5-1.1-1.5-1.8-2.8-1.8c-1.4,0-2.4,0.7-2.9,1.8c-0.3,0.7-0.3,1.1-0.4,2h6.4
		C170.4,84.3,170.3,83.9,170,83.2 M164,87.2c0,2.5,1.3,4,3.6,4c1.6,0,2.5-0.5,3.5-1.5l1.8,1.7c-1.5,1.5-2.9,2.2-5.4,2.2
		c-3.6,0-6.4-1.9-6.4-7.3c0-4.6,2.4-7.3,6.1-7.3c3.8,0,6.1,2.8,6.1,6.9v1.3C173.3,87.2,164,87.2,164,87.2z"/>
	<path class="st1" d="M195.1,93.5v-8.7c0-2.2-1.3-3.2-2.9-3.2c-1.6,0-3,1-3,3.1v8.9h-2.9v-8.7c0-2.2-1.3-3.2-2.9-3.2
		c-1.6,0-3,1-3,3.2v8.7h-2.9V79.2h2.8v1.4c1-1,2.4-1.6,3.8-1.6c1.8,0,3.2,0.7,4.1,2.1c1.2-1.4,2.6-2.1,4.5-2.1
		c1.5,0,2.8,0.5,3.6,1.3c1.1,1.1,1.5,2.4,1.5,4v9.2H195.1z"/>
	<path class="st1" d="M208.9,81.6c-2.6,0-3,2.2-3,4.7s0.4,4.8,3,4.8s3-2.2,3-4.8C211.8,83.8,211.5,81.6,208.9,81.6 M213.1,92.4
		c-0.8,0.8-2.1,1.3-3.5,1.3c-1.6,0-2.7-0.4-3.8-1.7v1.5H203V73.9h2.9v6.8c1-1.2,2.2-1.6,3.8-1.6c1.4,0,2.7,0.5,3.5,1.3
		c1.4,1.4,1.6,3.9,1.6,6S214.6,91,213.1,92.4"/>
	<path class="st1" d="M226.6,82.4c-0.5-0.5-1.3-0.8-2.1-0.8s-1.6,0.3-2.1,0.8c-0.9,0.9-1,2.4-1,3.9c0,1.6,0.1,3.1,1,3.9
		c0.5,0.5,1.2,0.8,2.1,0.8c0.8,0,1.6-0.3,2.1-0.8c0.9-0.9,1-2.4,1-3.9S227.5,83.3,226.6,82.4 M228.8,92c-0.9,1-2.3,1.7-4.3,1.7
		s-3.3-0.7-4.3-1.7c-1.4-1.4-1.7-3.2-1.7-5.7c0-2.4,0.3-4.2,1.7-5.6c0.9-1,2.3-1.7,4.3-1.7s3.4,0.7,4.3,1.7c1.4,1.4,1.7,3.2,1.7,5.6
		C230.5,88.8,230.1,90.6,228.8,92"/>
	<path class="st1" d="M243.6,93.5v-1.4c-1,1.1-2.4,1.6-3.8,1.6c-1.5,0-2.7-0.5-3.5-1.3c-1.1-1.1-1.4-2.4-1.4-4v-9.2h2.9v8.7
		c0,2.2,1.3,3.2,2.9,3.2c1.6,0,3-1,3-3.2v-8.7h2.9v14.3H243.6z"/>
	<path class="st1" d="M259.1,82.5c-0.6-0.6-1.2-1-2.1-1c-1.6,0-2.9,1.2-2.9,3.2v8.7h-2.9V79.2h2.8v1.6c0.7-1,2.2-1.7,3.8-1.7
		c1.4,0,2.4,0.4,3.4,1.4L259.1,82.5z"/>
	<path class="st1" d="M268.8,81.6c-2.6,0-2.9,2.2-2.9,4.5s0.3,4.5,2.9,4.5s2.9-2.2,2.9-4.5C271.7,83.8,271.4,81.6,268.8,81.6
		 M268.4,99.5c-2.2,0-3.6-0.5-5.1-1.9l1.8-1.8c0.9,0.8,1.7,1.3,3.1,1.3c2.4,0,3.4-1.7,3.4-3.6v-1.8c-1,1.2-2.2,1.6-3.7,1.6
		c-1.4,0-2.6-0.5-3.4-1.3c-1.4-1.4-1.6-3.4-1.6-5.8s0.2-4.4,1.6-5.8c0.8-0.8,2-1.2,3.4-1.2c1.5,0,2.7,0.4,3.8,1.7v-1.5h2.8v14.2
		C274.6,96.9,272.3,99.5,268.4,99.5"/>
</g>
</svg>
