<svg id="Calque_1" data-name="Calque 1" xmlns="http://www.w3.org/2000/svg" xmlns:xlink="http://www.w3.org/1999/xlink" viewBox="0 0 857.08 568.18">
	<style>
		.cls-1 {
		    fill: url(#gradient);
		}
		.cls-2 {
		    fill: #020303;
		}
	</style>
	<defs><linearGradient id="gradient" data-name="Gradient" x1="23.08" y1="7.1" x2="540.33" y2="524.35" gradientTransform="matrix(1, 0, 0, -1, 0, 570)" gradientUnits="userSpaceOnUse"><stop offset="0" stop-color="#8bcecf"></stop> <stop offset="1" stop-color="#0b92d2"></stop></linearGradient></defs> <title>digitalwallonia</title> <polygon id="BG-01" points="209.6 14.11 411.96 14.11 721.47 226.79 14.09 553.91 209.6 14.11" class="cls-1"></polygon> <path d="M158.87,140.22a12,12,0,1,1-24,0v-6.56c-7.75,10.92-18.67,19.66-35.75,19.66-24.63,0-48.67-19.66-48.67-54.43v-.4c0-34.75,23.56-54.42,48.63-54.42,17.28,0,28.21,8.54,35.75,18.47V17.06a12,12,0,0,1,24,0ZM74.64,98.5v.4c0,20.26,13.9,33.57,30.19,33.57,16.09,0,30.39-13.51,30.39-33.57v-.4c0-20.26-14.3-33.57-30.39-33.57-16.49,0-30.19,12.71-30.19,33.57" class="cls-2 D"></path> <path d="M223.29,14.06A14.08,14.08,0,1,1,209.19,0h0a14.08,14.08,0,0,1,14.08,14.06" class="cls-2"></path> <path d="M197.52,58.09a11.73,11.73,0,0,1,11.46-12h.3a11.91,11.91,0,0,1,12,11.82v82.31a11.86,11.86,0,0,1-23.71,0Z" class="cls-2 I"></path> <path d="M265,174a9.84,9.84,0,0,1-6.76-9.53,10.13,10.13,0,0,1,10.13-9.93,9.5,9.5,0,0,1,4.38,1,64.12,64.12,0,0,0,32.18,8.34c21.45,0,33.17-11.12,33.17-32.18v-8.15c-8.74,11.32-19.66,19.27-36.94,19.27-24.63,0-47.68-18.27-47.68-49.06v-.4c0-31,23.24-49.26,47.68-49.26,17.67,0,28.6,8.14,36.75,17.88V57a12,12,0,0,1,24,.19v72.5c0,17.68-4.57,30.79-13.31,39.53-9.53,9.53-24.24,14.1-43.1,14.1A90.66,90.66,0,0,1,265,174m73.3-80.45v-.4c0-17.08-14.11-28.8-30.79-28.8s-29.8,11.52-29.8,28.8v.4c0,17.08,13.31,28.8,29.8,28.8,16.68,0,30.79-11.72,30.79-28.8" class="cls-2 G"></path> <path d="M425.21,14.06A14.08,14.08,0,1,1,411.11,0h0a14.09,14.09,0,0,1,14.07,14.06" class="cls-2"></path> <path d="M399.44,58.09a11.73,11.73,0,0,1,11.46-12h.3a11.91,11.91,0,0,1,12,11.82v82.31a11.86,11.86,0,0,1-23.71,0Z" class="cls-2 I"></path> <path d="M464.51,122.13V66.91h-4a10.33,10.33,0,1,1-.64-20.65h4.64V28.38a12,12,0,1,1,24,0V46.26h18.9a10.33,10.33,0,1,1,.64,20.65c-.21,0-.43,0-.64,0H488.54v51.45c0,9.34,4.76,13.11,12.91,13.11a57.48,57.48,0,0,0,6-.59,10.13,10.13,0,0,1,10.13,9.93,10.34,10.34,0,0,1-6.35,9.34,47.74,47.74,0,0,1-16.49,2.78c-17.68,0-30.19-7.75-30.19-30.79" class="cls-2 T"></path> <path d="M539.16,121v-.4c0-22.65,17.68-33.77,43.3-33.77a87.45,87.45,0,0,1,28.21,4.37V88.57c0-14.9-9.14-22.84-26-22.84a62.36,62.36,0,0,0-23.24,4.17,13.38,13.38,0,0,1-3.77.6,10,10,0,0,1-10.13-9.87v-.06A10.5,10.5,0,0,1,554,51a89.86,89.86,0,0,1,33.77-6.15c15.69,0,27.41,4.17,34.76,11.72,7.79,7.56,11.37,18.69,11.37,32.43v51.64a11.45,11.45,0,0,1-11.38,11.52h-.34c-7,0-11.72-4.77-11.72-10.13v-4c-7.15,8.55-18.08,15.29-34.17,15.29-19.66,0-37.14-11.32-37.14-32.37m71.91-7.55v-7.15a66.37,66.37,0,0,0-23.83-4.17c-15.5,0-24.64,6.55-24.64,17.48v.4c0,10.13,8.94,15.89,20.46,15.89,15.89,0,28-9.14,28-22.45" class="cls-2 A"></path> <path d="M666.58,17.06A11.83,11.83,0,0,1,678.32,5.14h.17A12,12,0,0,1,690.61,17V140.21a12,12,0,1,1-24,0Z" class="cls-2 L"></path> <path d="M77.33,354.25,49.12,274.4a20,20,0,0,1-1.19-6.16c0-5.76,4.57-11.13,11.72-11.13,6,0,9.93,4,11.72,9.54l20.26,63.56,20.46-63.56c1.79-5.56,6.15-9.54,12.31-9.54h1.39c6.16,0,10.53,4,12.32,9.54l20.66,63.56,20.46-63.76c1.6-5.17,5.36-9.34,11.73-9.34a11.16,11.16,0,0,1,11.32,11v.15a19.6,19.6,0,0,1-1,5.36l-28.6,80.65c-2.58,7.34-7.55,10.72-13.31,10.72h-.79c-6,0-10.93-3.38-13.11-10.32L125,292.27l-20.66,62.38C102.16,361.59,97.19,365,91.43,365h-.79c-6,0-10.92-3.38-13.31-10.72" class="cls-2"></path> <path d="M219.83,333.07v-.39c0-22.66,17.67-33.8,43.33-33.8a88.45,88.45,0,0,1,28.19,4.34v-2.55c0-14.89-9.15-22.83-26-22.83A63.57,63.57,0,0,0,242.08,282a14.57,14.57,0,0,1-3.76.62,10.07,10.07,0,0,1-10.17-9.92,10.52,10.52,0,0,1,6.61-9.56A89.06,89.06,0,0,1,268.49,257c15.73,0,27.42,4.19,34.81,11.75,7.74,7.55,11.29,18.62,11.29,32.34v51.67a11.46,11.46,0,0,1-11.4,11.52h-.31c-7,0-11.71-4.81-11.71-10.14v-4c-7.17,8.57-18.1,15.31-34.19,15.31-19.66,0-37.14-11.32-37.14-32.34m71.91-7.57v-7.2a67.42,67.42,0,0,0-23.82-4.17c-15.5,0-24.64,6.6-24.64,17.54v.38c0,10.12,8.93,15.89,20.45,15.89,16,0,28-9.12,28-22.45" class="cls-2"></path> <path d="M344.59,227.7a12,12,0,0,1,11.88-12h.12a12.15,12.15,0,0,1,12.25,12V352.08a12.13,12.13,0,0,1-24.25,0Z" class="cls-2"></path> <path d="M398.82,227.7a12,12,0,0,1,12-12,12.17,12.17,0,0,1,12.24,12V352.08a12.14,12.14,0,0,1-24.27,0Z" class="cls-2"></path> <path d="M450.2,311.67v-.41c0-29.72,23.1-54.32,54.34-54.32s54.12,24.22,54.12,54v.36c0,29.58-23.11,54.15-54.5,54.15-31,0-54-24.21-54-53.74m85.13,0v-.41c0-18.29-12.92-33.45-31.18-33.45-18.71,0-30.66,14.93-30.66,33.09v.36c0,18.1,12.88,33.28,31,33.28,18.88,0,30.8-14.95,30.8-32.87" class="cls-2"></path> <path d="M585.78,270a11.76,11.76,0,0,1,11.52-12h.32a11.88,11.88,0,0,1,12,11.76v5.33c6.69-9.6,16.39-18.09,32.5-18.09,23.47,0,37,15.75,37,39.75v55.59a11.6,11.6,0,0,1-11.44,11.76h-.37a11.82,11.82,0,0,1-12.06-11.56V304.08c0-16.18-8-25.42-22.19-25.42-13.78,0-23.49,9.66-23.49,25.83v47.86a11.9,11.9,0,0,1-23.8,0Z" class="cls-2"></path> <path d="M735.39,226.29a14.07,14.07,0,1,1-14.14-14h.06a14.06,14.06,0,0,1,14.08,14" class="cls-2"></path> <path d="M709.61,270.31a11.73,11.73,0,0,1,11.46-12h.3a11.92,11.92,0,0,1,12,11.84v82.28a11.87,11.87,0,0,1-23.73,0Z" class="cls-2"></path> <path d="M762.35,333.07v-.39c0-22.66,17.69-33.8,43.32-33.8a88.63,88.63,0,0,1,28.22,4.34v-2.55c0-14.89-9.17-22.83-26-22.83A63.43,63.43,0,0,0,784.6,282a14.79,14.79,0,0,1-3.79.62,10,10,0,0,1-10.13-9.87v-.05a10.51,10.51,0,0,1,6.59-9.56,89.13,89.13,0,0,1,33.74-6.2c15.72,0,27.41,4.19,34.77,11.75,7.77,7.55,11.3,18.62,11.3,32.34V352.7a11.43,11.43,0,0,1-11.36,11.52h-.34c-7,0-11.69-4.81-11.69-10.14v-4c-7.2,8.57-18.09,15.31-34.21,15.31-19.64,0-37.13-11.32-37.13-32.34m71.91-7.57v-7.2a67.74,67.74,0,0,0-23.83-4.17c-15.48,0-24.63,6.6-24.63,17.54V332c0,10.12,8.93,15.89,20.48,15.89,15.9,0,28-9.12,28-22.45" class="cls-2"></path> <path d="M28.16,553.15a14.08,14.08,0,1,1-14.16-14h.1a14.06,14.06,0,0,1,14.06,14" class="cls-2"></path> <path d="M60.89,431.72a11.71,11.71,0,0,1,11.49-11.93h.42a11.89,11.89,0,0,1,12.12,11.64v47c7.75-10.92,18.67-19.67,35.75-19.67,24.63,0,48.67,19.46,48.67,54.43v.4c0,34.76-23.83,54.43-48.67,54.43-17.48,0-28.41-8.73-35.75-18.47v5.36a12,12,0,0,1-24,0Zm84,81.83v-.4c0-20.25-13.71-33.57-30-33.57S84.33,493.1,84.33,513.15v.4c0,20.07,14.3,33.58,30.59,33.58,16.49,0,30-12.92,30-33.58" class="cls-2"></path> <path d="M239.76,568.18c-30.39,0-53.84-22-53.84-54.42v-.4c0-30,21.26-54.63,51.26-54.63,33.37,0,49.86,27.42,49.86,51.66a11.24,11.24,0,0,1-11,11.51H210c2.58,17.08,14.7,26.62,30.19,26.62A37.71,37.71,0,0,0,265,539.38a8.89,8.89,0,0,1,6.15-2.18,9.46,9.46,0,0,1,9.53,9.39v.34a10.56,10.56,0,0,1-3.17,7.35c-9.54,8.54-21.45,13.9-37.74,13.9M263.6,506C262,490.52,252.87,478.39,237,478.39c-14.7,0-25,11.33-27.21,27.61Z" class="cls-2"></path></svg>