<svg xmlns="http://www.w3.org/2000/svg" width="107.9" height="96.96" viewBox="0 0 107.9 96.96"><defs><style>.cls-1{fill:#000206;}.cls-2{fill:#073371;}.cls-3{fill:#e0001a;}.cls-4{fill:#9d9d99;}</style></defs><g id="Calque_2" data-name="Calque 2"><g id="régions"><g id="region-occitanie"><path class="cls-1" d="M2.39,39v6.84H4.48a3.42,3.42,0,1,0,0-6.84ZM.34,37.11H4.57a5.4,5.4,0,1,1,0,10.77H.34V37.11Z"/><polygon class="cls-1" points="12.31 36.94 18.64 36.94 18.64 38.82 14.54 38.82 14.54 41.38 17.95 41.38 17.95 43.26 14.54 43.26 14.54 46 18.64 46 18.64 47.88 12.31 47.88 12.31 36.94 12.31 36.94"/><polygon class="cls-1" points="25.14 36.94 27.36 36.94 27.36 45.83 31.46 45.83 31.46 47.88 25.14 47.88 25.14 36.94 25.14 36.94"/><path class="cls-1" d="M39.54,43.09,38.06,39l-1.48,4.06Zm-2.89-6h2.82l4,10.6H41.17l-1-2.74H36l-1,2.74H32.64l4-10.6Z"/><path class="cls-1" d="M51.47,38.82v2.73h1.25a1.37,1.37,0,1,0,0-2.73Zm-2.22-1.71H52.6c2.41,0,3.9,1.21,3.9,3.21a2.93,2.93,0,0,1-1.76,2.79l3.45,4.77H55.54l-2.92-4.45H51.47v4.45H49.25V37.11Z"/><path class="cls-1" d="M61.59,36.08l1.72-2h2.22l-2,2Zm-2.25.86h6.32v1.88H61.73v2.56h3.42v1.88H61.56V46h4.1v1.88H59.34V36.94Z"/><path class="cls-1" d="M75.41,45.19V43.43H72.85v-2h4.78V46a5.87,5.87,0,0,1-4.77,2.21,5.74,5.74,0,0,1-6-5.71,5.65,5.65,0,0,1,5.82-5.71A5.71,5.71,0,0,1,77.32,39L75.57,40.3a3.44,3.44,0,0,0-2.87-1.48,3.51,3.51,0,0,0-3.54,3.66,3.58,3.58,0,0,0,3.7,3.65,3.68,3.68,0,0,0,2.55-.94Z"/><polygon class="cls-1" points="80.2 37.11 82.42 37.11 82.42 47.88 80.2 47.88 80.2 37.11 80.2 37.11"/><path class="cls-1" d="M93.64,42.43a3.48,3.48,0,1,0-3.47,3.65,3.48,3.48,0,0,0,3.47-3.65Zm2.25,0a5.73,5.73,0,1,1-5.72-5.71,5.62,5.62,0,0,1,5.72,5.71Z"/><polygon class="cls-1" points="97.98 37.11 100.78 37.11 105.68 44.82 105.68 37.11 107.9 37.11 107.9 47.88 105.11 47.88 100.21 40.14 100.21 47.88 97.98 47.88 97.98 37.11 97.98 37.11"/><path class="cls-1" d="M9.23,58a3.48,3.48,0,1,0-3.47,3.66A3.48,3.48,0,0,0,9.23,58Zm2.25,0a5.61,5.61,0,0,1-5.72,5.71,5.71,5.71,0,1,1,0-11.42A5.61,5.61,0,0,1,11.48,58Z"/><path class="cls-1" d="M21.5,60.18l1.72,1.32a5.52,5.52,0,0,1-4.55,2.21,5.71,5.71,0,1,1,0-11.42,5.58,5.58,0,0,1,4.55,2.19L21.5,55.82a3.38,3.38,0,0,0-2.83-1.48,3.66,3.66,0,0,0,0,7.32,3.41,3.41,0,0,0,2.83-1.48Z"/><path class="cls-1" d="M32.68,60.18l1.73,1.32a5.53,5.53,0,0,1-4.55,2.21,5.71,5.71,0,1,1,4.55-9.23l-1.73,1.34a3.38,3.38,0,0,0-2.82-1.48,3.66,3.66,0,0,0,0,7.32,3.4,3.4,0,0,0,2.82-1.48Z"/><polygon class="cls-1" points="36.25 52.67 38.48 52.67 38.48 63.44 36.25 63.44 36.25 52.67 36.25 52.67"/><polygon class="cls-1" points="40.36 52.5 49.25 52.5 49.25 54.55 46 54.55 46 63.44 43.78 63.44 43.78 54.55 40.36 54.55 40.36 52.5 40.36 52.5"/><path class="cls-1" d="M55.81,58.65l-1.48-4-1.48,4Zm-2.91-6h2.86l4.08,10.77h-2.4l-1-2.73H52.22l-1,2.73h-2.4L52.9,52.67Z"/><polygon class="cls-1" points="61.56 52.67 64.18 52.67 69.08 60.38 69.08 52.67 71.31 52.67 71.31 63.44 68.68 63.44 63.78 55.7 63.78 63.44 61.56 63.44 61.56 52.67 61.56 52.67"/><polygon class="cls-1" points="74.39 52.67 76.61 52.67 76.61 63.44 74.39 63.44 74.39 52.67 74.39 52.67"/><polygon class="cls-1" points="79.52 52.67 85.84 52.67 85.84 54.55 81.74 54.55 81.74 56.94 85.16 56.94 85.16 58.82 81.74 58.82 81.74 61.56 85.84 61.56 85.84 63.44 79.52 63.44 79.52 52.67 79.52 52.67"/><path class="cls-1" d="M3.46,96.79l.08-.25c-1-.19-1.17-.19-.76-1.33l.43-1.16H4.35c.57,0,.58.23.49.86H5.1l.75-2.06H5.57c-.29.5-.51.86-1.13.86H3.31L3.94,92c.2-.55.31-.67,1.05-.67h.44c.8,0,.9.22.9,1h.25L6.83,91H2.46l-.08.25c.85.17.93.25.53,1.35L2,95.19c-.4,1.09-.57,1.17-1.55,1.35l-.07.25Zm6.08-3.08c.15-.61.07-1.06-.33-1.06S8.63,93,8.13,94v-.59c0-.42-.11-.79-.49-.79s-.85.69-1.16,1.4h.21c.21-.34.41-.52.57-.52s.29.29,0,.94l-.86,1.9c-.16.36,0,.59.36.59a.35.35,0,0,0,.39-.29L8,94.45a3.91,3.91,0,0,1,.72-.74Zm3.81-1.19-.33,0-.36.36h-.08A3.76,3.76,0,0,0,9.27,96.3a.59.59,0,0,0,.64.64c.46,0,.91-.66,1.42-1.36l0,.25c-.06.72.16,1.11.53,1.11s.84-.68,1.14-1.35h-.2c-.21.3-.41.48-.56.48s-.28-.29,0-.92l1.14-2.63Zm-3.3,3.2c0-1,1.09-2.29,1.69-2.29a1.13,1.13,0,0,1,.38,0l-.64,1.68c-.36.45-.92,1-1.18,1s-.25-.12-.25-.42m4.07-2.35h.69l-1.1,3a.35.35,0,0,0,.3.52,2.57,2.57,0,0,0,2-1.46h-.2a2.73,2.73,0,0,1-1.27.76l1-2.81h1.09l.14-.52h-.91l.43-1.19h-.44l-.79,1.19-.94.14v.38Zm5.13,2H19a1.64,1.64,0,0,1-1.07.72c-.37,0-.56-.22-.56-.72a2.91,2.91,0,0,1,.06-.6l2.2-.72c.42-1-.09-1.46-.69-1.46-1,0-2.22,1.73-2.22,3.25,0,.68.32,1.06.83,1.06s1.21-.58,1.72-1.53m-.75-2.18c.29,0,.54.22.41.78l-1.36.32c.24-.64.63-1.1.95-1.1m4.86.47c.15-.61.07-1.06-.32-1.06S22.42,93,22,94v-.59c0-.42-.17-.79-.55-.79s-.85.69-1.16,1.4h.21c.21-.34.41-.52.57-.52s.29.29,0,.94l-.86,1.9c-.15.36,0,.59.36.59s.31-.06.4-.29l.84-2.22a3.63,3.63,0,0,1,.72-.74Zm0,2.66c-.16.36,0,.59.36.59a.35.35,0,0,0,.39-.29l.84-2.22a3,3,0,0,1,1.51-1c.23,0,.2.19.05.47l-1.29,2.48a.36.36,0,0,0,.31.54,2,2,0,0,0,1.69-1.37H27a1.56,1.56,0,0,1-.88.67L27.19,94a1.68,1.68,0,0,0,.22-.77.55.55,0,0,0-.59-.6c-.55,0-1.1.62-1.76,1.38v-.59c0-.42-.13-.79-.51-.79s-.47.21-.68.5v.08c.41,0,.59.59.3,1.24l-.86,1.9Zm7-4.84A.53.53,0,1,0,29.8,91a.52.52,0,0,0,.52.53m-.24,1.63a.32.32,0,0,0-.26-.45,2,2,0,0,0-1.65,1.34h.2a1.53,1.53,0,0,1,.86-.66L28,96.48a.31.31,0,0,0,.26.45,2,2,0,0,0,1.58-1.34h-.2a1.59,1.59,0,0,1-.87.66l1.27-3.09Zm1,.21h.69l-1.1,3a.35.35,0,0,0,.3.52,2.57,2.57,0,0,0,2-1.46h-.2a2.73,2.73,0,0,1-1.27.76l1-2.81h1.19l.14-.52h-1l.43-1.19h-.44L32,92.85l-.94.14v.38Zm4.85-1.2,1.47-1.38v-.16h-.79l-.91,1.54Zm.28,3.25H36a1.64,1.64,0,0,1-1.07.72c-.37,0-.56-.22-.56-.72a2.9,2.9,0,0,1,.07-.6l2.19-.72c.43-1-.09-1.46-.69-1.46-1,0-2.22,1.73-2.22,3.25,0,.68.33,1.06.83,1.06s1.22-.58,1.72-1.53m-.75-2.18c.29,0,.55.22.41.78l-1.36.32c.24-.64.63-1.1,1-1.1"/><path class="cls-1" d="M5.09,80.71l1.5-1v-.16H5.68l-.83,1.19ZM4.38,84c.57,0,.58.23.49.86h.29l.69-1.88H5.6c-.29.49-.51.85-1.13.85H3.37L4,82.2c.19-.53.3-.63,1-.63H5.5c.67,0,.75.18.75.85h.33l.25-1.37H2.46l-.08.25c.85.18.93.26.53,1.35L2,85.27c-.4,1.09-.57,1.18-1.55,1.35l-.07.25H5.22l.86-1.37H5.83A3.33,3.33,0,0,1,3.5,86.57c-1.34,0-1.22-.06-.77-1.29L3.21,84Zm5.56,3.48c0-.51-.45-.69-1.19-.91s-.92-.25-.92-.45a.65.65,0,0,1,.41-.51A1.85,1.85,0,0,0,10,83.8c0-.17,0-.31-.09-.35h.88l.13-.51H9.48a.9.9,0,0,0-.56-.19A1.85,1.85,0,0,0,7.1,84.5a1,1,0,0,0,.84,1.06c-.51.23-.8.5-.8.81a.51.51,0,0,0,.22.43c-1.19.35-1.66.74-1.66,1.31s.72.77,1.58.77c1.45,0,2.66-.78,2.66-1.44M8.22,85.27c-.26,0-.36-.22-.36-.47,0-.71.38-1.75,1-1.75.26,0,.37.23.37.48,0,.7-.38,1.74-1,1.74M6.58,87.83c0-.42.41-.68,1-.91a7.19,7.19,0,0,0,.86.32c.6.2.83.28.83.46,0,.39-.66.68-1.55.68s-1.12-.16-1.12-.55m8-5.23-.33,0-.36.36h-.08a3.75,3.75,0,0,0-3.31,3.44.59.59,0,0,0,.64.64c.46,0,.91-.66,1.41-1.36l0,.25c-.06.72.16,1.11.53,1.11s.83-.68,1.14-1.35H14c-.21.31-.41.48-.56.48s-.29-.29,0-.92l1.14-2.63Zm-3.3,3.23c0-1,1.08-2.3,1.69-2.3a1.46,1.46,0,0,1,.38,0l-.64,1.68c-.36.45-.92,1-1.18,1s-.25-.13-.25-.42m4.28.51,2.21-5.78-.07-.09-1.39.16v.16l.27.21c.25.19.17.37-.05,1L14.83,86.5a.36.36,0,0,0,.32.54,1.94,1.94,0,0,0,1.6-1.37h-.2a1.81,1.81,0,0,1-1,.67m4.13-4.71a.52.52,0,0,0,.52-.52.53.53,0,0,0-.52-.53.52.52,0,0,0-.52.53.52.52,0,0,0,.52.52m-.24,1.61c.08-.29-.11-.45-.26-.45a2,2,0,0,0-1.65,1.34h.2a1.58,1.58,0,0,1,.86-.66l-1.19,3.1a.31.31,0,0,0,.26.45,2,2,0,0,0,1.58-1.35h-.21a1.53,1.53,0,0,1-.86.66l1.27-3.09Zm1,0h.74L20,86.53a.37.37,0,0,0,.32.55,2.76,2.76,0,0,0,2.15-1.58h-.21a2.93,2.93,0,0,1-1.38.83l1.09-3h1.08l.14-.34h-1l.42-1.2h-.44l-.79,1.2-.93.13v.21Zm4.84-1,1.48-1.38v-.16H26l-.91,1.54Zm.29,3.25h-.2a1.64,1.64,0,0,1-1.07.72c-.37,0-.56-.22-.56-.72a2.91,2.91,0,0,1,.06-.6l2.2-.72c.42-1-.09-1.46-.69-1.46-1,0-2.22,1.73-2.22,3.26,0,.68.32,1,.83,1s1.21-.58,1.72-1.53m-.75-2.16c.29,0,.54.22.41.78L24,84.44c.23-.63.63-1.1.95-1.1"/><path class="cls-1" d="M5.33,71.14H2.44l-.08.24c.86.18.94.26.54,1.36L2,75.35c-.4,1.09-.57,1.18-1.55,1.35L.34,77H4.73l1-1.71H5.36a3,3,0,0,1-2.15,1.34c-.74,0-.83-.12-.43-1.24l.94-2.61c.38-1.08.56-1.17,1.54-1.35l.07-.24Zm3.18.59a.52.52,0,1,0,0-1,.52.52,0,1,0,0,1m-.24,1.59A.32.32,0,0,0,8,72.87a2,2,0,0,0-1.66,1.34h.2a1.69,1.69,0,0,1,.87-.66l-1.19,3.1a.31.31,0,0,0,.25.45,2,2,0,0,0,1.58-1.35h-.2a1.53,1.53,0,0,1-.86.66l1.26-3.09Zm4.33.41c0-.64-.24-.87-.68-.87s-1.08.58-1.6,1.29l1.32-3.47-.07-.09-1.38.16v.17l.26.2c.25.19.17.39,0,1L9,75.75a4.44,4.44,0,0,0-.23.68c0,.38.52.73,1,.73,1.07,0,2.87-1.94,2.87-3.43m-2.49,2.79c-.22,0-.53-.2-.53-.37a4.49,4.49,0,0,1,.22-.61l.35-.94c.38-.45,1-.94,1.29-.94s.34.13.34.42c0,.87-.8,2.44-1.67,2.44m5.38-.94h-.28a1.6,1.6,0,0,1-1.07.72c-.37,0-.56-.22-.56-.72a3,3,0,0,1,.07-.6l2.19-.72c.43-1-.09-1.46-.69-1.46-1,0-2.22,1.74-2.22,3.26,0,.68.33,1,.83,1s1.22-.58,1.72-1.53m-.75-2.14c.29,0,.55.22.41.79l-1.36.31c.24-.63.63-1.1,1-1.1m4.86.43c.15-.56.07-1-.32-1s-.59.35-1.05,1.37v-.58c0-.42-.15-.79-.53-.79s-.85.68-1.15,1.35h.2c.22-.29.41-.48.57-.48s.29.3,0,1l-.85,1.9c-.16.35,0,.58.35.58a.35.35,0,0,0,.4-.28l.84-2.23a6.72,6.72,0,0,1,.72-.78Zm.51-.51h.6l-1.19,3.25a.37.37,0,0,0,.32.55A2.76,2.76,0,0,0,22,75.58h-.21a3,3,0,0,1-1.37.83l1.09-3h1.1l.14-.34h-1l.43-1.2h-.45L20.88,73l-.78.13v.21Zm4.68-1L26.26,71v-.16h-.8l-.91,1.54Zm.28,3.25h-.19a1.62,1.62,0,0,1-1.07.72c-.38,0-.57-.22-.57-.72a3,3,0,0,1,.07-.6l2.19-.72c.43-1-.09-1.46-.69-1.46-1,0-2.21,1.74-2.21,3.26,0,.68.32,1,.83,1s1.21-.58,1.71-1.53m-.75-2.14c.3,0,.55.22.41.79l-1.36.31c.24-.63.64-1.1.95-1.1"/></g></g><g id="Prefet"><path class="cls-1" d="M2.22,23.09v2.73H3.71a1.37,1.37,0,1,0,0-2.73ZM0,21.2H3.61c2.4,0,3.86,1.24,3.86,3.26S6,27.7,3.61,27.7H2.22v4.45H0V21.2Z"/><path class="cls-1" d="M11.46,23.09v2.73h1.25a1.37,1.37,0,1,0,0-2.73ZM9.23,21.38h3.35c2.42,0,3.9,1.21,3.9,3.21a2.94,2.94,0,0,1-1.75,2.79l3.44,4.77H15.53L12.6,27.7H11.46v4.45H9.23V21.38Z"/><path class="cls-1" d="M21.6,20.35l1.72-2.05h2.21l-2,2.05Zm-2.11,1h6.16v1.88H21.72v2.39h3.42v1.88H21.55v2.74h4.27v1.88H19.49V21.38Z"/><polygon class="cls-1" points="28.21 21.38 34.54 21.38 34.54 23.26 30.44 23.26 30.44 25.65 33.86 25.65 33.86 27.53 30.44 27.53 30.44 32.15 28.21 32.15 28.21 21.38 28.21 21.38"/><polygon class="cls-1" points="36.42 21.38 42.75 21.38 42.75 23.26 38.65 23.26 38.65 25.65 42.07 25.65 42.07 27.53 38.65 27.53 38.65 30.27 42.75 30.27 42.75 32.15 36.42 32.15 36.42 21.38 36.42 21.38"/><polygon class="cls-1" points="44.46 21.2 53.35 21.2 53.35 23.26 49.93 23.26 49.93 32.15 47.71 32.15 47.71 23.26 44.46 23.26 44.46 21.2 44.46 21.2"/></g><g id="marianne"><path class="cls-2" d="M11.69,10.31s.08,0,.1-.05h-.21s0,0,0,0-.3.08-.43.1-.36.19-.57.25-.54.35-.87.46c0,0,0,0,0-.06s.14-.1.19-.19,0,0,0,0a4.34,4.34,0,0,1,.78-.7V9.93c.08-.1.22-.16.27-.29a.55.55,0,0,1,.27-.25s-.08,0-.08-.08-.21.06-.32,0a.4.4,0,0,1,.17-.09.09.09,0,0,1-.06,0c0-.06.05-.12.13-.14s.25,0,.33-.11c-.19,0-.41.06-.6-.05A1.44,1.44,0,0,1,11.39,8s.08,0,.08,0a.27.27,0,0,1-.22.28,2.47,2.47,0,0,1,.65.16c0,.05-.08,0-.11,0,.14.08.3,0,.44.13-.08.08-.16,0-.25,0a6.85,6.85,0,0,1,2.44,1,7.94,7.94,0,0,1-1.87.57.51.51,0,0,1-.21,0s0,.08,0,.08a.47.47,0,0,0-.27.05c-.11.06-.27.09-.35,0Zm-.6,1.81h0a3.28,3.28,0,0,1-.31.2l-.36.18h0a0,0,0,0,0-.05,0,1.39,1.39,0,0,0-.27.21l0,0h0l0,0h0l-.05.07s0,0,0,0-.06,0-.06,0h0l0,0,0,0h0a.39.39,0,0,1-.1.08c0,.06-.11.11-.15.17h0l0,0h0v0h0s0,0,0-.05h0l.08-.1h0l0,0,0-.06,0,0,.08-.11h0l0-.06a.14.14,0,0,0,0-.06h0l0-.06h0v0h0v-.06l.11-.15h0l-.1.09s-.08,0-.05,0l.06-.06h0l.14-.14.09-.06h0l.06-.07h0c.26-.25.7-.23,1-.39.14-.06.3,0,.43,0a.45.45,0,0,1,.25,0c-.25.13-.47.28-.69.42Zm.45.23a.23.23,0,0,1-.07.07s.06,0,0,.05a.72.72,0,0,1-.2.14h0l-.1.09s-.18,0-.14,0l.2-.19.11-.11.06-.06s.17,0,.15,0ZM10.28,8.29c0,.05-.06.06-.08.1a.2.2,0,0,1-.11.11s-.06,0-.06,0a.35.35,0,0,1,.22-.25s0,0,0,.06ZM8,10.07A.07.07,0,0,1,8,10a8.84,8.84,0,0,0,.87-1.38,3.92,3.92,0,0,0,.92-.76,5.2,5.2,0,0,1,1.52-1.19,1.05,1.05,0,0,1,.7,0c-.08.11-.21.09-.32.17a.08.08,0,0,1-.08,0,.12.12,0,0,0,0-.08c-.27.3-.65.43-.86.78s-.28.63-.63.71c-.11,0,0-.08,0-.06A9.26,9.26,0,0,0,8,10.07Zm4.14.6c-.05,0-.16,0-.13,0s.22-.13.32-.19.14-.08.19,0,.14,0,.19.11c-.16.16-.38.08-.57.16Zm4.48,2,.48-.5h-.47a9.73,9.73,0,0,1,.84-.86,2.61,2.61,0,0,1,.27-.22s0-.07.05-.1-.2.16-.32.21-.06,0,0-.05l.27-.21h0s0,0,0-.05a1,1,0,0,0-.81.38c-.05,0-.1,0-.13,0-.37.12-.65.45-1,.6v-.05c-.15.05-.3.14-.45.18a2.71,2.71,0,0,1-.63,0c-.31,0-.61.1-.92.16h0a2.43,2.43,0,0,0-.47.19h0l0,0a.49.49,0,0,1-.17.15,3.2,3.2,0,0,0-.42.33h0l-.4.39a.1.1,0,0,1-.08,0h0l0,0,.06-.11.08-.12.1-.15s0,0,0,0l0,0a2.17,2.17,0,0,1,.42-.31h0s0,0,0,0l.05-.07v0l0,0-.11.08c-.06.05-.11.16-.2.16h-.06l0,0v-.07l0,0,0-.05,0,0,0,0s0,0,0-.05a.65.65,0,0,1,.18-.15h0l.29-.16,0,0a2.14,2.14,0,0,0-.4.2l0,0a.08.08,0,0,1-.07,0v0s.1-.07.15-.12.05,0,.05,0c.81-.63,1.91-.48,2.85-.8l.22-.16c.13-.05.23-.17.38-.25a1.1,1.1,0,0,0,.43-.58s0-.05,0-.05A3.55,3.55,0,0,1,15.4,11a4.7,4.7,0,0,1-1.66.31c0-.05.08-.05.13-.05s.05-.1.1-.15h0S14,11,14,11s.14,0,.11,0-.24.08-.38,0a.34.34,0,0,0,.08-.17H14a.17.17,0,0,1,.05-.1c.4-.24.77-.43,1.15-.65-.08,0-.14.09-.22,0S15,10,15,10c.29-.08.53-.24.83-.35-.11,0-.19.08-.3,0,.06,0,.08-.08.16-.08V9.46s0,0,.06,0a.1.1,0,0,1-.06,0c0-.05.11,0,.16-.08s-.08,0-.08,0a.6.6,0,0,1,.35-.16c0-.05-.11,0-.11-.05s0,0,.06,0h-.06a1,1,0,0,1,0-.12,1.79,1.79,0,0,0,.25-.65s-.06,0-.06,0a1.8,1.8,0,0,1-1.11.46H15a.43.43,0,0,1-.47,0c-.1-.06-.16-.14-.27-.22a3.21,3.21,0,0,0-.67-.33,6.22,6.22,0,0,0-2.09-.29,4,4,0,0,1,.95-.27,4.09,4.09,0,0,1,1.38-.28,1.22,1.22,0,0,0-.27,0,4.94,4.94,0,0,0-1.17.17c-.27,0-.51.16-.78.21s-.25.22-.46.19V7.85a1.72,1.72,0,0,1,1.05-.68,5,5,0,0,1,1.44.06,7.45,7.45,0,0,1,1,.19c.14,0,.16.22.27.24s.33,0,.49.11c0,0,0-.11,0-.16s.24,0,.35,0-.19-.38-.3-.57a.07.07,0,0,1,0,0,3.39,3.39,0,0,0,.65.54c.14,0,.46.14.41,0a3.73,3.73,0,0,0-.81-.81V6.55l.17,0V6.43c-.11-.06-.08-.17-.13-.25s0-.32-.09-.49a2.36,2.36,0,0,1-.1-.46c-.09-.46-.2-.86-.25-1.3a2.53,2.53,0,0,1,.55-1.38,2.33,2.33,0,0,1,.76-.87,2.34,2.34,0,0,1,.52-.86A2.3,2.3,0,0,1,18,.27c.38-.16.73-.27.73-.27H0V14.36H13.45a12.33,12.33,0,0,1,1.79-.92,7,7,0,0,0,1.41-.8Z"/><path class="cls-3" d="M39.5,0H23.82s0,0,.15.07l.4.21a1.31,1.31,0,0,1,.52.44.42.42,0,0,1,.09.36c-.06.14-.09.36-.22.41a1.14,1.14,0,0,1-.58.06,1.28,1.28,0,0,1-.33-.06,2.28,2.28,0,0,1,1.07.74c0,.06.14.09.25.09s0,.05,0,.08-.11.08-.09.17h.34c.13-.06.1-.33.29-.25a.31.31,0,0,1,.11.41,2.55,2.55,0,0,1-.32.27.21.21,0,0,0,0,.19.72.72,0,0,1,.13.32c.08.19.11.41.19.6A3.66,3.66,0,0,1,26,5.33c0,.21-.11.4,0,.62a2.59,2.59,0,0,0,.3.57,3.73,3.73,0,0,1,.3.43c.16.27.46.54.32.86s-.37.17-.56.28,0,.35.05.48-.16.41-.35.49c.05.08.16,0,.19.11s.16.21.08.35-.43.24-.27.49a.68.68,0,0,1,0,.59.67.67,0,0,1-.49.41A1.1,1.1,0,0,1,25,11a.49.49,0,0,0-.16,0,13.07,13.07,0,0,0-1.38-.19,1.89,1.89,0,0,0-.38.11,3.11,3.11,0,0,0-.33.29h0l-.06.07,0,0,0,0a2.11,2.11,0,0,0-.21.31v0l0,0a2.58,2.58,0,0,0-.21.49,1.63,1.63,0,0,0,0,1.28s.89.31,1.49.57a5.94,5.94,0,0,1,.63.32H39.5V0Z"/><path class="cls-4" d="M24.93,5.24c.11,0,.27,0,.27.09s-.38.27-.54.48h-.08c-.08.06-.06.19-.14.19a.4.4,0,0,0-.24,0,.45.45,0,0,0,.41.16.14.14,0,0,1,.08.11s0,0,0,0,.06,0,.06,0v.11c-.09.11-.22,0-.33.08a1.09,1.09,0,0,0,.62,0c.17,0,0-.32.11-.46-.05,0,0-.08-.05-.08s.11-.14.16-.16.14,0,.16-.08-.11-.09-.08-.14.3-.27.25-.43-.25-.08-.38-.14a.92.92,0,0,0-.46,0,1.91,1.91,0,0,0-.41.11,1.84,1.84,0,0,0-.52.27,4.73,4.73,0,0,1,.6-.17,1.77,1.77,0,0,1,.46,0Z"/></g></g></svg>