<?xml version="1.0" encoding="UTF-8"?>
<svg width="211px" height="134px" viewBox="0 0 211 134" version="1.1" xmlns="http://www.w3.org/2000/svg" xmlns:xlink="http://www.w3.org/1999/xlink">
    <title>FNRS 2 QUADRI</title>
    <g id="FNRS-2-QUADRI" stroke="none" stroke-width="1" fill="none" fill-rule="evenodd">
        <path d="M11.137,32.647 C10.998,24.827 11.137,19.22 12.708,14.641 C15.988,5.049 24.988,0.77 34.84,0.77 C44.979,0.77 48.687,4.313 51.971,7.414 L48.975,11.843 C47.404,11.103 45.122,9.918 41.548,9.918 C38.265,9.918 33.982,11.393 31.844,16.414 C30.127,20.253 30.127,23.643 30.127,32.647 L46.833,32.647 L46.833,44.458 L30.127,44.458 L30.127,108.223 L11.137,108.223 L11.137,44.458 L0,44.458 L0,32.647 L11.137,32.647" id="Fill-1" fill="#6E1858"></path>
        <path d="M118.236,108.223 L99.1,108.223 L99.1,59.213 C99.1,56.708 99.1,54.05 98.389,51.543 C97.246,47.262 93.676,42.687 86.824,42.687 C78.97,42.687 74.258,48.148 70.974,51.985 L70.974,108.223 L51.982,108.223 L51.982,32.647 L70.974,32.647 L70.974,42.539 C74.686,38.109 80.968,30.438 94.818,30.438 C102.389,30.438 108.524,33.239 112.381,37.376 C117.805,43.274 118.236,50.803 118.236,57.155 L118.236,108.223" id="Fill-2" fill="#6E1858"></path>
        <path d="M140.3,17.366 C142.704,13.207 147.623,4.729 160.526,3.144 C162.369,2.916 164.229,2.834 165.959,2.92 L167.914,19.919 C164.172,18.599 160.276,17.291 155.034,17.936 C148.09,18.788 144.17,22.24 141.158,24.844 L147.846,83.025 L128.85,85.361 L120.231,10.314 L139.221,7.985 L140.3,17.366" id="Fill-3" fill="#6E1858"></path>
        <path d="M153.762,87.258 C154.618,89.175 155.474,91.244 157.474,93.313 C161.472,97.446 168.324,100.25 176.319,100.25 C178.608,100.25 181.036,100.104 183.458,99.218 C191.456,96.558 191.456,89.622 191.456,89.175 C191.456,87.998 191.168,86.817 190.74,85.487 C188.599,80.619 183.89,78.705 174.606,76.632 C171.324,75.891 168.038,75.154 164.75,73.83 C161.898,72.795 150.906,68.516 150.906,54.791 C150.906,42.686 160.329,29.403 181.601,29.403 C191.315,29.403 198.738,32.798 203.306,37.671 C207.588,42.244 208.45,46.669 209.019,49.626 L204.017,51.096 C202.734,48.447 199.167,40.767 184.743,40.767 C174.321,40.767 170.181,45.932 170.181,50.803 C170.181,57.595 176.75,59.513 183.174,61.287 C185.89,61.871 188.599,62.463 191.315,63.204 C195.314,64.234 200.879,65.853 205.022,70.287 C208.45,73.974 210.731,79.586 210.731,85.932 C210.731,99.063 200.599,111.316 179.603,111.316 C165.324,111.316 158.045,105.858 154.905,102.606 C150.047,97.446 149.192,91.988 148.764,88.445 L153.762,87.258" id="Fill-4" fill="#6E1858"></path>
        <polyline id="Fill-5" fill="#9AA123" points="11.061 122.471 13.373 122.471 13.373 131.676 16.742 131.676 16.742 133.717 11.061 133.717 11.061 122.471"></polyline>
        <path d="M23.562,125.453 L21.933,129.314 L25.182,129.314 L23.562,125.453 Z M22.376,122.471 L24.72,122.471 L29.392,133.717 L26.989,133.717 L26.039,131.401 L21.082,131.401 L20.094,133.717 L17.691,133.717 L22.376,122.471 L22.376,122.471 Z" id="Fill-6" fill="#9AA123"></path>
        <polyline id="Fill-7" fill="#9AA123" points="35.911 122.471 38.223 122.471 38.223 131.676 41.591 131.676 41.591 133.717 35.911 133.717 35.911 122.471"></polyline>
        <polygon id="Fill-8" fill="#9AA123" points="43.337 133.717 45.632 133.717 45.632 122.471 43.337 122.471"></polygon>
        <path d="M50.715,128.793 L50.715,131.676 L51.294,131.676 C52.255,131.676 52.902,131.564 53.236,131.339 C53.57,131.116 53.737,130.79 53.737,130.361 C53.737,129.876 53.541,129.495 53.149,129.214 C52.757,128.934 52.105,128.793 51.195,128.793 L50.715,128.793 Z M50.715,124.512 L50.715,126.882 L51.22,126.882 C51.784,126.882 52.203,126.773 52.476,126.553 C52.75,126.334 52.886,126.037 52.886,125.659 C52.886,125.307 52.756,125.029 52.497,124.822 C52.237,124.616 51.842,124.512 51.312,124.512 L50.715,124.512 Z M48.403,133.717 L48.403,122.471 L50.312,122.471 C51.42,122.471 52.23,122.538 52.743,122.669 C53.471,122.848 54.049,123.179 54.479,123.664 C54.909,124.148 55.124,124.718 55.124,125.376 C55.124,125.804 55.026,126.193 54.831,126.542 C54.635,126.891 54.317,127.218 53.877,127.525 C54.615,127.845 55.154,128.247 55.496,128.729 C55.837,129.21 56.007,129.78 56.007,130.437 C56.007,131.07 55.831,131.645 55.479,132.166 C55.125,132.685 54.671,133.074 54.115,133.332 C53.558,133.588 52.789,133.717 51.809,133.717 L48.403,133.717 L48.403,133.717 Z" id="Fill-9" fill="#9AA123"></path>
        <polyline id="Fill-10" fill="#9AA123" points="58.373 122.471 65.003 122.471 65.003 124.566 60.668 124.566 60.668 126.599 65.003 126.599 65.003 128.656 60.668 128.656 60.668 131.615 65.003 131.615 65.003 133.717 58.373 133.717 58.373 122.471"></polyline>
        <path d="M69.779,126.867 L70.503,126.867 C71.239,126.867 71.745,126.778 72.022,126.598 C72.299,126.419 72.438,126.124 72.438,125.708 C72.438,125.463 72.369,125.249 72.232,125.068 C72.095,124.887 71.911,124.756 71.68,124.677 C71.45,124.598 71.027,124.558 70.413,124.558 L69.779,124.558 L69.779,126.867 Z M67.467,122.471 L69.916,122.471 C71.258,122.471 72.213,122.582 72.782,122.803 C73.352,123.025 73.809,123.393 74.156,123.909 C74.502,124.423 74.675,125.032 74.675,125.736 C74.675,126.475 74.484,127.092 74.102,127.589 C73.719,128.086 73.142,128.462 72.372,128.717 L75.249,133.717 L72.722,133.717 L69.99,128.955 L69.779,128.955 L69.779,133.717 L67.467,133.717 L67.467,122.471 L67.467,122.471 Z" id="Fill-11" fill="#9AA123"></path>
        <polyline id="Fill-12" fill="#9AA123" points="76.074 122.471 82.787 122.471 82.787 124.582 80.574 124.582 80.574 133.717 78.229 133.717 78.229 124.582 76.074 124.582 76.074 122.471"></polyline>
        <path d="M88.273,118.602 L90.94,118.602 L87.919,121.599 L86.3,121.599 L88.273,118.602 Z M84.55,122.471 L91.18,122.471 L91.18,124.566 L86.845,124.566 L86.845,126.599 L91.18,126.599 L91.18,128.656 L86.845,128.656 L86.845,131.615 L91.18,131.615 L91.18,133.717 L84.55,133.717 L84.55,122.471 L84.55,122.471 Z" id="Fill-13" fill="#9AA123"></path>
        <path d="M100.37,124.536 L100.37,131.63 L101.443,131.63 C102.5,131.63 103.267,131.518 103.743,131.293 C104.219,131.069 104.608,130.691 104.912,130.161 C105.214,129.63 105.366,128.977 105.366,128.202 C105.366,127.007 105.005,126.082 104.284,125.423 C103.634,124.832 102.591,124.536 101.154,124.536 L100.37,124.536 Z M98.075,122.471 L100.813,122.471 C102.579,122.471 103.891,122.673 104.749,123.079 C105.606,123.484 106.313,124.143 106.87,125.055 C107.424,125.967 107.702,127.033 107.702,128.25 C107.702,129.118 107.547,129.914 107.237,130.64 C106.925,131.367 106.497,131.969 105.95,132.448 C105.402,132.927 104.809,133.258 104.171,133.442 C103.533,133.625 102.428,133.717 100.855,133.717 L98.075,133.717 L98.075,122.471 L98.075,122.471 Z" id="Fill-14" fill="#9AA123"></path>
        <polyline id="Fill-15" fill="#9AA123" points="110.067 122.471 116.698 122.471 116.698 124.566 112.363 124.566 112.363 126.599 116.698 126.599 116.698 128.656 112.363 128.656 112.363 131.615 116.698 131.615 116.698 133.717 110.067 133.717 110.067 122.471"></polyline>
        <path d="M134.749,124.448 L133.131,125.874 C132.031,124.798 130.793,124.26 129.418,124.26 C128.258,124.26 127.28,124.627 126.486,125.362 C125.691,126.096 125.293,127.002 125.293,128.079 C125.293,128.829 125.469,129.495 125.822,130.077 C126.173,130.658 126.671,131.115 127.315,131.446 C127.958,131.778 128.673,131.944 129.459,131.944 C130.131,131.944 130.744,131.828 131.299,131.595 C131.855,131.363 132.465,130.941 133.131,130.329 L134.698,131.843 C133.801,132.654 132.954,133.216 132.155,133.53 C131.357,133.843 130.446,134 129.422,134 C127.534,134 125.989,133.446 124.786,132.337 C123.583,131.229 122.981,129.808 122.981,128.075 C122.981,126.954 123.255,125.958 123.803,125.085 C124.351,124.214 125.135,123.513 126.157,122.983 C127.178,122.454 128.278,122.188 129.456,122.188 C130.458,122.188 131.421,122.384 132.349,122.776 C133.277,123.167 134.077,123.725 134.749,124.448" id="Fill-16" fill="#9AA123"></path>
        <polyline id="Fill-17" fill="#9AA123" points="136.932 122.471 139.277 122.471 139.277 126.714 143.331 126.714 143.331 122.471 145.667 122.471 145.667 133.717 143.331 133.717 143.331 128.786 139.277 128.786 139.277 133.717 136.932 133.717 136.932 122.471"></polyline>
        <polyline id="Fill-18" fill="#9AA123" points="148.602 122.471 155.233 122.471 155.233 124.566 150.897 124.566 150.897 126.599 155.233 126.599 155.233 128.656 150.897 128.656 150.897 131.615 155.233 131.615 155.233 133.717 148.602 133.717 148.602 122.471"></polyline>
        <path d="M160.008,126.867 L160.733,126.867 C161.468,126.867 161.974,126.778 162.251,126.598 C162.528,126.419 162.667,126.124 162.667,125.708 C162.667,125.463 162.598,125.249 162.461,125.068 C162.325,124.887 162.14,124.756 161.91,124.677 C161.679,124.598 161.256,124.558 160.642,124.558 L160.008,124.558 L160.008,126.867 Z M157.696,122.471 L160.146,122.471 C161.487,122.471 162.443,122.582 163.012,122.803 C163.581,123.025 164.039,123.393 164.385,123.909 C164.731,124.423 164.905,125.032 164.905,125.736 C164.905,126.475 164.713,127.092 164.331,127.589 C163.948,128.086 163.372,128.462 162.601,128.717 L165.479,133.717 L162.952,133.717 L160.219,128.955 L160.008,128.955 L160.008,133.717 L157.696,133.717 L157.696,122.471 L157.696,122.471 Z" id="Fill-19" fill="#9AA123"></path>
        <path d="M178.665,124.448 L177.047,125.874 C175.948,124.798 174.709,124.26 173.334,124.26 C172.174,124.26 171.197,124.627 170.403,125.362 C169.608,126.096 169.209,127.002 169.209,128.079 C169.209,128.829 169.386,129.495 169.739,130.077 C170.09,130.658 170.588,131.115 171.231,131.446 C171.875,131.778 172.59,131.944 173.376,131.944 C174.047,131.944 174.661,131.828 175.215,131.595 C175.772,131.363 176.381,130.941 177.047,130.329 L178.615,131.843 C177.717,132.654 176.87,133.216 176.072,133.53 C175.274,133.843 174.362,134 173.338,134 C171.451,134 169.905,133.446 168.702,132.337 C167.5,131.229 166.898,129.808 166.898,128.075 C166.898,126.954 167.172,125.958 167.719,125.085 C168.268,124.214 169.051,123.513 170.073,122.983 C171.094,122.454 172.194,122.188 173.372,122.188 C174.374,122.188 175.338,122.384 176.266,122.776 C177.194,123.167 177.993,123.725 178.665,124.448" id="Fill-20" fill="#9AA123"></path>
        <polyline id="Fill-21" fill="#9AA123" points="180.848 122.471 183.194 122.471 183.194 126.714 187.249 126.714 187.249 122.471 189.584 122.471 189.584 133.717 187.249 133.717 187.249 128.786 183.194 128.786 183.194 133.717 180.848 133.717 180.848 122.471"></polyline>
        <polyline id="Fill-22" fill="#9AA123" points="192.519 122.471 199.149 122.471 199.149 124.566 194.815 124.566 194.815 126.599 199.149 126.599 199.149 128.656 194.815 128.656 194.815 131.615 199.149 131.615 199.149 133.717 192.519 133.717 192.519 122.471"></polyline>
        <path d="M205.073,126.867 L205.797,126.867 C206.534,126.867 207.04,126.778 207.317,126.598 C207.593,126.419 207.732,126.124 207.732,125.708 C207.732,125.463 207.664,125.249 207.526,125.068 C207.389,124.887 207.206,124.756 206.975,124.677 C206.745,124.598 206.322,124.558 205.708,124.558 L205.073,124.558 L205.073,126.867 Z M202.761,122.471 L205.211,122.471 C206.552,122.471 207.508,122.582 208.077,122.803 C208.646,123.025 209.104,123.393 209.45,123.909 C209.796,124.423 209.969,125.032 209.969,125.736 C209.969,126.475 209.778,127.092 209.396,127.589 C209.013,128.086 208.436,128.462 207.667,128.717 L210.543,133.717 L208.016,133.717 L205.285,128.955 L205.073,128.955 L205.073,133.717 L202.761,133.717 L202.761,122.471 L202.761,122.471 Z" id="Fill-23" fill="#9AA123"></path>
    </g>
</svg>