<?xml version="1.0" encoding="UTF-8"?>
<svg width="110px" height="111px" viewBox="0 0 110 111" version="1.1" xmlns="http://www.w3.org/2000/svg" xmlns:xlink="http://www.w3.org/1999/xlink">
    <title>Group</title>
    <g id="Page-1" stroke="none" stroke-width="1" fill="none" fill-rule="evenodd">
        <g id="hopital-pierre-garraud-plan-informations-pratiques" transform="translate(-472.000000, -121.000000)">
            <g id="Group" transform="translate(472.003834, 121.303735)">
                <polygon id="Path" fill="#00ACDC" points="0 110 110 110 110 0 0 0"></polygon>
                <polyline id="Fill-368" fill="#FFFFFE" transform="translate(31.058000, 45.251500) rotate(-270.000000) translate(-31.058000, -45.251500) " points="20.5775 55.4625 20.5775 48.4555 27.9735 48.4555 27.9735 42.0475 20.5775 42.0475 20.5775 35.0405 41.5385 35.0405 41.5385 42.0475 34.0225 42.0475 34.0225 48.4555 41.5385 48.4555 41.5385 55.4625 20.5775 55.4625"></polyline>
                <path d="M55.882,55.642 L55.822,55.642 C49.564,55.642 44.892,50.761 44.892,44.503 C44.892,39.891 47.138,36.777 50.342,35.01 L53.727,40.789 C52.229,41.568 51.181,42.676 51.181,44.592 C51.181,46.958 53.247,48.515 55.762,48.515 L55.822,48.515 C58.547,48.515 60.464,46.898 60.464,44.592 C60.464,42.616 59.386,41.508 57.828,40.64 L61.093,34.86 C64.207,36.627 66.752,39.562 66.752,44.772 C66.752,50.581 62.38,55.642 55.882,55.642" id="Fill-369" fill="#FFFFFE" transform="translate(55.822000, 45.251000) rotate(-270.000000) translate(-55.822000, -45.251000) "></path>
                <polyline id="Fill-370" fill="#FFFFFE" transform="translate(78.234500, 45.251500) rotate(-270.000000) translate(-78.234500, -45.251500) " points="67.754 53.681 67.754 46.674 82.726 46.674 82.726 36.822 88.715 36.822 88.715 53.681 67.754 53.681"></polyline>
                <polyline id="Fill-371" fill="#FFFFFE" transform="translate(23.464500, 66.129500) rotate(-270.000000) translate(-23.464500, -66.129500) " points="20.867 68.66 20.867 66.924 22.7 66.924 22.7 65.335 20.867 65.335 20.867 63.599 26.062 63.599 26.062 65.335 24.199 65.335 24.199 66.924 26.062 66.924 26.062 68.66 20.867 68.66"></polyline>
                <path d="M29.318,68.965 L29.303,68.965 C27.797,68.965 26.594,67.726 26.594,66.123 C26.594,64.52 27.782,63.295 29.288,63.295 L29.303,63.295 C30.809,63.295 32.012,64.535 32.012,66.137 C32.012,67.74 30.825,68.965 29.318,68.965 Z M29.318,65.047 L29.303,65.047 C28.687,65.047 28.131,65.47 28.131,66.137 C28.131,66.798 28.68,67.214 29.288,67.214 L29.303,67.214 C29.919,67.214 30.476,66.791 30.476,66.123 C30.476,65.462 29.927,65.047 29.318,65.047 L29.318,65.047 Z" id="Fill-372" fill="#FFFFFE" transform="translate(29.303000, 66.130000) rotate(-270.000000) translate(-29.303000, -66.130000) "></path>
                <path d="M36.44,68.609 L35.334,67.681 C35.765,67.117 35.943,66.472 35.943,65.863 C35.943,65.551 35.861,65.418 35.72,65.418 L35.706,65.418 C35.557,65.418 35.475,65.581 35.364,66.138 C35.126,67.303 34.793,68.327 33.694,68.327 L33.679,68.327 C32.692,68.327 31.928,67.555 31.928,66.123 C31.928,65.121 32.165,64.379 32.64,63.778 L33.813,64.624 C33.457,65.113 33.301,65.7 33.301,66.182 C33.301,66.442 33.39,66.561 33.516,66.561 L33.531,66.561 C33.672,66.561 33.761,66.419 33.865,65.87 C34.11,64.542 34.496,63.651 35.542,63.651 L35.557,63.651 C36.648,63.651 37.316,64.549 37.316,65.945 C37.316,66.998 37.019,67.948 36.44,68.609" id="Fill-373" fill="#FFFFFE" transform="translate(34.622000, 66.130000) rotate(-270.000000) translate(-34.622000, -66.130000) "></path>
                <path d="M37.232,68.46 L37.232,66.122 C37.232,64.742 37.848,63.799 39.08,63.799 L39.095,63.799 C40.349,63.799 41.017,64.756 41.017,66.159 L41.017,66.723 L42.427,66.723 L42.427,68.46 L37.232,68.46 Z M39.777,66.256 C39.777,65.81 39.577,65.513 39.206,65.513 L39.191,65.513 C38.813,65.513 38.62,65.788 38.62,66.248 L38.62,66.723 L39.777,66.723 L39.777,66.256 L39.777,66.256 Z" id="Fill-374" fill="#FFFFFE" transform="translate(39.829500, 66.129500) rotate(-270.000000) translate(-39.829500, -66.129500) "></path>
                <polygon id="Fill-375" fill="#FFFFFE" transform="translate(43.412000, 66.129550) rotate(-270.000000) translate(-43.412000, -66.129550) " points="40.81445 66.99755 46.00955 66.99755 46.00955 65.26155 40.81445 65.26155"></polygon>
                <path d="M47.3595,68.7055 L47.3445,68.7055 C45.7935,68.7055 44.6355,67.4955 44.6355,65.9445 C44.6355,64.8015 45.1925,64.0295 45.9865,63.5925 L46.8255,65.0245 C46.4545,65.2175 46.1945,65.4915 46.1945,65.9665 C46.1945,66.5535 46.7065,66.9395 47.3295,66.9395 L47.3445,66.9395 C48.0195,66.9395 48.4945,66.5385 48.4945,65.9665 C48.4945,65.4775 48.2275,65.2025 47.8425,64.9875 L48.6505,63.5545 C49.4225,63.9925 50.0535,64.7205 50.0535,66.0115 C50.0535,67.4515 48.9695,68.7055 47.3595,68.7055" id="Fill-376" fill="#FFFFFE" transform="translate(47.344500, 66.130000) rotate(-270.000000) translate(-47.344500, -66.130000) "></path>
                <polyline id="Fill-377" fill="#FFFFFE" transform="translate(52.485500, 66.129500) rotate(-270.000000) translate(-52.485500, -66.129500) " points="49.888 68.363 49.888 63.933 51.313 63.933 51.313 66.657 51.84 66.657 51.84 64.119 53.094 64.119 53.094 66.657 53.658 66.657 53.658 63.896 55.083 63.896 55.083 68.363 49.888 68.363"></polyline>
                <path d="M59.051,68.609 L57.945,67.681 C58.376,67.117 58.554,66.471 58.554,65.863 C58.554,65.551 58.472,65.418 58.331,65.418 L58.317,65.418 C58.168,65.418 58.086,65.581 57.975,66.137 C57.737,67.302 57.404,68.327 56.305,68.327 L56.29,68.327 C55.303,68.327 54.539,67.555 54.539,66.123 C54.539,65.121 54.776,64.379 55.251,63.777 L56.424,64.623 C56.068,65.113 55.912,65.699 55.912,66.182 C55.912,66.442 56.001,66.56 56.127,66.56 L56.142,66.56 C56.283,66.56 56.372,66.419 56.476,65.87 C56.721,64.542 57.107,63.651 58.153,63.651 L58.168,63.651 C59.259,63.651 59.927,64.549 59.927,65.944 C59.927,66.998 59.63,67.948 59.051,68.609" id="Fill-378" fill="#FFFFFE" transform="translate(57.233000, 66.130000) rotate(-270.000000) translate(-57.233000, -66.130000) "></path>
                <path d="M64.4665,68.7055 L64.4515,68.7055 C62.9005,68.7055 61.7425,67.4955 61.7425,65.9445 C61.7425,64.8015 62.2995,64.0295 63.0935,63.5925 L63.9325,65.0245 C63.5615,65.2175 63.3015,65.4925 63.3015,65.9665 C63.3015,66.5535 63.8135,66.9395 64.4365,66.9395 L64.4515,66.9395 C65.1265,66.9395 65.6015,66.5385 65.6015,65.9665 C65.6015,65.4765 65.3345,65.2025 64.9495,64.9875 L65.7575,63.5545 C66.5295,63.9925 67.1605,64.7205 67.1605,66.0115 C67.1605,67.4515 66.0765,68.7055 64.4665,68.7055" id="Fill-379" fill="#FFFFFE" transform="translate(64.451500, 66.130000) rotate(-270.000000) translate(-64.451500, -66.130000) "></path>
                <polygon id="Fill-380" fill="#FFFFFE" transform="translate(68.241000, 66.129550) rotate(-270.000000) translate(-68.241000, -66.129550) " points="65.64345 66.99755 70.83855 66.99755 70.83855 65.26155 65.64345 65.26155"></polygon>
                <polyline id="Fill-381" fill="#FFFFFE" transform="translate(72.277500, 66.148000) rotate(-270.000000) translate(-72.277500, -66.148000) " points="69.6615 69.0865 69.6615 67.1425 72.5785 66.1335 69.6615 65.1235 69.6615 63.2095 74.8935 65.3165 74.8935 66.9795 69.6615 69.0865"></polyline>
                <polygon id="Fill-382" fill="#FFFFFE" transform="translate(76.313000, 66.129550) rotate(-270.000000) translate(-76.313000, -66.129550) " points="73.71545 66.99755 78.91055 66.99755 78.91055 65.26155 73.71545 65.26155"></polygon>
                <polyline id="Fill-383" fill="#FFFFFE" transform="translate(79.878000, 66.129500) rotate(-270.000000) translate(-79.878000, -66.129500) " points="77.2805 68.2185 77.2805 66.4825 80.9915 66.4825 80.9915 64.0405 82.4755 64.0405 82.4755 68.2185 77.2805 68.2185"></polyline>
                <path d="M86.21,68.609 L85.104,67.681 C85.535,67.117 85.713,66.471 85.713,65.863 C85.713,65.551 85.631,65.418 85.49,65.418 L85.476,65.418 C85.327,65.418 85.245,65.581 85.134,66.137 C84.896,67.303 84.563,68.327 83.464,68.327 L83.449,68.327 C82.462,68.327 81.698,67.555 81.698,66.123 C81.698,65.121 81.935,64.379 82.41,63.777 L83.583,64.624 C83.227,65.113 83.071,65.699 83.071,66.182 C83.071,66.442 83.16,66.561 83.286,66.561 L83.301,66.561 C83.442,66.561 83.531,66.419 83.635,65.87 C83.88,64.542 84.266,63.651 85.312,63.651 L85.327,63.651 C86.418,63.651 87.086,64.549 87.086,65.944 C87.086,66.998 86.789,67.948 86.21,68.609" id="Fill-384" fill="#FFFFFE" transform="translate(84.392000, 66.130000) rotate(-270.000000) translate(-84.392000, -66.130000) "></path>
                <path d="M20.878,77.574 L20.878,75.585 C20.878,73.522 21.895,72.491 23.431,72.491 L23.446,72.491 C24.982,72.491 26.073,73.544 26.073,75.644 L26.073,77.574 L20.878,77.574 Z M24.559,75.548 C24.559,74.754 24.233,74.242 23.483,74.242 L23.468,74.242 C22.719,74.242 22.392,74.754 22.392,75.548 L22.392,75.838 L24.559,75.838 L24.559,75.548 L24.559,75.548 Z" id="Fill-385" fill="#FFFFFE" transform="translate(23.475500, 75.032500) rotate(-270.000000) translate(-23.475500, -75.032500) "></path>
                <polyline id="Fill-386" fill="#FFFFFE" transform="translate(28.724000, 75.032500) rotate(-270.000000) translate(-28.724000, -75.032500) " points="26.1265 77.2665 26.1265 72.8355 27.5515 72.8355 27.5515 75.5595 28.0785 75.5595 28.0785 73.0215 29.3325 73.0215 29.3325 75.5595 29.8965 75.5595 29.8965 72.7985 31.3215 72.7985 31.3215 77.2665 26.1265 77.2665"></polyline>
                <polyline id="Fill-387" fill="#FFFFFE" transform="translate(35.397000, 75.032500) rotate(-270.000000) translate(-35.397000, -75.032500) " points="32.7995 77.1215 32.7995 75.3855 36.5105 75.3855 36.5105 72.9435 37.9945 72.9435 37.9945 77.1215 32.7995 77.1215"></polyline>
                <polyline id="Fill-388" fill="#FFFFFE" transform="translate(39.310500, 75.031500) rotate(-270.000000) translate(-39.310500, -75.031500) " points="40.068 75.9 36.713 77.859 36.713 75.915 38.421 75.024 36.713 74.126 36.713 72.204 40.046 74.164 41.908 74.164 41.908 75.9 40.068 75.9"></polyline>
                <path d="M44.526,77.867 L44.511,77.867 C43.005,77.867 41.802,76.628 41.802,75.025 C41.802,73.422 42.99,72.197 44.496,72.197 L44.511,72.197 C46.018,72.197 47.22,73.437 47.22,75.04 C47.22,76.643 46.033,77.867 44.526,77.867 Z M44.526,73.949 L44.511,73.949 C43.895,73.949 43.338,74.372 43.338,75.04 C43.338,75.7 43.888,76.116 44.496,76.116 L44.511,76.116 C45.127,76.116 45.684,75.693 45.684,75.025 C45.684,74.364 45.135,73.949 44.526,73.949 L44.526,73.949 Z" id="Fill-389" fill="#FFFFFE" transform="translate(44.511000, 75.032000) rotate(-270.000000) translate(-44.511000, -75.032000) "></path>
                <polyline id="Fill-390" fill="#FFFFFE" transform="translate(50.416000, 75.032500) rotate(-270.000000) translate(-50.416000, -75.032500) " points="47.8185 77.6295 47.8185 76.0045 50.1125 74.1565 47.8185 74.1565 47.8185 72.4355 53.0135 72.4355 53.0135 73.9785 50.6165 75.9085 53.0135 75.9085 53.0135 77.6295 47.8185 77.6295"></polyline>
            </g>
        </g>
    </g>
</svg>