<?xml version="1.0" encoding="UTF-8" standalone="no"?>
<svg
   xmlns:dc="http://purl.org/dc/elements/1.1/"
   xmlns:cc="http://creativecommons.org/ns#"
   xmlns:rdf="http://www.w3.org/1999/02/22-rdf-syntax-ns#"
   xmlns:svg="http://www.w3.org/2000/svg"
   xmlns="http://www.w3.org/2000/svg"
   xmlns:sodipodi="http://sodipodi.sourceforge.net/DTD/sodipodi-0.dtd"
   xmlns:inkscape="http://www.inkscape.org/namespaces/inkscape"
   viewBox="0 0 600.00002 176.88"
   version="1.1"
   id="svg161"
   sodipodi:docname="logo.svg"
   width="600"
   height="176.88"
   inkscape:version="0.92.4 (5da689c313, 2019-01-14)">
  <metadata
     id="metadata165">
    <rdf:RDF>
      <cc:Work
         rdf:about="">
        <dc:format>image/svg+xml</dc:format>
        <dc:type
           rdf:resource="http://purl.org/dc/dcmitype/StillImage" />
        <dc:title></dc:title>
      </cc:Work>
    </rdf:RDF>
  </metadata>
  <sodipodi:namedview
     pagecolor="#ffffff"
     bordercolor="#666666"
     borderopacity="1"
     objecttolerance="10"
     gridtolerance="10"
     guidetolerance="10"
     inkscape:pageopacity="0"
     inkscape:pageshadow="2"
     inkscape:window-width="1600"
     inkscape:window-height="837"
     id="namedview163"
     showgrid="false"
     inkscape:zoom="1.1811996"
     inkscape:cx="398.37431"
     inkscape:cy="73.691015"
     inkscape:window-x="-8"
     inkscape:window-y="-8"
     inkscape:window-maximized="1"
     inkscape:current-layer="Logo" />
  <defs
     id="defs4">
    <style
       id="style2">.cls-1{fill:none;}.cls-2,.cls-3{fill:#0c419a;}.cls-3{fill-rule:evenodd;}</style>
  </defs>
  <g
     id="Logo">
    <rect
       class="cls-1"
       x="-72.529999"
       y="-72.550003"
       width="1000.84"
       height="316"
       id="rect6"
       style="fill:none" />
    <path
       class="cls-2"
       d="m 276.65,124.45 v -40 h 10.53 v 40.41 c 0,2.31 1,3 1.9,3 a 4.35,4.35 0 0 0 1.29,-0.15 l 1.26,7.93 a 13.3,13.3 0 0 1 -5.29,0.9 c -7.22,0.07 -9.69,-4.74 -9.69,-12.09 z"
       id="path8"
       inkscape:connector-curvature="0"
       style="fill:#0c419a" />
    <path
       class="cls-2"
       d="m 209.22,111.65 c 0.94,-2.93 10.26,-23.6 10.26,-23.6 h 11.06 v 47.68 h -10 v -29.47 l -8.32,21.44 h -6.32 l -8.32,-21.44 v 29.47 h -10 V 88.05 h 11.06 c 0,0 9.32,20.67 10.26,23.6 z"
       id="path10"
       inkscape:connector-curvature="0"
       style="fill:#0c419a" />
    <path
       class="cls-2"
       d="m 296,125.66 c 0,-7.64 6.42,-11.89 20.47,-13.4 -0.21,-3.18 -2.22,-5.14 -6.08,-5.14 -3,0 -5.95,1.28 -9.4,3.28 l -3.74,-7.06 a 28.57,28.57 0 0 1 15.17,-4.78 c 9.09,0 14.12,5.3 14.12,16.42 v 20.75 h -10 v -3.51 c 0,0 -4.13,4.39 -9.91,4.39 -6.57,0 -10.63,-4.83 -10.63,-10.95 z m 20.51,-0.63 v -6.34 c -7.49,1 -10.43,3.37 -10.43,6.12 0,2.34 1.58,3.48 4.08,3.48 2.5,0 4.43,-1.36 6.3,-3.29 z"
       id="path12"
       inkscape:connector-curvature="0"
       style="fill:#0c419a" />
    <path
       class="cls-2"
       d="m 237.92,125.66 c 0,-7.64 6.41,-11.89 20.47,-13.4 -0.22,-3.18 -2.22,-5.14 -6.08,-5.14 -3,0 -6,1.28 -9.4,3.28 l -3.74,-7.06 a 28.51,28.51 0 0 1 15.17,-4.78 c 9.08,0 14.12,5.3 14.12,16.42 v 20.75 h -10 v -3.51 c 0,0 -4.13,4.39 -9.91,4.39 -6.55,0 -10.63,-4.83 -10.63,-10.95 z m 20.51,-0.63 v -6.34 c -7.49,1 -10.43,3.37 -10.43,6.12 0,2.34 1.57,3.48 4.08,3.48 2.51,0 4.48,-1.36 6.35,-3.29 z"
       id="path14"
       inkscape:connector-curvature="0"
       style="fill:#0c419a" />
    <path
       class="cls-2"
       d="M 356.26,84.48 V 102 a 11.3,11.3 0 0 0 -8.71,-3.47 c -7.48,0 -14.74,7.17 -14.74,19 0,11.83 5.71,19 14.54,19 4.84,0 8.57,-3.61 8.91,-4 v 3.07 h 10.53 V 84.48 Z m -6.17,43.33 c -4.08,0 -6.49,-3.21 -6.49,-10.33 0,-6.91 3,-10.12 6.4,-10.12 a 10.13,10.13 0 0 1 6.26,2.29 v 14.91 c -2.12,2.38 -3.93,3.25 -6.17,3.25 z"
       id="path16"
       inkscape:connector-curvature="0"
       style="fill:#0c419a" />
    <path
       class="cls-2"
       d="m 374.86,88.51 c 0,-3.3 2.56,-5.62 6.09,-5.62 3.53,0 6.1,2.32 6.1,5.62 0,3.3 -2.56,5.62 -6.1,5.62 -3.54,0 -6.09,-2.35 -6.09,-5.62 z m 0.83,10.93 h 10.53 v 36.29 h -10.53 z"
       id="path18"
       inkscape:connector-curvature="0"
       style="fill:#0c419a" />
    <path
       class="cls-2"
       d="m 392.75,117.6 c 0,-11.78 7.42,-19 16.34,-19 10.12,0 15.7,7.51 15.7,17.42 a 24.93,24.93 0 0 1 -0.44,4.75 h -21.26 c 1,5.27 4.48,7.68 9.22,7.68 2.69,0 5,-1.07 7.6,-2.61 l 3.56,6.72 a 22.81,22.81 0 0 1 -12.6,4.09 c -10.51,-0.04 -18.12,-7.04 -18.12,-19.05 z m 23,-4 c 0,-4 -2.26,-6.86 -6.47,-6.86 -3.32,0 -5.63,2.27 -6.34,6.86 z"
       id="path20"
       inkscape:connector-curvature="0"
       style="fill:#0c419a" />
    <path
       class="cls-2"
       d="m 187.62,64.44 v -40 h 10.53 v 40.43 c 0,2.31 1,3 1.9,3 a 4.65,4.65 0 0 0 1.29,-0.14 l 1.26,7.93 a 13.5,13.5 0 0 1 -5.28,0.89 c -7.23,0.04 -9.7,-4.77 -9.7,-12.11 z"
       id="path22"
       inkscape:connector-curvature="0"
       style="fill:#0c419a" />
    <path
       class="cls-2"
       d="m 243.48,64.36 2.89,11.35 h 10.88 L 242.59,28 h -12.06 l -14.66,47.71 h 10.89 l 2.88,-11.35 z M 231.77,56 l 4.6,-18.09 h 0.38 l 4.6,18.09 z"
       id="path24"
       inkscape:connector-curvature="0"
       style="fill:#0c419a" />
    <path
       class="cls-2"
       d="m 259.37,71.52 4.73,-6.7 c 3.22,2.49 6.2,3.82 9.17,3.82 3.13,0 4.49,-1.23 4.49,-3.13 0,-2.39 -3.52,-3.47 -7.18,-4.94 -4.35,-1.72 -9.4,-4.67 -9.4,-10.67 0,-6.75 5.38,-11.36 13.57,-11.36 a 20,20 0 0 1 12.53,4.6 l -4.72,6.45 c -2.52,-1.87 -5,-3.09 -7.48,-3.09 -2.72,0 -4.06,1.08 -4.06,2.89 0,2.32 3.33,3.21 7,4.57 4.5,1.7 9.57,4.29 9.57,10.93 0,6.64 -5.07,11.7 -14.59,11.7 a 22.71,22.71 0 0 1 -13.63,-5.07 z"
       id="path26"
       inkscape:connector-curvature="0"
       style="fill:#0c419a" />
    <path
       class="cls-2"
       d="m 290.88,71.52 4.74,-6.7 c 3.21,2.49 6.19,3.82 9.16,3.82 3.14,0 4.49,-1.23 4.49,-3.13 0,-2.39 -3.52,-3.47 -7.18,-4.94 -4.35,-1.72 -9.4,-4.67 -9.4,-10.67 0,-6.75 5.38,-11.36 13.58,-11.36 a 20,20 0 0 1 12.52,4.6 l -4.71,6.45 c -2.53,-1.87 -5,-3.09 -7.48,-3.09 -2.72,0 -4.06,1.08 -4.06,2.89 0,2.32 3.32,3.21 7,4.57 4.49,1.7 9.57,4.29 9.57,10.93 0,6.64 -5.08,11.7 -14.6,11.7 a 22.74,22.74 0 0 1 -13.63,-5.07 z"
       id="path28"
       inkscape:connector-curvature="0"
       style="fill:#0c419a" />
    <path
       class="cls-2"
       d="m 365.39,39.45 h 10.53 v 5.16 c 2,-4 6.88,-5.43 9.36,-5.37 a 10.16,10.16 0 0 1 4.23,0.73 l -1.09,9.78 a 15.7,15.7 0 0 0 -4.49,-1.09 8.53,8.53 0 0 0 -8,8.17 v 18.88 h -10.54 z"
       id="path30"
       inkscape:connector-curvature="0"
       style="fill:#0c419a" />
    <path
       class="cls-2"
       d="m 430.15,39.45 h 10.53 V 44 44 c 3,-2.93 6,-5.47 10.86,-5.47 7.73,0 11,5.57 11,14.64 V 75.71 H 452 V 54.56 c 0,-5.22 -1.38,-6.86 -4.42,-6.86 -2.64,0 -4.63,1.26 -6.94,3.53 v 24.48 h -10.49 z"
       id="path32"
       inkscape:connector-curvature="0"
       style="fill:#0c419a" />
    <path
       class="cls-2"
       d="m 499,57.58 c 0,-11.77 7.42,-19 16.34,-19 10.12,0 15.7,7.52 15.7,17.42 a 24.84,24.84 0 0 1 -0.44,4.75 h -21.25 c 0.95,5.27 4.48,7.68 9.22,7.68 2.69,0 5,-1.07 7.6,-2.61 l 3.56,6.72 a 22.73,22.73 0 0 1 -12.6,4.09 C 506.62,76.59 499,69.59 499,57.58 Z m 23,-4 c 0,-4 -2.26,-6.86 -6.47,-6.86 -3.32,0 -5.63,2.28 -6.35,6.86 z"
       id="path34"
       inkscape:connector-curvature="0"
       style="fill:#0c419a" />
    <path
       class="cls-2"
       d="m 391.79,65.65 c 0,-7.65 6.41,-11.9 20.47,-13.41 -0.22,-3.18 -2.22,-5.14 -6.08,-5.14 -3,0 -6,1.28 -9.4,3.28 L 393,43.32 a 28.51,28.51 0 0 1 15.17,-4.78 c 9.08,0 14.12,5.3 14.12,16.42 v 20.75 h -10 v -3.5 c 0,0 -4.13,4.38 -9.91,4.38 -6.48,0 -10.59,-4.83 -10.59,-10.94 z M 412.3,65 v -6.33 c -7.49,1 -10.43,3.38 -10.43,6.12 0,2.34 1.57,3.48 4.08,3.48 2.51,0 4.48,-1.36 6.35,-3.27 z"
       id="path36"
       inkscape:connector-curvature="0"
       style="fill:#0c419a" />
    <path
       class="cls-2"
       d="m 212,24.25 c -2.18,0 -5.15,1.66 -5.15,4.74 a 4.28,4.28 0 0 0 4.32,4.34 2.91,2.91 0 0 0 0.31,0 c -0.11,3.16 -3,5 -4.45,5.75 l 2.78,3.88 C 219,40 220.91,24.31 212,24.25 Z"
       id="path38"
       inkscape:connector-curvature="0"
       style="fill:#0c419a" />
    <path
       class="cls-2"
       d="m 346.2,39.45 v 24 c -2.06,2.86 -3.67,4 -6.32,4 -3,0 -4.41,-1.64 -4.41,-6.86 V 39.45 H 324.94 V 62.3 c 0,8.59 3.67,14.34 11.16,14.32 A 13.12,13.12 0 0 0 346.28,72 v 3.74 h 10.44 V 39.45 Z"
       id="path40"
       inkscape:connector-curvature="0"
       style="fill:#0c419a" />
    <path
       class="cls-2"
       d="m 487,67.91 c -4.57,0 -8,-4 -8,-10.33 0,-6.33 3.25,-10.36 8.31,-10.36 a 6.91,6.91 0 0 1 4.6,2 l 5,-6.91 a 15.18,15.18 0 0 0 -10.16,-3.73 c -9.81,0 -18.37,7 -18.37,19 0,12 7.51,19 17.43,19 a 17.49,17.49 0 0 0 11.71,-4.32 L 493.64,65 c -2.11,1.72 -4.23,2.91 -6.64,2.91 z"
       id="path42"
       inkscape:connector-curvature="0"
       style="fill:#0c419a" />
    <path
       class="cls-2"
       d="m 191.12,153 h 3.73 l 5.85,17.94 h -3.37 l -2.73,-9.55 c -0.57,-1.9 -1.1,-3.94 -1.62,-5.91 h -0.11 c -0.5,2 -1,4 -1.59,5.91 l -2.76,9.55 h -3.25 z m -2.39,10.58 h 8.45 v 2.5 h -8.45 z"
       id="path44"
       inkscape:connector-curvature="0"
       style="fill:#0c419a" />
    <path
       class="cls-2"
       d="m 202.6,173.37 a 3.44,3.44 0 0 1 1.94,-2.88 v -0.11 a 2.56,2.56 0 0 1 -1.22,-2.25 3.26,3.26 0 0 1 1.49,-2.51 v -0.11 A 4.5,4.5 0 0 1 203,162 c 0,-3.09 2.51,-4.84 5.33,-4.84 a 6.18,6.18 0 0 1 2,0.33 h 4.82 v 2.35 h -2.46 a 3.55,3.55 0 0 1 0.77,2.26 c 0,3 -2.27,4.6 -5.12,4.6 a 5,5 0 0 1 -1.82,-0.36 1.55,1.55 0 0 0 -0.66,1.29 c 0,0.76 0.55,1.22 2.18,1.22 h 2.4 c 3.22,0 4.93,1 4.93,3.33 0,2.65 -2.79,4.75 -7.19,4.75 -3.18,-0.05 -5.58,-1.21 -5.58,-3.56 z m 9.74,-0.73 c 0,-1 -0.83,-1.35 -2.38,-1.35 h -1.84 a 7,7 0 0 1 -1.83,-0.19 2.26,2.26 0 0 0 -1,1.78 c 0,1.23 1.32,1.94 3.44,1.94 2.12,0 3.61,-1.02 3.61,-2.18 z M 210.69,162 a 2.35,2.35 0 1 0 -4.67,0 2.36,2.36 0 1 0 4.67,0 z"
       id="path46"
       inkscape:connector-curvature="0"
       style="fill:#0c419a" />
    <path
       class="cls-2"
       d="m 218.41,153.3 a 2,2 0 1 1 2,1.78 1.8,1.8 0 0 1 -2,-1.78 z m 0.36,4.14 h 3.16 v 13.48 h -3.16 z"
       id="path48"
       inkscape:connector-curvature="0"
       style="fill:#0c419a" />
    <path
       class="cls-2"
       d="m 226.89,157.44 h 2.59 l 0.24,2.41 h 0.09 a 4.59,4.59 0 0 1 3.83,-2.74 3.35,3.35 0 0 1 1.52,0.28 l -0.55,2.74 a 4.59,4.59 0 0 0 -1.38,-0.22 c -1.07,0 -2.37,0.74 -3.18,2.79 v 8.22 h -3.16 z"
       id="path50"
       inkscape:connector-curvature="0"
       style="fill:#0c419a" />
    <path
       class="cls-2"
       d="m 243.58,164.19 c 0,-4.38 3,-7.08 6.21,-7.08 3.65,0 5.57,2.64 5.57,6.4 a 8.26,8.26 0 0 1 -0.14,1.54 h -8.55 a 3.83,3.83 0 0 0 4,3.75 5.73,5.73 0 0 0 3.13,-1 l 1.07,2 a 8.33,8.33 0 0 1 -4.62,1.46 c -3.75,-0.01 -6.67,-2.62 -6.67,-7.07 z m 9,-1.29 c 0,-2.08 -0.93,-3.34 -2.77,-3.34 -1.57,0 -3,1.18 -3.23,3.34 z"
       id="path52"
       inkscape:connector-curvature="0"
       style="fill:#0c419a" />
    <path
       class="cls-2"
       d="m 259.31,157.44 h 2.59 l 0.24,1.83 h 0.09 a 6.29,6.29 0 0 1 4.42,-2.16 c 2.89,0 4.15,2 4.15,5.36 v 8.45 h -3.16 v -8 c 0,-2.22 -0.64,-3.06 -2.1,-3.06 -1.18,0 -2,0.59 -3.07,1.68 v 9.42 h -3.16 z"
       id="path54"
       inkscape:connector-curvature="0"
       style="fill:#0c419a" />
    <path
       class="cls-2"
       d="m 274.27,169.37 1.47,-2 a 5.89,5.89 0 0 0 3.72,1.51 c 1.47,0 2.16,-0.69 2.16,-1.62 0,-1.13 -1.46,-1.63 -2.9,-2.18 -1.77,-0.66 -3.78,-1.68 -3.78,-3.93 0,-2.25 1.88,-4 4.9,-4 a 7.27,7.27 0 0 1 4.48,1.62 l -1.45,1.94 a 5,5 0 0 0 -2.95,-1.17 c -1.36,0 -2,0.64 -2,1.49 0,1.06 1.36,1.47 2.82,2 1.82,0.68 3.86,1.55 3.86,4.07 0,2.31 -1.83,4.18 -5.23,4.18 a 8.37,8.37 0 0 1 -5.1,-1.91 z"
       id="path56"
       inkscape:connector-curvature="0"
       style="fill:#0c419a" />
    <path
       class="cls-2"
       d="m 287.47,164.19 c 0,-4.38 3,-7.08 6.21,-7.08 3.64,0 5.56,2.64 5.56,6.4 a 8.4,8.4 0 0 1 -0.13,1.54 h -8.56 a 3.84,3.84 0 0 0 4,3.75 5.67,5.67 0 0 0 3.12,-1 l 1.08,2 a 8.36,8.36 0 0 1 -4.62,1.46 c -3.74,-0.01 -6.66,-2.62 -6.66,-7.07 z m 9,-1.29 c 0,-2.08 -0.92,-3.34 -2.76,-3.34 -1.57,0 -2.95,1.18 -3.23,3.34 z"
       id="path58"
       inkscape:connector-curvature="0"
       style="fill:#0c419a" />
    <path
       class="cls-2"
       d="m 303.2,157.44 h 2.59 l 0.24,1.84 h 0.09 a 5.79,5.79 0 0 1 4.13,-2.17 3.63,3.63 0 0 1 3.72,2.42 c 1.29,-1.37 2.63,-2.42 4.34,-2.42 2.84,0 4.16,2 4.16,5.36 v 8.45 h -3.16 v -8 c 0,-2.22 -0.66,-3.06 -2.08,-3.06 a 4.19,4.19 0 0 0 -2.82,1.68 v 9.42 h -3.16 v -8 c 0,-2.22 -0.66,-3.06 -2.07,-3.06 a 4.19,4.19 0 0 0 -2.82,1.68 V 171 h -3.16 z"
       id="path60"
       inkscape:connector-curvature="0"
       style="fill:#0c419a" />
    <path
       class="cls-2"
       d="M 330.11,169.5 H 330 l -0.27,1.42 h -2.49 v -19.38 h 3.16 v 5 l -0.09,2.24 a 6.13,6.13 0 0 1 3.89,-1.68 c 3.37,0 5.31,2.7 5.31,6.85 0,4.62 -2.75,7.29 -5.75,7.29 a 5.42,5.42 0 0 1 -3.65,-1.74 z m 6.18,-5.49 c 0,-2.69 -0.88,-4.28 -2.93,-4.28 a 4.21,4.21 0 0 0 -2.94,1.51 v 6.28 a 4.16,4.16 0 0 0 2.69,1.12 c 1.8,0 3.18,-1.58 3.18,-4.64 z"
       id="path62"
       inkscape:connector-curvature="0"
       style="fill:#0c419a" />
    <path
       class="cls-2"
       d="m 343.47,167.45 v -15.91 h 3.16 v 16.08 c 0,0.77 0.35,1 0.68,1 a 1.68,1.68 0 0 0 0.49,-0.06 l 0.4,2.36 a 4.31,4.31 0 0 1 -1.67,0.28 c -2.24,0.05 -3.06,-1.4 -3.06,-3.75 z"
       id="path64"
       inkscape:connector-curvature="0"
       style="fill:#0c419a" />
    <path
       class="cls-2"
       d="m 350.94,164.19 c 0,-4.38 3,-7.08 6.21,-7.08 3.65,0 5.57,2.64 5.57,6.4 a 8.26,8.26 0 0 1 -0.14,1.54 H 354 a 3.83,3.83 0 0 0 4,3.75 5.73,5.73 0 0 0 3.13,-1 l 1.07,2 a 8.33,8.33 0 0 1 -4.62,1.46 c -3.72,-0.01 -6.64,-2.62 -6.64,-7.07 z m 9,-1.29 c 0,-2.08 -0.92,-3.34 -2.76,-3.34 -1.57,0 -3,1.18 -3.23,3.34 z"
       id="path66"
       inkscape:connector-curvature="0"
       style="fill:#0c419a" />
    <path
       class="cls-2"
       d="m 368.55,167 a 2,2 0 0 0 -2.11,1.94 1.92,1.92 0 0 0 2,1.94 h 0.24 c 0,1.44 -1,2.67 -2.77,3.35 l 0.69,1.74 a 5.86,5.86 0 0 0 4.27,-5.7 c 0.04,-2.08 -0.82,-3.27 -2.32,-3.27 z"
       id="path68"
       inkscape:connector-curvature="0"
       style="fill:#0c419a" />
    <path
       class="cls-2"
       d="m 381.85,157.44 h 2.59 l 0.24,1.44 h 0.09 a 6.49,6.49 0 0 1 4.06,-1.77 c 3.37,0 5.3,2.7 5.3,6.86 0,4.61 -2.76,7.28 -5.75,7.28 a 5.4,5.4 0 0 1 -3.47,-1.48 L 385,172 v 4.25 h -3.16 z m 9,6.57 c 0,-2.69 -0.88,-4.28 -2.93,-4.28 a 4.25,4.25 0 0 0 -2.94,1.51 v 6.28 a 4.21,4.21 0 0 0 2.7,1.12 c 1.83,0 3.2,-1.58 3.2,-4.64 z"
       id="path70"
       inkscape:connector-curvature="0"
       style="fill:#0c419a" />
    <path
       class="cls-2"
       d="m 398.14,157.44 h 2.59 l 0.24,2.41 h 0.09 a 4.6,4.6 0 0 1 3.83,-2.74 3.35,3.35 0 0 1 1.52,0.28 l -0.55,2.74 a 4.59,4.59 0 0 0 -1.38,-0.22 c -1.07,0 -2.37,0.74 -3.18,2.79 v 8.22 h -3.16 z"
       id="path72"
       inkscape:connector-curvature="0"
       style="fill:#0c419a" />
    <path
       class="cls-2"
       d="m 407.63,164.19 c 0,-4.49 3.05,-7.08 6.41,-7.08 3.36,0 6.41,2.59 6.41,7.08 0,4.49 -3.05,7.06 -6.41,7.06 -3.36,0 -6.41,-2.59 -6.41,-7.06 z m 9.57,0 c 0,-2.7 -1.19,-4.5 -3.16,-4.5 -1.97,0 -3.16,1.8 -3.16,4.5 0,2.7 1.18,4.48 3.16,4.48 1.98,0 3.16,-1.78 3.16,-4.48 z"
       id="path74"
       inkscape:connector-curvature="0"
       style="fill:#0c419a" />
    <path
       class="cls-2"
       d="M 424.49,166.38 V 160 h -1.92 v -2.37 l 2.09,-0.15 0.37,-3.67 h 2.62 v 3.67 h 3.44 V 160 h -3.44 v 6.41 c 0,1.59 0.62,2.36 1.91,2.36 a 4.38,4.38 0 0 0 1.41,-0.3 l 0.53,2.32 a 8.44,8.44 0 0 1 -2.75,0.5 c -3.11,-0.04 -4.26,-2.01 -4.26,-4.91 z"
       id="path76"
       inkscape:connector-curvature="0"
       style="fill:#0c419a" />
    <path
       class="cls-2"
       d="m 433.53,164.19 c 0,-4.38 3,-7.08 6.21,-7.08 3.64,0 5.56,2.64 5.56,6.4 a 7.48,7.48 0 0 1 -0.14,1.54 h -8.55 a 3.83,3.83 0 0 0 4,3.75 5.7,5.7 0 0 0 3.13,-1 l 1.08,2 a 8.36,8.36 0 0 1 -4.62,1.46 c -3.75,-0.01 -6.67,-2.62 -6.67,-7.07 z m 9,-1.29 c 0,-2.08 -0.92,-3.34 -2.77,-3.34 -1.56,0 -2.95,1.18 -3.22,3.34 z m -4.46,-9.25 4.05,-4.79 2.18,2.1 -4.65,4.25 z"
       id="path78"
       inkscape:connector-curvature="0"
       style="fill:#0c419a" />
    <path
       class="cls-2"
       d="m 448.17,173.37 a 3.45,3.45 0 0 1 1.95,-2.88 v -0.11 a 2.54,2.54 0 0 1 -1.22,-2.25 3.26,3.26 0 0 1 1.49,-2.51 v -0.11 a 4.5,4.5 0 0 1 -1.78,-3.56 c 0,-3.09 2.5,-4.84 5.32,-4.84 a 6.24,6.24 0 0 1 2,0.33 h 4.82 v 2.35 h -2.46 a 3.55,3.55 0 0 1 0.77,2.26 c 0,3 -2.27,4.6 -5.13,4.6 a 5.08,5.08 0 0 1 -1.82,-0.36 1.58,1.58 0 0 0 -0.66,1.29 c 0,0.76 0.55,1.22 2.19,1.22 H 456 c 3.22,0 4.93,1 4.93,3.33 0,2.65 -2.79,4.75 -7.19,4.75 -3.17,0 -5.57,-1.16 -5.57,-3.51 z m 9.75,-0.73 c 0,-1 -0.84,-1.35 -2.38,-1.35 h -1.85 a 7,7 0 0 1 -1.82,-0.19 2.26,2.26 0 0 0 -1,1.78 c 0,1.23 1.32,1.94 3.43,1.94 2.11,0 3.62,-1.02 3.62,-2.18 z M 456.27,162 a 2.35,2.35 0 1 0 -4.67,0 2.36,2.36 0 1 0 4.67,0 z"
       id="path80"
       inkscape:connector-curvature="0"
       style="fill:#0c419a" />
    <path
       class="cls-2"
       d="m 462.85,164.19 c 0,-4.38 3,-7.08 6.21,-7.08 3.64,0 5.56,2.64 5.56,6.4 a 8.4,8.4 0 0 1 -0.13,1.54 h -8.56 a 3.84,3.84 0 0 0 4,3.75 5.67,5.67 0 0 0 3.12,-1 l 1.08,2 a 8.33,8.33 0 0 1 -4.62,1.46 c -3.74,-0.01 -6.66,-2.62 -6.66,-7.07 z m 9,-1.29 c 0,-2.08 -0.92,-3.34 -2.76,-3.34 -1.57,0 -2.95,1.18 -3.23,3.34 z"
       id="path82"
       inkscape:connector-curvature="0"
       style="fill:#0c419a" />
    <path
       class="cls-2"
       d="m 478.58,157.44 h 2.59 l 0.24,2.41 h 0.09 a 4.6,4.6 0 0 1 3.83,-2.74 3.35,3.35 0 0 1 1.52,0.28 l -0.55,2.74 a 4.59,4.59 0 0 0 -1.38,-0.22 c -1.07,0 -2.37,0.74 -3.18,2.79 v 8.22 h -3.16 z"
       id="path84"
       inkscape:connector-curvature="0"
       style="fill:#0c419a" />
    <path
       class="cls-2"
       d="m 495.27,164.19 a 6.66,6.66 0 0 1 6.76,-7.08 5.76,5.76 0 0 1 3.94,1.52 l -1.54,2.05 a 3.31,3.31 0 0 0 -2.23,-1 c -2.18,0 -3.68,1.8 -3.68,4.5 0,2.7 1.48,4.48 3.58,4.48 a 4.44,4.44 0 0 0 2.78,-1.16 l 1.29,2.08 a 6.64,6.64 0 0 1 -4.4,1.66 c -3.68,0.01 -6.5,-2.58 -6.5,-7.05 z"
       id="path86"
       inkscape:connector-curvature="0"
       style="fill:#0c419a" />
    <path
       class="cls-2"
       d="m 509.65,151.54 h 3.16 v 5 l -0.13,2.61 a 6.21,6.21 0 0 1 4.31,-2 c 2.89,0 4.15,2 4.15,5.36 v 8.45 H 518 v -8 c 0,-2.22 -0.63,-3.06 -2.09,-3.06 -1.19,0 -2,0.59 -3.08,1.68 V 171 h -3.16 z"
       id="path88"
       inkscape:connector-curvature="0"
       style="fill:#0c419a" />
    <path
       class="cls-2"
       d="m 524.94,167.3 c 0,-2.89 2.39,-4.39 7.92,-5 0,-1.45 -0.62,-2.66 -2.44,-2.66 a 7.42,7.42 0 0 0 -3.79,1.33 l -1.16,-2.11 a 10.52,10.52 0 0 1 5.53,-1.77 c 3.37,0 5,2.08 5,5.83 v 8 h -2.59 l -0.24,-1.49 h -0.09 a 6.48,6.48 0 0 1 -4.18,1.82 3.78,3.78 0 0 1 -3.96,-3.95 z m 7.92,0 v -3 c -3.65,0.46 -4.87,1.42 -4.87,2.78 0,1.19 0.81,1.71 1.94,1.71 a 4.26,4.26 0 0 0 2.93,-1.48 z"
       id="path90"
       inkscape:connector-curvature="0"
       style="fill:#0c419a" />
    <path
       class="cls-2"
       d="m 539.75,164.19 a 6.66,6.66 0 0 1 6.76,-7.08 5.76,5.76 0 0 1 3.94,1.52 l -1.54,2.05 a 3.32,3.32 0 0 0 -2.24,-1 c -2.17,0 -3.67,1.8 -3.67,4.5 0,2.7 1.48,4.48 3.57,4.48 a 4.46,4.46 0 0 0 2.79,-1.16 l 1.28,2.08 a 6.63,6.63 0 0 1 -4.39,1.66 c -3.68,0.01 -6.5,-2.58 -6.5,-7.05 z"
       id="path92"
       inkscape:connector-curvature="0"
       style="fill:#0c419a" />
    <path
       class="cls-2"
       d="m 554,165.89 v -8.45 h 3.16 v 8.05 c 0,2.21 0.63,3 2.09,3 1.19,0 2,-0.55 3,-1.87 v -9.23 h 3.16 v 13.48 h -2.59 l -0.24,-2 h -0.09 a 5.48,5.48 0 0 1 -4.34,2.32 c -2.91,0.06 -4.15,-1.9 -4.15,-5.3 z"
       id="path94"
       inkscape:connector-curvature="0"
       style="fill:#0c419a" />
    <path
       class="cls-2"
       d="m 570.09,157.44 h 2.59 l 0.24,1.83 H 573 a 6.25,6.25 0 0 1 4.42,-2.16 c 2.88,0 4.15,2 4.15,5.36 v 8.45 h -3.16 v -8 c 0,-2.22 -0.64,-3.06 -2.1,-3.06 -1.18,0 -2,0.59 -3.07,1.68 v 9.42 h -3.16 z"
       id="path96"
       inkscape:connector-curvature="0"
       style="fill:#0c419a" />
    <path
       class="cls-2"
       d="M 9.14,89.11 7.9,88 a 3.23,3.23 0 0 0 1,-2 c 0,-0.78 -0.26,-1.18 -0.75,-1.2 -0.49,-0.02 -0.71,0.44 -1,1.15 L 6.56,87 A 2.43,2.43 0 0 1 4.22,88.57 2.7,2.7 0 0 1 1.88,85.49 3.84,3.84 0 0 1 3.1,82.85 l 1.14,1 a 2.7,2.7 0 0 0 -0.74,1.7 c 0,0.65 0.22,1.07 0.7,1.09 0.48,0.02 0.72,-0.51 1,-1.22 l 0.48,-1 a 2.29,2.29 0 0 1 2.34,-1.54 c 1.38,0.06 2.52,1.27 2.43,3.25 a 4.59,4.59 0 0 1 -1.31,2.98 z"
       id="path98"
       inkscape:connector-curvature="0"
       style="fill:#0c419a" />
    <path
       class="cls-2"
       d="M 1.44,77.25 0,74.83 1.34,74 2.5,76.57 Z m 1,1.91 L 3.25,74 4.81,74.23 4.31,77.52 6,77.78 6.38,75 7.94,75.24 7.53,78 l 1.89,0.28 0.51,-3.42 1.56,0.23 -0.79,5.28 z"
       id="path100"
       inkscape:connector-curvature="0"
       style="fill:#0c419a" />
    <path
       class="cls-2"
       d="M 7.77,71.89 C 5.09,71.21 4,69 4.51,67 A 3.55,3.55 0 0 1 6.18,64.84 L 7.1,66.1 a 2.1,2.1 0 0 0 -1,1.26 C 5.82,68.46 6.57,69.59 8.18,70 9.79,70.41 11,69.9 11.3,68.72 A 2.18,2.18 0 0 0 11,67 l 1.39,-0.67 a 3.45,3.45 0 0 1 0.52,2.91 c -0.57,2 -2.43,3.35 -5.14,2.65 z"
       id="path102"
       inkscape:connector-curvature="0"
       style="fill:#0c419a" />
    <path
       class="cls-2"
       d="m 10.4,63.1 -4.17,-1.58 0.66,-1.76 4.36,1.65 c 1.52,0.58 2.23,0.3 2.56,-0.57 0.33,-0.87 0,-1.58 -1.53,-2.16 L 7.93,57 l 0.64,-1.7 4.18,1.59 c 2.61,1 3.34,2.48 2.58,4.49 -0.76,2.01 -2.33,2.71 -4.93,1.72 z"
       id="path104"
       inkscape:connector-curvature="0"
       style="fill:#0c419a" />
    <path
       class="cls-2"
       d="m 10.22,51.34 1.38,-2.66 c 0.82,-1.56 2,-2.57 3.78,-1.65 1.78,0.92 1.76,2.54 0.95,4.11 l -0.52,1 2.66,1.38 -0.87,1.67 z m 4.71,-0.75 c 0.46,-0.88 0.33,-1.55 -0.4,-1.93 -0.73,-0.38 -1.22,0 -1.67,0.85 l -0.45,0.85 2.08,1.08 z m 0.8,0.62 -0.47,-1.7 5.39,-0.2 -1,1.87 z"
       id="path106"
       inkscape:connector-curvature="0"
       style="fill:#0c419a" />
    <path
       class="cls-2"
       d="m 15.11,42.32 1,-1.58 7,4.51 -1,1.58 z"
       id="path108"
       inkscape:connector-curvature="0"
       style="fill:#0c419a" />
    <path
       class="cls-2"
       d="m 20.36,37.33 -1.36,1.82 -1.25,-1 3.91,-5.14 1.26,1 -1.42,1.82 5.36,4.09 -1.14,1.49 z"
       id="path110"
       inkscape:connector-curvature="0"
       style="fill:#0c419a" />
    <path
       class="cls-2"
       d="m 23.66,30.6 3.55,-3.81 1.16,1.07 -2.27,2.44 1.22,1.14 1.93,-2.08 1.16,1.08 -1.94,2.08 1.41,1.3 2.35,-2.53 1.16,1.08 -3.64,3.91 z m 0.23,-2.16 0.18,-2.81 1.56,0.1 -0.49,2.74 z"
       id="path112"
       inkscape:connector-curvature="0"
       style="fill:#0c419a" />
    <path
       class="cls-2"
       d="m 37.62,26.84 0.07,-1.68 a 3.32,3.32 0 0 0 2.14,-0.57 c 0.63,-0.48 0.74,-1 0.44,-1.35 -0.3,-0.35 -0.8,-0.25 -1.56,0 l -1.13,0.3 A 2.44,2.44 0 0 1 34.86,22.78 2.71,2.71 0 0 1 35.68,19 3.86,3.86 0 0 1 38.47,18.23 v 1.51 a 2.7,2.7 0 0 0 -1.76,0.55 c -0.51,0.39 -0.67,0.86 -0.38,1.24 0.29,0.38 0.85,0.21 1.6,0 l 1.1,-0.31 A 2.28,2.28 0 0 1 41.72,22 c 0.85,1.09 0.67,2.74 -0.89,3.95 a 4.56,4.56 0 0 1 -3.21,0.89 z"
       id="path114"
       inkscape:connector-curvature="0"
       style="fill:#0c419a" />
    <path
       class="cls-2"
       d="m 42.8,18.85 c -1.41,-2.33 -0.9,-4.46 1,-5.62 1.9,-1.16 4,-0.6 5.45,1.71 1.45,2.31 0.93,4.52 -1,5.68 -1.93,1.16 -4.05,0.56 -5.45,-1.77 z m 4.82,-2.91 c -0.86,-1.43 -2,-1.9 -3,-1.32 -1,0.58 -1.08,1.8 -0.21,3.23 0.87,1.43 2,2 3,1.38 1,-0.62 1.07,-1.86 0.21,-3.29 z"
       id="path116"
       inkscape:connector-curvature="0"
       style="fill:#0c419a" />
    <path
       class="cls-2"
       d="M 51.7,13.65 C 50.53,11.15 51.51,8.93 53.42,8.04 A 3.49,3.49 0 0 1 56.14,8 l -0.39,1.51 a 2,2 0 0 0 -1.61,0 c -1,0.48 -1.43,1.77 -0.72,3.28 0.71,1.51 1.86,2.12 3,1.6 A 2.17,2.17 0 0 0 57.53,13 l 1.4,0.65 A 3.44,3.44 0 0 1 57,15.88 c -1.91,0.89 -4.12,0.31 -5.3,-2.23 z"
       id="path118"
       inkscape:connector-curvature="0"
       style="fill:#0c419a" />
    <path
       class="cls-2"
       d="M 59.05,5.82 60.82,5.17 63.69,13 61.92,13.65 Z"
       id="path120"
       inkscape:connector-curvature="0"
       style="fill:#0c419a" />
    <path
       class="cls-2"
       d="m 66.54,3.34 2.18,-0.58 4.65,7.37 -1.92,0.51 -2.13,-3.79 C 68.88,6.11 68.41,5.21 67.98,4.43 v 0 c 0,0.91 0.06,1.9 0,2.77 v 4.35 l -1.86,0.49 z m 0.39,4.94 3.87,-1 0.37,1.41 -3.87,1 z"
       id="path122"
       inkscape:connector-curvature="0"
       style="fill:#0c419a" />
    <path
       class="cls-2"
       d="m 74.38,1.45 1.86,-0.29 1,6.67 3.24,-0.49 0.24,1.56 -5.11,0.77 z"
       id="path124"
       inkscape:connector-curvature="0"
       style="fill:#0c419a" />
    <path
       class="cls-2"
       d="M 82.48,0.33 87.68,0 87.78,1.57 84.46,1.79 84.57,3.45 87.4,3.27 87.5,4.85 84.67,5 84.79,6.91 88.24,6.69 88.34,8.27 83,8.64 Z"
       id="path126"
       inkscape:connector-curvature="0"
       style="fill:#0c419a" />
    <path
       class="cls-2"
       d="m 96.1,24.73 a 1.9,1.9 0 0 0 -1.41,-0.81 l -0.93,-0.09 c -0.65,-0.18 -14.63,0.05 -17.91,2.16 v 0 c -0.35,-2.22 -1.11,-4.9 -4.94,-5.72 -2.7,-0.57 -8.52,2 -6.57,7.81 a 3.87,3.87 0 0 0 2,2.19 c 0.5,0.26 1.29,0.14 1.88,1.66 0.17,0.45 0.5,0.4 0.79,0.31 0.29,-0.09 0.27,-0.05 0.62,0.24 a 0.45,0.45 0 0 0 0.5,0.09 0.44,0.44 0 0 0 0.32,0.12 c 0.14,0 0.46,-0.1 0.54,0 1.11,0.89 2.4,-0.51 2.89,-1.39 l 1.79,5.43 c -0.43,-0.37 -4.83,-1.64 -6.94,0.72 -1.84,2 -3.18,4.79 -4.73,9.52 a 3.82,3.82 0 0 1 -2.71,2.47 c -2.4,0.88 -1,2 -0.39,2.11 a 15.65,15.65 0 0 0 5.61,-0.22 c 0.89,-0.44 0.23,-2.49 1.22,-3.76 l 2.19,-2.83 A 9.33,9.33 0 0 1 69.14,49 c -0.72,1.76 -2.91,2.69 -3.56,3.53 -1.15,1.48 1.49,1.6 2.19,1.36 1.75,-0.6 3,-0.57 3.73,-1 1,-0.58 0.29,-2.15 0.62,-2.79 0.9,-1.78 4,-5.67 4.35,-6.29 a 2.05,2.05 0 0 0 0.13,-0.25 17.08,17.08 0 0 0 5.63,0.77 c 5.11,-0.61 6.25,-4.22 5.73,-7 a 11.86,11.86 0 0 0 -2.59,-5 C 84,30.15 83.24,29 82.79,28.42 c 1.47,-0.35 9.6,-2.59 9.63,-2.52 0.31,0.66 1,0.81 1.24,1 0.53,0.29 0.83,-0.16 0.62,-0.29 a 1.23,1.23 0 0 1 -0.5,-0.55 10.61,10.61 0 0 1 1.77,0.13 C 96.12,26.27 96.5,25 96.1,24.73 Z"
       id="path128"
       inkscape:connector-curvature="0"
       style="fill:#0c419a" />
    <path
       class="cls-3"
       d="m 168.41,73.77 c -1.31,-7 -7.85,-11.35 -11.22,-12.78 a 24.08,24.08 0 0 0 -3.69,-1.28 l -1.12,-0.37 v 0 c 0.24,-1.52 2,-1.64 3.06,-3.81 3,-6.16 -3.16,-10.5 -7.72,-9.5 -2.15,0.48 -3.65,1.25 -4,2.89 -0.18,0.89 -0.87,0.92 -2,2.1 -0.36,0.38 0.44,1 0.57,1.26 0,0.07 -0.2,0.4 -0.28,0.77 -0.08,0.37 0,0.31 0,0.36 a 1.77,1.77 0 0 0 -0.22,0.87 2.34,2.34 0 0 0 0,2.11 c 0,0 0,0 0,0 a 6.44,6.44 0 0 1 0.93,2.32 c 0,0.19 0,0.29 -0.84,0 -0.21,-0.06 -8.46,-2.49 -9.38,-3.11 -0.92,-0.62 -9.2,-9.56 -10.1,-11.3 -0.49,-1 -1,-1.59 -1.27,-1.57 -1.93,0.12 1.4,3.6 -0.47,2.41 -0.48,-0.31 -1.92,-1.32 -2,-1.4 -0.36,-0.29 -0.27,-0.15 -0.53,-0.57 a 2.64,2.64 0 0 0 -0.63,-0.82 c -0.21,-0.15 -0.34,-0.19 -0.49,-0.15 -0.15,0.04 -0.25,0.29 -0.32,0.31 a 1.53,1.53 0 0 0 -0.33,0 c -0.48,0.12 -0.12,1.35 0,1.92 a 22.65,22.65 0 0 0 1.74,3.74 c 2.09,1.44 4.15,2.65 4.22,2.73 2.25,2.61 4.89,5.88 7.25,8.36 1.88,2 10.46,7 10.75,7.13 0.56,0.34 1.45,2.17 0.17,15.27 -0.48,4.93 -4,15.41 -2.33,20.83 a 64.73,64.73 0 0 1 3.62,15.51 c 0.28,2.15 -1.39,3.45 -3.78,5.18 -0.93,0.68 -3.55,2.3 -3.82,2.54 -0.44,0.4 0,1 0.54,1.28 a 15.22,15.22 0 0 0 2.21,0.93 6.22,6.22 0 0 0 4.06,-0.79 c 1.74,-1 1.9,-1.14 2.92,-1.76 1.18,-0.71 2.6,-0.94 3,-2.14 0.49,-1.6 -0.86,-3.89 -0.72,-4.93 1,-7.5 2.27,-11.21 0.38,-15.81 -0.38,-0.92 2.74,-10.94 3,-9.59 0.48,2.64 0.67,10.49 0.76,16.33 0,2.55 2.09,11.61 2.75,14.86 1,5 -7.45,9 -5.59,10.5 a 6.17,6.17 0 0 0 2.52,1 4.56,4.56 0 0 0 4.79,-1.89 c 1.8,-2.24 1.25,-1.62 2.67,-3.22 1.23,-1.38 0.35,-3.76 0.19,-5 -0.32,-2.55 -0.05,-3.22 -0.07,-7.8 a 43.2,43.2 0 0 1 0.61,-8.78 c 1.33,-8.78 2.15,-13.55 2.56,-17.28 v -0.21 c 0,0 0.64,0.23 0.92,-0.23 a 5.09,5.09 0 0 0 0.51,-2 c 0.11,-0.49 0.31,0.14 0.31,0.14 a 7.28,7.28 0 0 1 0.43,1.59 8.87,8.87 0 0 1 -0.7,2.16 c -0.34,1 0.52,1.14 0.74,1.22 a 9.56,9.56 0 0 0 3.19,-2.53 6.12,6.12 0 0 0 0.36,-2.29 34.32,34.32 0 0 0 -0.72,-5 c 0.8,-2.59 2.93,-8.96 2.61,-10.71 z m -6,10.12 c -0.28,1.25 -0.36,0.06 -1.54,4.69 L 161,87.92 c 0,-0.65 0,-1.3 0,-2 0,-5.74 -4.39,-18 -1.73,-15.39 0,0 3.2,2.23 3.82,3.93 0.52,1.35 0.34,5.02 -0.68,9.43 z"
       id="path130"
       inkscape:connector-curvature="0"
       style="fill:#0c419a;fill-rule:evenodd" />
    <path
       class="cls-2"
       d="m 55.43,97.59 c -1,-0.86 -4.45,-5.59 -6.71,-7.45 a 32.14,32.14 0 0 1 -3.11,-4 c -4.09,-5.45 -5,-5.76 -7.84,-6.24 -0.58,-0.39 -0.39,-0.84 -0.33,-0.86 a 3.57,3.57 0 0 0 2.45,-4.75 c -0.17,-0.71 0.31,-1 0.3,-1.68 A 7.51,7.51 0 0 0 39.65,69.92 2,2 0 0 0 39.32,68 c -2,-2.52 -7,-2.64 -9.57,-0.85 -2.08,1.44 -0.86,2.44 -1.51,4.48 a 3.15,3.15 0 0 0 0.85,3.21 c 0.1,0.68 2.15,2 1.75,3.44 -0.4,1.44 -2.84,1.8 -2.78,1.8 a 2.92,2.92 0 0 0 -0.74,0.28 c -3.82,2.18 -7.52,5.35 -8,8.84 0.21,2.81 4.56,6.86 7.36,9 0.41,4.79 3.45,12.12 3.59,12.41 0.41,0.88 -0.86,-0.66 -3.92,-1.7 -1.49,-0.5 -3.45,-2.53 -3.87,-0.15 -0.18,1 0.25,2.72 -0.69,4.86 -0.71,1.63 0.12,4.24 1.92,4.19 1.3,0 2.07,-4 2.07,-4 0,0 6.29,3.13 9.29,2.09 1.75,-0.61 2.15,-7.62 0.42,-13.87 -0.61,-2.19 1.13,3.57 5.33,8.64 0.93,1.12 0.11,2 0.72,6.17 a 11.91,11.91 0 0 1 0.21,2.69 c -0.12,2 -2.05,4.41 2.36,5.54 4.41,1.13 4.13,2.21 6.95,0.32 1.26,-0.85 -3.88,-1.37 -4.88,-4.41 a 4,4 0 0 1 -0.12,-0.66 c -0.12,-2.4 1,-8 0.64,-9.88 -1.6,-9.5 -5.59,-13.89 -6.1,-16.11 0,-6.63 -0.48,-8.71 0.15,-7.22 a 33.48,33.48 0 0 0 2.89,4.39 v 0 c 0.15,0.19 0.33,0.39 0.52,0.6 a 7.21,7.21 0 0 0 1.2,1.14 c 2.77,2.42 7.18,5.31 7.77,5.94 0,0 0.33,2.92 1.53,2.71 1.2,-0.21 6.37,-2.51 6.27,-3.09 -0.21,-1.08 -5.32,-1.05 -5.5,-1.21 z M 26.65,93.91 c -0.8,-1.54 -3,-4.4 -2.84,-4.87 1.22,-2 2.53,-2.58 2.92,-2.45 0.39,0.13 -0.08,7.32 -0.08,7.32 z"
       id="path132"
       inkscape:connector-curvature="0"
       style="fill:#0c419a" />
    <path
       class="cls-2"
       d="m 143.1,151.33 c -0.23,-0.12 -3.34,-1.27 -6.09,-5.67 -1.23,-2 -10.47,-19.09 -11.73,-22.43 -2.5,-6.61 -22,-18.5 -22.82,-19.19 -0.58,-0.47 -0.51,-1.62 -0.29,-2.37 1.64,-5.56 1,-10.54 1.31,-11.29 0.8,-1.89 2,-4.64 1.11,-6.43 l -2,-3.18 c 0,0 10.31,3.73 12.7,3.23 2.06,-0.44 12.44,-7.57 13,-7.88 1.44,-0.73 4.89,0.35 8.38,-3.45 1.31,-1.43 0.36,-1.92 0.12,-1.67 a 0.89,0.89 0 0 0 -1.2,-0.32 c -0.83,0.47 -3.7,1.3 -3.17,0.91 2.08,-1.56 0.64,-2 0.64,-2 -0.91,0.75 -5.05,1.8 -5.85,2.46 -1,0.77 -1.57,1.43 -2,1.7 A 44.19,44.19 0 0 1 114,78.16 c -0.88,0.2 -9.11,-5.18 -13.87,-5.91 a 9.4,9.4 0 0 0 -4.88,0.19 c -1.7,0.48 -1.57,-2 -0.31,-2.57 0.66,-0.31 1.76,-0.51 2.17,-1.35 a 2.61,2.61 0 0 0 -0.08,-2.07 0.71,0.71 0 0 0 -0.07,-0.58 c -0.12,-0.29 -0.1,-0.14 -0.06,-0.43 0.04,-0.29 -0.13,-0.38 -0.2,-0.62 a 0.89,0.89 0 0 1 0.07,-0.55 c 1,-0.84 0.57,-1.23 0.44,-1.35 C 97,62.66 95.46,62 95.33,61 a 11.75,11.75 0 0 0 -1,-3.19 c -0.1,-0.3 -0.27,-2.16 -1.09,-2.91 -1,-0.91 -3.11,-2 -7.66,-0.8 -1.46,0.4 -1.19,1.1 -4.85,1.78 -4.37,0.81 -6.78,7.31 -6.39,10 0.32,2.18 2.19,1.12 2.11,2.09 -0.12,1.51 -0.28,4 2.92,4.93 0.69,0.2 4.88,-0.47 6.47,-0.19 0,0 1.3,0.11 0.65,1.41 -0.32,0.64 -4.52,2.3 -5.55,2.74 C 78.18,78 71.13,89.57 69,90.66 a 24.35,24.35 0 0 0 -3.56,2.09 c -2.9,1.82 -5.73,4 -7.29,4 -2.08,-0.13 -3.77,0.87 -5.16,4 -0.41,0.92 -0.17,1.39 0.58,1.58 a 1.77,1.77 0 0 0 1.29,0.66 c 0.62,0.58 1.32,0.21 1.85,-0.07 1.63,-0.89 2,-1.59 2.64,-1.85 1.59,-0.52 11,-4.15 13.09,-5.77 3.18,-1.74 9.58,-8.31 11,-8.38 1.3,-0.12 4.56,2.76 3.56,8.3 -0.35,1.89 -2.71,5.3 -4,7.29 -2.6,3.94 -0.59,7.38 -1.1,8.21 -2.69,4.39 -6,10.26 -11.58,15.28 -2.17,1.41 -6.75,1.73 -9.17,2.44 -5.56,1.63 -11.48,5.62 -15.71,8 -1.4,0.78 -2.74,-0.9 -4.5,-1.1 -1.76,-0.2 -1.91,2.46 -2.81,4.87 -0.28,0.74 -0.4,1.09 -1.74,4.06 -0.53,1.16 -1.92,4.74 -0.52,6.22 1.28,1.78 4.32,-3.8 6.67,-6.52 1.25,-1.44 2,-1.91 4.71,-2.53 1.72,-0.4 15.35,-4.1 24.35,-6.07 0.22,0 0.46,-0.09 0.72,-0.16 11.69,-3 23.81,-18.3 24,-18.23 l 19.85,9.84 c 2,1.08 2,4.95 4.39,9.35 1.42,2.66 3.51,5 12,13.31 1.09,1.07 0.19,2.84 0.69,4.49 0.5,1.65 1.36,1.8 2.95,1.67 1.59,-0.13 2.81,-0.36 4.29,-0.46 1.89,-0.11 1.38,0.09 3.59,0.42 1.07,0.16 3.52,0.51 5.25,-1.21 3.07,-3.1 -3.33,-1.54 -6.23,-3.06 z"
       id="path134"
       inkscape:connector-curvature="0"
       style="fill:#0c419a" />
    <path
       class="cls-2"
       d="m 121.55,142.72 a 1.19,1.19 0 0 0 -1.62,-0.53 v 0 a 61,61 0 0 1 -58,-1.49 1.21,1.21 0 1 0 -1.21,2.09 63.45,63.45 0 0 0 60.28,1.56 1.2,1.2 0 0 0 0.55,-1.63 z"
       id="path136"
       inkscape:connector-curvature="0"
       style="fill:#0c419a" />
    <path
       class="cls-2"
       d="M 35.7,63.29 A 1.33,1.33 0 0 1 35.2,63.18 1.21,1.21 0 0 1 34.6,61.58 63.17,63.17 0 0 1 60.41,33 a 1.21,1.21 0 1 1 1.22,2.08 60.81,60.81 0 0 0 -24.82,27.5 1.24,1.24 0 0 1 -1.11,0.71 z"
       id="path138"
       inkscape:connector-curvature="0"
       style="fill:#0c419a" />
    <path
       class="cls-2"
       d="m 139,47.8 a 1.19,1.19 0 0 1 -0.9,-0.41 61,61 0 0 0 -37.14,-20 1.2119818,1.2119818 0 1 1 0.34,-2.4 63.39,63.39 0 0 1 38.61,20.8 1.21,1.21 0 0 1 -0.91,2 z"
       id="path140"
       inkscape:connector-curvature="0"
       style="fill:#0c419a" />
  </g>
</svg>
