<?xml version="1.0" encoding="UTF-8" standalone="no"?>
<!-- Generator: Adobe Illustrator 22.1.0, SVG Export Plug-In . SVG Version: 6.00 Build 0)  -->

<svg
   xmlns:dc="http://purl.org/dc/elements/1.1/"
   xmlns:cc="http://creativecommons.org/ns#"
   xmlns:rdf="http://www.w3.org/1999/02/22-rdf-syntax-ns#"
   xmlns:svg="http://www.w3.org/2000/svg"
   xmlns="http://www.w3.org/2000/svg"
   xmlns:sodipodi="http://sodipodi.sourceforge.net/DTD/sodipodi-0.dtd"
   xmlns:inkscape="http://www.inkscape.org/namespaces/inkscape"
   version="1.1"
   id="Calque_1"
   x="0px"
   y="0px"
   viewBox="0 0 159.80001 138"
   xml:space="preserve"
   sodipodi:docname="Logo_Ministere_des_Armees_2020.svg"
   width="159.8"
   height="138"
   inkscape:version="0.92.3 (2405546, 2018-03-11)"><metadata
   id="metadata52"><rdf:RDF><cc:Work
       rdf:about=""><dc:format>image/svg+xml</dc:format><dc:type
         rdf:resource="http://purl.org/dc/dcmitype/StillImage" /><dc:title></dc:title></cc:Work></rdf:RDF></metadata><defs
   id="defs50" /><sodipodi:namedview
   pagecolor="#ffffff"
   bordercolor="#666666"
   borderopacity="1"
   objecttolerance="10"
   gridtolerance="10"
   guidetolerance="10"
   inkscape:pageopacity="0"
   inkscape:pageshadow="2"
   inkscape:window-width="1366"
   inkscape:window-height="705"
   id="namedview48"
   showgrid="false"
   inkscape:zoom="1.2434141"
   inkscape:cx="79.949998"
   inkscape:cy="68.999998"
   inkscape:window-x="0"
   inkscape:window-y="30"
   inkscape:window-maximized="1"
   inkscape:current-layer="Calque_1" />
<style
   type="text/css"
   id="style2">
	.st0{fill:#FFFFFF;}
	.st1{fill:#000091;}
	.st2{fill:#E1000F;}
	.st3{fill:#9C9B9B;}
</style>
<path
   id="DEVISE_REPUBLICAINE"
   d="m 59.6,131.7 c 0.5,0 0.9,0.4 0.7,1.3 l -2.3,0.5 c 0.4,-1 1.1,-1.8 1.6,-1.8 m 1.3,3.7 h -0.5 c -0.6,0.7 -1.2,1.2 -1.8,1.2 -0.6,0 -1,-0.4 -1,-1.2 0,-0.3 0,-0.7 0.1,-1 l 3.7,-1.2 c 0.7,-1.7 -0.1,-2.5 -1.2,-2.5 -1.8,0 -3.8,2.9 -3.8,5.5 0,1.2 0.6,1.8 1.4,1.8 1.2,0 2.2,-1 3.1,-2.6 m -0.8,-5.4 2.6,-2.4 v -0.3 h -1.4 l -1.6,2.7 z m -8,1.7 h 1.2 l -2,5.4 c -0.2,0.5 0.1,0.9 0.5,0.9 1.1,0 2.9,-1.1 3.5,-2.6 H 55 c -0.5,0.5 -1.5,1.2 -2.3,1.4 l 1.8,-5 h 1.8 l 0.2,-0.8 h -1.8 l 0.7,-1.9 h -0.7 l -1.3,1.9 -1.5,0.2 v 0.5 z m -1.6,-0.2 c 0.1,-0.5 -0.2,-0.8 -0.4,-0.8 -1.1,0 -2.3,1 -2.9,2.3 h 0.3 c 0.3,-0.5 0.9,-1 1.5,-1.1 l -2.1,5.3 c -0.2,0.5 0.2,0.8 0.4,0.8 1,0 2.2,-1 2.7,-2.3 h -0.3 c -0.3,0.5 -0.9,1 -1.5,1.1 z m 0.3,-2.7 c 0.5,0 0.9,-0.4 0.9,-0.9 0,-0.5 -0.4,-0.9 -0.9,-0.9 -0.5,0 -0.9,0.4 -0.9,0.9 0,0.5 0.4,0.9 0.9,0.9 M 39,137 c -0.3,0.6 0,1 0.6,1 0.4,0 0.5,-0.1 0.7,-0.5 l 1.4,-3.8 c 0.7,-0.8 2,-1.7 2.6,-1.7 0.4,0 0.3,0.3 0.1,0.8 l -2.2,4.2 c -0.2,0.4 0.1,0.9 0.5,0.9 1.1,0 2.4,-1 2.9,-2.3 h -0.3 c -0.3,0.5 -0.9,1 -1.5,1.1 l 1.9,-3.8 c 0.2,-0.5 0.4,-0.9 0.4,-1.3 0,-0.6 -0.3,-1 -1,-1 -0.9,0 -1.9,1 -3,2.3 v -1 c 0,-0.7 -0.2,-1.3 -0.9,-1.3 -0.4,0 -0.8,0.3 -1.2,0.8 v 0.1 c 0.7,0 1,1 0.5,2.1 z m 0,-4.7 c 0.3,-0.9 0.1,-1.6 -0.6,-1.6 -0.8,0 -1,0.6 -1.8,2.3 v -1 c 0,-0.7 -0.2,-1.3 -0.9,-1.3 -0.8,0 -1.4,1.2 -2,2.3 H 34 c 0.4,-0.5 0.7,-0.8 1,-0.8 0.3,0 0.5,0.5 0,1.6 l -1.5,3.2 c -0.3,0.6 0,1 0.6,1 0.4,0 0.5,-0.1 0.7,-0.5 l 1.4,-3.8 c 0.4,-0.5 0.8,-0.9 1.2,-1.4 z m -8.3,-0.6 c 0.5,0 0.9,0.4 0.7,1.3 l -2.3,0.5 c 0.4,-1 1.1,-1.8 1.6,-1.8 m 1.3,3.7 h -0.5 c -0.6,0.7 -1.2,1.2 -1.8,1.2 -0.6,0 -1,-0.4 -1,-1.2 0,-0.3 0,-0.7 0.1,-1 l 3.7,-1.2 c 0.7,-1.7 -0.1,-2.5 -1.2,-2.5 -1.8,0 -3.8,2.9 -3.8,5.5 0,1.2 0.6,1.8 1.4,1.8 1.2,0 2.2,-1 3.1,-2.6 m -8.8,-3.7 h 1.2 l -2,5.4 c -0.2,0.5 0.1,0.9 0.5,0.9 1.1,0 2.9,-1.1 3.5,-2.6 h -0.3 c -0.5,0.5 -1.5,1.2 -2.3,1.4 l 1.8,-5 h 1.8 l 0.2,-0.8 h -1.8 l 0.7,-1.9 H 26 l -1.3,1.9 -1.5,0.2 z m -6.7,4.2 c 0,-1.7 1.8,-3.9 2.9,-3.9 0.2,0 0.4,0 0.6,0.1 l -1.1,2.9 c -0.6,0.8 -1.6,1.7 -2,1.7 -0.3,-0.1 -0.4,-0.3 -0.4,-0.8 m 5.6,-5.5 h -0.6 l -0.6,0.6 h -0.1 c -3.1,0 -5.7,3.4 -5.7,5.9 0,0.7 0.4,1.1 1.1,1.1 0.8,0 1.6,-1.1 2.4,-2.3 v 0.4 c -0.1,1.2 0.3,1.9 0.9,1.9 0.8,0 1.4,-1.2 2,-2.3 h -0.3 c -0.4,0.5 -0.7,0.8 -1,0.8 -0.3,0 -0.5,-0.5 0,-1.6 z m -6.5,1.9 c 0.3,-0.9 0.1,-1.6 -0.6,-1.6 -0.8,0 -1,0.6 -1.8,2.3 v -1 c 0,-0.7 -0.2,-1.3 -0.9,-1.3 -0.8,0 -1.4,1.2 -2,2.3 h 0.3 c 0.4,-0.5 0.7,-0.8 1,-0.8 0.3,0 0.5,0.5 0,1.6 l -1.5,3.2 c -0.3,0.6 0,1 0.6,1 0.4,0 0.5,-0.1 0.7,-0.5 l 1.4,-3.8 c 0.4,-0.5 0.8,-0.9 1.2,-1.4 z m -10.3,5.4 0.1,-0.4 C 3.6,137 3.4,137 4.1,135 l 0.7,-2 h 2 c 0.9,0 0.9,0.4 0.8,1.3 h 0.5 l 1.2,-3.2 H 8.8 C 8.4,131.9 8,132.4 7,132.4 H 5.1 l 1,-2.8 c 0.3,-0.9 0.5,-1.1 1.7,-1.1 h 0.9 c 1.2,0 1.4,0.3 1.4,1.6 h 0.5 L 11,127.9 H 3.6 l -0.1,0.4 c 1.4,0.3 1.6,0.4 0.9,2.3 L 2.8,135 c -0.7,1.8 -1,2 -2.6,2.3 L 0,137.7 Z m 36.3,-22.8 c 0.5,0 0.9,0.4 0.7,1.3 l -2.3,0.5 c 0.4,-1 1.1,-1.8 1.6,-1.8 m 1.3,3.7 h -0.5 c -0.6,0.7 -1.2,1.2 -1.8,1.2 -0.6,0 -1,-0.4 -1,-1.2 0,-0.3 0,-0.7 0.1,-1 l 3.7,-1.2 c 0.7,-1.7 -0.1,-2.5 -1.2,-2.5 -1.8,0 -3.8,2.9 -3.8,5.5 0,1.2 0.6,1.8 1.4,1.8 1.2,0 2.2,-1 3.1,-2.6 m -0.7,-5.4 2.6,-2.4 v -0.3 h -1.4 l -1.6,2.7 z m -8.1,1.7 h 1.2 l -2,5.4 c -0.2,0.5 0.1,0.9 0.5,0.9 1.1,0 2.9,-1.1 3.5,-2.6 H 37 c -0.5,0.5 -1.5,1.2 -2.3,1.4 l 1.8,-5 h 1.8 l 0.2,-0.8 H 37 l 0.7,-1.9 H 37 l -1.3,1.9 -1.5,0.2 v 0.5 z m -1.6,-0.2 c 0.1,-0.5 -0.2,-0.8 -0.4,-0.8 -1.1,0 -2.3,1 -2.9,2.3 h 0.3 c 0.3,-0.5 0.9,-1 1.5,-1.1 l -2.1,5.3 c -0.2,0.5 0.2,0.8 0.4,0.8 1,0 2.2,-1 2.7,-2.3 h -0.3 c -0.3,0.5 -0.9,1 -1.5,1.1 z m 0.3,-2.7 c 0.5,0 0.9,-0.4 0.9,-0.9 0,-0.5 -0.4,-0.9 -0.9,-0.9 -0.5,0 -0.9,0.4 -0.9,0.9 0.1,0.5 0.4,0.9 0.9,0.9 m -7.1,8 3.7,-9.8 -0.1,-0.1 -2.3,0.3 v 0.3 l 0.5,0.3 c 0.4,0.3 0.3,0.6 -0.1,1.6 l -2.9,7.7 c -0.2,0.4 0.1,0.9 0.5,0.9 1.1,0 2.2,-1 2.7,-2.3 h -0.3 c -0.4,0.5 -1.1,1 -1.7,1.1 m -7.1,-0.9 c 0,-1.7 1.8,-3.9 2.9,-3.9 0.2,0 0.4,0 0.6,0.1 l -1.1,2.9 c -0.6,0.8 -1.6,1.7 -2,1.7 -0.3,-0.1 -0.4,-0.3 -0.4,-0.8 m 5.6,-5.5 h -0.6 l -0.6,0.6 h -0.1 c -3.1,0 -5.7,3.4 -5.7,5.9 0,0.7 0.4,1.1 1.1,1.1 0.8,0 1.6,-1.1 2.4,-2.3 v 0.4 c -0.1,1.2 0.3,1.9 0.9,1.9 0.8,0 1.4,-1.2 2,-2.3 h -0.3 c -0.4,0.5 -0.7,0.8 -1,0.8 -0.3,0 -0.5,-0.5 0,-1.6 z m -13.6,8.9 c 0,-0.7 0.7,-1.2 1.7,-1.5 0.3,0.2 0.8,0.3 1.4,0.6 1,0.3 1.4,0.5 1.4,0.8 0,0.7 -1.1,1.2 -2.6,1.2 -1.3,-0.2 -1.9,-0.4 -1.9,-1.1 m 2.7,-4.3 c -0.4,0 -0.6,-0.4 -0.6,-0.8 0,-1.2 0.6,-3 1.7,-3 0.4,0 0.6,0.4 0.6,0.8 0,1.2 -0.6,3 -1.7,3 m 3,3.6 c 0,-0.9 -0.8,-1.2 -2,-1.5 -1.1,-0.3 -1.6,-0.4 -1.6,-0.8 0,-0.3 0.2,-0.6 0.7,-0.9 1.8,-0.1 2.9,-1.7 2.9,-3 0,-0.3 -0.1,-0.5 -0.1,-0.7 h 1.5 l 0.2,-0.8 h -2.4 c -0.3,-0.2 -0.6,-0.3 -1,-0.3 -1.9,0 -3.1,1.6 -3.1,3 0,1 0.6,1.6 1.4,1.8 -0.9,0.4 -1.4,0.8 -1.4,1.4 0,0.3 0.1,0.5 0.4,0.7 -2,0.6 -2.8,1.3 -2.8,2.2 0,0.9 1.2,1.3 2.7,1.3 2.5,0.1 4.6,-1.2 4.6,-2.4 m -9.4,-5.7 c 0.9,0 0.9,0.4 0.8,1.3 h 0.5 l 1.2,-3.2 H 8.8 C 8.4,115 8,115.5 7,115.5 H 5.1 l 1,-2.7 c 0.3,-0.9 0.5,-1.1 1.7,-1.1 h 0.9 c 1.2,0 1.4,0.3 1.4,1.6 h 0.5 L 11,111.1 H 3.6 l -0.1,0.4 c 1.4,0.3 1.6,0.4 0.9,2.3 l -1.7,4.4 c -0.7,1.8 -1,2 -2.6,2.3 L 0,120.9 h 8.2 l 1.5,-2.3 H 9.2 c -0.9,0.9 -2.1,1.7 -3.8,1.7 -2.2,0 -2,-0.1 -1.3,-2.1 l 0.8,-2.1 z m 1.1,-5.6 2.6,-1.8 v -0.3 H 9 l -1.4,2.1 z M 40.8,98.1 c 0.5,0 0.9,0.4 0.7,1.3 l -2.3,0.5 c 0.3,-1 1,-1.8 1.6,-1.8 m 1.2,3.7 h -0.5 c -0.6,0.7 -1.2,1.2 -1.8,1.2 -0.6,0 -1,-0.4 -1,-1.2 0,-0.4 0,-0.7 0.1,-1 l 3.7,-1.2 c 0.7,-1.7 -0.1,-2.5 -1.2,-2.5 -1.8,0 -3.8,2.9 -3.8,5.5 0,1.2 0.6,1.8 1.4,1.8 1.2,0 2.3,-1 3.1,-2.6 M 41.3,96.4 43.9,94 v -0.3 h -1.4 l -1.6,2.7 z m -7.7,1.7 h 1 l -2,5.4 c -0.2,0.5 0.1,0.9 0.5,0.9 1.1,0 2.9,-1.1 3.5,-2.6 h -0.3 c -0.5,0.5 -1.4,1.2 -2.3,1.4 l 1.8,-5 h 1.8 l 0.2,-0.8 H 36 l 0.7,-1.9 H 36 l -1.3,1.9 -1.3,0.2 v 0.5 z m -1,0.6 c 0.3,-0.9 0.1,-1.6 -0.6,-1.6 -0.8,0 -1,0.6 -1.8,2.3 v -1 c 0,-0.7 -0.2,-1.3 -0.9,-1.3 -0.8,0 -1.4,1.2 -2,2.3 h 0.3 c 0.4,-0.5 0.7,-0.8 1,-0.8 0.3,0 0.5,0.5 0,1.6 l -1.4,3.2 c -0.3,0.6 0,1 0.6,1 0.4,0 0.5,-0.1 0.7,-0.5 l 1.5,-3.7 c 0.4,-0.5 0.8,-0.9 1.2,-1.4 h 1.4 z m -8.2,-0.6 c 0.5,0 0.9,0.4 0.7,1.3 l -2.3,0.5 c 0.4,-1 1,-1.8 1.6,-1.8 m 1.3,3.7 h -0.5 c -0.6,0.7 -1.2,1.2 -1.8,1.2 -0.6,0 -1,-0.4 -1,-1.2 0,-0.4 0,-0.7 0.1,-1 l 3.7,-1.2 c 0.7,-1.7 -0.1,-2.5 -1.2,-2.5 -1.8,0 -3.8,2.9 -3.8,5.5 0,1.2 0.6,1.8 1.4,1.8 1.2,0 2.2,-1 3.1,-2.6 m -9.2,1.5 c -0.4,0 -0.9,-0.3 -0.9,-0.6 0,-0.1 0.2,-0.5 0.4,-1 l 0.6,-1.6 c 0.6,-0.8 1.6,-1.6 2.2,-1.6 0.3,0 0.6,0.2 0.6,0.7 0,1.5 -1.4,4.1 -2.9,4.1 m 4.3,-4.7 c 0,-1.1 -0.4,-1.5 -1.2,-1.5 -0.9,0 -1.8,1 -2.7,2.2 l 2.2,-5.9 -0.1,-0.1 -2.3,0.3 v 0.3 l 0.5,0.3 c 0.4,0.3 0.3,0.7 -0.1,1.6 l -2.4,6.2 c -0.2,0.5 -0.4,1 -0.4,1.1 0,0.6 0.9,1.2 1.7,1.2 1.7,0.1 4.8,-3.2 4.8,-5.7 m -7.3,-0.7 c 0.1,-0.5 -0.2,-0.8 -0.4,-0.8 -1.1,0 -2.3,1 -2.9,2.3 h 0.3 c 0.3,-0.5 0.9,-1 1.5,-1.1 l -2.1,5.3 c -0.2,0.5 0.2,0.8 0.4,0.8 1,0 2.2,-1 2.7,-2.3 h -0.3 c -0.3,0.5 -0.9,1 -1.5,1.1 z m 0.3,-2.7 c 0.5,0 0.9,-0.4 0.9,-0.9 0,-0.5 -0.4,-0.9 -0.9,-0.9 -0.5,0 -0.9,0.4 -0.9,0.9 0.1,0.5 0.4,0.9 0.9,0.9 M 8.4,94.3 H 3.5 L 3.4,94.7 C 4.8,95 5,95.1 4.3,97 l -1.6,4.4 c -0.7,1.8 -1,2 -2.6,2.3 L 0,104.1 H 7.4 L 9,101.2 H 8.5 c -0.9,1 -2,2.3 -3.6,2.3 -1.2,0 -1.4,-0.2 -0.7,-2.1 L 5.8,97 c 0.7,-1.8 1,-2 2.6,-2.3 z"
   inkscape:connector-curvature="0" />
<path
   id="Fond_2_"
   class="st0"
   d="m 27.6,21.5 c 0.3,-0.3 0.5,-0.5 0.8,-0.8 v 0 c 0.5,-0.6 1,-1.1 1.5,-1.6 0.2,-0.2 0.3,-0.3 0.5,-0.4 0,0 0,-0.1 0.1,-0.2 -0.2,0.1 -0.4,0.3 -0.6,0.4 0,0 -0.1,0 0,-0.1 0.2,-0.1 0.3,-0.2 0.5,-0.4 v 0 c 0,0 0,0 0,-0.1 -0.6,-0.1 -1.1,0.3 -1.5,0.7 -0.1,0 -0.2,0 -0.2,0 -0.7,0.2 -1.2,0.8 -1.9,1.1 V 20 c -0.3,0.1 -0.5,0.3 -0.8,0.3 -0.4,0.1 -0.8,0 -1.1,0 -0.6,0.1 -1.1,0.2 -1.7,0.3 v 0 c -0.3,0.1 -0.6,0.2 -0.9,0.3 v 0 c 0,0 0,0.1 -0.1,0.1 -0.1,0.1 -0.2,0.2 -0.3,0.3 -0.3,0.1 -0.5,0.4 -0.8,0.6 0,0 0,0 -0.1,0 -0.2,0.2 -0.5,0.5 -0.7,0.7 h -0.1 v 0 0 c 0,-0.1 0.1,-0.1 0.1,-0.2 0,-0.1 0.1,-0.1 0.1,-0.2 0.1,-0.1 0.1,-0.2 0.2,-0.3 0,0 0,0 0,-0.1 0,0 0,0 -0.1,0 0.2,-0.2 0.5,-0.4 0.8,-0.6 v 0 h -0.1 l 0.1,-0.1 v 0 0 c -0.1,0 -0.2,0.1 -0.2,0.2 -0.1,0.1 -0.2,0.3 -0.4,0.3 0,0 0,0 -0.1,0 v 0 0 0 0 0 0 0 c 0,0 0,0 0,-0.1 v 0 c 0,0 0,-0.1 0.1,-0.1 v 0 -0.1 -0.1 C 20.8,21.1 20.9,21 21,20.9 v 0 c 0.2,-0.1 0.4,-0.2 0.5,-0.3 0,0 0.1,0 0.1,-0.1 -0.3,0.1 -0.5,0.2 -0.7,0.4 h -0.1 -0.1 v 0 c 0,-0.1 0.2,-0.1 0.3,-0.2 h 0.1 c 1.5,-1.1 3.5,-0.9 5.2,-1.5 0.1,-0.1 0.3,-0.2 0.4,-0.3 0.2,-0.1 0.4,-0.3 0.7,-0.5 0.4,-0.3 0.6,-0.6 0.8,-1.1 v -0.1 c -0.6,0.6 -1.3,1.1 -2,1.5 -1,0.5 -2,0.4 -3,0.6 0,-0.1 0.1,-0.1 0.2,-0.1 0,-0.1 0.1,-0.2 0.2,-0.3 h 0.1 c 0,0 0,-0.1 0.1,-0.1 0.1,0 0.2,0 0.2,0 -0.1,-0.2 -0.4,0.1 -0.6,0 0.1,-0.1 0,-0.2 0.1,-0.3 h 0.2 c 0,-0.1 0.1,-0.2 0.1,-0.2 0.7,-0.4 1.3,-0.7 2,-1.1 -0.1,0 -0.2,0.1 -0.4,0 0.1,0 0,-0.1 0.1,-0.1 0.5,-0.1 0.9,-0.4 1.4,-0.6 -0.2,0 -0.3,0.1 -0.5,0 0.1,0 0.1,-0.1 0.3,-0.1 v -0.1 c 0,0 0,0 0.1,0 h -0.1 c 0,-0.1 0.2,0 0.3,-0.1 H 26.9 C 27,16 27.3,16 27.5,15.9 c 0,-0.1 -0.2,0 -0.2,-0.1 0,0 0,0 0.1,0 h -0.1 c -0.1,0 0,-0.1 0,-0.2 0.3,-0.3 0.3,-0.7 0.4,-1.1 h -0.1 c -0.5,0.5 -1.2,0.7 -1.9,0.9 h -0.2 c -0.2,0.1 -0.6,0.1 -0.8,0 C 24.5,15.3 24.4,15.2 24.2,15 23.8,14.8 23.5,14.6 23.1,14.4 22,14 20.8,13.8 19.6,13.9 c 0.5,-0.3 1.1,-0.3 1.6,-0.5 0.8,-0.2 1.5,-0.5 2.3,-0.5 -0.1,0 -0.3,0 -0.5,0 -0.6,0 -1.3,0.1 -2,0.3 -0.5,0.1 -0.9,0.3 -1.3,0.4 -0.3,0.1 -0.4,0.4 -0.7,0.3 v -0.1 c 0.5,-0.6 1,-1.1 1.7,-1.1 0.8,-0.1 1.6,0 2.4,0.1 0.6,0 1.1,0.2 1.7,0.3 0.2,0 0.3,0.4 0.5,0.4 0.3,0.1 0.6,0 0.8,0.2 0,-0.1 0,-0.2 0,-0.3 0.2,-0.2 0.4,0 0.6,0 0.4,-0.2 -0.3,-0.6 -0.5,-1 v -0.1 c 0.4,0.3 0.6,0.7 1.1,0.9 0.2,0.1 0.8,0.2 0.7,0 -0.2,-0.5 -0.7,-0.9 -1.1,-1.4 v -0.2 c -0.1,0 -0.1,0 -0.1,-0.1 V 11.3 C 26.6,11.2 26.7,11 26.6,10.9 26.5,10.7 26.6,10.3 26.5,10.1 26.4,9.8 26.4,9.6 26.3,9.3 26.2,8.5 26,7.8 25.9,7.1 25.8,6.2 26.4,5.5 26.8,4.8 27.1,4.2 27.5,3.7 28.1,3.3 28.2,2.7 28.6,2.3 29,1.8 29.4,1.4 30,1.1 30.4,0.9 31,0.2 31.5,0 31.5,0 h 9.2 c 0,0 0,0 0.2,0.1 0.2,0.1 0.5,0.3 0.7,0.4 0.3,0.2 0.7,0.4 0.9,0.7 0.1,0.1 0.2,0.4 0.1,0.6 -0.1,0.2 -0.1,0.6 -0.4,0.7 -0.3,0.1 -0.6,0.1 -1,0.1 -0.2,0 -0.4,0 -0.6,-0.1 0.7,0.3 1.3,0.6 1.8,1.2 0,0.1 0.2,0.1 0.4,0.1 V 3.9 C 42.7,4 42.6,4 42.7,4.2 H 43 c 0.2,-0.1 0.2,-0.6 0.5,-0.4 0.2,0.1 0.3,0.5 0.2,0.7 -0.2,0.2 -0.4,0.3 -0.6,0.5 0,0.1 0,0.2 0,0.3 0.1,0.2 0.2,0.4 0.2,0.6 0.1,0.3 0.2,0.7 0.3,1 0.3,0.7 0.5,1.4 0.4,2.1 0,0.4 -0.2,0.7 0,1.1 0.1,0.4 0.3,0.6 0.5,1 0.2,0.3 0.4,0.5 0.5,0.7 0.3,0.5 0.8,0.9 0.6,1.5 -0.1,0.3 -0.6,0.3 -1,0.5 -0.3,0.2 0,0.6 0.1,0.8 0.2,0.4 -0.3,0.7 -0.6,0.8 0.1,0.1 0.3,0.1 0.3,0.2 0,0.2 0.3,0.4 0.1,0.6 -0.2,0.3 -0.7,0.4 -0.5,0.8 0.2,0.3 0.1,0.7 0,1 -0.1,0.4 -0.5,0.6 -0.8,0.7 -0.3,0.1 -0.6,0.1 -0.9,0 -0.1,0 -0.2,-0.1 -0.3,-0.1 -0.8,-0.1 -1.6,-0.3 -2.3,-0.3 -0.2,0 -0.5,0.1 -0.6,0.2 -0.2,0.2 -0.4,0.3 -0.6,0.5 v 0 l -0.1,0.1 c 0,0 0,0 -0.1,0.1 v 0 c -0.1,0.2 -0.3,0.3 -0.4,0.5 v 0 c 0,0 0,0 0,0.1 -0.2,0.3 -0.3,0.6 -0.3,0.8 -0.3,1.1 -0.2,2 0,2.2 0.1,0.1 1.5,0.5 2.5,1 0.5,0.2 0.8,0.4 1.1,0.5 H 22.3 c 0.9,-0.6 1.7,-0.9 3,-1.5 0.6,-0.3 1.9,-0.9 2.3,-1.3 m -7,-3.3 c -0.1,0 -0.3,0 -0.2,0 0,-0.2 0.4,-0.2 0.6,-0.3 0.1,0 0.2,-0.1 0.3,-0.1 0.1,0.1 0.2,0.1 0.3,0.2 -0.3,0.2 -0.7,0 -1,0.2 m -7.1,-1.1 v 0 c 0.6,-0.9 1,-1.6 1.4,-2.4 0.6,-0.3 1.1,-0.8 1.6,-1.3 0.8,-0.8 1.6,-1.6 2.6,-2 0.4,-0.1 0.8,-0.1 1.2,0 -0.1,0.2 -0.4,0.1 -0.6,0.3 h -0.1 v -0.1 c -0.5,0.5 -1.1,0.7 -1.5,1.3 -0.3,0.5 -0.5,1.1 -1.1,1.2 -0.2,0 0,-0.1 0,-0.1 -1.3,0.9 -2.3,1.9 -3.5,3.1 m 3.9,-3 c 0,0.1 -0.1,0.1 -0.1,0.2 0,0.1 -0.1,0.1 -0.2,0.2 H 17 c 0,-0.2 0.1,-0.4 0.4,-0.4 0,-0.1 0,0 0,0 m 2.1,6.9 c 0,0.1 -0.1,0.1 0,0 0,0.1 0,0.1 0,0.2 -0.1,0.1 -0.2,0.2 -0.3,0.2 0,0 0,0 -0.1,0 -0.1,0.1 -0.1,0.1 -0.2,0.2 -0.1,0 -0.3,0 -0.2,-0.1 0.1,-0.1 0.2,-0.2 0.3,-0.3 0.1,-0.1 0.1,-0.1 0.2,-0.2 l 0.1,-0.1 c 0,0 0.2,0 0.2,0.1 m -0.8,-0.4 v 0 c -0.2,0.1 -0.4,0.3 -0.5,0.4 -0.2,0.1 -0.4,0.2 -0.6,0.3 v 0 c 0,0 0,0 -0.1,0 -0.2,0.1 -0.3,0.2 -0.5,0.4 0,0 0,0 -0.1,0.1 v 0 0 c 0,0 0,0 -0.1,0.1 v 0 0 L 16.7,22 c 0,0 0,0 -0.1,0.1 h -0.1 v 0 h -0.1 c 0,0 0,0 -0.1,0 v 0 0 c -0.1,0 -0.1,0.1 -0.2,0.1 -0.1,0.1 -0.2,0.2 -0.3,0.3 v 0 0 0 0 0 0 0 0 0 0 c 0,0 0,0 0,-0.1 v 0 0 c 0,-0.1 0.1,-0.1 0.1,-0.2 v 0 c 0,0 0,0 0,-0.1 L 16,22 v 0 c 0.1,-0.1 0.1,-0.1 0.1,-0.2 v 0 0 c 0,0 0,-0.1 0.1,-0.1 0,0 0,-0.1 0.1,-0.1 v 0 0 0 -0.1 0 0 c 0,0 0,0 0,-0.1 v 0 c 0,0 0,0 0,-0.1 v 0 c 0.1,-0.1 0.1,-0.2 0.2,-0.2 v 0 c -0.1,0 -0.1,0.1 -0.2,0.1 0,0 -0.1,0 -0.1,-0.1 L 16.3,21 v 0 c 0.1,-0.1 0.1,-0.2 0.2,-0.2 0.1,0 0.1,-0.1 0.1,-0.1 v 0 l 0.1,-0.1 v 0 c 0.4,-0.4 1.2,-0.4 1.8,-0.7 0.2,-0.1 0.5,0 0.7,0 0.1,0 0.3,0 0.4,0.1 -0.2,0.1 -0.6,0.4 -0.9,0.6 m 0.9,-3.2 c 0,0 0.1,0 0.2,-0.1 h -0.4 c 0,0 0,0 0,-0.1 -0.2,0 -0.5,0.1 -0.7,0.2 -0.3,0.1 -0.6,0.3 -1,0.4 -0.5,0.2 -0.9,0.6 -1.5,0.8 0,0 0,0 0,-0.1 0,-0.1 0.2,-0.2 0.3,-0.3 v -0.1 c 0.4,-0.5 0.9,-0.8 1.3,-1.2 v -0.1 c 0.1,-0.2 0.4,-0.3 0.5,-0.5 0,-0.1 0.2,-0.3 0.5,-0.4 0,0 -0.1,0 -0.1,-0.1 -0.2,0 -0.4,0.1 -0.6,0 0.1,-0.1 0.2,-0.1 0.3,-0.2 0,0 -0.1,0 -0.1,-0.1 0,-0.1 0.1,-0.2 0.2,-0.2 0.2,0 0.4,0 0.6,-0.2 -0.3,0 -0.7,0.1 -1,-0.1 0.2,-0.6 0.6,-1.1 1.2,-1.4 h 0.1 c 0,0.2 -0.1,0.4 -0.4,0.5 0.4,0.1 0.7,0.1 1.1,0.3 0,0.1 -0.1,0 -0.2,0 0.2,0.1 0.5,0 0.7,0.2 -0.1,0.1 -0.3,0 -0.4,0 1.4,0.4 2.9,0.7 4.1,1.7 -1,0.5 -2.1,0.7 -3.2,1 -0.1,0 -0.2,0 -0.4,0 v 0.1 c -0.2,0 -0.3,0 -0.5,0.1 -0.2,0 -0.4,0.1 -0.6,-0.1"
   inkscape:connector-curvature="0"
   style="fill:#ffffff" />
<path
   id="Rouge_1_"
   class="st1"
   d="m 27.6,21.5 c 0.3,-0.3 0.5,-0.5 0.8,-0.8 v 0 c 0.5,-0.6 1,-1.1 1.5,-1.6 0.2,-0.2 0.3,-0.3 0.5,-0.4 0,0 0,-0.1 0.1,-0.2 -0.2,0.1 -0.4,0.3 -0.6,0.4 0,0 -0.1,0 0,-0.1 0.2,-0.1 0.3,-0.2 0.5,-0.4 v 0 c 0,0 0,0 0,-0.1 -0.6,-0.1 -1.1,0.3 -1.5,0.7 -0.1,0 -0.2,0 -0.2,0 -0.7,0.2 -1.2,0.8 -1.9,1.1 V 20 c -0.3,0.1 -0.5,0.3 -0.8,0.3 -0.4,0.1 -0.8,0 -1.1,0 -0.6,0.1 -1.1,0.2 -1.7,0.3 v 0 c -0.3,0.1 -0.6,0.2 -0.9,0.3 v 0 c 0,0 0,0.1 -0.1,0.1 -0.1,0.1 -0.2,0.2 -0.3,0.3 -0.3,0.1 -0.5,0.4 -0.8,0.6 0,0 0,0 -0.1,0 -0.2,0.2 -0.5,0.5 -0.7,0.7 h -0.1 v 0 0 c 0,-0.1 0.1,-0.1 0.1,-0.2 0,-0.1 0.1,-0.1 0.1,-0.2 0.1,-0.1 0.1,-0.2 0.2,-0.3 0,0 0,0 0,-0.1 0,0 0,0 -0.1,0 0.2,-0.2 0.5,-0.4 0.8,-0.6 v 0 h -0.1 l 0.1,-0.1 v 0 0 c -0.1,0 -0.2,0.1 -0.2,0.2 -0.1,0.1 -0.2,0.3 -0.4,0.3 0,0 0,0 -0.1,0 v 0 0 0 0 0 0 0 c 0,0 0,0 0,-0.1 v 0 c 0,0 0,-0.1 0.1,-0.1 v 0 -0.1 -0.1 C 20.8,21.1 20.9,21 21,20.9 v 0 c 0.2,-0.1 0.4,-0.2 0.5,-0.3 0,0 0.1,0 0.1,-0.1 -0.3,0.1 -0.5,0.2 -0.7,0.4 h -0.1 -0.1 v 0 c 0,-0.1 0.2,-0.1 0.3,-0.2 h 0.1 c 1.5,-1.1 3.5,-0.9 5.2,-1.5 0.1,-0.1 0.3,-0.2 0.4,-0.3 0.2,-0.1 0.4,-0.3 0.7,-0.5 0.4,-0.3 0.6,-0.6 0.8,-1.1 v -0.1 c -0.6,0.6 -1.3,1.1 -2,1.5 -1,0.5 -2,0.4 -3,0.6 0,-0.1 0.1,-0.1 0.2,-0.1 0,-0.1 0.1,-0.2 0.2,-0.3 h 0.1 c 0,0 0,-0.1 0.1,-0.1 0.1,0 0.2,0 0.2,0 -0.1,-0.2 -0.4,0.1 -0.6,0 0.1,-0.1 0,-0.2 0.1,-0.3 h 0.2 c 0,-0.1 0.1,-0.2 0.1,-0.2 0.7,-0.4 1.3,-0.7 2,-1.1 -0.1,0 -0.2,0.1 -0.4,0 0.1,0 0,-0.1 0.1,-0.1 0.5,-0.1 0.9,-0.4 1.4,-0.6 -0.2,0 -0.3,0.1 -0.5,0 0.1,0 0.1,-0.1 0.3,-0.1 v -0.1 c 0,0 0,0 0.1,0 h -0.1 c 0,-0.1 0.2,0 0.3,-0.1 H 26.9 C 27,16 27.3,16 27.5,15.9 c 0,-0.1 -0.2,0 -0.2,-0.1 0,0 0,0 0.1,0 h -0.1 c -0.1,0 0,-0.1 0,-0.2 0.3,-0.3 0.3,-0.7 0.4,-1.1 h -0.1 c -0.5,0.5 -1.2,0.7 -1.9,0.9 h -0.2 c -0.2,0.1 -0.6,0.1 -0.8,0 C 24.5,15.3 24.4,15.2 24.2,15 23.8,14.8 23.5,14.6 23.1,14.4 22,14 20.8,13.8 19.6,13.9 c 0.5,-0.3 1.1,-0.3 1.6,-0.5 0.8,-0.2 1.5,-0.5 2.3,-0.5 -0.1,0 -0.3,0 -0.5,0 -0.6,0 -1.3,0.1 -2,0.3 -0.5,0.1 -0.9,0.3 -1.3,0.4 -0.3,0.1 -0.4,0.4 -0.7,0.3 v -0.1 c 0.5,-0.6 1,-1.1 1.7,-1.1 0.8,-0.1 1.6,0 2.4,0.1 0.6,0 1.1,0.2 1.7,0.3 0.2,0 0.3,0.4 0.5,0.4 0.3,0.1 0.6,0 0.8,0.2 0,-0.1 0,-0.2 0,-0.3 0.2,-0.2 0.4,0 0.6,0 0.4,-0.2 -0.3,-0.6 -0.5,-1 v -0.1 c 0.4,0.3 0.6,0.7 1.1,0.9 0.2,0.1 0.8,0.2 0.7,0 -0.2,-0.5 -0.7,-0.9 -1.1,-1.4 v -0.2 c -0.1,0 -0.1,0 -0.1,-0.1 V 11.3 C 26.6,11.2 26.7,11 26.6,10.9 26.5,10.7 26.6,10.3 26.5,10.1 26.4,9.8 26.4,9.6 26.3,9.3 26.2,8.5 26,7.8 25.9,7.1 25.8,6.2 26.4,5.5 26.8,4.8 27.1,4.2 27.5,3.7 28.1,3.3 28.2,2.7 28.6,2.3 29,1.8 29.4,1.4 30,1.1 30.4,0.9 31,0.2 31.5,0 31.5,0 H 0 v 24.3 h 22.3 c 0.9,-0.6 1.7,-0.9 3,-1.5 0.6,-0.3 1.9,-0.9 2.3,-1.3 m -7,-3.3 c -0.1,0 -0.3,0 -0.2,0 0,-0.2 0.4,-0.2 0.6,-0.3 0.1,0 0.2,-0.1 0.3,-0.1 0.1,0.1 0.2,0.1 0.3,0.2 -0.3,0.2 -0.7,0 -1,0.2 m -7,-1.1 c 0,0 -0.1,0 0,0 0.6,-0.9 1,-1.6 1.4,-2.4 0.6,-0.3 1.1,-0.8 1.6,-1.3 0.8,-0.8 1.6,-1.6 2.6,-2 0.4,-0.1 0.8,-0.1 1.2,0 -0.1,0.2 -0.4,0.1 -0.6,0.3 h -0.1 v -0.1 c -0.5,0.5 -1.1,0.7 -1.5,1.3 -0.3,0.5 -0.5,1.1 -1.1,1.2 -0.2,0 0,-0.1 0,-0.1 -1.4,0.9 -2.4,1.9 -3.5,3.1 m 3.8,-3 c 0,0.1 -0.1,0.1 -0.1,0.2 0,0.1 -0.1,0.1 -0.2,0.2 H 17 c 0,-0.2 0.1,-0.4 0.4,-0.4 0,-0.1 0,0 0,0 m 2.1,6.9 c 0,0.1 -0.1,0.1 0,0 0,0.1 0,0.1 0,0.2 -0.1,0.1 -0.2,0.2 -0.3,0.2 0,0 0,0 -0.1,0 -0.1,0.1 -0.1,0.1 -0.2,0.2 -0.1,0 -0.3,0 -0.2,-0.1 0.1,-0.1 0.2,-0.2 0.3,-0.3 0.1,-0.1 0.1,-0.1 0.2,-0.2 l 0.1,-0.1 c 0,0 0.2,0 0.2,0.1 m -0.8,-0.4 v 0 c -0.2,0.1 -0.4,0.3 -0.5,0.4 -0.2,0.1 -0.4,0.2 -0.6,0.3 v 0 c 0,0 0,0 -0.1,0 -0.2,0.1 -0.3,0.2 -0.5,0.4 0,0 0,0 -0.1,0.1 v 0 0 c 0,0 0,0 -0.1,0.1 v 0 0 L 16.7,22 c 0,0 0,0 -0.1,0.1 h -0.1 v 0 h -0.1 c 0,0 0,0 -0.1,0 v 0 0 c -0.1,0 -0.1,0.1 -0.2,0.1 -0.1,0.1 -0.2,0.2 -0.3,0.3 v 0 0 0 0 0 0 0 0 0 0 c 0,0 0,0 0,-0.1 v 0 0 c 0,-0.1 0.1,-0.1 0.1,-0.2 v 0 c 0,0 0,0 0,-0.1 L 16,22 v 0 c 0.1,-0.1 0.1,-0.1 0.1,-0.2 v 0 0 c 0,0 0,-0.1 0.1,-0.1 0,0 0,-0.1 0.1,-0.1 v 0 0 0 -0.1 0 0 c 0,0 0,0 0,-0.1 v 0 c 0,0 0,0 0,-0.1 v 0 c 0.1,-0.1 0.1,-0.2 0.2,-0.2 v 0 c -0.1,0 -0.1,0.1 -0.2,0.1 0,0 -0.1,0 -0.1,-0.1 L 16.3,21 v 0 c 0.1,-0.1 0.1,-0.2 0.2,-0.2 0.1,0 0.1,-0.1 0.1,-0.1 v 0 l 0.1,-0.1 v 0 c 0.4,-0.4 1.2,-0.4 1.8,-0.7 0.2,-0.1 0.5,0 0.7,0 0.1,0 0.3,0 0.4,0.1 -0.2,0.1 -0.5,0.4 -0.9,0.6 m 0.9,-3.2 c 0,0 0.1,0 0.2,-0.1 h -0.4 c 0,0 0,0 0,-0.1 -0.2,0 -0.5,0.1 -0.7,0.2 -0.3,0.1 -0.6,0.3 -1,0.4 -0.5,0.2 -0.9,0.6 -1.5,0.8 0,0 0,0 0,-0.1 0,-0.1 0.2,-0.2 0.3,-0.3 v -0.1 c 0.4,-0.5 0.9,-0.8 1.3,-1.2 v -0.1 c 0.1,-0.2 0.4,-0.3 0.5,-0.5 0,-0.1 0.2,-0.3 0.5,-0.4 0,0 -0.1,0 -0.1,-0.1 -0.2,0 -0.4,0.1 -0.6,0 0.1,-0.1 0.2,-0.1 0.3,-0.2 0,0 -0.1,0 -0.1,-0.1 0,-0.1 0.1,-0.2 0.2,-0.2 0.2,0 0.4,0 0.6,-0.2 -0.3,0 -0.7,0.1 -1,-0.1 0.2,-0.6 0.6,-1.1 1.2,-1.4 h 0.1 c 0,0.2 -0.1,0.4 -0.4,0.5 0.4,0.1 0.7,0.1 1.1,0.3 0,0.1 -0.1,0 -0.2,0 0.2,0.1 0.5,0 0.7,0.2 -0.1,0.1 -0.3,0 -0.4,0 1.4,0.4 2.9,0.7 4.1,1.7 -1,0.5 -2.1,0.7 -3.2,1 -0.1,0 -0.2,0 -0.4,0 v 0.1 c -0.2,0 -0.3,0 -0.5,0.1 -0.2,0 -0.4,0.1 -0.6,-0.1"
   inkscape:connector-curvature="0"
   style="fill:#000091" />
<path
   id="Bleu_1_"
   class="st2"
   d="M 66.9,0 H 40.7 c 0,0 0,0 0.2,0.1 0.2,0.1 0.5,0.3 0.7,0.4 0.3,0.2 0.7,0.4 0.9,0.7 0.1,0.1 0.2,0.4 0.1,0.6 -0.1,0.2 -0.1,0.6 -0.4,0.7 -0.3,0.1 -0.6,0.1 -1,0.1 -0.2,0 -0.4,0 -0.6,-0.1 0.7,0.3 1.3,0.6 1.8,1.2 0,0.1 0.2,0.1 0.4,0.1 V 3.9 C 42.7,4 42.6,4 42.7,4.2 H 43 c 0.2,-0.1 0.2,-0.6 0.5,-0.4 0.2,0.1 0.3,0.5 0.2,0.7 -0.2,0.2 -0.4,0.3 -0.6,0.5 0,0.1 0,0.2 0,0.3 0.1,0.2 0.2,0.4 0.2,0.6 0.1,0.3 0.2,0.7 0.3,1 0.3,0.7 0.5,1.4 0.4,2.1 0,0.4 -0.2,0.7 0,1.1 0.1,0.4 0.3,0.6 0.5,1 0.2,0.3 0.4,0.5 0.5,0.7 0.3,0.5 0.8,0.9 0.6,1.5 -0.1,0.3 -0.6,0.3 -1,0.5 -0.3,0.2 0,0.6 0.1,0.8 0.2,0.4 -0.3,0.7 -0.6,0.8 0.1,0.1 0.3,0.1 0.3,0.2 0,0.2 0.3,0.4 0.1,0.6 -0.2,0.3 -0.7,0.4 -0.5,0.8 0.2,0.3 0.1,0.7 0,1 -0.1,0.4 -0.5,0.6 -0.8,0.7 -0.3,0.1 -0.6,0.1 -0.9,0 -0.1,0 -0.2,-0.1 -0.3,-0.1 -0.8,-0.1 -1.6,-0.3 -2.3,-0.3 -0.2,0 -0.5,0.1 -0.6,0.2 -0.2,0.2 -0.4,0.3 -0.6,0.5 v 0 l -0.1,0.1 c 0,0 0,0 -0.1,0.1 v 0 c -0.1,0.2 -0.3,0.3 -0.4,0.5 v 0 c 0,0 0,0 0,0.1 -0.2,0.3 -0.3,0.6 -0.3,0.8 -0.3,1.1 -0.2,2 0,2.2 0.1,0.1 1.5,0.5 2.5,1 0.5,0.2 0.8,0.4 1.1,0.5 h 25.7 z"
   inkscape:connector-curvature="0"
   style="fill:#e1000f" />
<path
   id="Yeux_1_"
   class="st3"
   d="m 42.3,8.9 c 0.2,0 0.5,0 0.5,0.1 -0.1,0.4 -0.6,0.5 -0.9,0.8 h -0.1 c -0.1,0.1 -0.1,0.3 -0.2,0.3 -0.1,0 -0.3,0 -0.4,0 0.2,0.2 0.4,0.3 0.7,0.3 0,0 0.1,0.1 0.1,0.2 0,0 0,0 0.1,0 h 0.1 v 0.2 c -0.1,0.2 -0.4,0.1 -0.6,0.1 0.4,0.1 0.7,0.1 1.1,0 0.3,-0.1 0,-0.6 0.2,-0.8 -0.1,0 0,-0.1 -0.1,-0.1 0.1,-0.1 0.2,-0.2 0.3,-0.3 0.1,0 0.2,0 0.3,-0.1 0,-0.1 -0.2,-0.1 -0.1,-0.2 0.3,-0.2 0.5,-0.5 0.4,-0.7 0,-0.1 -0.4,-0.1 -0.6,-0.2 -0.2,-0.1 -0.5,0 -0.8,0 -0.2,0 -0.5,0.1 -0.7,0.2 -0.6,0.1 -0.8,0.3 -1.1,0.4 0.3,-0.1 0.6,-0.2 1,-0.3 0.3,0.1 0.5,0 0.8,0.1"
   inkscape:connector-curvature="0"
   style="fill:#9c9b9b" />
<g
   id="g45"
   transform="translate(-27.4,-25.9)">
	<path
   d="M 27.4,80.7 V 62.5 H 32 l 4.4,7.5 4.4,-7.5 h 4.7 V 80.7 H 41.8 V 67.8 l -4.1,6.7 H 35.1 L 31,67.8 v 12.9 z"
   id="path9"
   inkscape:connector-curvature="0" />
	<path
   d="M 50.8,80.7 V 62.5 h 3.7 v 18.2 z"
   id="path11"
   inkscape:connector-curvature="0" />
	<path
   d="M 59.9,80.7 V 62.5 h 4.7 l 8.1,13 v -13 h 3.7 V 80.7 H 71.7 L 63.6,67.6 v 13.1 z"
   id="path13"
   inkscape:connector-curvature="0" />
	<path
   d="M 81.8,80.7 V 62.5 h 3.7 v 18.2 z"
   id="path15"
   inkscape:connector-curvature="0" />
	<path
   d="m 89.2,78.2 2.7,-2.5 c 0.5,0.7 1.2,1.2 1.9,1.6 0.7,0.4 1.4,0.6 2.2,0.6 0.7,0 1.3,-0.2 1.7,-0.6 0.4,-0.4 0.6,-0.9 0.6,-1.5 0,-0.8 -0.4,-1.4 -1.3,-1.9 -0.9,-0.4 -1.8,-0.9 -2.9,-1.4 -1,-0.5 -2,-1.1 -2.9,-1.9 -0.9,-0.8 -1.3,-1.9 -1.3,-3.4 0,-0.7 0.1,-1.4 0.4,-2 C 90.6,64.6 91,64 91.5,63.5 92,63 92.6,62.6 93.3,62.4 94,62.1 94.8,62 95.7,62 c 1.4,0 2.6,0.3 3.6,0.8 1.1,0.6 2,1.3 2.7,2.2 l -2.7,2.4 c -0.5,-0.7 -1.1,-1.2 -1.7,-1.7 -0.6,-0.4 -1.2,-0.6 -1.9,-0.6 -0.6,0 -1.2,0.2 -1.5,0.5 -0.4,0.4 -0.6,0.8 -0.6,1.4 0,0.8 0.4,1.4 1.3,1.9 0.9,0.4 1.8,0.9 2.9,1.4 1,0.5 2,1.1 2.9,1.9 0.9,0.8 1.3,2 1.3,3.5 0,0.8 -0.2,1.6 -0.5,2.3 -0.3,0.7 -0.8,1.2 -1.3,1.7 -0.5,0.5 -1.2,0.8 -1.9,1.1 -0.7,0.3 -1.5,0.4 -2.3,0.4 -1.5,0 -2.8,-0.3 -3.9,-0.8 C 91,79.9 90,79.1 89.2,78.2 Z"
   id="path17"
   inkscape:connector-curvature="0" />
	<path
   d="M 104.1,65.9 V 62.5 H 119 v 3.4 h -5.6 v 14.8 h -3.7 V 65.9 Z"
   id="path19"
   inkscape:connector-curvature="0" />
	<path
   d="M 122.5,80.7 V 62.5 h 10.6 v 3.1 h -6.9 v 4.2 h 5.9 V 73 h -5.9 v 4.5 h 6.9 v 3.1 h -10.6 z m 3.7,-19.7 -3.4,-3.5 h 3.8 l 2.9,3.5 z"
   id="path21"
   inkscape:connector-curvature="0" />
	<path
   d="M 137.7,80.7 V 62.5 h 5.6 c 2,0 3.6,0.5 4.7,1.5 1.2,1 1.7,2.3 1.7,4 0,1.1 -0.3,2 -0.8,2.8 -0.5,0.8 -1.2,1.4 -2.1,1.9 l 5.7,8.1 h -4.4 l -4.8,-7.4 h -1.9 v 7.4 h -3.7 z m 5.8,-15 h -2.1 v 4.6 h 2.1 c 0.8,0 1.4,-0.2 1.8,-0.6 0.4,-0.4 0.7,-1 0.7,-1.7 0,-0.7 -0.2,-1.2 -0.7,-1.6 -0.4,-0.5 -1,-0.7 -1.8,-0.7 z"
   id="path23"
   inkscape:connector-curvature="0" />
	<path
   d="M 155.1,80.7 V 62.5 h 10.6 v 3.1 h -6.9 v 4.2 h 5.9 V 73 h -5.9 v 4.5 h 6.9 v 3.1 h -10.6 z"
   id="path25"
   inkscape:connector-curvature="0" />
	<path
   d="M 27.4,106.9 V 88.7 h 7.2 c 1.4,0 2.8,0.2 4,0.7 1.2,0.5 2.2,1.1 3.1,2 0.9,0.9 1.5,1.8 2,2.9 0.5,1.1 0.7,2.3 0.7,3.5 0,1.2 -0.2,2.4 -0.7,3.5 -0.5,1.1 -1.1,2.1 -2,2.9 -0.9,0.8 -1.9,1.5 -3.1,2 -1.2,0.5 -2.5,0.7 -4,0.7 z m 7.2,-14.8 h -3.5 v 11.5 h 3.5 c 0.8,0 1.6,-0.1 2.3,-0.4 0.7,-0.3 1.3,-0.7 1.8,-1.2 0.5,-0.5 0.9,-1.1 1.2,-1.8 0.3,-0.7 0.4,-1.5 0.4,-2.2 0,-0.8 -0.1,-1.6 -0.4,-2.3 C 39.6,95 39.2,94.4 38.7,93.9 38.2,93.4 37.6,93 36.9,92.7 36.2,92.4 35.4,92.1 34.6,92.1 Z"
   id="path27"
   inkscape:connector-curvature="0" />
	<path
   d="M 48,106.9 V 88.7 h 10.6 v 3.1 H 51.7 V 96 h 5.9 v 3.1 h -5.9 v 4.5 h 6.9 v 3.1 H 48 Z"
   id="path29"
   inkscape:connector-curvature="0" />
	<path
   d="m 61.6,104.4 2.7,-2.5 c 0.5,0.7 1.2,1.2 1.9,1.6 0.7,0.4 1.4,0.6 2.2,0.6 0.7,0 1.3,-0.2 1.7,-0.6 0.4,-0.4 0.6,-0.9 0.6,-1.5 0,-0.8 -0.4,-1.4 -1.3,-1.9 -0.9,-0.4 -1.8,-0.9 -2.9,-1.4 -1,-0.5 -2,-1.1 -2.9,-1.9 -0.9,-0.8 -1.3,-1.9 -1.3,-3.4 0,-0.7 0.1,-1.4 0.4,-2 0.3,-0.6 0.7,-1.2 1.2,-1.7 0.5,-0.5 1.1,-0.9 1.8,-1.1 0.7,-0.3 1.5,-0.4 2.4,-0.4 1.4,0 2.6,0.3 3.6,0.8 1.1,0.6 2,1.3 2.7,2.2 l -2.7,2.4 c -0.5,-0.7 -1.1,-1.2 -1.7,-1.7 -0.6,-0.4 -1.2,-0.6 -1.9,-0.6 -0.6,0 -1.2,0.2 -1.5,0.5 -0.4,0.4 -0.6,0.8 -0.6,1.4 0,0.8 0.4,1.4 1.3,1.9 0.9,0.4 1.8,0.9 2.9,1.4 1,0.5 2,1.1 2.9,1.9 0.9,0.8 1.3,2 1.3,3.5 0,0.8 -0.2,1.6 -0.5,2.3 -0.3,0.7 -0.8,1.2 -1.3,1.7 -0.5,0.5 -1.2,0.8 -1.9,1.1 -0.7,0.3 -1.5,0.4 -2.3,0.4 -1.5,0 -2.8,-0.3 -3.9,-0.8 -1.1,-0.5 -2.2,-1.3 -2.9,-2.2 z"
   id="path31"
   inkscape:connector-curvature="0" />
	<path
   d="m 83.2,106.9 6.9,-18.2 h 4.8 l 6.9,18.2 h -3.9 l -1.7,-4.7 h -7.3 l -1.7,4.7 z M 90,99 h 5 l -2.5,-6.8 z"
   id="path33"
   inkscape:connector-curvature="0" />
	<path
   d="M 104.9,106.9 V 88.7 h 5.6 c 2,0 3.6,0.5 4.7,1.5 1.2,1 1.7,2.3 1.7,4 0,1.1 -0.3,2 -0.8,2.8 -0.5,0.8 -1.2,1.4 -2.1,1.9 l 5.7,8.1 h -4.4 l -4.8,-7.4 h -1.9 v 7.4 h -3.7 z m 5.8,-15 h -2.1 v 4.6 h 2.1 c 0.8,0 1.4,-0.2 1.8,-0.6 0.4,-0.4 0.7,-1 0.7,-1.7 0,-0.7 -0.2,-1.2 -0.7,-1.6 -0.4,-0.5 -1.1,-0.7 -1.8,-0.7 z"
   id="path35"
   inkscape:connector-curvature="0" />
	<path
   d="M 122.3,106.9 V 88.7 h 4.7 l 4.4,7.5 4.4,-7.5 h 4.7 v 18.2 h -3.7 V 94 l -4.1,6.7 H 130 L 126,94 v 12.9 z"
   id="path37"
   inkscape:connector-curvature="0" />
	<path
   d="M 145.7,106.9 V 88.7 h 10.6 v 3.1 h -6.9 V 96 h 5.9 v 3.1 h -5.9 v 4.5 h 6.9 v 3.1 h -10.6 z m 7,-19.7 h -3.4 l 2.9,-3.5 h 3.8 z"
   id="path39"
   inkscape:connector-curvature="0" />
	<path
   d="M 160.9,106.9 V 88.7 h 10.6 v 3.1 h -6.9 V 96 h 5.9 v 3.1 h -5.9 v 4.5 h 6.9 v 3.1 h -10.6 z"
   id="path41"
   inkscape:connector-curvature="0" />
	<path
   d="m 174.4,104.4 2.7,-2.5 c 0.5,0.7 1.2,1.2 1.9,1.6 0.7,0.4 1.4,0.6 2.2,0.6 0.7,0 1.3,-0.2 1.7,-0.6 0.4,-0.4 0.6,-0.9 0.6,-1.5 0,-0.8 -0.4,-1.4 -1.3,-1.9 -0.9,-0.4 -1.8,-0.9 -2.9,-1.4 -1,-0.5 -2,-1.1 -2.9,-1.9 -0.9,-0.8 -1.3,-1.9 -1.3,-3.4 0,-0.7 0.1,-1.4 0.4,-2 0.3,-0.6 0.7,-1.2 1.2,-1.7 0.5,-0.5 1.1,-0.9 1.8,-1.1 0.7,-0.3 1.5,-0.4 2.4,-0.4 1.4,0 2.6,0.3 3.6,0.8 1.1,0.6 2,1.3 2.7,2.2 l -2.7,2.4 c -0.5,-0.7 -1.1,-1.2 -1.7,-1.7 -0.6,-0.4 -1.2,-0.6 -1.9,-0.6 -0.6,0 -1.2,0.2 -1.5,0.5 -0.4,0.4 -0.6,0.8 -0.6,1.4 0,0.8 0.4,1.4 1.3,1.9 0.9,0.4 1.8,0.9 2.9,1.4 1,0.5 2,1.1 2.9,1.9 0.9,0.8 1.3,2 1.3,3.5 0,0.8 -0.2,1.6 -0.5,2.3 -0.3,0.7 -0.8,1.2 -1.3,1.7 -0.5,0.5 -1.2,0.8 -1.9,1.1 -0.7,0.3 -1.5,0.4 -2.3,0.4 -1.5,0 -2.8,-0.3 -3.9,-0.8 -1.1,-0.5 -2.1,-1.3 -2.9,-2.2 z"
   id="path43"
   inkscape:connector-curvature="0" />
</g>
</svg>