<?xml version="1.0" encoding="UTF-8" standalone="no"?>
<svg
   xmlns:dc="http://purl.org/dc/elements/1.1/"
   xmlns:cc="http://creativecommons.org/ns#"
   xmlns:rdf="http://www.w3.org/1999/02/22-rdf-syntax-ns#"
   xmlns:svg="http://www.w3.org/2000/svg"
   xmlns="http://www.w3.org/2000/svg"
   xmlns:sodipodi="http://sodipodi.sourceforge.net/DTD/sodipodi-0.dtd"
   xmlns:inkscape="http://www.inkscape.org/namespaces/inkscape"
   inkscape:version="1.0beta1 (76ce730, 2019-10-19)"
   sodipodi:docname="mf-logo.svg"
   version="1.1"
   viewBox="0 0 600 600"
   height="600"
   width="600"
   data-name="Calque 1"
   id="ccf56f4b-2a39-45ee-af6e-4481bfcbcb86">
  <metadata
     id="metadata872">
    <rdf:RDF>
      <cc:Work
         rdf:about="">
        <dc:format>image/svg+xml</dc:format>
        <dc:type
           rdf:resource="http://purl.org/dc/dcmitype/StillImage" />
      </cc:Work>
    </rdf:RDF>
  </metadata>
  <defs
     id="defs870" />
  <sodipodi:namedview
     inkscape:current-layer="ccf56f4b-2a39-45ee-af6e-4481bfcbcb86"
     inkscape:window-maximized="0"
     inkscape:window-y="23"
     inkscape:window-x="0"
     inkscape:cy="560"
     inkscape:cx="400"
     inkscape:zoom="0.35"
     showgrid="false"
     id="namedview868"
     inkscape:window-height="784"
     inkscape:window-width="1440"
     inkscape:pageshadow="2"
     inkscape:pageopacity="0"
     guidetolerance="10"
     gridtolerance="10"
     objecttolerance="10"
     borderopacity="1"
     inkscape:document-rotation="0"
     bordercolor="#666666"
     pagecolor="#ffffff" />
  <title
     id="title833">mf-logo</title>
  <rect
     y="0"
     x="0"
     id="rect835"
     style="fill:#005892;stroke-width:7.59494"
     height="600"
     width="600" />
  <g
     id="g878">
    <rect
       x="220.48102"
       y="111.56962"
       width="159.03798"
       height="159.03798"
       rx="12.759493"
       ry="12.759493"
       style="fill:#ffffff;stroke-width:7.59494"
       id="rect837" />
    <polygon
       points="44.05,17.65 46.29,19.98 43.11,20.79 "
       style="fill:#005891"
       id="polygon839"
       transform="scale(7.5949367)" />
    <path
       d="m 357.94937,191.08861 a 57.64557,57.64557 0 0 0 -10.17722,-32.81013 l -5.16456,1.97468 a 56.050633,56.050633 0 0 1 10.25317,30.83545 53.164557,53.164557 0 0 1 -45.56962,52.32911 210.1519,210.1519 0 0 1 -1.74684,-104.81013 55.443038,55.443038 0 0 1 19.74684,6 l 1.29114,-4.86075 a 57.56962,57.56962 0 0 0 -19.74684,-6.1519 150.68354,150.68354 0 0 1 8.12659,-22.02532 h -7.59494 a 164.05063,164.05063 0 0 0 -7.59494,21.64557 v 0 a 57.949367,57.949367 0 0 0 0,115.82278 h 1.97469 c 1.97468,7.0633 4.25316,14.27849 7.06329,21.64557 h 7.06329 c -2.88608,-7.59493 -5.39241,-15.18987 -7.59494,-22.25316 a 57.949367,57.949367 0 0 0 49.67089,-57.34177 z"
       style="fill:#005891;stroke-width:7.59494"
       id="path841"
       inkscape:connector-curvature="0" />
    <path
       d="m 298.63291,130.40506 h -7.06329"
       style="fill:#ffffff;stroke-width:7.59494"
       id="path843"
       inkscape:connector-curvature="0" />
  </g>
  <g
     id="g891">
    <polygon
       points="16.25,41.52 19.15,41.52 21.07,47.33 22.92,41.52 25.83,41.52 26.88,51.59 23.97,51.59 23.54,46.55 22.05,51.59 19.96,51.59 18.47,46.55 17.88,51.59 17.67,51.59 15.01,51.59 "
       style="fill:#ffffff"
       id="polygon845"
       transform="scale(7.5949367)" />
    <polygon
       points="35.34,49.06 30.77,49.06 30.77,47.71 34.23,47.71 34.23,45.6 30.71,45.6 30.71,44.08 35.34,44.08 35.34,41.52 27.93,41.52 27.93,51.59 35.34,51.59 "
       style="fill:#ffffff"
       id="polygon847"
       transform="scale(7.5949367)" />
    <polygon
       points="53.19,49.06 48.61,49.06 48.61,47.71 52.07,47.71 52.07,45.6 48.55,45.6 48.55,44.08 53.19,44.08 53.19,41.52 45.77,41.52 45.77,51.59 53.19,51.59 "
       style="fill:#ffffff"
       id="polygon849"
       transform="scale(7.5949367)" />
    <polygon
       points="39.11,51.59 41.9,51.59 41.9,44.08 44.37,44.08 44.37,41.52 36.58,41.52 36.58,44.08 39.11,44.08 "
       style="fill:#ffffff"
       id="polygon851"
       transform="scale(7.5949367)" />
    <path
       d="m 448.10127,314.65823 a 37.974684,37.974684 0 1 0 37.97468,37.97468 37.974684,37.974684 0 0 0 -37.97468,-37.97468 z m 0,57.49367 a 19.443038,19.443038 0 1 1 19.44303,-19.44304 19.443038,19.443038 0 0 1 -19.44303,19.44304 z"
       style="fill:#ffffff;stroke-width:7.59494"
       id="path853"
       inkscape:connector-curvature="0" />
    <polygon
       points="17.77,61.11 20.89,61.11 20.89,59.16 17.77,59.16 17.77,57.19 21.81,57.19 21.81,54.74 15.01,54.74 15.01,64.3 17.77,64.3 "
       style="fill:#ffffff"
       id="polygon855"
       transform="scale(7.5949367)" />
    <path
       d="m 213.56962,458.81013 c 0,0 10.93671,-1.21519 10.93671,-21.18988 a 19.518987,19.518987 0 0 0 -18.83544,-21.87341 h -34.86076 v 72.60759 h 17.6962 v -26.73418 h 6.53164 l 11.16456,26.73418 h 20.88608 z m -11.8481,-11.54431 h -13.51899 v -17.46835 h 13.51899 a 9.4936709,9.4936709 0 0 1 0,17.46835 z"
       style="fill:#ffffff;stroke-width:7.59494"
       id="path857"
       inkscape:connector-curvature="0" />
    <path
       d="m 274.02532,415.74684 h -16.25317 l -27.41772,72.60759 h 20.73418 l 5.3924,-13.51899 h 19.97469 l 4.55696,13.51899 h 19.82278 z m -15.18988,45.11392 6.98734,-19.51899 6.98735,19.51899 z"
       style="fill:#ffffff;stroke-width:7.59494"
       id="path859"
       inkscape:connector-curvature="0" />
    <polygon
       points="42.33,59.16 45.76,64.3 47.97,64.3 47.97,54.74 45.48,54.74 45.48,60.33 42.3,54.74 39.88,54.74 39.88,64.3 42.33,64.3 "
       style="fill:#ffffff"
       id="polygon861"
       transform="scale(7.5949367)" />
    <path
       d="m 418.25316,465.03797 a 18.379747,18.379747 0 1 1 -0.98734,-26.43038 l 11.8481,-13.29113 a 36.075949,36.075949 0 1 0 0,53.77215 z"
       style="fill:#ffffff;stroke-width:7.59494"
       id="path863"
       inkscape:connector-curvature="0" />
    <polygon
       points="63.99,61.9 59.64,61.9 59.64,60.62 62.93,60.62 62.93,58.61 59.58,58.61 59.58,57.17 63.99,57.17 63.99,54.73 56.94,54.73 56.94,64.31 63.99,64.31 "
       style="fill:#ffffff"
       id="polygon865"
       transform="scale(7.5949367)" />
  </g>
</svg>
