<?xml version="1.0" encoding="UTF-8" standalone="no"?>
<!-- Created with Inkscape (http://www.inkscape.org/) -->
<svg
   xmlns:dc="http://purl.org/dc/elements/1.1/"
   xmlns:cc="http://creativecommons.org/ns#"
   xmlns:rdf="http://www.w3.org/1999/02/22-rdf-syntax-ns#"
   xmlns:svg="http://www.w3.org/2000/svg"
   xmlns="http://www.w3.org/2000/svg"
   xmlns:sodipodi="http://sodipodi.sourceforge.net/DTD/sodipodi-0.dtd"
   xmlns:inkscape="http://www.inkscape.org/namespaces/inkscape"
   width="67.82"
   height="113.95503"
   id="svg2550"
   sodipodi:version="0.32"
   inkscape:version="0.46"
   version="1.0"
   sodipodi:docname="ALTEN-Logo.svg"
   inkscape:output_extension="org.inkscape.output.svg.inkscape">
  <defs
     id="defs2552">
    <clipPath
       clipPathUnits="userSpaceOnUse"
       id="clipPath153">
      <path
         d="M 270.375,628.273 L 324.631,628.273 L 324.631,719.437 L 270.375,719.437 L 270.375,628.273 z"
         id="path155" />
    </clipPath>
    <inkscape:perspective
       sodipodi:type="inkscape:persp3d"
       inkscape:vp_x="0 : 526.18109 : 1"
       inkscape:vp_y="0 : 1000 : 0"
       inkscape:vp_z="744.09448 : 526.18109 : 1"
       inkscape:persp3d-origin="372.04724 : 350.78739 : 1"
       id="perspective2558" />
  </defs>
  <sodipodi:namedview
     id="base"
     pagecolor="#ffffff"
     bordercolor="#666666"
     borderopacity="1.0"
     inkscape:pageopacity="0.0"
     inkscape:pageshadow="2"
     inkscape:zoom="4.2472895"
     inkscape:cx="33.910003"
     inkscape:cy="56.977517"
     inkscape:document-units="px"
     inkscape:current-layer="layer1"
     showgrid="false"
     inkscape:window-width="666"
     inkscape:window-height="667"
     inkscape:window-x="44"
     inkscape:window-y="58" />
  <metadata
     id="metadata2555">
    <rdf:RDF>
      <cc:Work
         rdf:about="">
        <dc:format>image/svg+xml</dc:format>
        <dc:type
           rdf:resource="http://purl.org/dc/dcmitype/StillImage" />
      </cc:Work>
    </rdf:RDF>
  </metadata>
  <g
     inkscape:label="Ebene 1"
     inkscape:groupmode="layer"
     id="layer1"
     transform="translate(-248.94714,-255.38465)">
    <path
       d="M 307.95589,256.74593 L 315.38714,256.74593 L 315.38714,355.83343 L 250.31964,355.83343 L 250.31964,335.68468"
       style="fill:#fff200;fill-opacity:1;fill-rule:nonzero;stroke:none"
       id="path147" />
    <g
       transform="matrix(1.25,0,0,-1.25,-89.021607,1154.6809)"
       id="g149">
      <g
         id="g151"
         clip-path="url(#clipPath153)">
        <path
           d="M 271.446,718.367 L 271.473,655.328 L 317.579,718.348"
           style="fill:#ed1c24;fill-opacity:1;fill-rule:nonzero;stroke:none"
           id="path157" />
        <path
           d="M 322.491,717.297 C 322.491,715.243 322.491,642.216 322.491,640.163 C 320.481,640.163 274.526,640.163 272.515,640.163 C 272.515,642.216 272.515,715.243 272.515,717.297 C 274.526,717.297 320.481,717.297 322.491,717.297 z M 270.375,719.437 L 270.375,638.023 L 324.631,638.023 L 324.631,719.437"
           style="fill:#231f20;fill-opacity:1;fill-rule:nonzero;stroke:none"
           id="path159" />
      </g>
    </g>
    <path
       d="M 306.98339,258.07218 L 249.07839,337.15843 L 255.80839,337.46468 L 306.47464,268.75218"
       style="fill:#0095d9;fill-opacity:1;fill-rule:nonzero;stroke:none"
       id="path161" />
    <path
       d="M 299.81589,304.79468 L 273.20839,287.21718 L 301.91589,272.84093"
       style="fill:#231f20;fill-opacity:1;fill-rule:nonzero;stroke:none"
       id="path163" />
    <path
       d="M 298.17464,334.03718 L 278.51214,334.04343 L 288.38964,316.88843"
       style="fill:#231f20;fill-opacity:1;fill-rule:nonzero;stroke:none"
       id="path165" />
    <path
       d="M 283.63464,343.69593 C 283.67964,339.64843 292.59714,339.97968 296.27339,343.69593"
       style="fill:#ed1c24;fill-opacity:1;fill-rule:nonzero;stroke:none"
       id="path167" />
    <path
       d="M 254.83839,364.46093 L 254.80464,364.46093 L 253.38714,366.81343 L 256.44214,366.81343 L 254.83839,364.46093 z M 252.67089,367.84468 L 251.61214,369.20968 L 248.96589,369.20968 L 253.98464,362.56218 L 255.92964,362.56218 L 260.81214,369.20968 L 258.13214,369.20968 L 257.14214,367.84468"
       style="fill:#231f20;fill-opacity:1;fill-rule:nonzero;stroke:none"
       id="path169" />
    <path
       d="M 269.37714,368.11093 L 272.92714,368.11093 L 272.92714,369.20968 L 266.86714,369.20968 L 266.86714,362.73468 L 269.37714,362.73468"
       style="fill:#231f20;fill-opacity:1;fill-rule:nonzero;stroke:none"
       id="path171" />
    <path
       d="M 283.20089,369.20968 L 280.69089,369.20968 L 280.69089,363.83468 L 278.09714,363.83468 L 278.09714,362.73468 L 285.79464,362.73468 L 285.79464,363.83468 L 283.20089,363.83468"
       style="fill:#231f20;fill-opacity:1;fill-rule:nonzero;stroke:none"
       id="path173" />
    <path
       d="M 294.51589,363.83468 L 294.51589,365.25843 L 298.50839,365.25843 L 298.50839,366.35968 L 294.51589,366.35968 L 294.51589,368.11093 L 298.66214,368.11093 L 298.66214,369.20968 L 292.00589,369.20968 L 292.00589,362.73468 L 298.66214,362.73468 L 298.66214,363.83468"
       style="fill:#231f20;fill-opacity:1;fill-rule:nonzero;stroke:none"
       id="path175" />
    <path
       d="M 305.62339,362.56218 L 307.43214,362.56218 L 314.20839,367.08843 L 314.24339,367.08843 L 314.24339,362.73468 L 316.75214,362.73468 L 316.75214,369.33968 L 314.94339,369.33968 L 308.16714,364.81343 L 308.13214,364.81343 L 308.13214,369.20968 L 305.62339,369.20968"
       style="fill:#231f20;fill-opacity:1;fill-rule:nonzero;stroke:none"
       id="path177" />
  </g>
</svg>
