<svg class="new-logos" xmlns="http://www.w3.org/2000/svg" xmlns:xlink="http://www.w3.org/1999/xlink" viewBox="0 0 499 97">
<style type="text/css">
    svg.new-logos { cursor: pointer; }

	svg.new-logos.small {
	}

	.SBS_Reduced, .SBS_Extended {
		transition: 1s all;
		display: inline;
		transform-origin: top center;
	}

	.letters { fill: #000000; }

	svg.new-logos .SBS_Extended { opacity: 1; transform: rotateX(0deg);}
	svg.new-logos .SBS_Reduced { opacity: 0; transform: rotateX(90deg); fill: transparent;}

	svg.new-logos.small .SBS_Reduced { opacity: 1; transform: rotateX(0deg);}
	svg.new-logos.small .SBS_Extended { opacity: 0; transform: rotateX(90deg); fill: transparent;}


	.logo_st0{fill:url(#STYLE_1);}
	.logo_st1{fill:url(#STYLE_2);}
	.logo_st2{fill:url(#STYLE_3);}
	.logo_st3{fill:url(#STYLE_4);}
	.logo_st4{fill:url(#STYLE_5);}
	.logo_st5{fill:url(#STYLE_6);}

	.logo_st0_mobile{fill:url(#STYLE_mobile_mobile);}
	.logo_st1_mobile{fill:url(#STYLE_2_mobile);}
	.logo_st2_mobile{fill:url(#STYLE_3_mobile);}
	.logo_st3_mobile{fill:url(#STYLE_4_mobile);}
	.logo_st4_mobile{fill:url(#STYLE_5_mobile);}
	.logo_st5_mobile{fill:url(#STYLE_6_mobile);}

</style>
<g id="picto">
	<g>
		<linearGradient class="styleInfos" id="STYLE_1" gradientUnits="userSpaceOnUse" x1="954.6834" y1="-1053.592" x2="1003.0346" y2="-1053.592" gradientTransform="matrix(0 1 -1 0 -1005.2396 -930.3276)">
			<stop offset="0" style="stop-color:#59BFFF"></stop>
			<stop offset="1" style="stop-color:#1039B4"></stop>
		</linearGradient>

		<polygon data-target="shape" class="logo_st0" points="24.2,48.5 48.4,24.4 72.5,48.5 48.4,72.7"></polygon>

		<linearGradient class="styleInfos" id="STYLE_2" gradientUnits="userSpaceOnUse" x1="206.9764" y1="-92.0564" x2="255.3276" y2="-92.0564" gradientTransform="matrix(1 0 0 1 -158.6233 164.764)">
			<stop offset="0" style="stop-color:#73DDFF"></stop>
			<stop offset="1" style="stop-color:#0180DD"></stop>
		</linearGradient>

		<polygon data-target="shape" class="logo_st1" points="72.5,96.9 48.4,72.7 72.5,48.5 96.7,72.7"></polygon>

		<linearGradient class="styleInfos" id="STYLE_3" gradientUnits="userSpaceOnUse" x1="-31.0625" y1="-1520.4537" x2="17.2887" y2="-1520.4537" gradientTransform="matrix(-1 0 0 -1 17.2897 -1447.7465)">
			<stop offset="0" style="stop-color:#017EDD"></stop>
			<stop offset="1" style="stop-color:#9DECFF"></stop>
		</linearGradient>

		<polygon data-target="shape" class="logo_st2" points="24.2,48.5 48.4,72.7 24.2,96.9 0,72.7"></polygon>
	</g>
	<g>
		<linearGradient class="styleInfos" id="STYLE_4" gradientUnits="userSpaceOnUse" x1="930.5078" y1="-1053.5911" x2="978.8589" y2="-1053.5911" gradientTransform="matrix(0 1 -1 0 -1005.2396 -930.3276)">
			<stop offset="0.3" style="stop-color:#FFD315"></stop>
			<stop offset="0.3822" style="stop-color:#FFCD1E"></stop>
			<stop offset="0.5162" style="stop-color:#FFBD36"></stop>
			<stop offset="0.6855" style="stop-color:#FFA35E"></stop>
			<stop offset="0.8815" style="stop-color:#FF7F94"></stop>
			<stop offset="1" style="stop-color:#FF67B9"></stop>
		</linearGradient>

		<polygon data-target="shape" class="logo_st3" points="24.2,24.4 48.4,0.2 72.5,24.4 48.4,48.5"></polygon>

		<linearGradient class="styleInfos" id="STYLE_5" gradientUnits="userSpaceOnUse" x1="206.9754" y1="-116.232" x2="255.3266" y2="-116.232" gradientTransform="matrix(1 0 0 1 -158.6233 164.764)">
			<stop offset="0" style="stop-color:#FF00B1"></stop>
			<stop offset="0.1409" style="stop-color:#F600B2"></stop>
			<stop offset="0.3708" style="stop-color:#DE00B5"></stop>
			<stop offset="0.6609" style="stop-color:#B600BA"></stop>
			<stop offset="0.9971" style="stop-color:#7F00C1"></stop>
			<stop offset="1" style="stop-color:#7F00C1"></stop>
		</linearGradient>
		
		<polygon data-target="shape" class="logo_st4" points="72.5,72.7 48.4,48.5 72.5,24.4 96.7,48.5"></polygon>
		
		<linearGradient class="styleInfos" id="STYLE_6" gradientUnits="userSpaceOnUse" x1="-31.0615" y1="-1496.2781" x2="17.2897" y2="-1496.2781" gradientTransform="matrix(-1 0 0 -1 17.2897 -1447.7465)">
			<stop offset="0" style="stop-color:#FF00B1"></stop>
			<stop offset="0.1409" style="stop-color:#F600B2"></stop>
			<stop offset="0.3708" style="stop-color:#DE00B5"></stop>
			<stop offset="0.6609" style="stop-color:#B600BA"></stop>
			<stop offset="0.9971" style="stop-color:#7F00C1"></stop>
			<stop offset="1" style="stop-color:#7F00C1"></stop>
		</linearGradient>

		<polygon data-target="shape" class="logo_st5" points="24.2,24.4 48.4,48.5 24.2,72.7 0,48.5"></polygon>

	</g>
</g>
<g class="SBS_Extended">
	<path class="letters" d="M202.7,34.3c0.9,1.6,2.1,2.8,3.6,3.7c1.6,0.9,3.4,1.3,5.5,1.3c1.7,0,3.3-0.4,4.8-1.1c1.5-0.7,2.8-1.8,3.8-3.1
		c1.1-1.3,1.9-2.8,2.5-4.6c0.6-1.8,0.9-3.7,0.9-5.8c0-2-0.3-3.9-1-5.7c-0.7-1.8-1.6-3.3-2.7-4.6c-1.2-1.3-2.5-2.3-4.1-3.1
		c-1.6-0.7-3.3-1.1-5.2-1.1c-2.1,0-4,0.5-5.5,1.3c-1.5,0.9-2.8,2.1-3.9,3.7v-4.5h-7.4v39.3h8.5V34.3z M202.7,21.4
		c0.6-1.2,1.4-2.1,2.5-2.8c1.1-0.7,2.2-1,3.4-1c1,0,1.9,0.2,2.7,0.5c0.8,0.4,1.5,0.8,2.1,1.5c0.6,0.6,1,1.4,1.4,2.3
		c0.3,0.9,0.5,1.8,0.5,2.8c0,1-0.2,1.9-0.5,2.8c-0.3,0.9-0.7,1.7-1.3,2.4c-0.6,0.7-1.2,1.2-2,1.6c-0.8,0.4-1.6,0.6-2.5,0.6
		c-1.3,0-2.5-0.5-3.7-1.4c-1.2-1-2-2.1-2.6-3.6V21.4z"></path>
	<path class="letters" d="M237.3,22.1c0.7-1.3,1.9-2.2,3.6-2.9c1.7-0.6,3.5-1,5.6-1v-7.7c-0.2,0-0.4-0.1-0.5-0.1h-0.9
		c-1.7,0-3.3,0.6-4.8,1.7c-1.5,1.1-2.7,2.5-3.7,4.4v-5.6h-7.8v27.9h8.5V22.1z"></path>
	<path class="letters" d="M251.3,36.8c0.8,0.8,1.9,1.4,3.1,1.9c1.2,0.4,2.5,0.7,3.9,0.7c1.9,0,3.7-0.4,5.4-1.3c1.7-0.9,3.2-2.1,4.4-3.7
		l0.2,1.3c0.2,1.1,0.7,2,1.5,2.6c0.8,0.6,2,0.9,3.6,0.9c0.5,0,1,0,1.7-0.1c0.6-0.1,1.3-0.2,2-0.4v-7.2c-0.7-0.1-1.1-0.3-1.4-0.6
		c-0.3-0.3-0.4-0.9-0.4-1.8v-7.2c0-3.8-1.2-6.7-3.5-8.7c-2.3-2-5.6-3-9.8-3c-2.2,0-4.4,0.3-6.3,0.9c-2,0.6-3.9,1.5-5.7,2.7l2.5,5.3
		c1.5-1,3-1.8,4.4-2.3c1.4-0.5,2.8-0.8,4.4-0.8c3.7,0,5.6,1.6,5.6,4.8v1.3c-0.8-0.4-1.8-0.7-2.9-0.9c-1.1-0.2-2.2-0.3-3.4-0.3
		c-1.8,0-3.4,0.2-4.8,0.7c-1.5,0.5-2.7,1.1-3.8,1.9c-1.1,0.8-1.9,1.8-2.5,2.9c-0.6,1.1-0.9,2.4-0.9,3.8c0,1.3,0.2,2.5,0.7,3.5
		C249.8,35.1,250.5,36,251.3,36.8z M258.1,27c1-0.7,2.3-1.1,3.9-1.1c0.7,0,1.5,0.1,2.4,0.2c0.9,0.2,1.7,0.4,2.4,0.7v2.7
		c0,0.7-0.4,1.4-1.2,2c-0.6,0.5-1.3,1-2.2,1.3c-0.9,0.3-1.8,0.5-2.7,0.5c-1.2,0-2.2-0.3-3-1c-0.8-0.7-1.2-1.5-1.2-2.5
		C256.6,28.6,257.1,27.7,258.1,27z"></path>
	<polygon class="letters" points="419.7,10.9 410.6,10.9 401.2,22.5 401.2,0 392.7,0 392.7,38.8 401.2,38.8 401.2,30.7 404.2,27.6 
		411.5,38.8 420.5,38.8 409.6,22.9"></polygon>
	<rect x="423.8" y="10.9" class="letters" width="8.5" height="27.9"></rect>
	<path class="letters" d="M186.6,14.8c-1.3-1.3-2.8-2.4-4.7-3.2c-1.8-0.8-3.9-1.2-6.3-1.2c-2.4,0-4.5,0.4-6.4,1.2
		c-1.9,0.8-3.4,1.9-4.7,3.2c-1.3,1.3-2.2,2.9-2.9,4.6c-0.6,1.8-1,3.6-1,5.5c0,1.9,0.3,3.7,1,5.5c0.7,1.8,1.6,3.3,2.9,4.6
		c1.3,1.3,2.8,2.4,4.7,3.2c1.9,0.8,4,1.2,6.4,1.2c2.4,0,4.5-0.4,6.4-1.2c1.9-0.8,3.4-1.8,4.7-3.2c1.3-1.3,2.2-2.9,2.9-4.6
		c0.7-1.8,1-3.6,1-5.5c0-1.9-0.3-3.8-1-5.5C188.8,17.6,187.9,16.1,186.6,14.8z M181.3,27.8c-0.3,0.9-0.8,1.7-1.3,2.3
		c-0.6,0.6-1.2,1.1-1.9,1.5c-0.7,0.4-1.6,0.5-2.4,0.5c-1.8,0-3.3-0.7-4.5-2c-1.2-1.3-1.8-3.1-1.8-5.3c0-1.1,0.2-2,0.5-3
		c0.3-0.9,0.7-1.7,1.3-2.3c0.6-0.6,1.2-1.1,2-1.5c0.8-0.4,1.6-0.5,2.5-0.5c1.8,0,3.2,0.7,4.4,2c1.2,1.3,1.8,3.1,1.8,5.3
		C181.7,26,181.6,26.9,181.3,27.8z"></path>
	<path class="letters" d="M490.2,10.9v4.6c-1-1.6-2.2-2.8-3.8-3.8c-1.6-0.9-3.4-1.4-5.6-1.4c-1.9,0-3.7,0.4-5.3,1.1
		c-1.6,0.7-3,1.8-4.1,3.1c-1.1,1.3-2,2.8-2.7,4.6c-0.6,1.8-1,3.7-1,5.7c0,1.9,0.3,3.8,0.9,5.5c0.6,1.7,1.4,3.2,2.5,4.5
		c1.1,1.3,2.4,2.3,3.9,3c1.5,0.7,3.2,1.1,5.1,1.1c1.8,0,3.6-0.4,5.2-1.2c1.6-0.8,2.8-2,3.7-3.5v2.7c0,1.3-0.2,2.4-0.6,3.4
		c-0.4,0.9-1,1.7-1.7,2.3c-0.7,0.6-1.5,1-2.5,1.3c-0.9,0.3-1.9,0.4-2.9,0.4c-1.7,0-3.4-0.3-4.9-1c-1.5-0.7-2.8-1.6-3.8-2.8l-4.6,4.6
		c1.6,1.8,3.5,3.2,5.6,4.1c2.1,1,4.7,1.4,7.7,1.4c2.4,0,4.6-0.3,6.5-1c2-0.6,3.7-1.5,5.1-2.7c1.4-1.2,2.5-2.6,3.3-4.3
		c0.8-1.7,1.2-3.6,1.2-5.7v-26H490.2z M489.1,28.3c-0.6,1.1-1.4,2.1-2.4,2.8c-1,0.7-2.2,1.1-3.5,1.1c-1,0-1.8-0.2-2.6-0.5
		c-0.8-0.3-1.5-0.8-2.1-1.5c-0.6-0.6-1.1-1.4-1.4-2.3c-0.3-0.9-0.5-1.8-0.5-2.8c0-1,0.1-1.9,0.4-2.8c0.3-0.9,0.7-1.7,1.3-2.4
		c0.6-0.7,1.2-1.2,2-1.6c0.8-0.4,1.6-0.6,2.5-0.6c1.3,0,2.6,0.4,3.7,1.3c1.2,0.9,2,2,2.6,3.5V28.3z"></path>
	<rect x="423.9" class="letters" width="8.5" height="7.7"></rect>
	<path class="letters" d="M357.8,71.8c-1.3-1.3-2.8-2.4-4.7-3.2c-1.8-0.8-3.9-1.2-6.3-1.2c-2.4,0-4.5,0.4-6.4,1.2
		c-1.9,0.8-3.4,1.8-4.7,3.2c-1.3,1.3-2.3,2.9-2.9,4.7c-0.7,1.8-1,3.7-1,5.7c0,1.9,0.3,3.7,1,5.4c0.7,1.7,1.7,3.2,2.9,4.5
		c1.3,1.3,2.9,2.4,4.7,3.1c1.9,0.8,4,1.1,6.3,1.1c3.2,0,6-0.7,8.3-2.1c2.3-1.4,4-3.2,5.1-5.4l-7.2-2c-0.4,1-1.2,1.8-2.3,2.5
		c-1.2,0.6-2.3,0.9-3.6,0.9c-1.6,0-3-0.5-4.2-1.5c-1.2-1-1.9-2.4-2-4.3h20.6c0.1-0.4,0.1-0.8,0.2-1.3c0-0.5,0.1-1,0.1-1.5
		c0-1.9-0.3-3.7-1-5.5C360,74.7,359,73.1,357.8,71.8z M340.6,79.4c0.2-1.7,0.8-3.1,1.9-4.2c1.1-1,2.5-1.6,4.1-1.6
		c1.6,0,3,0.5,4.1,1.5c1.1,1,1.7,2.4,1.9,4.2H340.6z"></path>
	<path class="letters" d="M463.1,13.9c-0.6-1.1-1.5-1.9-2.6-2.6c-1.1-0.6-2.6-1-4.4-1c-2.5,0-4.6,0.5-6.5,1.4c-1.9,0.9-3.3,2.2-4.4,3.9
		v-4.7h-7.7v27.9h8.5v-16c0.2-0.7,0.6-1.4,1-2c0.4-0.6,0.9-1.1,1.5-1.6c0.6-0.4,1.2-0.8,1.8-1c0.6-0.2,1.2-0.4,1.8-0.4
		c1.1,0,2,0.4,2.7,1.3c0.7,0.8,1,2.2,1,4v15.7h8.5V21c0-1.2-0.1-2.4-0.3-3.6C464.1,16.1,463.7,15,463.1,13.9z"></path>
	<path class="letters" d="M330.2,36.8c0.9,0.8,1.9,1.4,3.1,1.9c1.2,0.4,2.5,0.7,3.9,0.7c1.9,0,3.7-0.4,5.5-1.3c1.7-0.9,3.2-2.1,4.4-3.7
		l0.2,1.3c0.2,1.1,0.7,2,1.5,2.6c0.8,0.6,2,0.9,3.6,0.9c0.5,0,1.1,0,1.7-0.1c0.6-0.1,1.3-0.2,2-0.4v-7.2c-0.7-0.1-1.1-0.3-1.4-0.6
		c-0.3-0.3-0.4-0.9-0.4-1.8v-7.2c0-3.8-1.2-6.7-3.5-8.7c-2.3-2-5.6-3-9.8-3c-2.2,0-4.3,0.3-6.3,0.9c-2,0.6-3.9,1.5-5.7,2.7l2.5,5.3
		c1.5-1,3-1.8,4.4-2.3c1.4-0.5,2.8-0.8,4.4-0.8c3.7,0,5.6,1.6,5.6,4.8v1.3c-0.8-0.4-1.8-0.7-2.9-0.9c-1.1-0.2-2.2-0.3-3.4-0.3
		c-1.8,0-3.4,0.2-4.8,0.7c-1.5,0.5-2.7,1.1-3.8,1.9c-1.1,0.8-1.9,1.8-2.5,2.9c-0.6,1.1-0.9,2.4-0.9,3.8c0,1.3,0.2,2.5,0.7,3.5
		C328.7,35.1,329.4,36,330.2,36.8z M337,27c1-0.7,2.3-1.1,3.9-1.1c0.7,0,1.5,0.1,2.4,0.2c0.9,0.2,1.7,0.4,2.4,0.7v2.7
		c0,0.7-0.4,1.4-1.2,2c-0.6,0.5-1.3,1-2.1,1.3c-0.9,0.3-1.8,0.5-2.7,0.5c-1.2,0-2.2-0.3-3-1c-0.8-0.7-1.2-1.5-1.2-2.5
		C335.5,28.6,336,27.7,337,27z"></path>
	<path class="letters" d="M385.9,13.9c-0.6-1.1-1.4-1.9-2.6-2.6c-1.1-0.6-2.6-1-4.4-1c-2.4,0-4.6,0.5-6.5,1.4c-1.9,0.9-3.3,2.2-4.4,3.9
		v-4.7h-7.7v27.9h8.5v-16c0.2-0.7,0.6-1.4,1-2c0.4-0.6,0.9-1.1,1.5-1.6c0.6-0.4,1.2-0.8,1.8-1c0.6-0.2,1.2-0.4,1.8-0.4
		c1.1,0,2,0.4,2.7,1.3c0.7,0.8,1,2.2,1,4v15.7h8.5V21c0-1.2-0.1-2.4-0.3-3.6C387,16.1,386.6,15,385.9,13.9z"></path>
	<path class="letters" d="M227.3,89.3c-0.7,0-1.3-0.2-1.8-0.6c-0.5-0.4-0.7-1.1-0.7-2V76.4h5.8l-0.2-6.6h-5.6v-8.2h-8.4v8.2h-11.4v-3
		c0-2.3,0.7-3.9,3.2-3.9c1.2,0,3.3,0.7,3.7,0.8l1.4-6c-2-0.8-5.1-1.6-6.9-1.6c-1.5,0-2.8,0.3-4,0.8c-1.2,0.5-2.2,1.3-3.1,2.3
		c-0.9,1-1.5,2.2-2,3.6c-0.5,1.4-0.7,3.4-0.7,5.1v1.9h-4l0.2,6.6h3.8v20.2h8.4V76.4h11.4v13.3c0,3.6,1.7,7.4,7.9,7.4
		c3.1,0,7.1-1.9,8.4-2.8l-1.4-5.6C230.7,89,228.7,89.3,227.3,89.3z"></path>
	<path class="letters" d="M329.1,67.6c-1.7,0-3.3,0.6-4.8,1.7c-1.5,1.1-2.7,2.5-3.7,4.4V68h-7.8v27.9h8.5V79.2c0.7-1.3,1.9-2.2,3.6-2.9
		c1.7-0.6,3.5-1,5.6-1v-7.7c-0.2,0-0.3-0.1-0.5-0.1H329.1z"></path>
	<path class="letters" d="M306,86.4v-7.2c0-3.8-1.2-6.7-3.5-8.7c-2.3-2-5.6-3-9.8-3c-2.2,0-4.3,0.3-6.3,0.9c-2,0.6-3.9,1.5-5.7,2.7
		l2.5,5.3c1.5-1,3-1.8,4.4-2.3c1.4-0.5,2.8-0.8,4.4-0.8c3.7,0,5.6,1.6,5.6,4.8v1.3c-0.8-0.4-1.8-0.7-2.9-0.9
		c-1.1-0.2-2.2-0.3-3.4-0.3c-1.8,0-3.4,0.2-4.8,0.7s-2.7,1.1-3.8,1.9c-1.1,0.8-1.9,1.8-2.5,2.9c-0.6,1.1-0.9,2.4-0.9,3.8
		c0,1.3,0.3,2.5,0.7,3.5c0.5,1.1,1.2,2,2,2.8c0.9,0.8,1.9,1.4,3.1,1.9c1.2,0.4,2.5,0.7,3.9,0.7c1.9,0,3.7-0.4,5.5-1.3
		c1.7-0.9,3.2-2.1,4.4-3.7l0.2,1.3c0.2,1.1,0.7,2,1.5,2.6c0.8,0.6,2,0.9,3.6,0.9c0.5,0,1,0,1.6-0.1c0.6-0.1,1.3-0.2,2-0.4v-7.2
		c-0.7-0.1-1.1-0.3-1.4-0.6C306.1,87.8,306,87.2,306,86.4z M297.4,86.6c0,0.7-0.4,1.4-1.2,2c-0.6,0.5-1.3,1-2.1,1.3
		c-0.9,0.3-1.8,0.5-2.7,0.5c-1.2,0-2.2-0.3-3-1c-0.8-0.7-1.2-1.5-1.2-2.5c0-1.1,0.5-2.1,1.5-2.8c1-0.7,2.3-1.1,3.9-1.1
		c0.7,0,1.6,0.1,2.4,0.2c0.9,0.2,1.7,0.4,2.4,0.7V86.6z"></path>
	<path class="letters" d="M156.4,22.7c-0.3-0.6-0.7-1.2-1.3-1.8c-0.6-0.6-1.1-1.1-1.6-1.4c-0.5-0.4-1.1-0.8-1.9-1.2
		c-0.8-0.4-1.4-0.8-1.9-1c-0.5-0.2-1.1-0.5-2-0.9c-0.8-0.4-1.8-0.8-2.9-1.3c-1.1-0.5-2.1-1.1-2.9-1.8c-0.8-0.6-1.3-1.4-1.3-2.4
		c0-1,0.3-1.7,0.8-2.1c0.6-0.4,1.5-0.6,2.6-0.6c2.8,0,6.4,0.4,10.6,1.2l0.2,0l1.4-7.2L156.1,2c-2.2-0.6-4.2-1-6-1.3
		c-1.8-0.3-3.5-0.4-5.1-0.4c-4.2,0-7.6,1-9.9,3c-2.3,2-3.5,4.7-3.5,8c0,3.3,1.3,6,3.7,7.9c1,0.8,2.5,1.7,4.7,2.7
		c2.1,1,3.6,1.7,4.4,2.1c0.4,0.2,0.8,0.4,1.4,0.7c0.5,0.3,0.9,0.5,1.2,0.7c0.3,0.2,0.6,0.5,1,0.9c0.4,0.4,0.6,0.9,0.6,1.6
		c0,1.6-0.3,2.6-1,3c-0.7,0.4-1.5,0.7-2.5,0.7c-3.6,0-7.6-0.9-11.9-2.6l-0.2-0.1l-0.1,0.3c-0.9,3-1.5,4.9-1.7,5.5
		c-0.2,0.5-0.3,0.8-0.4,1.1l-0.1,0.2l1.9,0.9c1.2,0.6,2.9,1.1,5,1.7c2.2,0.6,4.3,0.8,6.3,0.8c4,0,7.3-1.1,9.8-3.2
		c2.5-2.2,3.8-5,3.8-8.5C157.6,25.9,157.2,24.2,156.4,22.7z"></path>
	<path class="letters" d="M186.6,72.4c-1.3-1.3-2.8-2.4-4.7-3.2c-1.8-0.8-3.9-1.2-6.3-1.2c-2.4,0-4.5,0.4-6.4,1.2
		c-1.9,0.8-3.4,1.9-4.7,3.2c-1.3,1.3-2.2,2.9-2.9,4.6c-0.6,1.8-1,3.6-1,5.5c0,1.9,0.3,3.7,1,5.5c0.7,1.8,1.6,3.3,2.9,4.6
		c1.3,1.3,2.8,2.4,4.7,3.2c1.9,0.8,4,1.2,6.4,1.2c2.4,0,4.5-0.4,6.4-1.2c1.9-0.8,3.4-1.8,4.7-3.2s2.2-2.9,2.9-4.6
		c0.7-1.8,1-3.6,1-5.5c0-1.9-0.3-3.8-1-5.5C188.8,75.3,187.9,73.8,186.6,72.4z M181.3,85.5c-0.3,0.9-0.8,1.7-1.3,2.3
		c-0.6,0.6-1.2,1.1-1.9,1.5c-0.7,0.4-1.6,0.5-2.4,0.5c-1.8,0-3.3-0.7-4.5-2c-1.2-1.3-1.8-3.1-1.8-5.3c0-1.1,0.2-2,0.5-3
		c0.3-0.9,0.7-1.7,1.3-2.3c0.6-0.6,1.2-1.1,2-1.5c0.8-0.4,1.6-0.5,2.5-0.5c1.8,0,3.2,0.7,4.4,2c1.2,1.3,1.8,3.1,1.8,5.3
		C181.7,83.6,181.6,84.6,181.3,85.5z"></path>
	<path class="letters" d="M156.4,80.4c-0.3-0.6-0.7-1.2-1.3-1.8c-0.6-0.6-1.1-1.1-1.6-1.4c-0.5-0.4-1.1-0.8-1.9-1.2
		c-0.8-0.4-1.4-0.8-1.9-1c-0.5-0.2-1.1-0.5-2-0.9c-0.8-0.4-1.8-0.8-2.9-1.3c-1.1-0.5-2.1-1.1-2.9-1.8c-0.8-0.6-1.3-1.4-1.3-2.4
		c0-1,0.3-1.7,0.8-2.1c0.6-0.4,1.5-0.6,2.6-0.6c2.8,0,6.4,0.4,10.6,1.2l0.2,0l1.4-7.2l-0.2-0.1c-2.2-0.6-4.2-1-6-1.3
		c-1.8-0.3-3.5-0.4-5.1-0.4c-4.2,0-7.6,1-9.9,3c-2.3,2-3.5,4.7-3.5,8c0,3.3,1.3,6,3.7,7.9c1,0.8,2.5,1.7,4.7,2.7
		c2.1,1,3.6,1.7,4.4,2.1c0.4,0.2,0.8,0.4,1.4,0.7c0.5,0.3,0.9,0.5,1.2,0.7c0.3,0.2,0.6,0.5,1,0.9c0.4,0.4,0.6,0.9,0.6,1.6
		c0,1.6-0.3,2.6-1,3c-0.7,0.4-1.5,0.7-2.5,0.7c-3.6,0-7.6-0.9-11.9-2.6l-0.2-0.1l-0.1,0.3c-0.9,3-1.5,4.9-1.7,5.5
		c-0.2,0.5-0.3,0.8-0.4,1.1l-0.1,0.2l1.9,0.9c1.2,0.6,2.9,1.1,5,1.7c2.2,0.6,4.3,0.8,6.3,0.8c4,0,7.3-1.1,9.8-3.2
		c2.5-2.2,3.8-5,3.8-8.5C157.6,83.6,157.2,81.9,156.4,80.4z"></path>
	<polygon class="letters" points="263.6,88.2 261,80.6 265.5,69.1 258.8,69.1 256.4,76.5 254,69.1 247.3,69.1 251.8,80.6 249.2,88.2 
		241.6,68.1 233.6,68.1 245.1,96 252.1,96 256.4,84.5 260.7,96 267.7,96 279.2,68.1 271.1,68.1"></polygon>
	<path class="letters" d="M323.7,27.4c0-3.8-1.8-6.5-5.5-8V19c1.3-0.6,2.3-1.5,3.2-2.8c0.9-1.3,1.3-2.9,1.3-4.8c0-2.7-0.6-4.8-1.9-6.5
		c-0.1-0.1-0.2-0.2-0.2-0.3c-0.2-0.2-0.3-0.4-0.5-0.6c-0.2-0.2-0.4-0.4-0.6-0.6c0,0-0.1,0-0.1-0.1c-2.2-1.8-5.4-2.7-9.8-2.7
		c-3.7,0-8.5,0.2-14.1,0.6l0.3,20l-0.3,17.5c5.9,0.6,10.7,0.9,14.5,0.8c3.7,0,6.9-0.9,9.4-2.5c0.6-0.4,1.1-0.8,1.5-1.3
		C322.7,33.9,323.7,31.1,323.7,27.4z M314.7,27.6c0,1.9-0.3,3.2-0.9,4c-0.6,0.8-1.8,1.2-3.5,1.2c-1.7,0-4.2-0.1-6.4-0.3l-0.1-9.8
		h5.6c1.8,0,3.1,0.4,4,1.1C314.2,24.5,314.7,25.7,314.7,27.6z M313,15.2c-0.6,0.7-1.7,1-3.2,1h-6.1V7.6l5.7-0.2c1.6,0,2.8,0.3,3.5,1
		c0.7,0.7,1,1.8,1,3.4C313.8,13.4,313.5,14.6,313,15.2z"></path>
</g>
<g class="SBS_Reduced">
	<g data-target="shape" class="st8">
		<path class="letters" d="M207.2,18.4c13.5,0,20.3,5.7,20.3,17c0,3.1-0.7,5.7-2,7.8c-1.4,2-3,3.6-4.9,4.5v0.5c5.7,2.4,8.5,6.7,8.5,12.9
			c0,7.4-2.2,12.7-6.7,15.7c-3.9,2.6-8.8,3.8-14.5,3.8c-5.7,0-13.2-0.5-22.3-1.6l0.4-27.5l-0.4-31.8
			C194.2,18.8,201.4,18.4,207.2,18.4z M198.9,43.1h8.6c2.4,0,4-0.5,4.9-1.6c0.9-1.1,1.4-2.9,1.4-5.5c0-2.6-0.5-4.4-1.6-5.5
			c-1.1-1.1-2.8-1.6-5.3-1.6l-8,0.3V43.1z M199.1,69.3c3.4,0.3,6.5,0.5,9.1,0.5c2.7,0,4.5-0.7,5.5-2c1-1.3,1.4-3.5,1.4-6.4
			s-0.7-5-2.1-6.2c-1.4-1.1-3.5-1.7-6.2-1.7H199L199.1,69.3z"></path>
		<path class="letters" d="M172.7,53.4c-0.5-1-1.2-2-2.2-3c-0.9-0.9-1.8-1.7-2.5-2.3c-0.7-0.6-1.8-1.3-3.1-2c-1.3-0.7-2.3-1.2-3-1.6
			c-0.7-0.4-1.8-0.9-3.2-1.5c-1.4-0.6-2.9-1.3-4.7-2.1c-1.7-0.8-3.3-1.8-4.7-2.9c-1.4-1-2-2.3-2-3.9c0-1.6,0.4-2.7,1.4-3.3
			c1-0.7,2.3-1,4.1-1c4.6,0,10.3,0.7,17.1,2l0.4,0.1l2.3-11.7l-0.4-0.1c-3.5-1-6.7-1.7-9.7-2.1c-3-0.5-5.7-0.7-8.2-0.7
			c-6.8,0-12.2,1.6-15.9,4.8c-3.7,3.2-5.6,7.6-5.6,12.9c0,5.3,2,9.6,6,12.8c1.6,1.3,4.1,2.7,7.5,4.4c3.4,1.6,5.8,2.7,7.1,3.4
			c0.6,0.3,1.4,0.7,2.2,1.1c0.8,0.4,1.5,0.8,1.9,1.2c0.4,0.4,1,0.8,1.7,1.5c0.6,0.6,0.9,1.4,0.9,2.6c0,2.5-0.5,4.1-1.6,4.8
			c-1.1,0.7-2.5,1.1-4.1,1.1c-5.8,0-12.2-1.4-19.1-4.2l-0.4-0.2l-0.1,0.4c-1.5,4.9-2.4,7.8-2.7,8.8c-0.3,0.7-0.5,1.4-0.6,1.8
			l-0.1,0.3l3.1,1.4c1.9,0.9,4.6,1.8,8.1,2.7c3.5,0.9,6.9,1.3,10.2,1.3c6.4,0,11.7-1.8,15.7-5.2c4-3.5,6.1-8.1,6.1-13.7
			C174.5,58.6,173.9,55.9,172.7,53.4z"></path>
		<path class="letters" d="M276.4,53.4c-0.5-1-1.2-2-2.2-3c-0.9-0.9-1.8-1.7-2.5-2.3c-0.7-0.6-1.8-1.3-3.1-2c-1.3-0.7-2.3-1.2-3-1.6
			c-0.7-0.4-1.8-0.9-3.2-1.5c-1.4-0.6-2.9-1.3-4.7-2.1c-1.7-0.8-3.3-1.8-4.7-2.9c-1.4-1-2-2.3-2-3.9c0-1.6,0.4-2.7,1.4-3.3
			c1-0.7,2.3-1,4.1-1c4.6,0,10.3,0.7,17.1,2l0.4,0.1l2.3-11.7l-0.4-0.1c-3.5-1-6.7-1.7-9.7-2.1c-3-0.5-5.7-0.7-8.2-0.7
			c-6.8,0-12.2,1.6-15.9,4.8c-3.7,3.2-5.6,7.6-5.6,12.9c0,5.3,2,9.6,6,12.8c1.6,1.3,4.1,2.7,7.5,4.4c3.4,1.6,5.8,2.7,7.1,3.4
			c0.6,0.3,1.4,0.7,2.2,1.1c0.8,0.4,1.5,0.8,1.9,1.2c0.4,0.4,1,0.8,1.7,1.5c0.6,0.6,0.9,1.4,0.9,2.6c0,2.5-0.5,4.1-1.6,4.8
			c-1.1,0.7-2.5,1.1-4.1,1.1c-5.8,0-12.2-1.4-19.1-4.2l-0.4-0.2l-0.1,0.4c-1.5,4.9-2.4,7.8-2.7,8.8c-0.3,0.7-0.5,1.4-0.6,1.8
			l-0.1,0.3l3.1,1.4c1.9,0.9,4.6,1.8,8.1,2.7c3.5,0.9,6.9,1.3,10.2,1.3c6.4,0,11.7-1.8,15.7-5.2c4-3.5,6.1-8.1,6.1-13.7
			C278.2,58.6,277.6,55.9,276.4,53.4z"></path>
	</g>
</g>
</svg>