<svg xmlns="http://www.w3.org/2000/svg" viewBox="0 0 386 121.9"><path d="M127.4 35.6c1.1-.1 2.8-.1 3.8-.1 3.6 0 4.8 1.4 4.2 5.7-.7 4.9-2.1 5.6-5.6 5.6-1.1 0-2.6-.1-3.9-.1l1.5-11.1zm.7 9.5h1.6c2.3 0 3-.5 3.5-4 .5-3.3 0-3.9-2.1-3.9h-1.9l-1.1 7.9zm13.5-7.8c-.6 0-.9.2-1 1l-.3 1.9h4.5l-.2 1.5h-4.5l-.4 2.5c-.1.7.1.9.8.9h4.2v1.5c-1.4.1-3.1.1-4.6.1-1.9 0-2.6-1-2.4-2.5l.9-6.5c.2-1.3 1-2 2.6-2 1.7 0 3.5 0 4.9.1l-.3 1.5h-4.2zm.2-3.3l3.3-2.4.8 1.4-3.6 1.8-.5-.8zm11 12.1c-.1.3-.4.5-.7.5h-1.9c-.4 0-.6-.3-.7-.6l-1.7-10.4h2.1l1.1 8.3c0 .4.1.8.1 1.2h.4c.1-.4.3-.9.5-1.3l3.4-8.2h2.1l-4.7 10.5zm9.5-8.8c-.6 0-.9.2-1 1l-.3 1.9h4.5l-.2 1.5h-4.5l-.4 2.5c-.1.7.1.9.8.9h4.2v1.5c-1.4.1-3.1.1-4.6.1-1.9 0-2.6-1-2.4-2.5l.9-6.5c.2-1.3 1-2 2.6-2 1.7 0 3.5 0 4.9.1l-.3 1.5h-4.2zm8.2 6.8c-.1.6.1.9.8.9h3.9v1.6c-1.4.1-2.9.1-4.4.1-1.5 0-2.5-.8-2.2-2.5l1.2-8.5h2l-1.3 8.4zm16-2.9c-.6 4.3-2 5.6-5.2 5.6s-4.5-1.4-3.9-5.8c.6-4.2 1.9-5.6 5.3-5.6 3.1 0 4.4 1.5 3.8 5.8zm-7 0c-.4 3 0 3.9 1.9 3.9s2.6-.9 3.1-4.1c.5-3.1 0-3.9-1.8-3.9-2.1 0-2.7.9-3.2 4.1zm10.7-5.6c1.3-.1 2.1-.1 3.9-.1 2.8 0 3.8 1 3.4 3.6-.4 2.9-1.4 3.5-4.1 3.5-.7 0-1.5 0-2.2-.1l-.6 4.2h-2l1.6-11.1zm3.1 5.3c1.5 0 2-.4 2.2-2 .2-1.5-.2-1.8-1.5-1.8h-2l-.5 3.8h1.8zm7.3-5.3c1.3-.1 2.1-.1 3.9-.1 2.8 0 3.8 1 3.4 3.6-.4 2.9-1.4 3.5-4.1 3.5-.7 0-1.5 0-2.2-.1l-.6 4.2h-2l1.6-11.1zm3.2 5.3c1.5 0 2-.4 2.2-2 .2-1.5-.2-1.8-1.5-1.8h-2.1l-.5 3.8h1.9zm9.8-3.6c-.6 0-.9.2-1 1l-.3 1.9h4.5l-.2 1.5h-4.5l-.4 2.5c-.1.7.1.9.8.9h4.2v1.5c-1.4.1-3.1.1-4.6.1-1.9 0-2.6-1-2.4-2.5l.9-6.5c.2-1.3 1-2 2.6-2 1.7 0 3.5 0 4.9.1l-.3 1.5h-4.2zm7.4-1.7c1.3-.1 2.3-.1 4-.1 2.4 0 3.8.8 3.5 3.3-.2 1.5-.9 2.5-2.5 2.7v.1c.6.2 1.1.6 1.3 1.6l.7 3.4h-2.1l-.6-3.4c-.1-.7-.4-1-1.1-1h-2.1l-.6 4.4h-2l1.5-11zm3.3 5c1.4 0 2-.4 2.2-1.8.2-1.2-.2-1.6-1.5-1.6h-2.1l-.5 3.5h1.9zM1.1 60.5c-.1.7.2 1.1 1 1.1h4.2v.8c-1.4.1-2.9.1-4.4.1-1.2 0-2-.7-1.8-2.1l1.3-8.9h1.1l-1.4 9zm9.2-1.6l-1.7 3.6H7.5l5.2-10.7c.1-.2.2-.3.4-.3h1.2c.2 0 .4.1.4.3L17 62.5h-1.1l-.7-3.6h-4.9zm3.8-5.6c0-.3-.1-.6-.1-.9h-.5c-.1.3-.3.6-.4.9L10.8 58H15l-.9-4.7zm13.8-.1c-.8 0-1 .2-1.1 1l-.3 2.1h4.4l-.2 1.5h-4.4l-.7 4.8h-2l1.3-8.9c.2-1.4 1.1-2.1 2.6-2.1 1.6 0 3.4 0 4.8.2l-.3 1.5h-4.1zm14.7 3.9c-.6 4.3-2 5.6-5.2 5.6s-4.5-1.4-3.9-5.8c.6-4.2 1.9-5.6 5.3-5.6 3.1 0 4.4 1.5 3.8 5.8zm-7 0c-.4 3 0 3.9 1.9 3.9s2.6-.9 3.1-4.1c.5-3.1 0-3.9-1.8-3.9-2.1 0-2.8.9-3.2 4.1zm10.7-5.6c1.3-.1 2.3-.1 4-.1 2.4 0 3.8.8 3.5 3.3-.2 1.5-.9 2.5-2.5 2.7v.1c.6.2 1.1.6 1.3 1.6l.7 3.4h-2.1l-.6-3.4c-.1-.7-.4-1-1.1-1h-2.1l-.6 4.4h-2l1.5-11zm3.2 5c1.4 0 2-.4 2.2-1.8.2-1.2-.2-1.6-1.5-1.6h-2.1l-.5 3.5h1.9zm18.6-5c.5 0 .8.3.7.8l-1 10.2h-2l1-9.4h-.3l-3 7.3c-.2.4-.4.6-.9.6h-1.5c-.5 0-.7-.3-.8-.7l-1-7.3H59l-1.6 9.4h-2l1.9-10.2c.1-.5.3-.7.8-.7h2c.4 0 .7.3.7.7l.8 6c.1.5.1 1 .1 1.5h.3c.2-.6.4-1 .5-1.5l2.4-6.1c.2-.4.4-.6.9-.6h2.3zm5.1 7.9l-1.3 3.1h-2.1L74.6 52c.1-.3.4-.5.7-.5h2c.3 0 .6.3.6.6l1.9 10.4h-2l-.5-3.1h-4.1zm3.3-5.4c0-.3-.1-.7-.1-1H76c-.1.3-.3.7-.4 1L74 57.7h3.2l-.7-3.7zm10.3-.8l-1.3 9.3h-2l1.3-9.3h-3.4l.2-1.7h8.8l-.2 1.7h-3.4zm4.4 9.3l1.6-11h2l-1.6 11h-2zm14.9-5.4c-.6 4.3-2 5.6-5.2 5.6s-4.5-1.4-3.9-5.8c.6-4.2 1.9-5.6 5.3-5.6 3.1 0 4.4 1.5 3.8 5.8zm-7.1 0c-.4 3 0 3.9 1.9 3.9s2.6-.9 3.1-4.1c.5-3.1 0-3.9-1.8-3.9-2 0-2.7.9-3.2 4.1zm18.3 4.7c-.1.5-.3.7-.8.7H115c-.4 0-.6-.2-.8-.6l-2.3-6.7c-.2-.4-.4-1.1-.5-1.6h-.2c0 .5-.1 1.1-.1 1.6l-1 7.4h-2l1.5-10.3c.1-.5.3-.7.8-.7h1.5c.4 0 .6.2.8.6l2.3 6.5c.2.5.4 1.1.5 1.7h.2c0-.6.1-1.1.1-1.7l1-7.2h2l-1.5 10.3zm12.9-8.6l-1.3 9.3h-2l1.3-9.3h-3.4l.2-1.7h8.8l-.2 1.7h-3.4zm6-1.7c1.3-.1 2.3-.1 4-.1 2.4 0 3.8.8 3.5 3.3-.2 1.5-.9 2.5-2.5 2.7v.1c.6.2 1.1.6 1.3 1.6l.7 3.4H141l-.6-3.4c-.1-.7-.4-1-1.1-1h-2.1l-.6 4.4h-2l1.6-11zm3.3 5c1.4 0 2-.4 2.2-1.8.2-1.2-.2-1.6-1.5-1.6h-2.1l-.5 3.5h1.9zm8.5 2.9l-1.3 3.1h-2.1l4.8-10.5c.1-.3.4-.5.7-.5h2c.3 0 .6.3.6.6l1.9 10.4h-2l-.5-3.1H148zm3.3-5.4c0-.3-.1-.7-.1-1h-.5c-.1.3-.3.7-.4 1l-1.6 3.7h3.2l-.6-3.7zm14.5 7.8c-.1.5-.3.7-.8.7h-1.5c-.4 0-.6-.2-.8-.6l-2.3-6.7c-.2-.4-.4-1.1-.5-1.6h-.2c0 .5-.1 1.1-.1 1.6l-1 7.4h-2l1.5-10.3c.1-.5.3-.7.8-.7h1.5c.4 0 .6.2.8.6l2.3 6.5c.2.5.4 1.1.5 1.7h.2c0-.6.1-1.1.1-1.7l1-7.2h2l-1.5 10.3zm5.7-4.4c-1.6-.6-2.1-1.6-1.8-3.2.4-2.5 1.7-2.9 4.1-2.9 1.1 0 2.4.1 3.5.4l-.2 1.4c-1 0-2.1-.1-3.3-.1-1.4 0-1.9 0-2.1 1.3-.1 1 .1 1.1 1 1.4l2.1.7c1.7.6 2.1 1.5 1.9 3.2-.3 2.5-1.4 3-4.3 3-.7 0-2.1 0-3.6-.4l.2-1.4c2.1 0 2.8.1 3.3.1 1.7 0 2.2-.2 2.3-1.4.1-1-.1-1.1-.9-1.4l-2.2-.7zm9-5.9c1.3-.1 2.1-.1 3.9-.1 2.8 0 3.8 1 3.4 3.6-.4 2.9-1.4 3.5-4.1 3.5-.7 0-1.5 0-2.2-.1l-.6 4.2h-2l1.6-11.1zm3.2 5.3c1.5 0 2-.4 2.2-2 .2-1.5-.2-1.8-1.5-1.8h-2.1l-.5 3.8h1.9zm15.3.3c-.6 4.3-2 5.6-5.2 5.6s-4.5-1.4-3.9-5.8c.6-4.2 1.9-5.6 5.3-5.6 3 0 4.4 1.5 3.8 5.8zm-7.1 0c-.4 3 0 3.9 1.9 3.9s2.6-.9 3.1-4.1c.5-3.1 0-3.9-1.8-3.9-2.1 0-2.7.9-3.2 4.1zm10.7-5.6c1.3-.1 2.3-.1 4-.1 2.4 0 3.8.8 3.5 3.3-.2 1.5-.9 2.5-2.5 2.7v.1c.6.2 1.1.6 1.3 1.6l.7 3.4h-2.1l-.6-3.4c-.1-.7-.4-1-1.1-1h-2.1l-.6 4.4h-2l1.5-11zm3.3 5c1.4 0 2-.4 2.2-1.8.2-1.2-.2-1.6-1.5-1.6h-2.1l-.5 3.5h1.9zm11.7-3.3l-1.3 9.3h-2l1.3-9.3h-3.4l.2-1.7h8.8l-.2 1.7h-3.4zM94.7 68.3c-.8 0-1.2.4-1.3 1.2l-.4 2.7h5l-.1.8h-5l-.5 3.4c-.1.7.2 1.1 1 1.1h4.5v.8c-1.5.1-3.1.1-4.6.1-1.4 0-2.1-.8-1.9-2l1-7.2c.1-1.1.9-1.8 2.2-1.8 1.6 0 3.3 0 4.8.1l-.1.8h-4.6zm11.3.1l-1.4 10.1h-1.1l1.4-10.1h-3.7l.1-.9h8.5l-.1.9H106zm11.1 7.5c-.1.6.1.9.8.9h3.9v1.6c-1.4.1-2.9.1-4.4.1-1.5 0-2.5-.8-2.2-2.5l1.2-8.5h2l-1.3 8.4zm16-2.9c-.6 4.3-2 5.6-5.2 5.6s-4.5-1.4-3.9-5.8c.6-4.2 1.9-5.6 5.3-5.6 3.1 0 4.4 1.5 3.8 5.8zm-7 0c-.4 3 0 3.9 1.9 3.9s2.6-.9 3.1-4.1c.5-3.1 0-3.9-1.8-3.9-2.1 0-2.7.9-3.2 4.1zm18-.9l-.9 6.4h-1.5v-1.4c-.8 1-1.9 1.6-3.4 1.6-2.2 0-3.2-1.7-2.7-5.8.6-4.7 2.4-5.6 5.5-5.6 1 0 2.2.1 3.3.4l-.3 1.5c-1-.1-2.1-.1-2.8-.1-2.3 0-3.1.6-3.6 4-.3 2.9 0 3.9 1.4 3.9 1 0 1.7-.5 2.6-1.4l.5-3.5h1.9zm2.1 6.3l1.6-11h2l-1.6 11h-2zm7.9-5.1c-1.6-.6-2.1-1.6-1.8-3.2.4-2.5 1.7-2.9 4.1-2.9 1.1 0 2.4.1 3.5.4l-.2 1.4c-1 0-2.1-.1-3.3-.1-1.4 0-1.9 0-2.1 1.3-.1 1 .1 1.1 1 1.4l2.1.7c1.7.6 2.1 1.5 1.9 3.2-.3 2.5-1.4 3-4.3 3-.7 0-2.1 0-3.6-.4l.2-1.4c2.1 0 2.8.1 3.3.1 1.7 0 2.2-.2 2.3-1.4.1-1-.1-1.1-.9-1.4l-2.2-.7zm13.2-4.1l-1.3 9.3h-2l1.3-9.3h-3.4l.2-1.7h8.8l-.2 1.7h-3.4zm4.4 9.2l1.6-11h2l-1.6 11h-2zm14.9-5.4c-.6 4.3-2 5.6-5.2 5.6s-4.5-1.4-3.9-5.8c.6-4.2 1.9-5.6 5.3-5.6 3.1 0 4.4 1.5 3.8 5.8zm-7 0c-.4 3 0 3.9 1.9 3.9s2.6-.9 3.1-4.1c.5-3.1 0-3.9-1.8-3.9-2.1 0-2.8.9-3.2 4.1zm.8 6.1c1.3.6 2.8.9 4.5 1.2l-.8 1.9c-1.8-.5-3.3-1.2-4.4-2l.7-1.1zm17.3-4.9c-.5 3.3-1.8 4.5-4.7 4.5-2.9 0-4.3-1.3-3.8-4.6l.9-6.6h2l-1 6.7c-.3 2.1.1 2.8 1.7 2.8 1.7 0 2.4-.7 2.7-2.8l.9-6.6h2l-.7 6.6zm6.7-5.1c-.6 0-.9.2-1 1l-.3 1.9h4.5l-.2 1.5H203l-.4 2.5c-.1.7.1.9.8.9h4.2v1.5c-1.4.1-3.1.1-4.6.1-1.9 0-2.6-1-2.4-2.5l.9-6.5c.2-1.3 1-2 2.6-2 1.7 0 3.5 0 4.9.1l-.3 1.5h-4.3z" fill="#1E1950"/><linearGradient id="a" gradientUnits="userSpaceOnUse" x1="231.867" y1="51.713" x2="386.028" y2="51.713"><stop offset="0" stop-color="#00aeef"/><stop offset=".135" stop-color="#02a8e9"/><stop offset=".317" stop-color="#0697d8"/><stop offset=".526" stop-color="#0e7bbc"/><stop offset=".754" stop-color="#185495"/><stop offset=".996" stop-color="#262363"/><stop offset="1" stop-color="#262262"/></linearGradient><path fill="url(#a)" d="M282.2 49.8c.1-.4.3-.9.4-1.1 0-.1.1-.4.1-.4.1-.2.3-1.1-.2-1.8-.2-.3-.6-.7-1.2-.9-.7-.3-1.9-.3-3.1.1-.6.2-1.6.6-3.1 1.9-1.1 1-4.7 4.9-6.1 6.4-1.9 2.1-3.8 4-3.8 4.1h14.1c0-.1 1.8-5.3 2.9-8.3z"/><linearGradient id="b" gradientUnits="userSpaceOnUse" x1="231.883" y1="60.926" x2="386.013" y2="60.926"><stop offset="0" stop-color="#00a0f0"/><stop offset=".125" stop-color="#019bea"/><stop offset=".293" stop-color="#048cd9"/><stop offset=".485" stop-color="#0a75bd"/><stop offset=".696" stop-color="#115496"/><stop offset=".919" stop-color="#1a2a64"/><stop offset="1" stop-color="#1e1950"/></linearGradient><path fill="url(#b)" d="M358.6 77h-8.2s7.9-27.1 9.2-31.8h-8.5c-5.8-.3-6.2-3.5-5.1-6.2h40c-.7-29.3-31.6-45-70.9-37.1-38.9 7.8-73.1 36.7-81.3 65.6-.3 1-.5 1.9-.7 2.9 5.8-.1 11.6-2.2 14.7-5.1 4.3-4.3 13.3-13.3 20.3-20.2 2.6-2.5 6.7-6.3 13.9-6.3 4.2 0 6.3 1.3 7.3 2.7 1.2 1.7 1.1 4.6.5 6.6-.8 2.7-2.6 8.8-2.9 9.7h15c-.6 1.4-1.5 6.2-6.6 6.2h-10.4c-1.9 5.9-4.1 12.1-4.4 12.8h-7.8l4.5-12.8h-18.3c-1.4 1.4-3.1 3.3-3.1 3.3-5.9 6.3-12.9 9.6-23.8 9.9-1.8 24.4 16.7 43.4 48.9 44.4 42.6 1.3 92-28.9 103.1-67.6.9-3.1 1.5-6 1.8-8.9h-17.9c-1.1 3.8-9.3 31.9-9.3 31.9zm-17.8-31.7h-7.4c-11 0-15.9-.3-17.9 5.9 0 0-1.3 4.6-1.7 6.1h21.7l-.6 2.1c-.5 1.2-1.3 4-4.9 4.1h-18l-.6 1.9c-1.7 6.2-3.2 11.6-3.2 11.6h-8.3s1.5-5.1 3.3-11.6l1.6-5.5c.5-1.7 2.2-7.5 2.7-9.2 2.8-9.2 7.7-11.6 20.1-11.6h15.2l-2 6.2z"/><path fill="#FFF" d="M307.5 50.8c-.5 1.7-2.2 7.5-2.7 9.2l-1.6 5.5c-1.9 6.5-3.3 11.6-3.3 11.6h8.3s1.5-5.4 3.2-11.6l.6-1.9h18c3.6 0 4.4-2.9 4.9-4.1l.6-2.1h-21.7c.4-1.5 1.7-6.1 1.7-6.1 2-6.2 7-5.9 17.9-5.9h7.4l2-6.2h-15.2c-12.3 0-17.3 2.4-20.1 11.6zM386 39.1h-40c-1.1 2.7-.7 5.9 5.1 6.2h8.5c-1.3 4.7-9.2 31.8-9.2 31.8h8.2s8.2-28.1 9.3-31.7h17.9l.2-6.3zM232 77.5c10.9-.3 18-3.6 23.8-9.9 0 0 1.7-1.9 3.1-3.3h18.3L272.7 77h7.8c.2-.7 2.4-6.9 4.4-12.8h10.4c5.2 0 6-4.8 6.6-6.2h-15c.3-.9 2.1-7 2.9-9.7.6-1.9.7-4.9-.5-6.6-1-1.5-3.2-2.7-7.3-2.7-7.2 0-11.3 3.7-13.9 6.3-6.9 6.8-16 15.9-20.3 20.2-3.1 2.9-8.9 5-14.7 5.1l-1.1 6.9zM268.9 54c1.5-1.5 5-5.4 6.1-6.4 1.5-1.3 2.5-1.7 3.1-1.9 1.2-.4 2.3-.4 3.1-.1.6.2 1 .5 1.2.9.5.7.2 1.6.2 1.8 0 0-.1.3-.1.4-.1.3-.2.7-.4 1.1-1.1 3-2.9 8.2-2.9 8.2h-14.1c.1 0 1.9-2 3.8-4z"/></svg>