<?xml version="1.0" encoding="UTF-8"?>
<svg width="155px" height="95px" viewBox="0 0 155 95" version="1.1" xmlns="http://www.w3.org/2000/svg" xmlns:xlink="http://www.w3.org/1999/xlink">
    <title>Group 2</title>
    <g id="Page-1" stroke="none" stroke-width="1" fill="none" fill-rule="evenodd">
        <g id="fayat-maintenance-single-image-with-logo" transform="translate(0.000000, -16.000000)" fill-rule="nonzero">
            <g id="Group-2" transform="translate(0.000000, 16.070000)">
                <polygon id="Path" fill="#0054A1" points="9.02 66.08 31.39 66.08 31.39 58.16 0 58.16 0 94.04 9.02 94.04 9.02 81.18 21.58 81.18 21.58 72.99 9.02 72.99 9.02 66.08"></polygon>
                <path d="M48.52,78.51 L38.68,78.51 L43.68,68.14 L48.51,78.51 L48.52,78.51 Z M39.93,58.16 L22.07,94.05 L31.34,94.05 L34.81,86.63 L52.37,86.63 L55.96,94.05 L66.07,94.05 L47.94,58.16 L39.93,58.16 Z" id="Shape" fill="#0054A1"></path>
                <polygon id="Path" fill="#0054A1" points="63.97 58.16 76.43 70.54 88.84 58.16 100.14 58.16 80.95 78.17 80.95 94.04 71.87 94.04 71.87 78.17 52.72 58.16 63.97 58.16"></polygon>
                <path d="M114.58,78.51 L104.74,78.51 L109.74,68.14 L114.57,78.51 L114.58,78.51 Z M105.99,58.16 L88.07,94.05 L97.34,94.05 L100.81,86.63 L118.42,86.63 L122.01,94.05 L132.14,94.05 L114,58.16 L105.99,58.16 Z" id="Shape" fill="#0054A1"></path>
                <polygon id="Path" fill="#0054A1" points="124.87 58.16 124.87 66.22 135.77 66.22 135.77 94.04 144.79 94.04 144.79 66.22 154.91 66.22 154.91 58.16 124.87 58.16"></polygon>
                <polygon id="Path" fill="#FFD800" points="104.36 27.91 76.45 3.55271368e-15 69.87 6.57 91.37 28.07 80.13 39.31 86.56 45.74 104.36 27.91"></polygon>
                <polygon id="Path" fill="#FFD800" points="83.89 28.11 76.41 20.63 68.93 28.11 76.41 35.59 83.89 28.11"></polygon>
                <polygon id="Path" fill="#FFD800" points="82.96 49.31 61.54 27.89 72.61 16.83 66.12 10.34 48.51 27.94 76.42 55.85 82.96 49.31"></polygon>
            </g>
        </g>
    </g>
</svg>