<?xml version="1.0" encoding="utf-8"?>
<!-- Generator: Adobe Illustrator 16.0.0, SVG Export Plug-In . SVG Version: 6.00 Build 0)  -->
<!DOCTYPE svg PUBLIC "-//W3C//DTD SVG 1.1//EN" "http://www.w3.org/Graphics/SVG/1.1/DTD/svg11.dtd">
<svg version="1.1" id="Calque_1" xmlns="http://www.w3.org/2000/svg" xmlns:xlink="http://www.w3.org/1999/xlink" x="0px" y="0px"
	 width="42px" height="32px" viewBox="0 0 42 32" enable-background="new 0 0 42 32" xml:space="preserve">
<path fill="#8B9594" d="M17.053,28.174h-1.474V11.633h1.199c0.232,0,0.422-0.183,0.422-0.42V8.61c0-0.236-0.182-0.423-0.418-0.423
	h-5.166c-0.229,0-0.419,0.183-0.419,0.419v22.679c0,0.242,0.194,0.419,0.43,0.419h4.059c0.414,0,0.552-0.056,0.757-0.482
	l1.045-2.488C17.589,28.475,17.397,28.174,17.053,28.174"/>
<path fill="#8B9594" d="M35.272,11.632h1.475v16.54h-1.199c-0.232,0-0.423,0.183-0.423,0.42v2.689c0,0.237,0.184,0.424,0.42,0.424
	h5.165c0.229,0,0.418-0.184,0.418-0.42V8.607c0-0.244-0.193-0.42-0.43-0.42h-4.058c-0.414,0-0.552,0.056-0.757,0.483l-1.046,2.402
	C34.736,11.33,34.929,11.632,35.272,11.632"/>
<polygon fill="#8B9594" points="31.152,14.711 31.152,14.711 31.151,14.712 "/>
<path fill="#8B9594" d="M30.081,19.046c-0.995-0.659-2.087-1.035-3.052-1.365c-1.422-0.491-2.548-0.877-2.548-1.932
	c0-1.348,1.367-1.549,2.182-1.549c1.821,0,3.274,0.601,3.821,0.828l0.259,0.087c0.131,0,0.338-0.227,0.409-0.404l0.809-1.931
	c0.1-0.2,0.187-0.383,0.187-0.511c0-1.02-3.723-1.864-5.625-1.864c-3.688,0-6.364,2.469-6.364,5.871c0,2.203,1.161,3.441,2.136,4.09
	c0.883,0.589,1.937,0.962,2.868,1.29c1.523,0.538,2.838,1.003,2.838,2.182c0,1.462-1.402,1.62-2.006,1.62
	c-1.707,0-3.73-0.96-4.595-1.37c-0.329-0.155-0.379-0.177-0.436-0.177c-0.25,0-0.349,0.252-0.409,0.403
	c0,0.001-0.774,2.006-0.774,2.006c-0.006,0.017-0.083,0.204-0.083,0.204c-0.051,0.11-0.101,0.214-0.101,0.304
	c0,1.101,4.146,2.425,6.75,2.425c3.68,0,6.152-2.331,6.152-5.802C32.499,21.596,31.686,20.114,30.081,19.046"/>
<path fill="#8B9594" d="M13.614,5.986c1.553,0,2.831-1.277,2.831-2.862c0-1.588-1.277-2.831-2.831-2.831
	c-1.586,0-2.863,1.243-2.863,2.831C10.751,4.709,12.028,5.986,13.614,5.986"/>
<path fill="#8B9594" d="M38.438,5.986c1.587,0,2.865-1.277,2.865-2.862c0-1.588-1.278-2.831-2.865-2.831
	c-1.553,0-2.83,1.243-2.83,2.831C35.608,4.709,36.886,5.986,38.438,5.986"/>
<path fill="#8B9594" d="M8.183,28.172H6.398c-1.006-0.015-1.286-0.241-1.311-1.313C5.098,18.348,5.079,1.425,5.079,1.425
	c0-0.587-0.222-0.623-0.563-0.623c-0.067,0-0.378,0.001-0.481,0.001L1.352,0.808c-0.44,0-0.656,0.104-0.656,0.622v24.75
	c0,3.155,0.538,5.527,4.369,5.527L6.817,31.7c0.414,0,0.55-0.056,0.757-0.483l1.044-2.501C8.669,28.516,8.588,28.198,8.183,28.172"
	/>
</svg>
