<?xml version="1.0" encoding="utf-8"?>
<!-- Generator: Adobe Illustrator 13.0.1, SVG Export Plug-In  -->
<!DOCTYPE svg PUBLIC "-//W3C//DTD SVG 1.1//EN" "http://www.w3.org/Graphics/SVG/1.1/DTD/svg11.dtd" [
	<!ENTITY ns_flows "http://ns.adobe.com/Flows/1.0/">
]>
<svg version="1.1"
	 xmlns="http://www.w3.org/2000/svg" xmlns:xlink="http://www.w3.org/1999/xlink" xmlns:a="http://ns.adobe.com/AdobeSVGViewerExtensions/3.0/"
	 x="0px" y="0px" width="117px" height="15px" viewBox="-0.127 -0.446 117 15" enable-background="new -0.127 -0.446 117 15"
	 xml:space="preserve">
<defs>
</defs>
<path fill="#171F69" d="M0,0.417c6.7-0.601,16-0.101,16-0.101v2.45H9.7v10.55H6.6V2.766H0.1L0,0.417"/>
<path fill="#3CC2D2" d="M52.215,9.516c0,1.105-0.895,2-2,2s-2-0.895-2-2c0-1.104,0.895-2,2-2S52.215,8.413,52.215,9.516"/>
<polyline fill="#171F69" points="33.314,0.216 33.314,5.516 24.8,5.516 24.8,0.216 21.6,0.417 21.6,13.472 24.8,13.616 24.8,7.917 
	33.314,7.917 33.314,13.616 36.516,13.472 36.516,0.417 33.314,0.216 "/>
<polyline fill="#171F69" points="41.4,13.316 48.8,0.417 51.9,0.417 59.4,13.316 55.9,13.616 50.4,3.516 50.1,3.516 44.5,13.516 
	41.4,13.316 "/>
<path fill="#171F69" d="M64.1,13.316v-12.8H67v10.5h10.2v2.3C77.2,13.316,70.5,14.716,64.1,13.316"/>
<path fill="#171F69" d="M82.2,13.417v-13c0,0,9.2-1,13.899,0.1v2.4l-10.625,0.1v2.6H91.6v2.5h-6.125v3H96.3v2.4
	C96.3,13.516,88.3,14.616,82.2,13.417"/>
<path fill="#171F69" d="M115.9,0.316v2.601H104.3v2.6c0,0,8.2,0,9.5,0s2.3,1.1,2.3,2.2c0,1.1,0,2.8,0,3.399
	c0,2.2-2.3,2.801-4.399,2.801c-3.2,0-8.5-0.101-10.3-0.4v-2.4H113.3V8.216c0,0-7.5,0-8.899,0c-1.4,0-2.9-0.8-2.9-1.8s0-2.601,0-3.9
	s1.8-2.2,3.2-2.2C106.1,0.316,115.9,0.316,115.9,0.316"/>
</svg>
