<svg width="668" height="198" viewBox="0 0 668 198" xmlns="http://www.w3.org/2000/svg"><g id="logo-axiocode" stroke="none" stroke-width="1" fill="none" fill-rule="evenodd"><g id="Page-1" transform="translate(18 17)"><path d="M215.192 71.09v-5.54H196.47c-8.63 0-14.604 3.562-14.604 11.212 0 6.858 4.78 11.21 15.135 11.21 9.295 0 18.19-5.671 18.19-16.882m-31.068-24.267c-1.328 1.45-2.257 1.846-3.453 1.846-2.123 0-3.85-1.715-3.85-3.824 0-.924.266-1.583.664-2.243 3.717-5.804 10.888-10.42 22.04-10.42 15.401 0 23.898 8.969 23.898 22.422v36.27c0 2.242-1.858 4.09-4.115 4.09s-4.116-1.848-4.116-4.09v-4.748c-3.32 6.199-11.02 9.496-18.986 9.496-14.073 0-22.97-6.726-22.97-18.86 0-11.607 8.897-18.597 23.235-18.597h18.72v-3.561c0-8.969-5.974-14.507-15.665-14.507-7.038 0-11.287 2.11-15.402 6.726" id="Fill-1" fill="#3C3B3B"/><path d="M258.073 69.903l-16.597 23.345c-.796 1.187-2.257 1.715-3.451 1.715-2.39 0-4.249-1.847-4.249-4.22 0-.925.266-1.847.797-2.507l18.189-24.928L235.103 39.7c-.398-.659-.796-1.318-.796-2.506 0-2.373 1.858-4.22 4.249-4.22 1.46 0 2.655.66 3.452 1.716l16.065 21.892 16.066-21.892a4.22 4.22 0 013.45-1.716c2.391 0 4.25 1.847 4.25 4.22 0 1.188-.399 1.847-.797 2.506l-17.658 23.608 18.19 24.928c.53.66.795 1.582.795 2.506 0 2.374-1.858 4.22-4.248 4.22-1.195 0-2.655-.527-3.452-1.714l-16.596-23.345z" id="Fill-2" fill="#3C3B3B"/><path d="M302.414 90.742c0 2.375-1.86 4.22-4.249 4.22-2.39 0-4.248-1.845-4.248-4.22V37.194c0-2.373 1.858-4.22 4.248-4.22s4.249 1.847 4.249 4.22v53.548zm-9.294-75.177c0-3.824 1.86-5.276 5.045-5.276 3.186 0 5.046 1.452 5.046 5.276 0 3.165-1.86 5.012-5.046 5.012s-5.045-1.847-5.045-5.012z" id="Fill-3" fill="#3C3B3B"/><path d="M362.821 63.836c0-16.618-7.035-24.004-19.251-24.004-12.216 0-19.251 7.386-19.251 24.004 0 16.882 7.035 24.136 19.251 24.136 12.216 0 19.251-7.254 19.251-24.136m8.63 0c0 21.63-10.621 31.786-27.881 31.786-17.128 0-27.882-10.156-27.882-31.786 0-21.63 10.754-31.653 27.882-31.653 17.26 0 27.882 10.023 27.882 31.653" id="Fill-4" fill="#3C3B3B"/><path d="M408.091 32.183c11.817 0 18.323 6.198 20.446 9.1.664.922.93 1.581.93 2.506 0 2.243-1.727 3.825-3.85 3.825-1.328 0-2.257-.528-3.188-1.582-1.99-2.243-5.575-6.2-14.338-6.2-12.214 0-18.72 7.782-18.72 24.005 0 16.485 6.506 24.135 18.72 24.135 7.7 0 12.348-3.43 15.4-5.67.931-.66 1.595-.925 2.524-.925 2.124 0 3.85 1.716 3.85 3.827 0 1.186-.398 2.11-1.726 3.296-2.92 2.373-9.295 7.123-20.048 7.123-17.127 0-27.35-10.157-27.35-31.786 0-21.632 10.223-31.654 27.35-31.654" id="Fill-5" fill="#D10A10"/><path d="M486.42 63.836c0-16.618-7.035-24.004-19.25-24.004-12.216 0-19.252 7.386-19.252 24.004 0 16.882 7.036 24.136 19.252 24.136 12.215 0 19.25-7.254 19.25-24.136m8.631 0c0 21.63-10.622 31.786-27.881 31.786-17.128 0-27.882-10.156-27.882-31.786 0-21.63 10.754-31.653 27.882-31.653 17.26 0 27.881 10.023 27.881 31.653" id="Fill-6" fill="#D10A10"/><path d="M549.083 51.439s-5.045-11.607-17.525-11.607c-12.081 0-18.72 7.782-18.72 24.004 0 16.486 6.504 24.136 18.72 24.136 10.222 0 17.525-5.802 17.525-18.332V51.439zm0-10.683V4.222c0-2.375 1.86-4.222 4.248-4.222 2.39 0 4.249 1.847 4.249 4.222V69.64c0 17.41-10.888 25.983-26.022 25.983-17.128 0-27.218-10.157-27.218-31.787s9.559-31.653 26.687-31.653c8.498 0 15.002 4.351 18.056 8.573z" id="Fill-7" fill="#D10A10"/><path d="M598.205 39.832c-11.551 0-17.924 7.386-18.721 19.125h35.715c0-9.498-3.32-19.125-16.994-19.125m0-7.65c21.243 0 25.359 16.75 25.359 25.72 0 3.825 0 8.44-5.311 8.44h-38.77c0 13.058 7.569 21.499 20.05 21.499 7.7 0 12.214-2.903 15.932-5.671.795-.528 1.327-.792 2.389-.792 2.125 0 3.85 1.714 3.85 3.825 0 1.45-.664 2.241-1.46 3.034-1.991 1.978-8.896 7.385-20.711 7.385-17.659 0-28.679-9.628-28.679-31.786 0-20.311 10.09-31.653 27.35-31.653" id="Fill-8" fill="#D10A10"/><g id="picto-rouge-blanc" transform="translate(0 18)"><path d="M70.361.69C31.503.69 0 31.985 0 70.587c0 38.602 31.503 69.896 70.361 69.896 38.86 0 70.361-31.294 70.361-69.896 0-38.602-31.501-69.895-70.36-69.895z" id="Fill-27-Copy" fill="#FFF"/><path d="M115.623 73.667L83.524 98.858c-.627.469-1.34.693-2.188.693-2.022 0-3.667-1.634-3.667-3.642 0-1.21.515-2.235 1.49-2.96l29.121-22.364-29.127-22.367c-.969-.72-1.484-1.745-1.484-2.954 0-2.009 1.645-3.642 3.667-3.642.848 0 1.56.223 2.177.682l32.133 25.217c1.14.81 1.707 1.817 1.707 3.064 0 1.248-.566 2.255-1.73 3.082zM61.571 92.954c.967.72 1.482 1.744 1.482 2.955 0 2.008-1.645 3.642-3.665 3.642-.85 0-1.561-.224-2.178-.685L25.077 73.65c-1.141-.81-1.706-1.817-1.706-3.065 0-1.247.565-2.254 1.73-3.081l32.097-25.191c.63-.468 1.342-.691 2.19-.691 2.02 0 3.665 1.633 3.665 3.642 0 1.21-.515 2.234-1.49 2.96l-29.12 22.36 29.128 22.37zM70.36.691C31.503.69 0 31.984 0 70.586s31.503 69.896 70.361 69.896c38.86 0 70.361-31.294 70.361-69.896 0-38.602-31.501-69.895-70.36-69.895z" id="Fill-27" fill="#D10A10"/></g></g><path d="M211.482 150.262c0 6.232-3.98 10.738-12.436 10.738h-5.822v-21.623h5.091c3.92 0 6.203.468 8.251 1.697 3.219 1.902 4.916 5.12 4.916 9.188zm-2.195-.088c0-3.219-1.433-5.94-3.92-7.432-1.639-.995-3.687-1.405-6.964-1.405h-3.014v17.703h3.014c3.833 0 6.057-.556 7.783-1.932 1.99-1.609 3.101-4.096 3.101-6.934zM226.814 161h-11.82v-21.623h11.82v1.96h-9.656v7.754h9.334v1.96h-9.334v7.989h9.656V161zm-1.492-26.041l-5.647 3.335-.995-1.638 5.647-3.394.995 1.697zm23.379 4.418L239.747 161h-2.107l-8.895-21.623h2.37l7.608 18.931 7.637-18.931h2.34zM263.038 161h-11.82v-21.623h11.82v1.96h-9.656v7.754h9.334v1.96h-9.334v7.989h9.656V161zm14.981 0H266.9v-21.623h2.166v19.663h8.953V161zm24.315-10.797c0 6.115-5.15 11.177-11.411 11.177-6.35 0-11.44-5.032-11.44-11.323 0-5.999 5.237-11.06 11.44-11.06 6.262 0 11.411 5.032 11.411 11.206zm-2.194.03c0-5.063-4.184-9.247-9.217-9.247-5.004 0-9.246 4.184-9.246 9.13 0 5.12 4.155 9.275 9.246 9.275 5.033 0 9.217-4.155 9.217-9.159zm20.014-4.302c0 4.097-2.107 6.32-7.988 6.32h-4.155V161h-2.166v-21.623h5.97c5.94 0 8.339 2.019 8.339 6.554zm-2.195 0c0-4.389-2.75-4.594-6.876-4.594h-3.072v8.954h4.008c4.302 0 5.94-1.23 5.94-4.36zm19.517 0c0 4.097-2.107 6.32-7.988 6.32h-4.155V161h-2.166v-21.623h5.97c5.94 0 8.339 2.019 8.339 6.554zm-2.195 0c0-4.389-2.75-4.594-6.876-4.594h-3.072v8.954h4.008c4.301 0 5.94-1.23 5.94-4.36zM352.311 161h-11.822v-21.623h11.821v1.96h-9.655v7.754h9.334v1.96h-9.334v7.989h9.655V161zm26.304 0h-2.165v-19.253L368.316 161h-1.873l-8.105-19.253V161h-2.165v-21.623h3.365l7.87 18.404 7.842-18.404h3.365V161zm16.269 0h-11.821v-21.623h11.82v1.96h-9.655v7.754h9.334v1.96h-9.334v7.989h9.656V161zm21.067 0h-2.165l-12.875-19.019V161h-2.165v-21.623h2.926l12.114 17.936v-17.936h2.165V161zm14.484-19.663h-4.945V161h-2.166v-19.663h-4.945v-1.96h12.056v1.96zm36.106-1.96L460.338 161h-2.78l-4.798-17.732L448.02 161h-2.81l-6.173-21.623h2.224l5.325 18.814 5.18-18.814h2.047l5.18 18.814 5.325-18.814h2.223zM480.88 161h-11.821v-21.623h11.82v1.96h-9.655v7.754h9.334v1.96h-9.334v7.989h9.656V161zm17.556-6.203c0 4.272-2.341 6.203-8.34 6.203h-5.354v-21.623h5.062c5.267 0 7.403 1.902 7.403 5.618 0 2.136-.732 3.54-2.4 4.477 2.517 1.024 3.629 2.691 3.629 5.325zm-2.195.117c0-4.038-2.926-4.272-6.759-4.272h-2.575v8.398h2.956c4.418 0 6.378-.995 6.378-4.126zm-1.229-9.89c0-2.633-1.14-3.687-5.5-3.687h-2.605v7.345h2.634c4.067 0 5.471-.937 5.471-3.658zm33.913 14.864l-1.493 1.492-5.003-4.857c-1.697 3.394-3.658 4.857-6.525 4.857-3.95 0-6.818-2.955-6.818-6.612 0-2.897 1.58-4.682 4.975-6.438-1.814-1.901-2.4-3.043-2.4-4.535 0-2.692 2.283-4.799 5.12-4.799 2.985 0 5.21 2.107 5.21 4.945 0 2.341-.966 3.365-4.214 5.033l4.096 4.038 3.16-6.086h2.4l-3.98 7.637 5.472 5.325zm-8.105-4.916l-5.209-5.09c-3.189 1.55-4.389 2.954-4.389 5.12 0 2.458 2.02 4.418 4.536 4.418 2.077 0 3.482-1.229 5.062-4.448zm-.878-11.206c0-1.58-1.346-2.81-3.102-2.81-1.697 0-3.013 1.23-3.013 2.78 0 1.112.673 2.137 2.37 3.687 2.604-.994 3.745-2.136 3.745-3.657zM562.339 161h-2.166v-19.253L552.04 161h-1.873l-8.105-19.253V161h-2.165v-21.623h3.365l7.871 18.404 7.842-18.404h3.365V161zm26.363-10.797c0 6.115-5.15 11.177-11.412 11.177-6.349 0-11.44-5.032-11.44-11.323 0-5.999 5.237-11.06 11.44-11.06 6.262 0 11.412 5.032 11.412 11.206zm-2.195.03c0-5.063-4.184-9.247-9.217-9.247-5.003 0-9.246 4.184-9.246 9.13 0 5.12 4.155 9.275 9.246 9.275 5.033 0 9.217-4.155 9.217-9.159zm19.4 4.564c0 4.272-2.341 6.203-8.34 6.203h-5.354v-21.623h5.062c5.267 0 7.403 1.902 7.403 5.618 0 2.136-.732 3.54-2.4 4.477 2.517 1.024 3.629 2.691 3.629 5.325zm-2.195.117c0-4.038-2.926-4.272-6.759-4.272h-2.575v8.398h2.956c4.418 0 6.378-.995 6.378-4.126zm-1.229-9.89c0-2.633-1.14-3.687-5.5-3.687h-2.605v7.345h2.634c4.067 0 5.471-.937 5.471-3.658zm8.69 15.976h-2.165v-21.623h2.166V161zm15.567 0h-11.12v-21.623h2.165v19.663h8.954V161zm14.22 0h-11.82v-21.623h11.82v1.96h-9.656v7.754h9.334v1.96h-9.334v7.989h9.656V161z" id="DÉVELOPPEMENTWEB&amp;MOBILE" fill="#878787" fill-rule="nonzero"/></g></svg>