<?xml version="1.0" encoding="UTF-8" standalone="no"?>
<!-- Created with Inkscape (http://www.inkscape.org/) -->

<svg
   xmlns:dc="http://purl.org/dc/elements/1.1/"
   xmlns:cc="http://creativecommons.org/ns#"
   xmlns:rdf="http://www.w3.org/1999/02/22-rdf-syntax-ns#"
   xmlns:svg="http://www.w3.org/2000/svg"
   xmlns="http://www.w3.org/2000/svg"
   xmlns:sodipodi="http://sodipodi.sourceforge.net/DTD/sodipodi-0.dtd"
   xmlns:inkscape="http://www.inkscape.org/namespaces/inkscape"
   version="1.0"
   width="56"
   height="24"
   id="svg2"
   xml:space="preserve"
   inkscape:version="0.48.4 r9939"
   sodipodi:docname="Électricité_de_France.svg"><title
     id="title3016">Électricité de France logo</title><metadata
     id="metadata39"><rdf:RDF><cc:Work
         rdf:about=""><dc:format>image/svg+xml</dc:format><dc:type
           rdf:resource="http://purl.org/dc/dcmitype/StillImage" /><dc:title>Électricité de France logo</dc:title></cc:Work></rdf:RDF></metadata><sodipodi:namedview
     pagecolor="#ffffff"
     bordercolor="#666666"
     borderopacity="1"
     objecttolerance="10"
     gridtolerance="10"
     guidetolerance="10"
     inkscape:pageopacity="0"
     inkscape:pageshadow="2"
     inkscape:window-width="1600"
     inkscape:window-height="844"
     id="namedview37"
     showgrid="false"
     inkscape:showpageshadow="false"
     inkscape:zoom="1"
     inkscape:cx="25.276918"
     inkscape:cy="12.255"
     inkscape:window-x="-4"
     inkscape:window-y="-4"
     inkscape:window-maximized="1"
     inkscape:current-layer="svg2" /><defs
     id="defs5"><clipPath
       id="clipPath17"><path
         d="m 503.938,1692.324 639.762,0 0,511.293 -639.762,0 0,-511.293 z"
         id="path19"
         inkscape:connector-curvature="0" /></clipPath><clipPath
       id="clipPath31"><path
         d="m 503.938,1565.723 639.762,0 0,127.727 -639.762,0 0,-127.727 z"
         id="path33"
         inkscape:connector-curvature="0" /></clipPath><clipPath
       id="clipPath45"><path
         d="m 0,819.09 446.539,0 0,412.211 -446.539,0 0,-412.211 z"
         id="path47"
         inkscape:connector-curvature="0" /></clipPath><clipPath
       id="clipPath59"><path
         d="m 445.668,819.09 447.027,0 0,412.211 -447.027,0 0,-412.211 z"
         id="path61"
         inkscape:connector-curvature="0" /></clipPath><clipPath
       id="clipPath73"><path
         d="m 891.824,681.98 297.734,0 0,549.32 -297.734,0 0,-549.32 z"
         id="path75"
         inkscape:connector-curvature="0" /></clipPath><clipPath
       id="clipPath87"><path
         d="m 0,407.316 446.539,0 0,412.645 -446.539,0 0,-412.645 z"
         id="path89"
         inkscape:connector-curvature="0" /></clipPath><clipPath
       id="clipPath101"><path
         d="m 445.668,819.961 0,-412.645 447.027,0 0,412.645 -447.027,0 z"
         id="path103"
         inkscape:connector-curvature="0" /></clipPath><clipPath
       id="clipPath115"><path
         d="m 891.824,132.66 297.734,0 0,550.191 -297.734,0 0,-550.191 z"
         id="path117"
         inkscape:connector-curvature="0" /></clipPath><clipPath
       id="clipPath129"><path
         d="m 0,0 446.539,0 0,408.188 L 0,408.188 0,0 z"
         id="path131"
         inkscape:connector-curvature="0" /></clipPath><clipPath
       id="clipPath143"><path
         d="m 445.668,0 447.027,0 0,408.188 -447.027,0 0,-408.188 z"
         id="path145"
         inkscape:connector-curvature="0" /></clipPath><clipPath
       id="clipPath157"><path
         d="m 891.824,0 297.734,0 0,133.523 -297.734,0 0,-133.523 z"
         id="path159"
         inkscape:connector-curvature="0" /></clipPath><clipPath
       id="clipPath171"><path
         d="m 503.938,1529.336 -468.504,0 0,688.184 468.504,0 0,-13.903 -272.852,0 0,-637.894 272.852,0 0,-36.387"
         id="path173"
         inkscape:connector-curvature="0" /></clipPath><clipPath
       id="clipPath185"><path
         d="m 503.938,1565.723 -272.852,0 0,637.894 272.852,0 0,-637.894"
         id="path187"
         inkscape:connector-curvature="0" /></clipPath><clipPath
       id="clipPath223"><path
         d="m 1017.52,168.895 0,-97.036 212.476,0 0,97.036 -212.476,0"
         id="path225"
         inkscape:connector-curvature="0" /></clipPath></defs><g
     transform="matrix(1.25,0,0,-1.25,-309.64161,48.164875)"
     id="g11"><path
       d="m 256.35267,25.547001 c -0.15192,-0.160324 -0.56545,-0.219365 -0.68162,-0.403209 -0.17712,-0.277447 -0.58417,-0.909381 -0.90194,-1.210348 -1.02554,-0.973942 -3.22135,-1.463314 -4.30425,-0.533292 -0.071,-0.0048 -0.03,-0.04608 0.0554,-0.312247 0.0787,-0.503532 0.48457,-1.685799 0.33456,-1.987486 0.0977,-0.335768 0.19897,-0.212885 0.38353,-0.399369 0.12577,-0.125763 0.17713,-0.45481 0.32161,-0.543853 0.16488,0.01128 0.33001,0.02352 0.49489,0.0348 0.0293,-0.09192 0.061,-0.183844 0.09,-0.277686 0.21097,0.01512 0.42385,0.03096 0.63578,0.04608 0.11904,-0.02736 0.47905,-0.212885 0.58489,-0.241926 0.23545,0.0168 0.47065,0.03288 0.70514,0.04872 0.53905,-0.143524 1.0097,0.0816 1.46427,0.389048 0.25321,0.169684 0.53065,0.142564 0.75578,0.334808 0.32617,0.280327 0.77066,0.826819 0.97874,1.205548 0.51001,0.926181 0.33649,3.146232 -0.12552,3.694884 -0.18097,0.197765 -0.39481,0.201365 -0.7913,0.155524 m 4.26562,0.608414 c -0.38257,-0.292567 -0.54289,-0.220325 -0.76682,-0.672255 -0.0235,0 0.0336,-0.06744 0.0113,-0.06744 0.22777,-0.45553 0.75002,-0.638415 1.13427,-0.958102 0.11904,-0.101282 0.44353,-0.663855 0.59737,-0.704176 0.17328,-0.206165 0.28585,-0.777138 0.39937,-0.777138 0.11712,-0.160324 -0.0103,-0.538092 0.10488,-0.685216 0.007,-0.677055 -0.0862,-0.723856 -0.20424,-0.854179 0,-0.0468 0.0646,-0.169684 0.0646,-0.215525 0.0319,-0.03192 0.30385,-0.227045 0.42193,-0.203525 0.36841,-0.01032 1.8778,-1.188747 1.9978,-1.415792 1.08291,-0.08136 1.00419,0.249605 1.75132,0.566413 0.20161,0.08712 0.36289,0.0046 0.4949,0.142563 0.13896,0.141363 0.15,0.42097 0.2832,0.566173 0.0178,2.663581 -3.6056,5.186279 -6.28982,5.278201 m 2.94103,5.627889 c -1.34164,-0.201365 -2.16197,-0.630015 -2.66911,-0.980663 -0.35448,-0.247445 -0.45745,-0.412329 -0.53257,-0.516491 -0.0778,-0.103923 -0.12936,-0.333848 -0.0919,-0.576494 0.0394,-0.240005 0.138,-0.496091 0.34705,-0.639374 1.64716,0.121923 4.5085,0.225845 5.06531,-1.158027 0.029,-0.192964 0.0732,-0.309367 0.0768,-0.355208 0.54577,0.135123 0.1464,0.08712 0.95066,-0.0384 0.18384,-0.02904 0.63769,0.0732 0.93866,0.147124 0.1368,0.03192 0.21456,0.155763 0.21456,0.155763 0,0 -0.0262,0.132003 -0.0187,0.204245 0,0 0.28225,-0.0216 0.39745,0.06744 0.76226,0.122883 0.36193,0.480971 0.72098,0.885141 -0.21553,2.587499 -2.87071,3.188473 -5.39916,2.804944 m -10.21608,-4.717548 c 0.29521,0.07608 0.79778,0.115442 1.06107,0.246485 0.42,0.210005 1.86196,1.218028 1.40259,2.039327 -0.14065,1.72972 -2.22845,0.268086 -3.11815,0.87458 -0.89906,0.116163 -1.90973,1.816842 -2.18069,2.546219 -0.10489,0.288006 -0.0619,0.189604 -0.20617,0.417369 9.6e-4,0.02328 -0.0919,-0.07872 -0.091,-0.05544 -0.26257,-0.305527 -0.21745,-0.573613 -0.25873,-1.32003 -0.11808,0.0077 -0.23544,0.01416 -0.35352,0.02256 -0.0226,-0.270966 -0.0497,-0.418089 -0.17617,-0.557773 -0.0254,-0.04608 -0.0526,-0.09 -0.0787,-0.136803 -0.22417,0.07488 -0.1116,-0.03096 -0.20257,0.156484 -0.82777,-0.04224 -0.76705,-0.87482 -1.14746,-1.347151 0.0168,-1.554516 3.09175,-3.47072 5.34948,-2.885826 m 5.99078,8.448913 c 0.071,0.587054 -0.0161,1.444834 0.44713,1.848763 0.13584,0.626414 1.12226,0.480011 0.96842,0.87938 -0.0955,0.249606 -0.55873,0.130323 -0.74618,0.08448 -0.14256,-0.03384 -1.49451,-0.461291 -2.01388,-0.519372 -0.22033,0.06096 -0.44065,0.121923 -0.66002,0.183844 -0.84938,-0.114482 -1.33875,-0.789378 -1.81036,-1.32579 -0.39553,-0.44905 -0.93194,-1.550676 -0.50521,-2.209731 -0.0235,-0.143523 -0.048,-0.287766 -0.0713,-0.43225 l 0.96362,-1.408112 c 0.33289,-0.239045 0.37705,-0.41617 0.73514,-0.651615 0.0739,-0.110642 0.14712,-0.221285 0.22128,-0.332648 0.29233,-0.192244 1.15683,-0.195124 1.30131,-0.06936 1.39035,-0.129603 1.23939,2.683981 1.68004,3.275595 -0.0554,0.265206 -0.28897,0.540972 -0.51001,0.676815"
       id="path233"
       style="fill:#f1471c;fill-opacity:1;fill-rule:evenodd;stroke:none"
       inkscape:connector-curvature="0" /><path
       d="m 281.69654,25.088566 c 1.23099,0 2.23229,0.406809 2.23229,2.581019 0,1.849723 -1.0013,2.464617 -2.23229,2.464617 l -0.64585,0 0,-5.045636 0.64585,0 z m 0.65257,6.512069 c 2.22846,0 3.73689,-1.409072 3.73689,-3.93105 0,-3.168792 -2.07101,-4.107214 -4.2421,-4.107214 l -2.9055,0 c 0.0103,0.176164 0,0.644895 0,1.232668 l 0,5.573648 c 0,0.586813 0.0103,0.961942 0,1.231948"
       id="path237"
       style="fill:#13356d;fill-opacity:1;fill-rule:nonzero;stroke:none"
       inkscape:connector-curvature="0" /><path
       d="m 289.24543,24.795109 c 0,-0.587773 0.0293,-1.232908 0.0293,-1.232908 l -2.15549,0 c 0,0 0.0142,0.645135 0.0142,1.232908 l 0,5.574608 c 0,0.586813 -0.0142,1.230748 -0.0142,1.230748 l 5.09556,0 0,-1.555236 c 0,0 -1.13931,0.02904 -1.52548,0.02904 l -1.44387,0 0,-1.619077 1.44387,-0.01488 c 0.27001,0 1.20003,0.01488 1.20003,0.01488 l 0,-1.481314 c 0,0 -0.8249,0.02256 -1.20003,0.02256 l -1.44387,-0.0084"
       id="path241"
       style="fill:#13356d;fill-opacity:1;fill-rule:nonzero;stroke:none"
       inkscape:connector-curvature="0" /><path
       d="m 272.84273,28.563008 c 0.0319,0.465131 0.19776,1.545155 1.37235,1.545155 1.20387,0 1.26963,-1.014503 1.26963,-1.551635 l 0,-0.108003 c 0,0 -0.8045,-0.02232 -1.28451,-0.02232 -0.48001,0 -1.36515,0.02232 -1.36515,0.02232 l 0.008,0.114483 z m 1.79332,-3.375917 c -1.0133,0 -1.79332,0.682335 -1.79332,1.74844 l 0,0.09096 c 0,0 1.88332,0.04584 2.52198,0.04584 1.08554,0 1.53363,0.01032 2.38973,0.0216 l 0,0.606494 c 0,2.738463 -1.16162,4.071694 -3.55424,4.071694 -1.10258,0 -3.66656,-0.41425 -3.66656,-4.249778 0,-2.559419 1.29171,-4.088494 3.5504,-4.088494 1.77268,0 2.8611,0.452891 3.64976,1.028424 -0.089,0.133203 -0.74906,1.32003 -0.83546,1.449393 -0.47353,-0.360968 -1.25427,-0.724576 -2.26229,-0.724576"
       id="path245"
       style="fill:#13356d;fill-opacity:1;fill-rule:nonzero;stroke:none"
       inkscape:connector-curvature="0" /></g></svg>