<?xml version="1.0" encoding="utf-8"?>
<!-- Generator: Adobe Illustrator 25.0.1, SVG Export Plug-In . SVG Version: 6.00 Build 0)  -->
<svg version="1.1" id="Calque_1" xmlns="http://www.w3.org/2000/svg" xmlns:xlink="http://www.w3.org/1999/xlink" x="0px" y="0px"
	 viewBox="0 0 304.7 88.9" style="enable-background:new 0 0 304.7 88.9;" xml:space="preserve">
<style type="text/css">
	.st0{fill-rule:evenodd;clip-rule:evenodd;fill:#7032C5;}
	.st1{fill:#FFFFFF;}
	.st2{fill-rule:evenodd;clip-rule:evenodd;fill:#FFFFFF;}
	.st3{fill-rule:evenodd;clip-rule:evenodd;fill:#E4D5F7;}
	.st4{fill-rule:evenodd;clip-rule:evenodd;fill:#EADD65;}
	.st5{fill-rule:evenodd;clip-rule:evenodd;fill:#FFF877;}
	.st6{fill:#7032C5;}
	.st7{fill:#E4D5F7;}
	.st8{fill-rule:evenodd;clip-rule:evenodd;fill:#FFF877;stroke:#FFFFFF;stroke-width:21;stroke-miterlimit:10;}
	.st9{fill-rule:evenodd;clip-rule:evenodd;fill:#03003A;}
	
		.st10{fill-rule:evenodd;clip-rule:evenodd;fill:none;stroke:#D3C73C;stroke-width:0.75;stroke-linecap:round;stroke-miterlimit:10;}
	.st11{fill:#151730;}
	.st12{fill-rule:evenodd;clip-rule:evenodd;fill:#151730;}
	.st13{enable-background:new    ;}
	.st14{fill:#958DA0;}
</style>
<g id="Logo_-_Aster_-_Texte_6_">
	<path id="Tracé_8_6_" class="st11" d="M178.7,65.4c-2.3-0.6-4.5-1.5-6.6-2.7c-0.4-0.2-0.5-0.7-0.3-1.1c0.6-1.3,2-4,2.7-5.4
		c0.2-0.4,0.8-0.6,1.2-0.4c0,0,0,0,0.1,0c1.7,1,3.6,1.8,5.5,2.3c2.4,0.7,4.8,1.1,7.3,1.1c5.5,0,8.2-1.4,8.2-4.3
		c0-1.3-0.8-2.5-2.1-2.9c-2.2-0.7-4.4-1.2-6.7-1.5c-2.7-0.4-5.3-0.9-7.9-1.7c-2-0.6-3.8-1.8-5.3-3.3c-1.5-1.6-2.2-3.8-2.2-6.6
		c-0.1-3.6,1.7-6.9,4.7-8.9c3.1-2.2,7.3-3.3,12.6-3.3c2.7,0,5.4,0.3,8.1,0.9c2,0.4,4,1.1,5.8,2c0.4,0.2,0.6,0.8,0.4,1.2
		c-0.7,1.3-2,4-2.7,5.4c-0.2,0.4-0.8,0.6-1.2,0.4c0,0,0,0,0,0c-3.2-1.7-6.8-2.5-10.4-2.5c-2.7,0-4.7,0.4-6.1,1.2
		c-1.4,0.8-2.1,1.9-2.1,3.2c0,1.4,0.9,2.7,2.2,3.1c2.2,0.8,4.6,1.4,6.9,1.7c2.6,0.4,5.2,0.9,7.7,1.7c2,0.6,3.7,1.7,5.2,3.2
		c1.4,1.5,2.2,3.7,2.2,6.4c0,3.7-1.6,6.6-4.8,8.8s-7.5,3.3-13,3.3C184.9,66.7,181.7,66.3,178.7,65.4L178.7,65.4z"/>
	<path id="Tracé_9_6_" class="st11" d="M234,63.4c0.1,0.4,0,0.8-0.3,1c-1,0.7-2.2,1.2-3.4,1.6c-1.6,0.4-3.2,0.7-4.9,0.7
		c-4.3,0-7.6-1.1-10-3.4s-3.5-5.5-3.5-9.8V19.3c0-0.5,0.4-0.9,0.9-0.9h7.4c0.5,0,0.9,0.4,0.9,0.9c0,0,0,0,0,0v8h9.6
		c0.5,0,0.9,0.4,0.9,0.9v5.5c0,0.5-0.4,0.9-0.9,0.9c0,0,0,0,0,0h-9.6v18.6c0,1.9,0.5,3.4,1.4,4.4c1.1,1,2.5,1.6,4,1.5
		c1.5,0,2.9-0.3,4.3-1c0.4-0.2,1-0.1,1.2,0.3c0,0,0,0.1,0.1,0.1C232.6,59.9,233.6,62.3,234,63.4L234,63.4z"/>
	<path id="Tracé_10_6_" class="st11" d="M248.7,37.2c-2.1,2.2-3.1,5.2-3.1,8.9v0c0,0,0,0,0,0c0,0,0,0,0,0l21.1-4.1
		c0.5-0.1,0.8-0.6,0.7-1c0,0,0-0.1,0-0.1c-0.7-1.9-1.9-3.6-3.5-4.8c-2-1.5-4.5-2.3-7-2.2C253.5,33.9,250.8,35,248.7,37.2L248.7,37.2
		z M268.5,55.3c0.4-0.3,0.9-0.3,1.2,0.1c0,0,0,0,0,0c1,1.1,2.9,3.3,3.7,4.4c0.3,0.3,0.3,0.8,0,1.2c-1.7,1.8-3.8,3.3-6.1,4.2
		c-6.7,2.4-14,2.1-20.4-1c-3.2-1.6-5.8-4.1-7.6-7.1c-1.8-3.2-2.7-6.7-2.7-10.4c-0.1-3.6,0.8-7.1,2.6-10.3c1.7-3,4.2-5.5,7.2-7.1
		c3.2-1.7,6.7-2.6,10.4-2.6c3.5,0,6.9,0.8,10,2.4c3,1.6,5.4,3.9,7.1,6.8c1.7,2.9,2.6,6.2,2.6,9.6c0,0.4-0.3,0.8-0.7,0.9
		c-4.6,0.9-29.2,5.7-29.2,5.7c0.9,2.2,2.4,4,4.5,5.1c2.3,1.2,4.8,1.8,7.4,1.8C262.2,59,265.8,57.7,268.5,55.3L268.5,55.3z"/>
	<path id="Tracé_11_6_" class="st12" d="M153.6,55.5c2.2-2.2,3.3-5.2,3.3-8.9c0-3.7-1.1-6.6-3.3-8.9c-2.2-2.2-5.2-3.5-8.3-3.4
		c-3.1-0.1-6.1,1.1-8.3,3.4c-2.2,2.2-3.3,5.2-3.3,8.9c0,3.7,1.1,6.6,3.3,8.9c2.2,2.2,5.2,3.5,8.3,3.4
		C148.4,58.9,151.4,57.7,153.6,55.5L153.6,55.5z M156.7,27.7c0-0.6,0.5-1,1-1c0,0,0,0,0,0h7c0.6,0,1.1,0.5,1.1,1.1c0,0,0,0,0,0v38
		c0,0.6-0.5,1-1,1h-6.6c-0.6,0-1-0.5-1-1c0,0,0,0,0,0v-4.6c-1.5,1.8-3.4,3.3-5.6,4.2c-2.3,0.9-4.8,1.4-7.4,1.4
		c-3.6,0.1-7.1-0.8-10.2-2.5c-3-1.6-5.4-4.1-7-7c-3.4-6.6-3.4-14.4,0-21.1c1.6-3,4.1-5.4,7-7c3.1-1.7,6.7-2.6,10.2-2.5
		c2.4,0,4.8,0.4,7,1.3c2.1,0.9,4,2.2,5.5,3.9L156.7,27.7z"/>
	<path id="Tracé_12_6_" class="st12" d="M282.1,27.7c0-0.6,0.5-1,1-1h6.6c0.6,0,1,0.5,1,1v5.1c2.5-3.9,6.8-5.9,12.8-6.1
		c0.6,0,1.1,0.4,1.1,1c0,0,0,0,0,0v6.4c0,0.6-0.5,1-1,1c0,0-0.1,0-0.1,0c-0.3,0-0.7-0.1-1-0.1c-3.6,0-6.3,1-8.4,3.1
		c-2,2.1-3,5.1-3,9v18.4c0,0.3-0.1,0.6-0.3,0.8c-0.2,0.2-0.5,0.3-0.7,0.3h-7.1c-0.3,0-0.5-0.1-0.7-0.3c-0.2-0.2-0.3-0.5-0.3-0.8
		L282.1,27.7z"/>
</g>
<g>
	<path class="st0" d="M11.6,88.6h64.9c6.4,0,11.6-5.2,11.6-11.6V12.1c0-6.4-5.2-11.6-11.6-11.6H11.6C5.2,0.5,0.1,5.7,0.1,12.1V77
		C0.1,83.4,5.2,88.6,11.6,88.6z"/>
	<g>
		<g id="Groupe_403_12_" transform="translate(-611 -2631)">
			<path id="Tracé_14_7_" class="st3" d="M668.2,2675.6c0-0.8,2.8-2.3,5.3-3.5c1.2-0.6,2.6-0.5,3.7,0.1c1.2,0.6,2,1.7,2.2,3
				c0,0.2,0,0.3,0,0.5c0,0.2,0,0.4-0.1,0.6c-0.2,1.2-1,2.3-2.1,2.8c-1.1,0.6-2.5,0.6-3.6,0.1
				C671.1,2677.9,668.2,2676.4,668.2,2675.6L668.2,2675.6z"/>
			<path id="Tracé_15_14_" class="st3" d="M655.1,2689c0.9,0,2.4,2.7,3.6,5.1c0.6,1.1,0.6,2.5-0.1,3.6c-0.6,1.1-1.8,1.9-3.1,2.1
				c-0.2,0-0.3,0-0.5,0c-0.2,0-0.4,0-0.6-0.1c-1.2-0.2-2.3-1-2.9-2.1c-0.6-1.1-0.6-2.4-0.1-3.5
				C652.7,2691.8,654.2,2689.1,655.1,2689z"/>
			<path id="Tracé_15_13_" class="st3" d="M655.1,2662c0.9,0,2.4-2.7,3.6-5.1c0.6-1.1,0.6-2.5-0.1-3.6c-0.6-1.1-1.8-1.9-3.1-2.1
				c-0.2,0-0.3,0-0.5,0c-0.2,0-0.4,0-0.6,0.1c-1.2,0.2-2.3,1-2.9,2.1c-0.6,1.1-0.6,2.4-0.1,3.5C652.7,2659.3,654.2,2662,655.1,2662z
				"/>
			<path id="Tracé_16_7_" class="st3" d="M642,2675.5c0,0.8-2.8,2.3-5.3,3.5c-1.2,0.6-2.6,0.5-3.7-0.1c-1.2-0.6-2-1.7-2.2-3
				c0-0.2,0-0.3,0-0.5c0-0.2,0-0.4,0.1-0.6c0.2-1.2,1-2.3,2.1-2.8c1.1-0.6,2.5-0.6,3.6-0.1C639.1,2673.2,642,2674.7,642,2675.5z"/>
			<path id="Tracé_17_12_" class="st2" d="M651.4,2672.3c-1.1,1.1-6.7-0.5-11.4-2.1c-2.2-0.7-4-2.5-4.7-4.7
				c-0.7-2.2-0.3-4.6,1.2-6.4c0.2-0.2,0.4-0.4,0.6-0.6c0.3-0.2,0.5-0.5,0.8-0.7c1.9-1.3,4.3-1.7,6.5-1c2.2,0.6,3.9,2.3,4.7,4.4
				C650.8,2665.8,652.5,2671.3,651.4,2672.3L651.4,2672.3z"/>
			<path id="Tracé_18_12_" class="st2" d="M658.8,2672.3c-1.1-1,0.5-6.5,2.1-10.9c0.8-2.2,2.6-3.9,4.9-4.5c2.3-0.7,4.7-0.3,6.7,1.1
				c0.2,0.2,0.4,0.4,0.6,0.5c0.3,0.2,0.5,0.5,0.7,0.8c1.3,1.8,1.7,4.1,1,6.3c-0.7,2.2-2.4,3.8-4.6,4.6
				C665.6,2671.7,659.9,2673.4,658.8,2672.3L658.8,2672.3z"/>
			<path id="Tracé_19_12_" class="st2" d="M658.8,2678.8c1.1-1.1,6.7,0.5,11.4,2.1c2.2,0.7,4,2.5,4.7,4.7c0.7,2.2,0.3,4.6-1.2,6.4
				c-0.2,0.2-0.4,0.4-0.6,0.6c-0.3,0.2-0.5,0.5-0.8,0.7c-1.9,1.3-4.3,1.7-6.5,1c-2.2-0.6-3.9-2.3-4.7-4.4
				C659.4,2685.4,657.7,2679.9,658.8,2678.8L658.8,2678.8z"/>
			<path id="Tracé_20_12_" class="st2" d="M651.4,2678.8c1.1,1-0.5,6.5-2.1,10.9c-0.8,2.2-2.6,3.9-4.9,4.5
				c-2.3,0.7-4.7,0.3-6.7-1.1c-0.2-0.2-0.4-0.4-0.6-0.5c-0.3-0.2-0.5-0.5-0.7-0.8c-1.3-1.8-1.7-4.1-1-6.3c0.7-2.2,2.4-3.8,4.6-4.6
				C644.6,2679.4,650.3,2677.8,651.4,2678.8L651.4,2678.8z"/>
		</g>
	</g>
</g>
</svg>
