<?xml version="1.0" encoding="UTF-8" standalone="no"?>
<!-- Generator: Adobe Illustrator 19.2.0, SVG Export Plug-In . SVG Version: 6.00 Build 0)  -->

<svg
   xmlns:dc="http://purl.org/dc/elements/1.1/"
   xmlns:cc="http://creativecommons.org/ns#"
   xmlns:rdf="http://www.w3.org/1999/02/22-rdf-syntax-ns#"
   xmlns:svg="http://www.w3.org/2000/svg"
   xmlns="http://www.w3.org/2000/svg"
   xmlns:sodipodi="http://sodipodi.sourceforge.net/DTD/sodipodi-0.dtd"
   xmlns:inkscape="http://www.inkscape.org/namespaces/inkscape"
   version="1.1"
   id="ic_118px_logo"
   x="0px"
   y="0px"
   viewBox="0 0 600 205"
   xml:space="preserve"
   inkscape:version="0.91 r13725"
   sodipodi:docname="spriteFlags003.svg"
   width="600"
   height="205"><metadata
     id="metadata19"><rdf:RDF><cc:Work
         rdf:about=""><dc:format>image/svg+xml</dc:format><dc:type
           rdf:resource="http://purl.org/dc/dcmitype/StillImage" /><dc:title></dc:title></cc:Work></rdf:RDF></metadata><defs
     id="defs17" /><sodipodi:namedview
     pagecolor="#ffffff"
     bordercolor="#666666"
     borderopacity="1"
     objecttolerance="10"
     gridtolerance="10"
     guidetolerance="10"
     inkscape:pageopacity="0"
     inkscape:pageshadow="2"
     inkscape:window-width="1440"
     inkscape:window-height="788"
     id="namedview15"
     showgrid="false"
     inkscape:zoom="1.0958608"
     inkscape:cx="83"
     inkscape:cy="25"
     inkscape:window-x="0"
     inkscape:window-y="1"
     inkscape:window-maximized="1"
     inkscape:current-layer="ic_118px_logo" /><style
     type="text/css"
     id="style3">
	.st0{fill:#D2161E;}
	.st1{fill:#FFFFFF;}
</style><g
     id="g4197"
     transform="matrix(5.1282051,0,0,5.125,-103.58974,-23.575)"><path
       id="path5"
       d="m 20.2,4.6 117,0 0,40 -117,0 0,-40 z"
       class="st0"
       inkscape:connector-curvature="0"
       style="fill:#d2161e" /><g
       style="fill:#ffffff"
       id="g4186"><path
         style="fill:#ffffff"
         d="m 33.400391,14.099609 -4.701172,22.800782 10,0 c 4.7,0 8.800781,-2.7 8.800781,-7 0,-2.1 -1.299609,-3.900782 -3.099609,-4.800782 2.6,-1.2 4.298828,-3.4 4.298828,-6 0,-2.9 -2.39961,-5 -6.09961,-5 l -9.199218,0 z M 38,18.900391 l 2.599609,0 c 1.4,0 2.201172,0.50039 2.201172,1.40039 0,1.6 -1.50039,2.798828 -3.40039,2.798828 l -2.300782,0 L 38,18.900391 Z M 36.300781,27.5 l 3.398438,0 c 1.6,0 2.40039,0.5 2.40039,1.5 0,1.7 -1.599218,3 -3.699218,3 l 0,0.09961 -3.09961,0 1,-4.599609 z"
         id="path4159"
         inkscape:connector-curvature="0" /><path
         style="fill:#ffffff"
         d="m 79.1,29.5 c 0,-5.6 5.5,-10.2 11.1,-10.2 3,0 5.2,1.4 6.5,3.2 l -4.1,2.7 c -0.5,-0.8 -1.7,-1.3 -2.7,-1.3 -2.8,0 -5.5,2.8 -5.5,5.5 0,1.8 1.3,3.1 3.1,3.1 1.4,0 2.9,-0.8 3.8,-1.7 l 3.3,3.4 c -2.1,2 -4.6,3 -7.5,3 -4.6,0 -8,-3.4 -8,-7.7 l 0,0 z"
         id="path4153"
         inkscape:connector-curvature="0" /><path
         style="fill:#ffffff"
         d="m 111.2,29.5 c 0,-5.6 5.5,-10.2 11.1,-10.2 3,0 5.2,1.4 6.5,3.2 l -4.1,2.7 c -0.5,-0.8 -1.7,-1.3 -2.7,-1.3 -2.8,0 -5.5,2.8 -5.5,5.5 0,1.8 1.3,3.1 3.1,3.1 1.4,0 2.9,-0.8 3.8,-1.7 l 3.3,3.4 c -2.1,2 -4.6,3 -7.5,3 -4.6,0 -8,-3.4 -8,-7.7 l 0,0 z"
         id="path4151"
         inkscape:connector-curvature="0" /><path
         style="fill:#ffffff"
         d="m 59.599609,19.300781 c -5.5,0 -11,4.599219 -11,10.199219 0,0.5 -3.9e-4,0.900781 0.09961,1.300781 0.2,1.1 0.600781,2.19961 1.300781,3.09961 1.4,2 3.799609,3.199218 6.599609,3.199218 2.7,0 5.400391,-1.10039 7.400391,-2.90039 l -3.300781,-3.5 c -1.1,1.1 -2.498438,1.800781 -3.898438,1.800781 -0.8,0 -1.501562,-0.199219 -2.101562,-0.699219 L 62.099609,28.5 67.5,26.099609 c -0.1,-1.1 -0.499609,-2.199218 -1.099609,-3.199218 -1.4,-2.2 -3.800782,-3.59961 -6.800782,-3.59961 z M 59.199219,24 c 1,0 1.80039,0.399609 2.40039,1.099609 l -7.90039,3.5 c 0.5,-2.4 3,-4.599609 5.5,-4.599609 z"
         id="path4149"
         inkscape:connector-curvature="0" /><path
         style="fill:#ffffff"
         d="m 77.187475,13.1 -5.9,2.6 -0.8,4 -2.2,0 -1,4.5 2.3,0 c -1.5,6.9 -1.6,7.7 -1.6,8.5 0,2.6 1.8,4.5 4.6,4.5 1.5,0 3.2,-0.6 4.3,-1.5 l -0.6,-3.9 c -0.4,0.3 -1.2,0.7 -1.9,0.7 -0.6,0 -0.9,-0.3 -0.9,-1 0,-0.4 0.1,-0.8 1.4,-7.3 l 3.5,0 0.9,-4.5 -3.5,0 1.4,-6.6 z"
         id="path4171"
         inkscape:connector-curvature="0" /><path
         style="fill:#ffffff"
         d="m 98.987475,14.1 5.300005,0 -4.700005,22.7 -5.3,0 4.7,-22.7 z"
         id="path4169"
         inkscape:connector-curvature="0" /><g
         style="fill:#ffffff"
         id="g4182"><path
           inkscape:connector-curvature="0"
           id="path4167"
           d="m 105.28748,19.7 5.3,0 -3.5,17.1 -5.3,0 3.5,-17.1 z"
           style="fill:#ffffff" /><path
           inkscape:connector-curvature="0"
           id="path13"
           d="m 106.08748,15.3 c 0,-1.8 1.6,-3.2 3.2,-3.2 1.5,0 2.6,1.2 2.6,2.7 0,1.7 -1.5,3.2 -3.1,3.2 -1.6,0 -2.7,-1.2 -2.7,-2.7 z"
           style="fill:#ffffff" /></g></g></g></svg>