<svg id="Calque_3" data-name="Calque 3" xmlns="http://www.w3.org/2000/svg" viewBox="0 0 472.49 140.58"><title>Dolist_logo-couleur</title><rect y="28.32" width="19.97" height="19.98" style="fill:#0d6cb1"/><rect x="27.81" y="28.32" width="19.98" height="19.98" style="fill:#0d6cb1"/><rect y="55.64" width="19.97" height="19.98" style="fill:#0d6cb1"/><rect x="27.81" y="55.64" width="19.98" height="19.98" style="fill:#0d6cb1"/><rect x="55.63" y="55.64" width="19.97" height="19.98" style="fill:#0d6cb1"/><rect y="82.94" width="19.97" height="19.98" style="fill:#0d6cb1"/><rect x="27.81" y="82.94" width="19.98" height="19.98" style="fill:#0d6cb1"/><rect x="55.63" y="82.94" width="19.97" height="19.98" style="fill:#0d6cb1"/><rect x="83.44" y="82.94" width="19.98" height="19.98" style="fill:#0d6cb1"/><polygon points="27.81 130.23 27.81 110.25 47.79 110.25 27.81 130.23" style="fill:#0d6cb1"/><rect x="103.47" y="0.03" width="28.31" height="28.31" style="fill:#e75321"/><rect x="89.91" y="46.33" width="20.32" height="20.31" style="fill:#9f0e58"/><rect x="69.1" y="21.76" width="15.83" height="15.81" style="fill:#1fbae5"/><path d="M293,131.14c-21.18,0-37.34-15.47-37.34-37.2,0-22.29,16.16-37.34,37.34-37.34s37.21,15,37.21,37.34C330.19,115.67,314.3,131.14,293,131.14Zm0-17.42c8.92,0,18.39-6.83,18.39-19.79,0-13.79-9.47-19.79-18.39-19.79-8.5,0-18.67,6.41-18.67,19.79C274.31,106.89,284.48,113.72,293,113.72Z" transform="translate(-29.74 -28.21)" style="fill:#141414"/><path d="M340.2,131.09V28.21H359V131.09H340.2Z" transform="translate(-29.74 -28.21)" style="fill:#141414"/><path d="M372.8,48.08V28.21h18.81V48.08H372.8Zm18.81,8.41v74.6H372.8V56.49h18.81Z" transform="translate(-29.74 -28.21)" style="fill:#141414"/><path d="M429.42,85.44c12.25,2.09,24.91,8.76,24.91,22.82,0,16.7-15.86,22.68-27.55,22.68-9.18,0-19.2-3.62-26.86-13.77l10.44-10.85a23.21,23.21,0,0,0,16.7,7.93c3.76,0.14,8.49-2.23,8.49-6,0-5.15-5.43-5.85-9-6.54C414.95,99.63,403,92.54,402.84,78.9c0-14.47,12.94-22.26,26.44-22.26,7.23,0,15.58,2.5,23.79,11l-10.16,10.3a22.47,22.47,0,0,0-13.78-4.73c-3.2,0-8.35,1.95-8.35,6.4,0,2.37,2.37,4.31,4.73,5C426.92,85,428.17,85.16,429.42,85.44Z" transform="translate(-29.74 -28.21)" style="fill:#141414"/><polygon points="472.49 28.29 458.1 28.29 458.1 0 439.29 0 439.29 28.29 430.99 28.29 430.99 44.1 439.29 44.1 439.29 102.88 458.1 102.88 458.1 44.1 472.49 44.1 472.49 28.29" style="fill:#141414"/><path d="M246.54,93.58V28.21H227.72V60.93a39.4,39.4,0,0,0-18.38-4.34c-21.18,0-37.34,15-37.34,37.34,0,21.74,16.16,37.2,37.34,37.2s37.21-15.47,37.21-37.2C246.54,93.81,246.54,93.7,246.54,93.58Zm-37.2,20.14c-8.5,0-18.67-6.83-18.67-19.79,0-13.38,10.17-19.79,18.67-19.79,8.87,0,18.28,5.93,18.38,19.56v0.2h0v0C227.73,106.89,218.26,113.72,209.34,113.72Z" transform="translate(-29.74 -28.21)" style="fill:#141414"/><path d="M95,151.9h3.41c5.66,0,8.89,3.1,8.89,8.29,0,5.5-3.34,8.29-8.89,8.29H95V151.9Zm3.79,14.88c4,0,6.54-2.25,6.54-6.59,0-4.15-2.56-6.56-6.54-6.56H96.89v13.15h1.87Z" transform="translate(-29.74 -28.21)" style="fill:#141414"/><path d="M114.79,163.1l-2,5.38h-1.94l6.21-16.59H119l6.21,16.59h-1.94l-2-5.38h-6.49ZM118,154l-2.65,7.44h5.33Z" transform="translate(-29.74 -28.21)" style="fill:#141414"/><path d="M131.45,153.65H127V151.9h10.85v1.75h-4.45v14.83h-1.92V153.65Z" transform="translate(-29.74 -28.21)" style="fill:#141414"/><path d="M143.75,163.1l-2,5.38h-1.94L146,151.9H148l6.21,16.59h-1.94l-2-5.38h-6.49ZM147,154l-2.65,7.44h5.33Z" transform="translate(-29.74 -28.21)" style="fill:#141414"/><path d="M176.71,166.94a6.78,6.78,0,0,1-4.83,1.85c-3.6,0-5.76-2.18-5.76-4.91a5.11,5.11,0,0,1,2.91-4.48,5.13,5.13,0,0,1-1.8-3.67,4.18,4.18,0,0,1,4.53-4.15c2.89,0,4.62,1.71,4.62,4.17,0,2.06-1.45,3.46-3.72,4.74l3.93,3.79a6.75,6.75,0,0,0,.78-3.72h1.8a8.66,8.66,0,0,1-1.23,5l1.73,1.73-1.35,1.3Zm-1.26-1.3-5.19-5a3.46,3.46,0,0,0-2.27,3.15c0,2.09,1.78,3.29,3.89,3.29A5.12,5.12,0,0,0,175.46,165.64Zm-4-6.21c1.73-.88,3.15-2.09,3.15-3.63a2.8,2.8,0,0,0-5.59,0C169,157.3,170.2,158.36,171.45,159.43Z" transform="translate(-29.74 -28.21)" style="fill:#141414"/><path d="M201.13,164.81l6-12.91h2.44v16.59h-1.85V154.67L202.07,167h-1.9l-5.62-12.3v13.82h-1.85V151.9h2.46Z" transform="translate(-29.74 -28.21)" style="fill:#141414"/><path d="M215.66,151.9h7.87v1.75h-5.95v5.52h5.19v1.73h-5.19v5.85h6.21v1.73h-8.13V151.9Z" transform="translate(-29.74 -28.21)" style="fill:#141414"/><path d="M229.83,164.43a3.58,3.58,0,0,0,3.63,2.58,2.71,2.71,0,0,0,3-2.75c0-4.15-7.77-3.08-7.77-8.44,0-2.37,1.8-4.24,4.74-4.24a4.84,4.84,0,0,1,4.69,3.17l-1.61.66a3.34,3.34,0,0,0-3.1-2.09,2.49,2.49,0,0,0-2.8,2.49c0,3.79,7.8,3,7.8,8.32,0,2.61-1.92,4.64-5,4.64a5.15,5.15,0,0,1-5.19-3.65Z" transform="translate(-29.74 -28.21)" style="fill:#141414"/><path d="M244.19,164.43a3.58,3.58,0,0,0,3.63,2.58,2.71,2.71,0,0,0,3-2.75c0-4.15-7.77-3.08-7.77-8.44,0-2.37,1.8-4.24,4.74-4.24a4.84,4.84,0,0,1,4.69,3.17l-1.61.66a3.34,3.34,0,0,0-3.1-2.09,2.49,2.49,0,0,0-2.8,2.49c0,3.79,7.8,3,7.8,8.32,0,2.61-1.92,4.64-5,4.64a5.15,5.15,0,0,1-5.19-3.65Z" transform="translate(-29.74 -28.21)" style="fill:#141414"/><path d="M260.33,163.1l-2,5.38H256.4l6.21-16.59h1.94l6.21,16.59h-1.94l-2-5.38h-6.49Zm3.25-9.1-2.65,7.44h5.33Z" transform="translate(-29.74 -28.21)" style="fill:#141414"/><path d="M288.39,154l-1.23,1.28a6.6,6.6,0,0,0-4.83-1.9c-3.82,0-6.42,2.94-6.42,6.82s2.7,6.8,6.4,6.8a6.81,6.81,0,0,0,4.86-1.73V161.8h-3.7v-1.68H289v6a8.93,8.93,0,0,1-6.78,2.68,8.21,8.21,0,0,1-8.34-8.58A8.55,8.55,0,0,1,288.39,154Z" transform="translate(-29.74 -28.21)" style="fill:#141414"/><path d="M294.65,151.9h1.92v16.59h-1.92V151.9Z" transform="translate(-29.74 -28.21)" style="fill:#141414"/><path d="M302.66,151.9h1.92l9.15,13.55V151.9h1.9v16.59h-1.9L304.58,155v13.51h-1.92V151.9Z" transform="translate(-29.74 -28.21)" style="fill:#141414"/><path d="M335.29,154l-1.23,1.28a6.6,6.6,0,0,0-4.83-1.9c-3.82,0-6.42,2.94-6.42,6.82s2.7,6.8,6.4,6.8a6.81,6.81,0,0,0,4.86-1.73V161.8h-3.7v-1.68h5.54v6a8.93,8.93,0,0,1-6.78,2.68,8.21,8.21,0,0,1-8.34-8.58A8.55,8.55,0,0,1,335.29,154Z" transform="translate(-29.74 -28.21)" style="fill:#141414"/><path d="M350.51,164.43a3.58,3.58,0,0,0,3.63,2.58,2.71,2.71,0,0,0,3-2.75c0-4.15-7.77-3.08-7.77-8.44,0-2.37,1.8-4.24,4.74-4.24a4.84,4.84,0,0,1,4.69,3.17l-1.61.66a3.34,3.34,0,0,0-3.1-2.09,2.49,2.49,0,0,0-2.8,2.49c0,3.79,7.8,3,7.8,8.32,0,2.61-1.92,4.64-5,4.64a5.15,5.15,0,0,1-5.19-3.65Z" transform="translate(-29.74 -28.21)" style="fill:#141414"/><path d="M371.79,151.59a8.6,8.6,0,1,1-8.46,8.6A8.38,8.38,0,0,1,371.79,151.59Zm0,15.4a6.81,6.81,0,1,0-6.47-6.8A6.47,6.47,0,0,0,371.79,167Z" transform="translate(-29.74 -28.21)" style="fill:#141414"/><path d="M385.42,151.9h1.92v14.86h6.21v1.73h-8.13V151.9Z" transform="translate(-29.74 -28.21)" style="fill:#141414"/><path d="M397.86,162.53V151.9h1.92v10.62c0,2.75,1.47,4.5,4.27,4.5s4.29-1.75,4.29-4.53V151.9h1.9v10.62c0,3.74-2.25,6.28-6.19,6.28S397.86,166.3,397.86,162.53Z" transform="translate(-29.74 -28.21)" style="fill:#141414"/><path d="M419.36,153.65h-4.48V151.9h10.85v1.75h-4.46v14.83h-1.92V153.65Z" transform="translate(-29.74 -28.21)" style="fill:#141414"/><path d="M430.74,151.9h1.92v16.59h-1.92V151.9Z" transform="translate(-29.74 -28.21)" style="fill:#141414"/><path d="M446.26,151.59a8.6,8.6,0,1,1-8.46,8.6A8.38,8.38,0,0,1,446.26,151.59Zm0,15.4a6.81,6.81,0,1,0-6.47-6.8A6.47,6.47,0,0,0,446.26,167Z" transform="translate(-29.74 -28.21)" style="fill:#141414"/><path d="M459.86,151.9h1.92l9.15,13.55V151.9h1.9v16.59h-1.9L461.78,155v13.51h-1.92V151.9Z" transform="translate(-29.74 -28.21)" style="fill:#141414"/><path d="M479.51,164.43a3.58,3.58,0,0,0,3.63,2.58,2.71,2.71,0,0,0,3-2.75c0-4.15-7.77-3.08-7.77-8.44,0-2.37,1.8-4.24,4.74-4.24a4.84,4.84,0,0,1,4.69,3.17l-1.61.66a3.34,3.34,0,0,0-3.1-2.09,2.49,2.49,0,0,0-2.8,2.49c0,3.79,7.8,3,7.8,8.32,0,2.61-1.92,4.64-5,4.64a5.15,5.15,0,0,1-5.19-3.65Z" transform="translate(-29.74 -28.21)" style="fill:#141414"/></svg>