<?xml version="1.0" encoding="utf-8"?>
<!-- Generator: Adobe Illustrator 19.2.1, SVG Export Plug-In . SVG Version: 6.00 Build 0)  -->
<svg version="1.1" id="layer" xmlns="http://www.w3.org/2000/svg" xmlns:xlink="http://www.w3.org/1999/xlink" x="0px" y="0px"
	 viewBox="0 0 652 652" style="enable-background:new 0 0 652 652;" xml:space="preserve">
<style type="text/css">
	.st0{fill:#ABAFB4;}
	.st1{fill:#5C6670;}
	.st2{fill:#E62310;}
	.st3{fill:#FFFFFF;}
</style>
<path class="st0" d="M42,392.4c0,5.1,18.6,9.3,41.7,9.3c23,0,41.6-4.1,41.6-9.3c0-5.2-18.6-9.4-41.6-9.4C60.6,383,42,387.2,42,392.4
	"/>
<path class="st1" d="M142.9,311.3c0,32.2-26.1,58.3-58.3,58.3c-32.2,0-58.3-26.1-58.3-58.3c0-32.2,26.1-58.3,58.3-58.3
	C116.8,253,142.9,279.1,142.9,311.3"/>
<path class="st2" d="M96.5,257.8l0.1,1.3c7,10-0.3,25-17.1,50.8c-1.5,2.2-4.5,6.9,1.3,9.5c16.6,6.2,18.4,6.9,22.1,1.4
	c29.2-46.5,15.9-58.4,5.3-61.4C101.3,257.8,97.4,257.3,96.5,257.8"/>
<path class="st3" d="M75.2,267.1c-1,0.4-1.7,0.9-2.1,1.8c-1.6,2.9-2,3.7-4.6,7.7c-0.3,0.4-0.6,0.8-0.8,1.7c-0.2,0.8-0.4,2.9,2.1,4.2
	c2.4,1,10.4,4.2,12.3,4.3c1.5,0.1,4.7-0.4,6.1-3.2c4.9-9.9,6.2-12.6,0.1-14.2C76.3,266.7,76.3,266.7,75.2,267.1"/>
<path class="st3" d="M45.1,311c-1.5,0.4-2.3,1-3.3,2.3c-5.9,9.4-8.1,12.9-3.3,17.3c4.5,3.5,40.5,24.8,47.2,15.4
	c7.3-10.8,7.3-10.8,7.4-11.2c0.4-1.3,0.4-3.8-3.1-5.2c-8.2-2.8-27.4-9.3-41.1-17.9C48.4,311.2,47,310.6,45.1,311"/>
<path class="st3" d="M49.5,274.9c-0.6,0.2-1.4,0.4-2.6,1.7c-8.4,8.5-10.7,10.8-9.6,14.5c2.3,5,5.8,10.6,21.4,18.8
	c4.6,2.4,9.7,5.1,13.6-0.4c7.7-11.6,7.7-11.6,8-12.7c0.1-0.4,0.9-3.6-3-5.3c-10.4-3.9-21.9-8.8-26.1-15.9
	C51.1,275.3,50.6,274.6,49.5,274.9"/>
<path class="st2" d="M126.3,330.5c17-25.1,15.3-37.5,9.8-43.6c-4.9-4.5-8.1-6.3-9.6-5.4c-0.7,0.5-1.1,1-1.3,2.6
	c-1.9,16.4-11,31.6-28.3,55.8c-7.5,10.5-8.2,11.4-3.3,12.9c12.6,3.3,12.6,3.3,15.4,0.2c5.3-6.1,9.7-11.7,13.5-16.8
	C124.4,333.3,124.6,333.3,126.3,330.5"/>
<path class="st1" d="M296,312.7c0-6.2-1.1-10.7-3.2-13.5c-2.3-3.2-6.2-4.9-11.7-5.2l-6,0c-6.4,0-10.9,1.7-13.4,5.2
	c-2.1,2.8-3.1,7.3-3.1,13.5c0,6.3,1,10.8,3.1,13.6c2.5,3.4,7,5.1,13.4,5.1l5.4,0c5.8-0.2,9.9-1.9,12.3-5.1
	C295,323.5,296,319,296,312.7 M281.3,282c17.8,0.7,26.7,10.9,26.7,30.7c0,20.2-9.3,30.4-27.9,30.7l-5,0c-19.1,0-28.7-10.2-28.7-30.7
	c0-20.5,9.6-30.7,28.7-30.7L281.3,282z"/>
<path class="st1" d="M348,343.4c-20.5,0-30.8-7.4-30.8-22.2v-63.3h12v63.3c0,3.2,1.1,5.5,3.3,7.1c2.9,2.1,8,3.1,15.5,3.1V343.4z"/>
<path class="st1" d="M427.9,312.7v-18.6h-23.5c-6.4,0-10.9,1.7-13.4,5.1c-2.1,2.8-3.1,7.3-3.1,13.5c0,6.3,1,10.8,3.1,13.6
	c2.6,3.5,7,5.2,13.4,5.2l9-0.1c5.4-0.3,9.2-2.1,11.5-5.2C426.8,323.6,427.9,319,427.9,312.7 M439.9,312.8c0,19.5-8.6,29.8-25.9,30.7
	c-0.9,0.1-8.7,0.1-9.7,0.1c-19.1,0-28.7-10.3-28.7-30.8c0-20.4,9.6-30.6,28.7-30.6h9.7h13.8v-24.2h12V312.8z"/>
<path class="st1" d="M490.5,325v-8.1c-3.3,1.2-7.3,1.8-11.9,1.9l-6.9,0c-5.6,0-9.3,0.7-11.1,2.2c-1.1,0.8-1.6,2.2-1.6,4
	c0,1.8,0.5,3.2,1.6,4.1c1.9,1.5,5.6,2.3,11.1,2.3h6.7c5.2-0.1,8.7-0.8,10.4-2.3C490,328.2,490.5,326.9,490.5,325 M502.6,325
	c0,12-7.9,18.1-23.8,18.4l-7,0c-9.5,0-16.3-2.2-20.5-6.6c-2.9-3.1-4.3-7-4.3-11.8c0-4.8,1.4-8.7,4.3-11.8c4.1-4.4,11-6.6,20.5-6.6
	h7.2c5-0.1,8.3-0.9,10-2.3c1.1-0.8,1.6-2.1,1.6-3.9c0-1.9-0.5-3.2-1.6-4c-1.7-1.4-5.1-2.2-10.1-2.3h-7c-5.6,0-9.3,0.8-11.1,2.3
	c-1.1,0.8-1.6,2.2-1.6,4h-12c0-4.8,1.4-8.7,4.3-11.8c4.1-4.4,11-6.6,20.5-6.6l7.3,0c15.7,0.3,23.5,6.5,23.5,18.4h0L502.6,325z"/>
<path class="st1" d="M542.4,294c-7.5,0-12.6,1.1-15.5,3.1c-2.1,1.6-3.1,3.9-3.1,7.2v39.1h-12v-39.1c0-14.9,10.2-22.3,30.7-22.3V294z
	"/>
<path class="st1" d="M603,282c15.5,0.4,23.3,6.5,23.3,18.3h-12c0-1.8-0.5-3.2-1.6-4c-1.7-1.4-5-2.2-9.8-2.3l-7.2,0
	c-5.5,0-9.3,0.8-11.1,2.3c-1.1,0.8-1.6,2.2-1.6,4c0,2.3,0.8,3.8,2.3,4.6c1.5,0.8,5.1,1.3,10.9,1.7l7.5,0.1c6.2,0.5,10.9,1.5,14.1,3
	c5.8,2.9,8.7,8,8.7,15.3c0,11.7-7.5,17.8-22.5,18.4c-0.7,0-7.4,0-8.2,0c-16.5,0-24.8-6.1-24.8-18.4h12c0,1.9,0.5,3.2,1.6,4.1
	c1.8,1.5,5.6,2.3,11.1,2.3l7.8,0c4.5-0.2,7.6-0.9,9.2-2.3c1.1-0.9,1.6-2.2,1.6-4.1c0-2.3-0.7-3.8-2.1-4.5c-1.5-0.8-4.6-1.4-9.4-1.7
	l-7.5-0.1c-7.1-0.4-12.3-1.5-15.6-3.1c-5.9-2.9-8.8-7.9-8.8-15.2c0-12.2,8.2-18.4,24.8-18.4L603,282z"/>
<rect x="356.3" y="282" class="st1" width="12" height="61.4"/>
<path class="st1" d="M369.2,264c0,3.8-3.1,6.9-6.9,6.9c-3.8,0-6.9-3.1-6.9-6.9c0-3.8,3.1-6.9,6.9-6.9
	C366.1,257.1,369.2,260.2,369.2,264"/>
<rect x="549.2" y="282" class="st1" width="12" height="61.4"/>
<path class="st1" d="M562.1,264c0,3.8-3.1,6.9-6.9,6.9c-3.8,0-6.9-3.1-6.9-6.9c0-3.8,3.1-6.9,6.9-6.9
	C559,257.1,562.1,260.2,562.1,264"/>
<path class="st2" d="M174,283.4c0,20.7,13.1,21.4,26.9,22.2l5.5,0.3l6.7,0.4c10.8,0.5,13.7,0.6,13.7,11.5c0,13.7-2.7,13.7-20.6,13.7
	c-8.9,0-14.3,0-16.6-2.3c-1.8-1.8-2.5-5.5-2.4-13.3l-13.5-0.2c-0.8,10,0.8,16.7,4.8,21.1c5.3,5.7,14.1,6.8,27.7,6.8
	c19.8,0,34.1,0,34.1-25.4c0-22.6-10.9-23.2-29-24.1l-2.7-0.1l-3.9-0.1c-12.9-0.3-17.3-0.3-17.3-12.3c0-9.1,0.7-11.3,18.9-11.3
	c17.1,0,18.4,0.3,18.8,12.5l13.5,0c0.4-8.4-1.3-14.4-5-18.3c-5.6-5.9-14.7-6.3-27-6.3C186.4,258.1,174,259.8,174,283.4"/>
<path class="st2" d="M431.1,386.8v-15.1c0-3-0.3-6.4-3.4-6.4c-3.8,0-5.1,3.9-5.1,7v14.4h-6.9v-15.1c0-3-0.3-6.4-3.4-6.4
	c-3.8,0-5.1,3.9-5.1,7v14.4h-6.9v-19.1c0-2.1-0.3-4.7-0.8-6.4l6.6-1.5c0.5,1.5,0.8,3,0.9,4.7h0c1.9-3.1,4.5-4.6,7.9-4.6
	c3.7,0,6,2,7,5.1h0.1c2.3-3.5,4.9-5.1,8.3-5.1c5.4,0,7.8,4.3,7.8,10.2v16.7H431.1z"/>
<path class="st2" d="M463.2,387.4c-0.7-1.4-1-2.9-1.2-4.7h0c-1.9,3.1-4.8,4.6-8.4,4.6c-5.7,0-8.4-4.2-8.4-10.2v-16.7h6.9v15.1
	c0,3,0.3,6.3,3.9,6.3c3.8,0,5.6-3.9,5.6-7v-14.4h6.9v19.2c0,2.3,0.1,4.4,0.8,6.4L463.2,387.4z"/>
<path class="st2" d="M485.9,387.3c-5.6,0-8.4-3.3-8.4-8.6v-13.4h-4.2v-5h4.2v-5.8l6.9-1.6v7.4h6.3v5h-6.3v12.3
	c0,2.6,0.9,4.3,3.6,4.3c1.1,0,2.3-0.1,3.1-0.6l0.4,5.2C489.9,387.1,487.9,387.3,485.9,387.3"/>
<path class="st2" d="M513.8,387.4c-0.7-1.4-1-2.9-1.2-4.7h-0.1c-1.9,3.1-4.8,4.6-8.3,4.6c-5.8,0-8.4-4.2-8.4-10.2v-16.7h6.9v15.1
	c0,3,0.3,6.3,4,6.3c3.8,0,5.6-3.9,5.6-7v-14.4h6.9v19.2c0,2.3,0.1,4.4,0.8,6.4L513.8,387.4z"/>
<path class="st2" d="M540.1,374.5c-6.1,0-8,2.4-8,4.8c0,2.5,2.3,3.4,3.9,3.4c2.8,0,4-1.6,4-4.9V374.5z M542.1,387.4
	c-0.5-1-1-2.2-1.2-3.5c-1.8,1.9-4.4,3.4-7.9,3.4c-4.4,0-8.2-2.6-8.2-7.3c0-7.6,8.6-9.3,14.7-9.6l0.6-0.8c0-2.6-1.2-4.6-5.8-4.6
	c-2.2,0-4.8,0.7-7.1,1.7l-1.3-5c3.6-1.4,7.3-1.8,10.7-1.8c6.6,0,10.3,3.4,10.3,10.6v9.3c0,2.3,0.1,4.2,0.8,6.2L542.1,387.4z"/>
<path class="st2" d="M554.3,386.8v-30.3c0-2.1-0.3-4.8-0.8-6.3l6.9-1.4c0.6,1.4,0.9,3.4,0.9,5.2v32.8H554.3z"/>
<path class="st2" d="M570.2,387.4c-1-1.6-1.4-3.5-1.4-5.6v-21.5h6.9v19.4c0,2.5,0.2,4.2,0.8,6.2L570.2,387.4z M572.1,357.1
	c-2.3,0-4-1.7-4-3.9c0-2.2,1.7-3.9,4-3.9c2.4,0,4,1.7,4,3.9C576.1,355.4,574.5,357.1,572.1,357.1"/>
<path class="st2" d="M593,387.3c-5.6,0-8.4-3.3-8.4-8.6v-13.4h-4.2v-5h4.2v-5.8l6.9-1.6v7.4h6.3v5h-6.3v12.3c0,2.6,0.9,4.3,3.5,4.3
	c1.1,0,2.3-0.1,3.1-0.6l0.4,5.2C597,387.1,595,387.3,593,387.3"/>
<path class="st2" d="M614.6,357.6h-4.3c1.7-2.1,4.4-6.5,5.1-9h6.3C620.7,351.2,616.6,355.8,614.6,357.6 M613.6,364.8
	c-3,0-4.8,2-5.3,6.2c3.7,0.3,7,0,9.6-0.6l0.7-1.1C618.5,367.3,617,364.8,613.6,364.8 M624.4,374c-3.6,1.2-8,1.8-16.2,1.5
	c0.6,4.8,3.7,6.7,7.3,6.7c3.1,0,5.7-0.9,8-2.1l0.3,5.3c-2.5,1.2-5.6,1.8-9.2,1.8c-9.1,0-13.4-5.9-13.4-13.5
	c0-7.2,3.9-13.9,12.3-13.9c8.7,0,11.5,6.2,11.5,13.2L624.4,374z"/>
</svg>
